M48
; DRILL file {KiCad 5.1.4-e60b266~84~ubuntu18.04.1} date ven 23 ago 2019 14:23:27 CEST
; FORMAT={-:-/ absolute / inch / decimal}
; #@! TF.CreationDate,2019-08-23T14:23:27+02:00
; #@! TF.GenerationSoftware,Kicad,Pcbnew,5.1.4-e60b266~84~ubuntu18.04.1
; #@! TF.FileFunction,Plated,1,2,PTH
FMAT,2
INCH
T1C0.0157
T2C0.0300
T3C0.0394
%
G90
G05
T1
X2.1063Y-4.563
X2.1063Y-5.1417
X2.2205Y-4.5748
X2.2756Y-3.689
X2.2795Y-4.8701
X2.3504Y-4.6181
X2.3504Y-5.2087
X2.3543Y-4.0236
X2.7835Y-3.9843
X2.8346Y-4.2795
X2.9Y-5.21
X2.9134Y-4.0236
X2.9134Y-4.6142
X3.24Y-5.29
X3.3937Y-3.689
X3.45Y-5.22
X3.4606Y-4.622
X3.4764Y-4.0197
X3.5Y-5.34
X3.8Y-4.7
X4.02Y-4.03
X4.02Y-4.62
X4.02Y-5.21
X4.06Y-4.75
X4.32Y-3.9
X4.32Y-4.5
X4.36Y-5.29
X4.37Y-4.09
T2
X1.9685Y-4.9415
X1.9685Y-5.1384
X1.9685Y-5.3352
X4.4899Y-3.8176
X4.4899Y-4.0145
X4.4899Y-4.2113
X1.9686Y-3.7604
X1.9686Y-3.9573
X1.9686Y-4.1541
X4.4898Y-4.9987
X4.4898Y-5.1956
X4.4898Y-5.3924
T3
X3.0292Y-5.7283
X3.1292Y-5.7283
X3.2292Y-5.7283
X3.2292Y-3.4245
X3.3292Y-3.4245
X3.4292Y-3.4245
T0
M30
