G04 #@! TF.GenerationSoftware,KiCad,Pcbnew,5.1.4-e60b266~84~ubuntu18.04.1*
G04 #@! TF.CreationDate,2019-08-23T14:23:09+02:00*
G04 #@! TF.ProjectId,aab1,61616231-2e6b-4696-9361-645f70636258,rev?*
G04 #@! TF.SameCoordinates,Original*
G04 #@! TF.FileFunction,Soldermask,Bot*
G04 #@! TF.FilePolarity,Negative*
%FSLAX46Y46*%
G04 Gerber Fmt 4.6, Leading zero omitted, Abs format (unit mm)*
G04 Created by KiCad (PCBNEW 5.1.4-e60b266~84~ubuntu18.04.1) date 2019-08-23 14:23:09*
%MOMM*%
%LPD*%
G04 APERTURE LIST*
%ADD10C,0.150000*%
G04 APERTURE END LIST*
D10*
G36*
X59651283Y-145347232D02*
G01*
X59842552Y-145426458D01*
X59842554Y-145426459D01*
X60014692Y-145541478D01*
X60161084Y-145687870D01*
X60267055Y-145846466D01*
X60276104Y-145860010D01*
X60355330Y-146051279D01*
X60395719Y-146254327D01*
X60395719Y-146461359D01*
X60355330Y-146664407D01*
X60276104Y-146855676D01*
X60276103Y-146855678D01*
X60161084Y-147027816D01*
X60014692Y-147174208D01*
X59842554Y-147289227D01*
X59842553Y-147289228D01*
X59842552Y-147289228D01*
X59651283Y-147368454D01*
X59448235Y-147408843D01*
X59241203Y-147408843D01*
X59038155Y-147368454D01*
X58846886Y-147289228D01*
X58846885Y-147289228D01*
X58846884Y-147289227D01*
X58674746Y-147174208D01*
X58528354Y-147027816D01*
X58413335Y-146855678D01*
X58413334Y-146855676D01*
X58334108Y-146664407D01*
X58293719Y-146461359D01*
X58293719Y-146254327D01*
X58334108Y-146051279D01*
X58413334Y-145860010D01*
X58422384Y-145846466D01*
X58528354Y-145687870D01*
X58674746Y-145541478D01*
X58846884Y-145426459D01*
X58846886Y-145426458D01*
X59038155Y-145347232D01*
X59241203Y-145306843D01*
X59448235Y-145306843D01*
X59651283Y-145347232D01*
X59651283Y-145347232D01*
G37*
G36*
X82922532Y-146401000D02*
G01*
X81120532Y-146401000D01*
X81120532Y-144599000D01*
X82922532Y-144599000D01*
X82922532Y-146401000D01*
X82922532Y-146401000D01*
G37*
G36*
X77051975Y-144605519D02*
G01*
X77118159Y-144612037D01*
X77287998Y-144663557D01*
X77444523Y-144747222D01*
X77480261Y-144776552D01*
X77581718Y-144859814D01*
X77664980Y-144961271D01*
X77694310Y-144997009D01*
X77777975Y-145153534D01*
X77829495Y-145323373D01*
X77846891Y-145500000D01*
X77829495Y-145676627D01*
X77777975Y-145846466D01*
X77694310Y-146002991D01*
X77664980Y-146038729D01*
X77581718Y-146140186D01*
X77480261Y-146223448D01*
X77444523Y-146252778D01*
X77287998Y-146336443D01*
X77118159Y-146387963D01*
X77051974Y-146394482D01*
X76985792Y-146401000D01*
X76897272Y-146401000D01*
X76831090Y-146394482D01*
X76764905Y-146387963D01*
X76595066Y-146336443D01*
X76438541Y-146252778D01*
X76402803Y-146223448D01*
X76301346Y-146140186D01*
X76218084Y-146038729D01*
X76188754Y-146002991D01*
X76105089Y-145846466D01*
X76053569Y-145676627D01*
X76036173Y-145500000D01*
X76053569Y-145323373D01*
X76105089Y-145153534D01*
X76188754Y-144997009D01*
X76218084Y-144961271D01*
X76301346Y-144859814D01*
X76402803Y-144776552D01*
X76438541Y-144747222D01*
X76595066Y-144663557D01*
X76764905Y-144612037D01*
X76831089Y-144605519D01*
X76897272Y-144599000D01*
X76985792Y-144599000D01*
X77051975Y-144605519D01*
X77051975Y-144605519D01*
G37*
G36*
X79591975Y-144605519D02*
G01*
X79658159Y-144612037D01*
X79827998Y-144663557D01*
X79984523Y-144747222D01*
X80020261Y-144776552D01*
X80121718Y-144859814D01*
X80204980Y-144961271D01*
X80234310Y-144997009D01*
X80317975Y-145153534D01*
X80369495Y-145323373D01*
X80386891Y-145500000D01*
X80369495Y-145676627D01*
X80317975Y-145846466D01*
X80234310Y-146002991D01*
X80204980Y-146038729D01*
X80121718Y-146140186D01*
X80020261Y-146223448D01*
X79984523Y-146252778D01*
X79827998Y-146336443D01*
X79658159Y-146387963D01*
X79591974Y-146394482D01*
X79525792Y-146401000D01*
X79437272Y-146401000D01*
X79371090Y-146394482D01*
X79304905Y-146387963D01*
X79135066Y-146336443D01*
X78978541Y-146252778D01*
X78942803Y-146223448D01*
X78841346Y-146140186D01*
X78758084Y-146038729D01*
X78728754Y-146002991D01*
X78645089Y-145846466D01*
X78593569Y-145676627D01*
X78576173Y-145500000D01*
X78593569Y-145323373D01*
X78645089Y-145153534D01*
X78728754Y-144997009D01*
X78758084Y-144961271D01*
X78841346Y-144859814D01*
X78942803Y-144776552D01*
X78978541Y-144747222D01*
X79135066Y-144663557D01*
X79304905Y-144612037D01*
X79371089Y-144605519D01*
X79437272Y-144599000D01*
X79525792Y-144599000D01*
X79591975Y-144605519D01*
X79591975Y-144605519D01*
G37*
G36*
X50306564Y-141652847D02*
G01*
X50497833Y-141732073D01*
X50497835Y-141732074D01*
X50669973Y-141847093D01*
X50816365Y-141993485D01*
X50931385Y-142165625D01*
X51010611Y-142356894D01*
X51051000Y-142559942D01*
X51051000Y-142766974D01*
X51010611Y-142970022D01*
X50931385Y-143161291D01*
X50931384Y-143161293D01*
X50816365Y-143333431D01*
X50669973Y-143479823D01*
X50497835Y-143594842D01*
X50497834Y-143594843D01*
X50497833Y-143594843D01*
X50306564Y-143674069D01*
X50103516Y-143714458D01*
X49896484Y-143714458D01*
X49693436Y-143674069D01*
X49502167Y-143594843D01*
X49502166Y-143594843D01*
X49502165Y-143594842D01*
X49330027Y-143479823D01*
X49183635Y-143333431D01*
X49068616Y-143161293D01*
X49068615Y-143161291D01*
X48989389Y-142970022D01*
X48949000Y-142766974D01*
X48949000Y-142559942D01*
X48989389Y-142356894D01*
X49068615Y-142165625D01*
X49183635Y-141993485D01*
X49330027Y-141847093D01*
X49502165Y-141732074D01*
X49502167Y-141732073D01*
X49693436Y-141652847D01*
X49896484Y-141612458D01*
X50103516Y-141612458D01*
X50306564Y-141652847D01*
X50306564Y-141652847D01*
G37*
G36*
X114051107Y-135417394D02*
G01*
X114060716Y-135420309D01*
X114069580Y-135425047D01*
X114077345Y-135431420D01*
X114083718Y-135439185D01*
X114088456Y-135448049D01*
X114091371Y-135457658D01*
X114092960Y-135473797D01*
X114092960Y-136049331D01*
X114095362Y-136073717D01*
X114102475Y-136097166D01*
X114114026Y-136118777D01*
X114129571Y-136137719D01*
X114148513Y-136153264D01*
X114170124Y-136164815D01*
X114193573Y-136171928D01*
X114266393Y-136186413D01*
X114287826Y-136192914D01*
X114414479Y-136245376D01*
X114434229Y-136255934D01*
X114548214Y-136332096D01*
X114565523Y-136346300D01*
X114662465Y-136443242D01*
X114676669Y-136460551D01*
X114752831Y-136574536D01*
X114763389Y-136594286D01*
X114815851Y-136720939D01*
X114822352Y-136742372D01*
X114849097Y-136876828D01*
X114851291Y-136899108D01*
X114851291Y-137036206D01*
X114849097Y-137058486D01*
X114822352Y-137192942D01*
X114815851Y-137214375D01*
X114763389Y-137341028D01*
X114752831Y-137360778D01*
X114676669Y-137474763D01*
X114662465Y-137492072D01*
X114565523Y-137589014D01*
X114548214Y-137603218D01*
X114434229Y-137679380D01*
X114414479Y-137689938D01*
X114287826Y-137742400D01*
X114266393Y-137748901D01*
X114193573Y-137763386D01*
X114170124Y-137770499D01*
X114148513Y-137782050D01*
X114129571Y-137797596D01*
X114114026Y-137816537D01*
X114102475Y-137838148D01*
X114095362Y-137861597D01*
X114092960Y-137885983D01*
X114092960Y-138461517D01*
X114091371Y-138477656D01*
X114088456Y-138487265D01*
X114083718Y-138496129D01*
X114077345Y-138503894D01*
X114069580Y-138510267D01*
X114060716Y-138515005D01*
X114051107Y-138517920D01*
X114034968Y-138519509D01*
X113047248Y-138519509D01*
X113018858Y-138516713D01*
X113018749Y-138517819D01*
X113006006Y-138515929D01*
X112970978Y-138515929D01*
X112959806Y-138515383D01*
X112817193Y-138501399D01*
X112817144Y-138501895D01*
X112816777Y-138501830D01*
X112816826Y-138501361D01*
X112809675Y-138500610D01*
X112797844Y-138498736D01*
X112735749Y-138485538D01*
X112734040Y-138485188D01*
X112671587Y-138472822D01*
X112660756Y-138470122D01*
X112523672Y-138428735D01*
X112523091Y-138428557D01*
X112516321Y-138426461D01*
X112505087Y-138422328D01*
X112446726Y-138397315D01*
X112445119Y-138396639D01*
X112386267Y-138372382D01*
X112376155Y-138367623D01*
X112249985Y-138300537D01*
X112249005Y-138300012D01*
X112242956Y-138296741D01*
X112232759Y-138290517D01*
X112180370Y-138254645D01*
X112178922Y-138253668D01*
X112125877Y-138218425D01*
X112116913Y-138211817D01*
X112005981Y-138121342D01*
X112005467Y-138120919D01*
X112000006Y-138116402D01*
X111991198Y-138108303D01*
X111946812Y-138062977D01*
X111945582Y-138061738D01*
X111900389Y-138016860D01*
X111892843Y-138008595D01*
X111801595Y-137898295D01*
X111801105Y-137897699D01*
X111796714Y-137892314D01*
X111789640Y-137882649D01*
X111754875Y-137829524D01*
X111753910Y-137828071D01*
X111718315Y-137775298D01*
X111712525Y-137765739D01*
X111644528Y-137639980D01*
X111644004Y-137639002D01*
X111640816Y-137633006D01*
X111635755Y-137622152D01*
X111611965Y-137563269D01*
X111611299Y-137561653D01*
X111586633Y-137502976D01*
X111582816Y-137492489D01*
X111540491Y-137355759D01*
X111540254Y-137354983D01*
X111538247Y-137348338D01*
X111535394Y-137336721D01*
X111523484Y-137274285D01*
X111523145Y-137272570D01*
X111510356Y-137210273D01*
X111508648Y-137199242D01*
X111493667Y-137056713D01*
X111493607Y-137056123D01*
X111492928Y-137049191D01*
X111492385Y-137037241D01*
X111492827Y-136973730D01*
X111492827Y-136971989D01*
X111492383Y-136908329D01*
X111492851Y-136897169D01*
X111505805Y-136754841D01*
X111505921Y-136753610D01*
X111506578Y-136746917D01*
X111508366Y-136735095D01*
X111521133Y-136672896D01*
X111521472Y-136671185D01*
X111533401Y-136608650D01*
X111536028Y-136597791D01*
X111574318Y-136467693D01*
X111576615Y-136462031D01*
X111577072Y-136460480D01*
X111577201Y-136460518D01*
X111577304Y-136460171D01*
X111577176Y-136460132D01*
X111577713Y-136458352D01*
X111578794Y-136452739D01*
X111582723Y-136441824D01*
X111607355Y-136383226D01*
X111608018Y-136381616D01*
X111631848Y-136322639D01*
X111636539Y-136312486D01*
X111702708Y-136185916D01*
X111703279Y-136184834D01*
X111706476Y-136178821D01*
X111712645Y-136168553D01*
X111748162Y-136115897D01*
X111749128Y-136114442D01*
X111783967Y-136061201D01*
X111790532Y-136052165D01*
X111880212Y-135940623D01*
X111880680Y-135940045D01*
X111885111Y-135934612D01*
X111893154Y-135925744D01*
X111938167Y-135881043D01*
X111939396Y-135879805D01*
X111983971Y-135834286D01*
X111992174Y-135826691D01*
X112101752Y-135734745D01*
X112102426Y-135734183D01*
X112107798Y-135729739D01*
X112117401Y-135722607D01*
X112170346Y-135687430D01*
X112171792Y-135686455D01*
X112224253Y-135650534D01*
X112233770Y-135644679D01*
X112359264Y-135575688D01*
X112359748Y-135575424D01*
X112366011Y-135572038D01*
X112376812Y-135566909D01*
X112435522Y-135542710D01*
X112437130Y-135542034D01*
X112495638Y-135516957D01*
X112506107Y-135513064D01*
X112642719Y-135469728D01*
X112643135Y-135469598D01*
X112649940Y-135467491D01*
X112661549Y-135464553D01*
X112723831Y-135452221D01*
X112725541Y-135451870D01*
X112787804Y-135438636D01*
X112798822Y-135436851D01*
X112941022Y-135420901D01*
X112941814Y-135420815D01*
X112948769Y-135420084D01*
X112960728Y-135419457D01*
X112982260Y-135419457D01*
X112995325Y-135418772D01*
X113016944Y-135416500D01*
X113028105Y-135415876D01*
X113035386Y-135415825D01*
X113035978Y-135415823D01*
X113040925Y-135415823D01*
X113041292Y-135415805D01*
X114034968Y-135415805D01*
X114051107Y-135417394D01*
X114051107Y-135417394D01*
G37*
G36*
X51022250Y-133965516D02*
G01*
X51022359Y-133964410D01*
X51035102Y-133966300D01*
X51070130Y-133966300D01*
X51081302Y-133966846D01*
X51223915Y-133980830D01*
X51223964Y-133980334D01*
X51224331Y-133980399D01*
X51224282Y-133980868D01*
X51231433Y-133981619D01*
X51243264Y-133983493D01*
X51305359Y-133996691D01*
X51307068Y-133997041D01*
X51369521Y-134009407D01*
X51380352Y-134012107D01*
X51517436Y-134053494D01*
X51518017Y-134053672D01*
X51524787Y-134055768D01*
X51536021Y-134059901D01*
X51594382Y-134084914D01*
X51595989Y-134085590D01*
X51654841Y-134109847D01*
X51664953Y-134114606D01*
X51791101Y-134181680D01*
X51792103Y-134182217D01*
X51798152Y-134185488D01*
X51808349Y-134191712D01*
X51860738Y-134227584D01*
X51862186Y-134228561D01*
X51915231Y-134263804D01*
X51924195Y-134270412D01*
X52035127Y-134360887D01*
X52035641Y-134361310D01*
X52041102Y-134365827D01*
X52049910Y-134373926D01*
X52094296Y-134419252D01*
X52095526Y-134420491D01*
X52140719Y-134465369D01*
X52148265Y-134473634D01*
X52239513Y-134583934D01*
X52240003Y-134584530D01*
X52244394Y-134589915D01*
X52251468Y-134599580D01*
X52286233Y-134652705D01*
X52287198Y-134654158D01*
X52322793Y-134706931D01*
X52328583Y-134716490D01*
X52396580Y-134842249D01*
X52397104Y-134843227D01*
X52400292Y-134849223D01*
X52405353Y-134860077D01*
X52429143Y-134918960D01*
X52429809Y-134920576D01*
X52454475Y-134979253D01*
X52458292Y-134989740D01*
X52500617Y-135126470D01*
X52500854Y-135127246D01*
X52502861Y-135133891D01*
X52505714Y-135145508D01*
X52517624Y-135207944D01*
X52517963Y-135209659D01*
X52530752Y-135271956D01*
X52532460Y-135282987D01*
X52547441Y-135425516D01*
X52547501Y-135426106D01*
X52548180Y-135433038D01*
X52548723Y-135444988D01*
X52548281Y-135508498D01*
X52548281Y-135510239D01*
X52548725Y-135573900D01*
X52548257Y-135585060D01*
X52535303Y-135727388D01*
X52535194Y-135728545D01*
X52534530Y-135735312D01*
X52532742Y-135747134D01*
X52519975Y-135809333D01*
X52519636Y-135811044D01*
X52507707Y-135873579D01*
X52505080Y-135884438D01*
X52466790Y-136014536D01*
X52464493Y-136020198D01*
X52464036Y-136021749D01*
X52463907Y-136021711D01*
X52463804Y-136022058D01*
X52463932Y-136022097D01*
X52463395Y-136023877D01*
X52462314Y-136029490D01*
X52458385Y-136040405D01*
X52433753Y-136099003D01*
X52433090Y-136100613D01*
X52409260Y-136159590D01*
X52404569Y-136169743D01*
X52338400Y-136296313D01*
X52337851Y-136297354D01*
X52334632Y-136303408D01*
X52328463Y-136313676D01*
X52292946Y-136366332D01*
X52291980Y-136367787D01*
X52257141Y-136421028D01*
X52250576Y-136430064D01*
X52160896Y-136541606D01*
X52160428Y-136542184D01*
X52155997Y-136547617D01*
X52147954Y-136556485D01*
X52102941Y-136601186D01*
X52101712Y-136602424D01*
X52057137Y-136647943D01*
X52048934Y-136655538D01*
X51939356Y-136747484D01*
X51938682Y-136748046D01*
X51933310Y-136752490D01*
X51923707Y-136759622D01*
X51870762Y-136794799D01*
X51869316Y-136795774D01*
X51816855Y-136831695D01*
X51807338Y-136837550D01*
X51681844Y-136906541D01*
X51681360Y-136906805D01*
X51675097Y-136910191D01*
X51664296Y-136915320D01*
X51605586Y-136939519D01*
X51603978Y-136940195D01*
X51545470Y-136965272D01*
X51535001Y-136969165D01*
X51398418Y-137012492D01*
X51397973Y-137012631D01*
X51391168Y-137014738D01*
X51379559Y-137017676D01*
X51317277Y-137030008D01*
X51315567Y-137030359D01*
X51253304Y-137043593D01*
X51242286Y-137045378D01*
X51100086Y-137061328D01*
X51099294Y-137061414D01*
X51092339Y-137062145D01*
X51080380Y-137062772D01*
X51058848Y-137062772D01*
X51045783Y-137063457D01*
X51024164Y-137065729D01*
X51013003Y-137066353D01*
X51005722Y-137066404D01*
X51005130Y-137066406D01*
X51000183Y-137066406D01*
X50999816Y-137066424D01*
X50006140Y-137066424D01*
X49990001Y-137064835D01*
X49980392Y-137061920D01*
X49971528Y-137057182D01*
X49963763Y-137050809D01*
X49957390Y-137043044D01*
X49952652Y-137034180D01*
X49949737Y-137024571D01*
X49948148Y-137008432D01*
X49948148Y-136432898D01*
X49945746Y-136408512D01*
X49938633Y-136385063D01*
X49927082Y-136363452D01*
X49911537Y-136344510D01*
X49892595Y-136328965D01*
X49870984Y-136317414D01*
X49847535Y-136310301D01*
X49774715Y-136295816D01*
X49753282Y-136289315D01*
X49626629Y-136236853D01*
X49606879Y-136226295D01*
X49492894Y-136150133D01*
X49475585Y-136135929D01*
X49378643Y-136038987D01*
X49364439Y-136021678D01*
X49288277Y-135907693D01*
X49277719Y-135887943D01*
X49225257Y-135761290D01*
X49218756Y-135739857D01*
X49192011Y-135605401D01*
X49189817Y-135583121D01*
X49189817Y-135446023D01*
X49192011Y-135423743D01*
X49218756Y-135289287D01*
X49225257Y-135267854D01*
X49277719Y-135141201D01*
X49288277Y-135121451D01*
X49364439Y-135007466D01*
X49378643Y-134990157D01*
X49475585Y-134893215D01*
X49492894Y-134879011D01*
X49606879Y-134802849D01*
X49626629Y-134792291D01*
X49753282Y-134739829D01*
X49774715Y-134733328D01*
X49847535Y-134718843D01*
X49870984Y-134711730D01*
X49892595Y-134700179D01*
X49911537Y-134684633D01*
X49927082Y-134665692D01*
X49938633Y-134644081D01*
X49945746Y-134620632D01*
X49948148Y-134596246D01*
X49948148Y-134020712D01*
X49949737Y-134004573D01*
X49952652Y-133994964D01*
X49957390Y-133986100D01*
X49963763Y-133978335D01*
X49971528Y-133971962D01*
X49980392Y-133967224D01*
X49990001Y-133964309D01*
X50006140Y-133962720D01*
X50993860Y-133962720D01*
X51022250Y-133965516D01*
X51022250Y-133965516D01*
G37*
G36*
X73440061Y-131377070D02*
G01*
X73475365Y-131386315D01*
X73508183Y-131402268D01*
X73542179Y-131428049D01*
X74617969Y-132424242D01*
X74646287Y-132456166D01*
X74664713Y-132487666D01*
X74676638Y-132522152D01*
X74681606Y-132558301D01*
X74679426Y-132594730D01*
X74670180Y-132630035D01*
X74654227Y-132662853D01*
X74628450Y-132696844D01*
X73853067Y-133534181D01*
X73821148Y-133562494D01*
X73789648Y-133580920D01*
X73755162Y-133592845D01*
X73719013Y-133597813D01*
X73682583Y-133595632D01*
X73647279Y-133586387D01*
X73614461Y-133570434D01*
X73580465Y-133544653D01*
X72504675Y-132548460D01*
X72476357Y-132516536D01*
X72457931Y-132485036D01*
X72446006Y-132450550D01*
X72441038Y-132414401D01*
X72443218Y-132377972D01*
X72452464Y-132342667D01*
X72468417Y-132309849D01*
X72494194Y-132275858D01*
X73269577Y-131438521D01*
X73301496Y-131410208D01*
X73332996Y-131391782D01*
X73367482Y-131379857D01*
X73403631Y-131374889D01*
X73440061Y-131377070D01*
X73440061Y-131377070D01*
G37*
G36*
X87704813Y-131329058D02*
G01*
X87740033Y-131338610D01*
X87772708Y-131354848D01*
X87806477Y-131380925D01*
X87861056Y-131432358D01*
X87861059Y-131432360D01*
X88674441Y-132198852D01*
X88873550Y-132386483D01*
X88901574Y-132418635D01*
X88919725Y-132450297D01*
X88931348Y-132484884D01*
X88936001Y-132521079D01*
X88933503Y-132557487D01*
X88923950Y-132592708D01*
X88907713Y-132625383D01*
X88881636Y-132659152D01*
X88830207Y-132713727D01*
X88830201Y-132713735D01*
X88150411Y-133435110D01*
X88150406Y-133435114D01*
X88098968Y-133489699D01*
X88066816Y-133517723D01*
X88035154Y-133535874D01*
X88000567Y-133547497D01*
X87964372Y-133552150D01*
X87927963Y-133549652D01*
X87892743Y-133540100D01*
X87860068Y-133523862D01*
X87826299Y-133497785D01*
X87759790Y-133435110D01*
X86813815Y-132543669D01*
X86759226Y-132492227D01*
X86731202Y-132460075D01*
X86713051Y-132428413D01*
X86701428Y-132393826D01*
X86696775Y-132357631D01*
X86699273Y-132321223D01*
X86708826Y-132286002D01*
X86725063Y-132253327D01*
X86751140Y-132219558D01*
X86802569Y-132164983D01*
X86802575Y-132164975D01*
X87482365Y-131443600D01*
X87482370Y-131443596D01*
X87533808Y-131389011D01*
X87565960Y-131360987D01*
X87597622Y-131342836D01*
X87632209Y-131331213D01*
X87668404Y-131326560D01*
X87704813Y-131329058D01*
X87704813Y-131329058D01*
G37*
G36*
X114051107Y-130417394D02*
G01*
X114060716Y-130420309D01*
X114069580Y-130425047D01*
X114077345Y-130431420D01*
X114083718Y-130439185D01*
X114088456Y-130448049D01*
X114091371Y-130457658D01*
X114092960Y-130473797D01*
X114092960Y-131049331D01*
X114095362Y-131073717D01*
X114102475Y-131097166D01*
X114114026Y-131118777D01*
X114129571Y-131137719D01*
X114148513Y-131153264D01*
X114170124Y-131164815D01*
X114193573Y-131171928D01*
X114266393Y-131186413D01*
X114287826Y-131192914D01*
X114414479Y-131245376D01*
X114434229Y-131255934D01*
X114548214Y-131332096D01*
X114565523Y-131346300D01*
X114662465Y-131443242D01*
X114676669Y-131460551D01*
X114752831Y-131574536D01*
X114763389Y-131594286D01*
X114815851Y-131720939D01*
X114822352Y-131742372D01*
X114849097Y-131876828D01*
X114851291Y-131899108D01*
X114851291Y-132036206D01*
X114849097Y-132058486D01*
X114822352Y-132192942D01*
X114815851Y-132214375D01*
X114763389Y-132341028D01*
X114752831Y-132360778D01*
X114676669Y-132474763D01*
X114662465Y-132492072D01*
X114565523Y-132589014D01*
X114548214Y-132603218D01*
X114434229Y-132679380D01*
X114414479Y-132689938D01*
X114287826Y-132742400D01*
X114266393Y-132748901D01*
X114193573Y-132763386D01*
X114170124Y-132770499D01*
X114148513Y-132782050D01*
X114129571Y-132797596D01*
X114114026Y-132816537D01*
X114102475Y-132838148D01*
X114095362Y-132861597D01*
X114092960Y-132885983D01*
X114092960Y-133461517D01*
X114091371Y-133477656D01*
X114088456Y-133487265D01*
X114083718Y-133496129D01*
X114077345Y-133503894D01*
X114069580Y-133510267D01*
X114060716Y-133515005D01*
X114051107Y-133517920D01*
X114034968Y-133519509D01*
X113047248Y-133519509D01*
X113018858Y-133516713D01*
X113018749Y-133517819D01*
X113006006Y-133515929D01*
X112970978Y-133515929D01*
X112959806Y-133515383D01*
X112817193Y-133501399D01*
X112817144Y-133501895D01*
X112816777Y-133501830D01*
X112816826Y-133501361D01*
X112809675Y-133500610D01*
X112797844Y-133498736D01*
X112735749Y-133485538D01*
X112734040Y-133485188D01*
X112671587Y-133472822D01*
X112660756Y-133470122D01*
X112523672Y-133428735D01*
X112523091Y-133428557D01*
X112516321Y-133426461D01*
X112505087Y-133422328D01*
X112446726Y-133397315D01*
X112445119Y-133396639D01*
X112386267Y-133372382D01*
X112376155Y-133367623D01*
X112249985Y-133300537D01*
X112249005Y-133300012D01*
X112242956Y-133296741D01*
X112232759Y-133290517D01*
X112180370Y-133254645D01*
X112178922Y-133253668D01*
X112125877Y-133218425D01*
X112116913Y-133211817D01*
X112005981Y-133121342D01*
X112005467Y-133120919D01*
X112000006Y-133116402D01*
X111991198Y-133108303D01*
X111946812Y-133062977D01*
X111945582Y-133061738D01*
X111900389Y-133016860D01*
X111892843Y-133008595D01*
X111801595Y-132898295D01*
X111801105Y-132897699D01*
X111796714Y-132892314D01*
X111789640Y-132882649D01*
X111754875Y-132829524D01*
X111753910Y-132828071D01*
X111718315Y-132775298D01*
X111712525Y-132765739D01*
X111644528Y-132639980D01*
X111644004Y-132639002D01*
X111640816Y-132633006D01*
X111635755Y-132622152D01*
X111611965Y-132563269D01*
X111611299Y-132561653D01*
X111586633Y-132502976D01*
X111582816Y-132492489D01*
X111540491Y-132355759D01*
X111540254Y-132354983D01*
X111538247Y-132348338D01*
X111535394Y-132336721D01*
X111523484Y-132274285D01*
X111523145Y-132272570D01*
X111510356Y-132210273D01*
X111508648Y-132199242D01*
X111493667Y-132056713D01*
X111493607Y-132056123D01*
X111492928Y-132049191D01*
X111492385Y-132037241D01*
X111492827Y-131973730D01*
X111492827Y-131971989D01*
X111492383Y-131908329D01*
X111492851Y-131897169D01*
X111505805Y-131754841D01*
X111505921Y-131753610D01*
X111506578Y-131746917D01*
X111508366Y-131735095D01*
X111521133Y-131672896D01*
X111521472Y-131671185D01*
X111533401Y-131608650D01*
X111536028Y-131597791D01*
X111574318Y-131467693D01*
X111576615Y-131462031D01*
X111577072Y-131460480D01*
X111577201Y-131460518D01*
X111577304Y-131460171D01*
X111577176Y-131460132D01*
X111577713Y-131458352D01*
X111578794Y-131452739D01*
X111582723Y-131441824D01*
X111607355Y-131383226D01*
X111608018Y-131381616D01*
X111631848Y-131322639D01*
X111636539Y-131312486D01*
X111702708Y-131185916D01*
X111703279Y-131184834D01*
X111706476Y-131178821D01*
X111712645Y-131168553D01*
X111748162Y-131115897D01*
X111749128Y-131114442D01*
X111783967Y-131061201D01*
X111790532Y-131052165D01*
X111880212Y-130940623D01*
X111880680Y-130940045D01*
X111885111Y-130934612D01*
X111893154Y-130925744D01*
X111938167Y-130881043D01*
X111939396Y-130879805D01*
X111983971Y-130834286D01*
X111992174Y-130826691D01*
X112101752Y-130734745D01*
X112102426Y-130734183D01*
X112107798Y-130729739D01*
X112117401Y-130722607D01*
X112170346Y-130687430D01*
X112171792Y-130686455D01*
X112224253Y-130650534D01*
X112233770Y-130644679D01*
X112359264Y-130575688D01*
X112359748Y-130575424D01*
X112366011Y-130572038D01*
X112376812Y-130566909D01*
X112435522Y-130542710D01*
X112437130Y-130542034D01*
X112495638Y-130516957D01*
X112506107Y-130513064D01*
X112642719Y-130469728D01*
X112643135Y-130469598D01*
X112649940Y-130467491D01*
X112661549Y-130464553D01*
X112723831Y-130452221D01*
X112725541Y-130451870D01*
X112787804Y-130438636D01*
X112798822Y-130436851D01*
X112941022Y-130420901D01*
X112941814Y-130420815D01*
X112948769Y-130420084D01*
X112960728Y-130419457D01*
X112982260Y-130419457D01*
X112995325Y-130418772D01*
X113016944Y-130416500D01*
X113028105Y-130415876D01*
X113035386Y-130415825D01*
X113035978Y-130415823D01*
X113040925Y-130415823D01*
X113041292Y-130415805D01*
X114034968Y-130415805D01*
X114051107Y-130417394D01*
X114051107Y-130417394D01*
G37*
G36*
X101965465Y-131284235D02*
G01*
X102000586Y-131294156D01*
X102033091Y-131310737D01*
X102066584Y-131337163D01*
X102175343Y-131441824D01*
X103069022Y-132301830D01*
X103069027Y-132301836D01*
X103123060Y-132353833D01*
X103150755Y-132386288D01*
X103168573Y-132418137D01*
X103179834Y-132452846D01*
X103184107Y-132489088D01*
X103181228Y-132525462D01*
X103171307Y-132560583D01*
X103154726Y-132593088D01*
X103128300Y-132626581D01*
X102336986Y-133448877D01*
X102304531Y-133476572D01*
X102272682Y-133494390D01*
X102237973Y-133505651D01*
X102201731Y-133509924D01*
X102165357Y-133507045D01*
X102130236Y-133497124D01*
X102097731Y-133480543D01*
X102064238Y-133454117D01*
X101713300Y-133116402D01*
X101061800Y-132489450D01*
X101061795Y-132489444D01*
X101007762Y-132437447D01*
X100980067Y-132404992D01*
X100962249Y-132373143D01*
X100950988Y-132338434D01*
X100946715Y-132302192D01*
X100949594Y-132265818D01*
X100959515Y-132230697D01*
X100976096Y-132198192D01*
X101002522Y-132164699D01*
X101793836Y-131342403D01*
X101826291Y-131314708D01*
X101858140Y-131296890D01*
X101892849Y-131285629D01*
X101929091Y-131281356D01*
X101965465Y-131284235D01*
X101965465Y-131284235D01*
G37*
G36*
X57473767Y-130888190D02*
G01*
X55987429Y-132374528D01*
X55208197Y-131595296D01*
X56694535Y-130108958D01*
X57473767Y-130888190D01*
X57473767Y-130888190D01*
G37*
G36*
X51022250Y-128965516D02*
G01*
X51022359Y-128964410D01*
X51035102Y-128966300D01*
X51070130Y-128966300D01*
X51081302Y-128966846D01*
X51223915Y-128980830D01*
X51223964Y-128980334D01*
X51224331Y-128980399D01*
X51224282Y-128980868D01*
X51231433Y-128981619D01*
X51243264Y-128983493D01*
X51305359Y-128996691D01*
X51307068Y-128997041D01*
X51369521Y-129009407D01*
X51380352Y-129012107D01*
X51517436Y-129053494D01*
X51518017Y-129053672D01*
X51524787Y-129055768D01*
X51536021Y-129059901D01*
X51594382Y-129084914D01*
X51595989Y-129085590D01*
X51654841Y-129109847D01*
X51664953Y-129114606D01*
X51791101Y-129181680D01*
X51792103Y-129182217D01*
X51798152Y-129185488D01*
X51808349Y-129191712D01*
X51860738Y-129227584D01*
X51862186Y-129228561D01*
X51915231Y-129263804D01*
X51924195Y-129270412D01*
X52035127Y-129360887D01*
X52035641Y-129361310D01*
X52041102Y-129365827D01*
X52049910Y-129373926D01*
X52094296Y-129419252D01*
X52095526Y-129420491D01*
X52140719Y-129465369D01*
X52148265Y-129473634D01*
X52239513Y-129583934D01*
X52240003Y-129584530D01*
X52244394Y-129589915D01*
X52251468Y-129599580D01*
X52286233Y-129652705D01*
X52287198Y-129654158D01*
X52322793Y-129706931D01*
X52328583Y-129716490D01*
X52396580Y-129842249D01*
X52397104Y-129843227D01*
X52400292Y-129849223D01*
X52405353Y-129860077D01*
X52429143Y-129918960D01*
X52429809Y-129920576D01*
X52454475Y-129979253D01*
X52458292Y-129989740D01*
X52500617Y-130126470D01*
X52500854Y-130127246D01*
X52502861Y-130133891D01*
X52505714Y-130145508D01*
X52517624Y-130207944D01*
X52517963Y-130209659D01*
X52530752Y-130271956D01*
X52532460Y-130282987D01*
X52547441Y-130425516D01*
X52547501Y-130426106D01*
X52548180Y-130433038D01*
X52548723Y-130444988D01*
X52548281Y-130508498D01*
X52548281Y-130510239D01*
X52548725Y-130573900D01*
X52548257Y-130585060D01*
X52535303Y-130727388D01*
X52535194Y-130728545D01*
X52534530Y-130735312D01*
X52532742Y-130747134D01*
X52519975Y-130809333D01*
X52519636Y-130811044D01*
X52507707Y-130873579D01*
X52505080Y-130884438D01*
X52466790Y-131014536D01*
X52464493Y-131020198D01*
X52464036Y-131021749D01*
X52463907Y-131021711D01*
X52463804Y-131022058D01*
X52463932Y-131022097D01*
X52463395Y-131023877D01*
X52462314Y-131029490D01*
X52458385Y-131040405D01*
X52433753Y-131099003D01*
X52433090Y-131100613D01*
X52409260Y-131159590D01*
X52404569Y-131169743D01*
X52338400Y-131296313D01*
X52337851Y-131297354D01*
X52334632Y-131303408D01*
X52328463Y-131313676D01*
X52292946Y-131366332D01*
X52291980Y-131367787D01*
X52257141Y-131421028D01*
X52250576Y-131430064D01*
X52160896Y-131541606D01*
X52160428Y-131542184D01*
X52155997Y-131547617D01*
X52147954Y-131556485D01*
X52102941Y-131601186D01*
X52101712Y-131602424D01*
X52057137Y-131647943D01*
X52048934Y-131655538D01*
X51939356Y-131747484D01*
X51938682Y-131748046D01*
X51933310Y-131752490D01*
X51923707Y-131759622D01*
X51870762Y-131794799D01*
X51869316Y-131795774D01*
X51816855Y-131831695D01*
X51807338Y-131837550D01*
X51681844Y-131906541D01*
X51681360Y-131906805D01*
X51675097Y-131910191D01*
X51664296Y-131915320D01*
X51605586Y-131939519D01*
X51603978Y-131940195D01*
X51545470Y-131965272D01*
X51535001Y-131969165D01*
X51398418Y-132012492D01*
X51397973Y-132012631D01*
X51391168Y-132014738D01*
X51379559Y-132017676D01*
X51317277Y-132030008D01*
X51315567Y-132030359D01*
X51253304Y-132043593D01*
X51242286Y-132045378D01*
X51100086Y-132061328D01*
X51099294Y-132061414D01*
X51092339Y-132062145D01*
X51080380Y-132062772D01*
X51058848Y-132062772D01*
X51045783Y-132063457D01*
X51024164Y-132065729D01*
X51013003Y-132066353D01*
X51005722Y-132066404D01*
X51005130Y-132066406D01*
X51000183Y-132066406D01*
X50999816Y-132066424D01*
X50006140Y-132066424D01*
X49990001Y-132064835D01*
X49980392Y-132061920D01*
X49971528Y-132057182D01*
X49963763Y-132050809D01*
X49957390Y-132043044D01*
X49952652Y-132034180D01*
X49949737Y-132024571D01*
X49948148Y-132008432D01*
X49948148Y-131432898D01*
X49945746Y-131408512D01*
X49938633Y-131385063D01*
X49927082Y-131363452D01*
X49911537Y-131344510D01*
X49892595Y-131328965D01*
X49870984Y-131317414D01*
X49847535Y-131310301D01*
X49774715Y-131295816D01*
X49753282Y-131289315D01*
X49626629Y-131236853D01*
X49606879Y-131226295D01*
X49492894Y-131150133D01*
X49475585Y-131135929D01*
X49378643Y-131038987D01*
X49364439Y-131021678D01*
X49288277Y-130907693D01*
X49277719Y-130887943D01*
X49225257Y-130761290D01*
X49218756Y-130739857D01*
X49192011Y-130605401D01*
X49189817Y-130583121D01*
X49189817Y-130446023D01*
X49192011Y-130423743D01*
X49218756Y-130289287D01*
X49225257Y-130267854D01*
X49277719Y-130141201D01*
X49288277Y-130121451D01*
X49364439Y-130007466D01*
X49378643Y-129990157D01*
X49475585Y-129893215D01*
X49492894Y-129879011D01*
X49606879Y-129802849D01*
X49626629Y-129792291D01*
X49753282Y-129739829D01*
X49774715Y-129733328D01*
X49847535Y-129718843D01*
X49870984Y-129711730D01*
X49892595Y-129700179D01*
X49911537Y-129684633D01*
X49927082Y-129665692D01*
X49938633Y-129644081D01*
X49945746Y-129620632D01*
X49948148Y-129596246D01*
X49948148Y-129020712D01*
X49949737Y-129004573D01*
X49952652Y-128994964D01*
X49957390Y-128986100D01*
X49963763Y-128978335D01*
X49971528Y-128971962D01*
X49980392Y-128967224D01*
X49990001Y-128964309D01*
X50006140Y-128962720D01*
X50993860Y-128962720D01*
X51022250Y-128965516D01*
X51022250Y-128965516D01*
G37*
G36*
X75461399Y-129194224D02*
G01*
X75496703Y-129203469D01*
X75529521Y-129219422D01*
X75563517Y-129245203D01*
X76639307Y-130241396D01*
X76667625Y-130273320D01*
X76686051Y-130304820D01*
X76697976Y-130339306D01*
X76702944Y-130375455D01*
X76700764Y-130411884D01*
X76691518Y-130447189D01*
X76675565Y-130480007D01*
X76649788Y-130513998D01*
X75874405Y-131351335D01*
X75842486Y-131379648D01*
X75810986Y-131398074D01*
X75776500Y-131409999D01*
X75740351Y-131414967D01*
X75703921Y-131412786D01*
X75668617Y-131403541D01*
X75635799Y-131387588D01*
X75601803Y-131361807D01*
X74526013Y-130365614D01*
X74497695Y-130333690D01*
X74479269Y-130302190D01*
X74467344Y-130267704D01*
X74462376Y-130231555D01*
X74464556Y-130195126D01*
X74473802Y-130159821D01*
X74489755Y-130127003D01*
X74515532Y-130093012D01*
X75290915Y-129255675D01*
X75322834Y-129227362D01*
X75354334Y-129208936D01*
X75388820Y-129197011D01*
X75424969Y-129192043D01*
X75461399Y-129194224D01*
X75461399Y-129194224D01*
G37*
G36*
X89745123Y-129163934D02*
G01*
X89780343Y-129173486D01*
X89813018Y-129189724D01*
X89846787Y-129215801D01*
X89901366Y-129267234D01*
X89901369Y-129267236D01*
X90561488Y-129889301D01*
X90913860Y-130221359D01*
X90941884Y-130253511D01*
X90960035Y-130285173D01*
X90971658Y-130319760D01*
X90976311Y-130355955D01*
X90973813Y-130392363D01*
X90964260Y-130427584D01*
X90948023Y-130460259D01*
X90921946Y-130494028D01*
X90870517Y-130548603D01*
X90870511Y-130548611D01*
X90190721Y-131269986D01*
X90190716Y-131269990D01*
X90139278Y-131324575D01*
X90107126Y-131352599D01*
X90075464Y-131370750D01*
X90040877Y-131382373D01*
X90004682Y-131387026D01*
X89968273Y-131384528D01*
X89933053Y-131374976D01*
X89900378Y-131358738D01*
X89866609Y-131332661D01*
X89800100Y-131269986D01*
X88854125Y-130378545D01*
X88799536Y-130327103D01*
X88771512Y-130294951D01*
X88753361Y-130263289D01*
X88741738Y-130228702D01*
X88737085Y-130192507D01*
X88739583Y-130156099D01*
X88749136Y-130120878D01*
X88765373Y-130088203D01*
X88791450Y-130054434D01*
X88842879Y-129999859D01*
X88842885Y-129999851D01*
X89522675Y-129278476D01*
X89522680Y-129278472D01*
X89574118Y-129223887D01*
X89606270Y-129195863D01*
X89637932Y-129177712D01*
X89672519Y-129166089D01*
X89708714Y-129161436D01*
X89745123Y-129163934D01*
X89745123Y-129163934D01*
G37*
G36*
X104028335Y-129140595D02*
G01*
X104063456Y-129150516D01*
X104095961Y-129167097D01*
X104129454Y-129193523D01*
X104251221Y-129310702D01*
X105131892Y-130158190D01*
X105131897Y-130158196D01*
X105185930Y-130210193D01*
X105213625Y-130242648D01*
X105231443Y-130274497D01*
X105242704Y-130309206D01*
X105246977Y-130345448D01*
X105244098Y-130381822D01*
X105234177Y-130416943D01*
X105217596Y-130449448D01*
X105191170Y-130482941D01*
X104399856Y-131305237D01*
X104367401Y-131332932D01*
X104335552Y-131350750D01*
X104300843Y-131362011D01*
X104264601Y-131366284D01*
X104228227Y-131363405D01*
X104193106Y-131353484D01*
X104160601Y-131336903D01*
X104127108Y-131310477D01*
X103843095Y-131037165D01*
X103124670Y-130345810D01*
X103124665Y-130345804D01*
X103070632Y-130293807D01*
X103042937Y-130261352D01*
X103025119Y-130229503D01*
X103013858Y-130194794D01*
X103009585Y-130158552D01*
X103012464Y-130122178D01*
X103022385Y-130087057D01*
X103038966Y-130054552D01*
X103065392Y-130021059D01*
X103856706Y-129198763D01*
X103889161Y-129171068D01*
X103921010Y-129153250D01*
X103955719Y-129141989D01*
X103991961Y-129137716D01*
X104028335Y-129140595D01*
X104028335Y-129140595D01*
G37*
G36*
X54503918Y-127918341D02*
G01*
X53017580Y-129404679D01*
X52238348Y-128625447D01*
X53724686Y-127139109D01*
X54503918Y-127918341D01*
X54503918Y-127918341D01*
G37*
G36*
X114051107Y-125417394D02*
G01*
X114060716Y-125420309D01*
X114069580Y-125425047D01*
X114077345Y-125431420D01*
X114083718Y-125439185D01*
X114088456Y-125448049D01*
X114091371Y-125457658D01*
X114092960Y-125473797D01*
X114092960Y-126049331D01*
X114095362Y-126073717D01*
X114102475Y-126097166D01*
X114114026Y-126118777D01*
X114129571Y-126137719D01*
X114148513Y-126153264D01*
X114170124Y-126164815D01*
X114193573Y-126171928D01*
X114266393Y-126186413D01*
X114287826Y-126192914D01*
X114414479Y-126245376D01*
X114434229Y-126255934D01*
X114548214Y-126332096D01*
X114565523Y-126346300D01*
X114662465Y-126443242D01*
X114676669Y-126460551D01*
X114752831Y-126574536D01*
X114763389Y-126594286D01*
X114815851Y-126720939D01*
X114822352Y-126742372D01*
X114849097Y-126876828D01*
X114851291Y-126899108D01*
X114851291Y-127036206D01*
X114849097Y-127058486D01*
X114822352Y-127192942D01*
X114815851Y-127214375D01*
X114763389Y-127341028D01*
X114752831Y-127360778D01*
X114676669Y-127474763D01*
X114662465Y-127492072D01*
X114565523Y-127589014D01*
X114548214Y-127603218D01*
X114434229Y-127679380D01*
X114414479Y-127689938D01*
X114287826Y-127742400D01*
X114266393Y-127748901D01*
X114193573Y-127763386D01*
X114170124Y-127770499D01*
X114148513Y-127782050D01*
X114129571Y-127797596D01*
X114114026Y-127816537D01*
X114102475Y-127838148D01*
X114095362Y-127861597D01*
X114092960Y-127885983D01*
X114092960Y-128461517D01*
X114091371Y-128477656D01*
X114088456Y-128487265D01*
X114083718Y-128496129D01*
X114077345Y-128503894D01*
X114069580Y-128510267D01*
X114060716Y-128515005D01*
X114051107Y-128517920D01*
X114034968Y-128519509D01*
X113047248Y-128519509D01*
X113018858Y-128516713D01*
X113018749Y-128517819D01*
X113006006Y-128515929D01*
X112970978Y-128515929D01*
X112959806Y-128515383D01*
X112817193Y-128501399D01*
X112817144Y-128501895D01*
X112816777Y-128501830D01*
X112816826Y-128501361D01*
X112809675Y-128500610D01*
X112797844Y-128498736D01*
X112735749Y-128485538D01*
X112734040Y-128485188D01*
X112671587Y-128472822D01*
X112660756Y-128470122D01*
X112523672Y-128428735D01*
X112523091Y-128428557D01*
X112516321Y-128426461D01*
X112505087Y-128422328D01*
X112446726Y-128397315D01*
X112445119Y-128396639D01*
X112386267Y-128372382D01*
X112376155Y-128367623D01*
X112249985Y-128300537D01*
X112249005Y-128300012D01*
X112242956Y-128296741D01*
X112232759Y-128290517D01*
X112180370Y-128254645D01*
X112178922Y-128253668D01*
X112125877Y-128218425D01*
X112116913Y-128211817D01*
X112005981Y-128121342D01*
X112005467Y-128120919D01*
X112000006Y-128116402D01*
X111991198Y-128108303D01*
X111946812Y-128062977D01*
X111945582Y-128061738D01*
X111900389Y-128016860D01*
X111892843Y-128008595D01*
X111801595Y-127898295D01*
X111801105Y-127897699D01*
X111796714Y-127892314D01*
X111789640Y-127882649D01*
X111754875Y-127829524D01*
X111753910Y-127828071D01*
X111718315Y-127775298D01*
X111712525Y-127765739D01*
X111644528Y-127639980D01*
X111644004Y-127639002D01*
X111640816Y-127633006D01*
X111635755Y-127622152D01*
X111611965Y-127563269D01*
X111611299Y-127561653D01*
X111586633Y-127502976D01*
X111582816Y-127492489D01*
X111540491Y-127355759D01*
X111540254Y-127354983D01*
X111538247Y-127348338D01*
X111535394Y-127336721D01*
X111523484Y-127274285D01*
X111523145Y-127272570D01*
X111510356Y-127210273D01*
X111508648Y-127199242D01*
X111493667Y-127056713D01*
X111493607Y-127056123D01*
X111492928Y-127049191D01*
X111492385Y-127037241D01*
X111492827Y-126973730D01*
X111492827Y-126971989D01*
X111492383Y-126908329D01*
X111492851Y-126897169D01*
X111505805Y-126754841D01*
X111505921Y-126753610D01*
X111506578Y-126746917D01*
X111508366Y-126735095D01*
X111521133Y-126672896D01*
X111521472Y-126671185D01*
X111533401Y-126608650D01*
X111536028Y-126597791D01*
X111574318Y-126467693D01*
X111576615Y-126462031D01*
X111577072Y-126460480D01*
X111577201Y-126460518D01*
X111577304Y-126460171D01*
X111577176Y-126460132D01*
X111577713Y-126458352D01*
X111578794Y-126452739D01*
X111582723Y-126441824D01*
X111607355Y-126383226D01*
X111608018Y-126381616D01*
X111631848Y-126322639D01*
X111636539Y-126312486D01*
X111702708Y-126185916D01*
X111703279Y-126184834D01*
X111706476Y-126178821D01*
X111712645Y-126168553D01*
X111748162Y-126115897D01*
X111749128Y-126114442D01*
X111783967Y-126061201D01*
X111790532Y-126052165D01*
X111880212Y-125940623D01*
X111880680Y-125940045D01*
X111885111Y-125934612D01*
X111893154Y-125925744D01*
X111938167Y-125881043D01*
X111939396Y-125879805D01*
X111983971Y-125834286D01*
X111992174Y-125826691D01*
X112101752Y-125734745D01*
X112102426Y-125734183D01*
X112107798Y-125729739D01*
X112117401Y-125722607D01*
X112170346Y-125687430D01*
X112171792Y-125686455D01*
X112224253Y-125650534D01*
X112233770Y-125644679D01*
X112359264Y-125575688D01*
X112359748Y-125575424D01*
X112366011Y-125572038D01*
X112376812Y-125566909D01*
X112435522Y-125542710D01*
X112437130Y-125542034D01*
X112495638Y-125516957D01*
X112506107Y-125513064D01*
X112642719Y-125469728D01*
X112643135Y-125469598D01*
X112649940Y-125467491D01*
X112661549Y-125464553D01*
X112723831Y-125452221D01*
X112725541Y-125451870D01*
X112787804Y-125438636D01*
X112798822Y-125436851D01*
X112941022Y-125420901D01*
X112941814Y-125420815D01*
X112948769Y-125420084D01*
X112960728Y-125419457D01*
X112982260Y-125419457D01*
X112995325Y-125418772D01*
X113016944Y-125416500D01*
X113028105Y-125415876D01*
X113035386Y-125415825D01*
X113035978Y-125415823D01*
X113040925Y-125415823D01*
X113041292Y-125415805D01*
X114034968Y-125415805D01*
X114051107Y-125417394D01*
X114051107Y-125417394D01*
G37*
G36*
X61999250Y-126362707D02*
G01*
X60512912Y-127849045D01*
X59733680Y-127069813D01*
X61220018Y-125583475D01*
X61999250Y-126362707D01*
X61999250Y-126362707D01*
G37*
G36*
X51022250Y-123965516D02*
G01*
X51022359Y-123964410D01*
X51035102Y-123966300D01*
X51070130Y-123966300D01*
X51081302Y-123966846D01*
X51223915Y-123980830D01*
X51223964Y-123980334D01*
X51224331Y-123980399D01*
X51224282Y-123980868D01*
X51231433Y-123981619D01*
X51243264Y-123983493D01*
X51305359Y-123996691D01*
X51307068Y-123997041D01*
X51369521Y-124009407D01*
X51380352Y-124012107D01*
X51517436Y-124053494D01*
X51518017Y-124053672D01*
X51524787Y-124055768D01*
X51536021Y-124059901D01*
X51594382Y-124084914D01*
X51595989Y-124085590D01*
X51654841Y-124109847D01*
X51664953Y-124114606D01*
X51791101Y-124181680D01*
X51792103Y-124182217D01*
X51798152Y-124185488D01*
X51808349Y-124191712D01*
X51860738Y-124227584D01*
X51862186Y-124228561D01*
X51915231Y-124263804D01*
X51924195Y-124270412D01*
X52035127Y-124360887D01*
X52035641Y-124361310D01*
X52041102Y-124365827D01*
X52049910Y-124373926D01*
X52094296Y-124419252D01*
X52095526Y-124420491D01*
X52140719Y-124465369D01*
X52148265Y-124473634D01*
X52239513Y-124583934D01*
X52240003Y-124584530D01*
X52244394Y-124589915D01*
X52251468Y-124599580D01*
X52286233Y-124652705D01*
X52287198Y-124654158D01*
X52322793Y-124706931D01*
X52328583Y-124716490D01*
X52396580Y-124842249D01*
X52397104Y-124843227D01*
X52400292Y-124849223D01*
X52405353Y-124860077D01*
X52429143Y-124918960D01*
X52429809Y-124920576D01*
X52454475Y-124979253D01*
X52458292Y-124989740D01*
X52500617Y-125126470D01*
X52500854Y-125127246D01*
X52502861Y-125133891D01*
X52505714Y-125145508D01*
X52517624Y-125207944D01*
X52517963Y-125209659D01*
X52530752Y-125271956D01*
X52532460Y-125282987D01*
X52547441Y-125425516D01*
X52547501Y-125426106D01*
X52548180Y-125433038D01*
X52548723Y-125444988D01*
X52548281Y-125508498D01*
X52548281Y-125510239D01*
X52548725Y-125573900D01*
X52548257Y-125585060D01*
X52535303Y-125727388D01*
X52535194Y-125728545D01*
X52534530Y-125735312D01*
X52532742Y-125747134D01*
X52519975Y-125809333D01*
X52519636Y-125811044D01*
X52507707Y-125873579D01*
X52505080Y-125884438D01*
X52466790Y-126014536D01*
X52464493Y-126020198D01*
X52464036Y-126021749D01*
X52463907Y-126021711D01*
X52463804Y-126022058D01*
X52463932Y-126022097D01*
X52463395Y-126023877D01*
X52462314Y-126029490D01*
X52458385Y-126040405D01*
X52433753Y-126099003D01*
X52433090Y-126100613D01*
X52409260Y-126159590D01*
X52404569Y-126169743D01*
X52338400Y-126296313D01*
X52337851Y-126297354D01*
X52334632Y-126303408D01*
X52328463Y-126313676D01*
X52292946Y-126366332D01*
X52291980Y-126367787D01*
X52257141Y-126421028D01*
X52250576Y-126430064D01*
X52160896Y-126541606D01*
X52160428Y-126542184D01*
X52155997Y-126547617D01*
X52147954Y-126556485D01*
X52102941Y-126601186D01*
X52101712Y-126602424D01*
X52057137Y-126647943D01*
X52048934Y-126655538D01*
X51939356Y-126747484D01*
X51938682Y-126748046D01*
X51933310Y-126752490D01*
X51923707Y-126759622D01*
X51870762Y-126794799D01*
X51869316Y-126795774D01*
X51816855Y-126831695D01*
X51807338Y-126837550D01*
X51681844Y-126906541D01*
X51681360Y-126906805D01*
X51675097Y-126910191D01*
X51664296Y-126915320D01*
X51605586Y-126939519D01*
X51603978Y-126940195D01*
X51545470Y-126965272D01*
X51535001Y-126969165D01*
X51398418Y-127012492D01*
X51397973Y-127012631D01*
X51391168Y-127014738D01*
X51379559Y-127017676D01*
X51317277Y-127030008D01*
X51315567Y-127030359D01*
X51253304Y-127043593D01*
X51242286Y-127045378D01*
X51100086Y-127061328D01*
X51099294Y-127061414D01*
X51092339Y-127062145D01*
X51080380Y-127062772D01*
X51058848Y-127062772D01*
X51045783Y-127063457D01*
X51024164Y-127065729D01*
X51013003Y-127066353D01*
X51005722Y-127066404D01*
X51005130Y-127066406D01*
X51000183Y-127066406D01*
X50999816Y-127066424D01*
X50006140Y-127066424D01*
X49990001Y-127064835D01*
X49980392Y-127061920D01*
X49971528Y-127057182D01*
X49963763Y-127050809D01*
X49957390Y-127043044D01*
X49952652Y-127034180D01*
X49949737Y-127024571D01*
X49948148Y-127008432D01*
X49948148Y-126432898D01*
X49945746Y-126408512D01*
X49938633Y-126385063D01*
X49927082Y-126363452D01*
X49911537Y-126344510D01*
X49892595Y-126328965D01*
X49870984Y-126317414D01*
X49847535Y-126310301D01*
X49774715Y-126295816D01*
X49753282Y-126289315D01*
X49626629Y-126236853D01*
X49606879Y-126226295D01*
X49492894Y-126150133D01*
X49475585Y-126135929D01*
X49378643Y-126038987D01*
X49364439Y-126021678D01*
X49288277Y-125907693D01*
X49277719Y-125887943D01*
X49225257Y-125761290D01*
X49218756Y-125739857D01*
X49192011Y-125605401D01*
X49189817Y-125583121D01*
X49189817Y-125446023D01*
X49192011Y-125423743D01*
X49218756Y-125289287D01*
X49225257Y-125267854D01*
X49277719Y-125141201D01*
X49288277Y-125121451D01*
X49364439Y-125007466D01*
X49378643Y-124990157D01*
X49475585Y-124893215D01*
X49492894Y-124879011D01*
X49606879Y-124802849D01*
X49626629Y-124792291D01*
X49753282Y-124739829D01*
X49774715Y-124733328D01*
X49847535Y-124718843D01*
X49870984Y-124711730D01*
X49892595Y-124700179D01*
X49911537Y-124684633D01*
X49927082Y-124665692D01*
X49938633Y-124644081D01*
X49945746Y-124620632D01*
X49948148Y-124596246D01*
X49948148Y-124020712D01*
X49949737Y-124004573D01*
X49952652Y-123994964D01*
X49957390Y-123986100D01*
X49963763Y-123978335D01*
X49971528Y-123971962D01*
X49980392Y-123967224D01*
X49990001Y-123964309D01*
X50006140Y-123962720D01*
X50993860Y-123962720D01*
X51022250Y-123965516D01*
X51022250Y-123965516D01*
G37*
G36*
X59029401Y-123392858D02*
G01*
X57543063Y-124879196D01*
X56763831Y-124099964D01*
X58250169Y-122613626D01*
X59029401Y-123392858D01*
X59029401Y-123392858D01*
G37*
G36*
X87742785Y-116276849D02*
G01*
X87777906Y-116286770D01*
X87810411Y-116303351D01*
X87843904Y-116329777D01*
X87897945Y-116381782D01*
X88846342Y-117294444D01*
X88846347Y-117294450D01*
X88900380Y-117346447D01*
X88928075Y-117378902D01*
X88945893Y-117410751D01*
X88957154Y-117445460D01*
X88961427Y-117481702D01*
X88958548Y-117518076D01*
X88948627Y-117553197D01*
X88932046Y-117585702D01*
X88905620Y-117619195D01*
X88114306Y-118441491D01*
X88081851Y-118469186D01*
X88050002Y-118487004D01*
X88015293Y-118498265D01*
X87979051Y-118502538D01*
X87942677Y-118499659D01*
X87907556Y-118489738D01*
X87875051Y-118473157D01*
X87841558Y-118446731D01*
X87660773Y-118272757D01*
X86839120Y-117482064D01*
X86839115Y-117482058D01*
X86785082Y-117430061D01*
X86757387Y-117397606D01*
X86739569Y-117365757D01*
X86728308Y-117331048D01*
X86724035Y-117294806D01*
X86726914Y-117258432D01*
X86736835Y-117223311D01*
X86753416Y-117190806D01*
X86779842Y-117157313D01*
X87571156Y-116335017D01*
X87603611Y-116307322D01*
X87635460Y-116289504D01*
X87670169Y-116278243D01*
X87706411Y-116273970D01*
X87742785Y-116276849D01*
X87742785Y-116276849D01*
G37*
G36*
X102006491Y-116231553D02*
G01*
X102041515Y-116241778D01*
X102073877Y-116258643D01*
X102107144Y-116285366D01*
X103154705Y-117311213D01*
X103182111Y-117343903D01*
X103199651Y-117375908D01*
X103210609Y-117410715D01*
X103214566Y-117446989D01*
X103211369Y-117483345D01*
X103201142Y-117518375D01*
X103184281Y-117550732D01*
X103157558Y-117583998D01*
X102359099Y-118399357D01*
X102326409Y-118426763D01*
X102294404Y-118444303D01*
X102259597Y-118455261D01*
X102223323Y-118459218D01*
X102186965Y-118456021D01*
X102151941Y-118445796D01*
X102119579Y-118428931D01*
X102086312Y-118402208D01*
X101038751Y-117376361D01*
X101011345Y-117343671D01*
X100993805Y-117311666D01*
X100982847Y-117276859D01*
X100978890Y-117240585D01*
X100982087Y-117204229D01*
X100992314Y-117169199D01*
X101009175Y-117136842D01*
X101035898Y-117103576D01*
X101834357Y-116288217D01*
X101867047Y-116260811D01*
X101899052Y-116243271D01*
X101933859Y-116232313D01*
X101970133Y-116228356D01*
X102006491Y-116231553D01*
X102006491Y-116231553D01*
G37*
G36*
X71770651Y-115876800D02*
G01*
X71770651Y-115876801D01*
X71306718Y-116358898D01*
X70313120Y-117391399D01*
X69519073Y-116627270D01*
X69519073Y-116627269D01*
X70247838Y-115869971D01*
X70976604Y-115112671D01*
X71770651Y-115876800D01*
X71770651Y-115876800D01*
G37*
G36*
X57512193Y-115880336D02*
G01*
X56041500Y-117382158D01*
X55254151Y-116611128D01*
X56724844Y-115109306D01*
X57512193Y-115880336D01*
X57512193Y-115880336D01*
G37*
G36*
X89805655Y-114133209D02*
G01*
X89840776Y-114143130D01*
X89873281Y-114159711D01*
X89906774Y-114186137D01*
X89960815Y-114238142D01*
X90909212Y-115150804D01*
X90909217Y-115150810D01*
X90963250Y-115202807D01*
X90990945Y-115235262D01*
X91008763Y-115267111D01*
X91020024Y-115301820D01*
X91024297Y-115338062D01*
X91021418Y-115374436D01*
X91011497Y-115409557D01*
X90994916Y-115442062D01*
X90968490Y-115475555D01*
X90177176Y-116297851D01*
X90144721Y-116325546D01*
X90112872Y-116343364D01*
X90078163Y-116354625D01*
X90041921Y-116358898D01*
X90005547Y-116356019D01*
X89970426Y-116346098D01*
X89937921Y-116329517D01*
X89904428Y-116303091D01*
X89723643Y-116129117D01*
X88901990Y-115338424D01*
X88901985Y-115338418D01*
X88847952Y-115286421D01*
X88820257Y-115253966D01*
X88802439Y-115222117D01*
X88791178Y-115187408D01*
X88786905Y-115151166D01*
X88789784Y-115114792D01*
X88799705Y-115079671D01*
X88816286Y-115047166D01*
X88842712Y-115013673D01*
X89634026Y-114191377D01*
X89666481Y-114163682D01*
X89698330Y-114145864D01*
X89733039Y-114134603D01*
X89769281Y-114130330D01*
X89805655Y-114133209D01*
X89805655Y-114133209D01*
G37*
G36*
X104087989Y-114105997D02*
G01*
X104123013Y-114116222D01*
X104155375Y-114133087D01*
X104188642Y-114159810D01*
X105236203Y-115185657D01*
X105263609Y-115218347D01*
X105281149Y-115250352D01*
X105292107Y-115285159D01*
X105296064Y-115321433D01*
X105292867Y-115357789D01*
X105282640Y-115392819D01*
X105265779Y-115425176D01*
X105239056Y-115458442D01*
X104440597Y-116273801D01*
X104407907Y-116301207D01*
X104375902Y-116318747D01*
X104341095Y-116329705D01*
X104304821Y-116333662D01*
X104268463Y-116330465D01*
X104233439Y-116320240D01*
X104201077Y-116303375D01*
X104167810Y-116276652D01*
X103120249Y-115250805D01*
X103092843Y-115218115D01*
X103075303Y-115186110D01*
X103064345Y-115151303D01*
X103060388Y-115115029D01*
X103063585Y-115078673D01*
X103073812Y-115043643D01*
X103090673Y-115011286D01*
X103117396Y-114978020D01*
X103915855Y-114162661D01*
X103948545Y-114135255D01*
X103980550Y-114117715D01*
X104015357Y-114106757D01*
X104051631Y-114102800D01*
X104087989Y-114105997D01*
X104087989Y-114105997D01*
G37*
G36*
X68744337Y-112964512D02*
G01*
X68744337Y-112964513D01*
X68062985Y-113672542D01*
X67286806Y-114479111D01*
X66492759Y-113714982D01*
X66492759Y-113714981D01*
X67364092Y-112809533D01*
X67950290Y-112200383D01*
X68744337Y-112964512D01*
X68744337Y-112964512D01*
G37*
G36*
X54511407Y-112941750D02*
G01*
X53040714Y-114443572D01*
X52253365Y-113672542D01*
X53724058Y-112170720D01*
X54511407Y-112941750D01*
X54511407Y-112941750D01*
G37*
G36*
X61990039Y-111307712D02*
G01*
X60519346Y-112809534D01*
X59731997Y-112038504D01*
X61202690Y-110536682D01*
X61990039Y-111307712D01*
X61990039Y-111307712D01*
G37*
G36*
X76208423Y-111265272D02*
G01*
X76208423Y-111265273D01*
X75486231Y-112015741D01*
X74750892Y-112779871D01*
X73956845Y-112015742D01*
X73956845Y-112015741D01*
X74685611Y-111258442D01*
X75414376Y-110501143D01*
X76208423Y-111265272D01*
X76208423Y-111265272D01*
G37*
G36*
X58989253Y-108369126D02*
G01*
X57518560Y-109870948D01*
X56731211Y-109099918D01*
X58201904Y-107598096D01*
X58989253Y-108369126D01*
X58989253Y-108369126D01*
G37*
G36*
X73182109Y-108352984D02*
G01*
X73182109Y-108352985D01*
X72463318Y-109099918D01*
X71724578Y-109867583D01*
X70930531Y-109103454D01*
X70930531Y-109103453D01*
X71787175Y-108213269D01*
X72388062Y-107588855D01*
X73182109Y-108352984D01*
X73182109Y-108352984D01*
G37*
G36*
X114053063Y-105417394D02*
G01*
X114062672Y-105420309D01*
X114071536Y-105425047D01*
X114079301Y-105431420D01*
X114085674Y-105439185D01*
X114090412Y-105448049D01*
X114093327Y-105457658D01*
X114094916Y-105473797D01*
X114094916Y-106049331D01*
X114097318Y-106073717D01*
X114104431Y-106097166D01*
X114115982Y-106118777D01*
X114131527Y-106137719D01*
X114150469Y-106153264D01*
X114172080Y-106164815D01*
X114195529Y-106171928D01*
X114268349Y-106186413D01*
X114289782Y-106192914D01*
X114416435Y-106245376D01*
X114436185Y-106255934D01*
X114550170Y-106332096D01*
X114567479Y-106346300D01*
X114664421Y-106443242D01*
X114678625Y-106460551D01*
X114754787Y-106574536D01*
X114765345Y-106594286D01*
X114817807Y-106720939D01*
X114824308Y-106742372D01*
X114851053Y-106876828D01*
X114853247Y-106899108D01*
X114853247Y-107036206D01*
X114851053Y-107058486D01*
X114824308Y-107192942D01*
X114817807Y-107214375D01*
X114765345Y-107341028D01*
X114754787Y-107360778D01*
X114678625Y-107474763D01*
X114664421Y-107492072D01*
X114567479Y-107589014D01*
X114550170Y-107603218D01*
X114436185Y-107679380D01*
X114416435Y-107689938D01*
X114289782Y-107742400D01*
X114268349Y-107748901D01*
X114195529Y-107763386D01*
X114172080Y-107770499D01*
X114150469Y-107782050D01*
X114131527Y-107797596D01*
X114115982Y-107816537D01*
X114104431Y-107838148D01*
X114097318Y-107861597D01*
X114094916Y-107885983D01*
X114094916Y-108461517D01*
X114093327Y-108477656D01*
X114090412Y-108487265D01*
X114085674Y-108496129D01*
X114079301Y-108503894D01*
X114071536Y-108510267D01*
X114062672Y-108515005D01*
X114053063Y-108517920D01*
X114036924Y-108519509D01*
X113049204Y-108519509D01*
X113020814Y-108516713D01*
X113020705Y-108517819D01*
X113007962Y-108515929D01*
X112972934Y-108515929D01*
X112961762Y-108515383D01*
X112819149Y-108501399D01*
X112819100Y-108501895D01*
X112818733Y-108501830D01*
X112818782Y-108501361D01*
X112811631Y-108500610D01*
X112799800Y-108498736D01*
X112737705Y-108485538D01*
X112735996Y-108485188D01*
X112673543Y-108472822D01*
X112662712Y-108470122D01*
X112525628Y-108428735D01*
X112525047Y-108428557D01*
X112518277Y-108426461D01*
X112507043Y-108422328D01*
X112448682Y-108397315D01*
X112447075Y-108396639D01*
X112388223Y-108372382D01*
X112378111Y-108367623D01*
X112251941Y-108300537D01*
X112250961Y-108300012D01*
X112244912Y-108296741D01*
X112234715Y-108290517D01*
X112182326Y-108254645D01*
X112180878Y-108253668D01*
X112127833Y-108218425D01*
X112118869Y-108211817D01*
X112007937Y-108121342D01*
X112007423Y-108120919D01*
X112001962Y-108116402D01*
X111993154Y-108108303D01*
X111948768Y-108062977D01*
X111947538Y-108061738D01*
X111902345Y-108016860D01*
X111894799Y-108008595D01*
X111803551Y-107898295D01*
X111803061Y-107897699D01*
X111798670Y-107892314D01*
X111791596Y-107882649D01*
X111756831Y-107829524D01*
X111755866Y-107828071D01*
X111720271Y-107775298D01*
X111714481Y-107765739D01*
X111646484Y-107639980D01*
X111645960Y-107639002D01*
X111642772Y-107633006D01*
X111637711Y-107622152D01*
X111613921Y-107563269D01*
X111613255Y-107561653D01*
X111588589Y-107502976D01*
X111584772Y-107492489D01*
X111542447Y-107355759D01*
X111542210Y-107354983D01*
X111540203Y-107348338D01*
X111537350Y-107336721D01*
X111525440Y-107274285D01*
X111525101Y-107272570D01*
X111512312Y-107210273D01*
X111510604Y-107199242D01*
X111495623Y-107056713D01*
X111495563Y-107056123D01*
X111494884Y-107049191D01*
X111494341Y-107037241D01*
X111494783Y-106973730D01*
X111494783Y-106971989D01*
X111494339Y-106908329D01*
X111494807Y-106897169D01*
X111507761Y-106754841D01*
X111507877Y-106753610D01*
X111508534Y-106746917D01*
X111510322Y-106735095D01*
X111523089Y-106672896D01*
X111523428Y-106671185D01*
X111535357Y-106608650D01*
X111537984Y-106597791D01*
X111576274Y-106467693D01*
X111578571Y-106462031D01*
X111579028Y-106460480D01*
X111579157Y-106460518D01*
X111579260Y-106460171D01*
X111579132Y-106460132D01*
X111579669Y-106458352D01*
X111580750Y-106452739D01*
X111584679Y-106441824D01*
X111609311Y-106383226D01*
X111609974Y-106381616D01*
X111633804Y-106322639D01*
X111638495Y-106312486D01*
X111704664Y-106185916D01*
X111705235Y-106184834D01*
X111708432Y-106178821D01*
X111714601Y-106168553D01*
X111750118Y-106115897D01*
X111751084Y-106114442D01*
X111785923Y-106061201D01*
X111792488Y-106052165D01*
X111882168Y-105940623D01*
X111882636Y-105940045D01*
X111887067Y-105934612D01*
X111895110Y-105925744D01*
X111940123Y-105881043D01*
X111941352Y-105879805D01*
X111985927Y-105834286D01*
X111994130Y-105826691D01*
X112103708Y-105734745D01*
X112104382Y-105734183D01*
X112109754Y-105729739D01*
X112119357Y-105722607D01*
X112172302Y-105687430D01*
X112173748Y-105686455D01*
X112226209Y-105650534D01*
X112235726Y-105644679D01*
X112361220Y-105575688D01*
X112361704Y-105575424D01*
X112367967Y-105572038D01*
X112378768Y-105566909D01*
X112437478Y-105542710D01*
X112439086Y-105542034D01*
X112497594Y-105516957D01*
X112508063Y-105513064D01*
X112644675Y-105469728D01*
X112645091Y-105469598D01*
X112651896Y-105467491D01*
X112663505Y-105464553D01*
X112725787Y-105452221D01*
X112727497Y-105451870D01*
X112789760Y-105438636D01*
X112800778Y-105436851D01*
X112942978Y-105420901D01*
X112943770Y-105420815D01*
X112950725Y-105420084D01*
X112962684Y-105419457D01*
X112984216Y-105419457D01*
X112997281Y-105418772D01*
X113018900Y-105416500D01*
X113030061Y-105415876D01*
X113037342Y-105415825D01*
X113037934Y-105415823D01*
X113042881Y-105415823D01*
X113043248Y-105415805D01*
X114036924Y-105415805D01*
X114053063Y-105417394D01*
X114053063Y-105417394D01*
G37*
G36*
X51024206Y-103965516D02*
G01*
X51024315Y-103964410D01*
X51037058Y-103966300D01*
X51072086Y-103966300D01*
X51083258Y-103966846D01*
X51225871Y-103980830D01*
X51225920Y-103980334D01*
X51226287Y-103980399D01*
X51226238Y-103980868D01*
X51233389Y-103981619D01*
X51245220Y-103983493D01*
X51307315Y-103996691D01*
X51309024Y-103997041D01*
X51371477Y-104009407D01*
X51382308Y-104012107D01*
X51519392Y-104053494D01*
X51519973Y-104053672D01*
X51526743Y-104055768D01*
X51537977Y-104059901D01*
X51596338Y-104084914D01*
X51597945Y-104085590D01*
X51656797Y-104109847D01*
X51666909Y-104114606D01*
X51793057Y-104181680D01*
X51794059Y-104182217D01*
X51800108Y-104185488D01*
X51810305Y-104191712D01*
X51862694Y-104227584D01*
X51864142Y-104228561D01*
X51917187Y-104263804D01*
X51926151Y-104270412D01*
X52037083Y-104360887D01*
X52037597Y-104361310D01*
X52043058Y-104365827D01*
X52051866Y-104373926D01*
X52096252Y-104419252D01*
X52097482Y-104420491D01*
X52142675Y-104465369D01*
X52150221Y-104473634D01*
X52241469Y-104583934D01*
X52241959Y-104584530D01*
X52246350Y-104589915D01*
X52253424Y-104599580D01*
X52288189Y-104652705D01*
X52289154Y-104654158D01*
X52324749Y-104706931D01*
X52330539Y-104716490D01*
X52398536Y-104842249D01*
X52399060Y-104843227D01*
X52402248Y-104849223D01*
X52407309Y-104860077D01*
X52431099Y-104918960D01*
X52431765Y-104920576D01*
X52456431Y-104979253D01*
X52460248Y-104989740D01*
X52502573Y-105126470D01*
X52502810Y-105127246D01*
X52504817Y-105133891D01*
X52507670Y-105145508D01*
X52519580Y-105207944D01*
X52519919Y-105209659D01*
X52532708Y-105271956D01*
X52534416Y-105282987D01*
X52549397Y-105425516D01*
X52549457Y-105426106D01*
X52550136Y-105433038D01*
X52550679Y-105444988D01*
X52550237Y-105508498D01*
X52550237Y-105510239D01*
X52550681Y-105573900D01*
X52550213Y-105585060D01*
X52537259Y-105727388D01*
X52537150Y-105728545D01*
X52536486Y-105735312D01*
X52534698Y-105747134D01*
X52521931Y-105809333D01*
X52521592Y-105811044D01*
X52509663Y-105873579D01*
X52507036Y-105884438D01*
X52468746Y-106014536D01*
X52466449Y-106020198D01*
X52465992Y-106021749D01*
X52465863Y-106021711D01*
X52465760Y-106022058D01*
X52465888Y-106022097D01*
X52465351Y-106023877D01*
X52464270Y-106029490D01*
X52460341Y-106040405D01*
X52435709Y-106099003D01*
X52435046Y-106100613D01*
X52411216Y-106159590D01*
X52406525Y-106169743D01*
X52340356Y-106296313D01*
X52339807Y-106297354D01*
X52336588Y-106303408D01*
X52330419Y-106313676D01*
X52294902Y-106366332D01*
X52293936Y-106367787D01*
X52259097Y-106421028D01*
X52252532Y-106430064D01*
X52162852Y-106541606D01*
X52162384Y-106542184D01*
X52157953Y-106547617D01*
X52149910Y-106556485D01*
X52104897Y-106601186D01*
X52103668Y-106602424D01*
X52059093Y-106647943D01*
X52050890Y-106655538D01*
X51941312Y-106747484D01*
X51940638Y-106748046D01*
X51935266Y-106752490D01*
X51925663Y-106759622D01*
X51872718Y-106794799D01*
X51871272Y-106795774D01*
X51818811Y-106831695D01*
X51809294Y-106837550D01*
X51683800Y-106906541D01*
X51683316Y-106906805D01*
X51677053Y-106910191D01*
X51666252Y-106915320D01*
X51607542Y-106939519D01*
X51605934Y-106940195D01*
X51547426Y-106965272D01*
X51536957Y-106969165D01*
X51400374Y-107012492D01*
X51399929Y-107012631D01*
X51393124Y-107014738D01*
X51381515Y-107017676D01*
X51319233Y-107030008D01*
X51317523Y-107030359D01*
X51255260Y-107043593D01*
X51244242Y-107045378D01*
X51102042Y-107061328D01*
X51101250Y-107061414D01*
X51094295Y-107062145D01*
X51082336Y-107062772D01*
X51060804Y-107062772D01*
X51047739Y-107063457D01*
X51026120Y-107065729D01*
X51014959Y-107066353D01*
X51007678Y-107066404D01*
X51007086Y-107066406D01*
X51002139Y-107066406D01*
X51001772Y-107066424D01*
X50008096Y-107066424D01*
X49991957Y-107064835D01*
X49982348Y-107061920D01*
X49973484Y-107057182D01*
X49965719Y-107050809D01*
X49959346Y-107043044D01*
X49954608Y-107034180D01*
X49951693Y-107024571D01*
X49950104Y-107008432D01*
X49950104Y-106432898D01*
X49947702Y-106408512D01*
X49940589Y-106385063D01*
X49929038Y-106363452D01*
X49913493Y-106344510D01*
X49894551Y-106328965D01*
X49872940Y-106317414D01*
X49849491Y-106310301D01*
X49776671Y-106295816D01*
X49755238Y-106289315D01*
X49628585Y-106236853D01*
X49608835Y-106226295D01*
X49494850Y-106150133D01*
X49477541Y-106135929D01*
X49380599Y-106038987D01*
X49366395Y-106021678D01*
X49290233Y-105907693D01*
X49279675Y-105887943D01*
X49227213Y-105761290D01*
X49220712Y-105739857D01*
X49193967Y-105605401D01*
X49191773Y-105583121D01*
X49191773Y-105446023D01*
X49193967Y-105423743D01*
X49220712Y-105289287D01*
X49227213Y-105267854D01*
X49279675Y-105141201D01*
X49290233Y-105121451D01*
X49366395Y-105007466D01*
X49380599Y-104990157D01*
X49477541Y-104893215D01*
X49494850Y-104879011D01*
X49608835Y-104802849D01*
X49628585Y-104792291D01*
X49755238Y-104739829D01*
X49776671Y-104733328D01*
X49849491Y-104718843D01*
X49872940Y-104711730D01*
X49894551Y-104700179D01*
X49913493Y-104684633D01*
X49929038Y-104665692D01*
X49940589Y-104644081D01*
X49947702Y-104620632D01*
X49950104Y-104596246D01*
X49950104Y-104020712D01*
X49951693Y-104004573D01*
X49954608Y-103994964D01*
X49959346Y-103986100D01*
X49965719Y-103978335D01*
X49973484Y-103971962D01*
X49982348Y-103967224D01*
X49991957Y-103964309D01*
X50008096Y-103962720D01*
X50995816Y-103962720D01*
X51024206Y-103965516D01*
X51024206Y-103965516D01*
G37*
G36*
X114053063Y-100417394D02*
G01*
X114062672Y-100420309D01*
X114071536Y-100425047D01*
X114079301Y-100431420D01*
X114085674Y-100439185D01*
X114090412Y-100448049D01*
X114093327Y-100457658D01*
X114094916Y-100473797D01*
X114094916Y-101049331D01*
X114097318Y-101073717D01*
X114104431Y-101097166D01*
X114115982Y-101118777D01*
X114131527Y-101137719D01*
X114150469Y-101153264D01*
X114172080Y-101164815D01*
X114195529Y-101171928D01*
X114268349Y-101186413D01*
X114289782Y-101192914D01*
X114416435Y-101245376D01*
X114436185Y-101255934D01*
X114550170Y-101332096D01*
X114567479Y-101346300D01*
X114664421Y-101443242D01*
X114678625Y-101460551D01*
X114754787Y-101574536D01*
X114765345Y-101594286D01*
X114817807Y-101720939D01*
X114824308Y-101742372D01*
X114851053Y-101876828D01*
X114853247Y-101899108D01*
X114853247Y-102036206D01*
X114851053Y-102058486D01*
X114824308Y-102192942D01*
X114817807Y-102214375D01*
X114765345Y-102341028D01*
X114754787Y-102360778D01*
X114678625Y-102474763D01*
X114664421Y-102492072D01*
X114567479Y-102589014D01*
X114550170Y-102603218D01*
X114436185Y-102679380D01*
X114416435Y-102689938D01*
X114289782Y-102742400D01*
X114268349Y-102748901D01*
X114195529Y-102763386D01*
X114172080Y-102770499D01*
X114150469Y-102782050D01*
X114131527Y-102797596D01*
X114115982Y-102816537D01*
X114104431Y-102838148D01*
X114097318Y-102861597D01*
X114094916Y-102885983D01*
X114094916Y-103461517D01*
X114093327Y-103477656D01*
X114090412Y-103487265D01*
X114085674Y-103496129D01*
X114079301Y-103503894D01*
X114071536Y-103510267D01*
X114062672Y-103515005D01*
X114053063Y-103517920D01*
X114036924Y-103519509D01*
X113049204Y-103519509D01*
X113020814Y-103516713D01*
X113020705Y-103517819D01*
X113007962Y-103515929D01*
X112972934Y-103515929D01*
X112961762Y-103515383D01*
X112819149Y-103501399D01*
X112819100Y-103501895D01*
X112818733Y-103501830D01*
X112818782Y-103501361D01*
X112811631Y-103500610D01*
X112799800Y-103498736D01*
X112737705Y-103485538D01*
X112735996Y-103485188D01*
X112673543Y-103472822D01*
X112662712Y-103470122D01*
X112525628Y-103428735D01*
X112525047Y-103428557D01*
X112518277Y-103426461D01*
X112507043Y-103422328D01*
X112448682Y-103397315D01*
X112447075Y-103396639D01*
X112388223Y-103372382D01*
X112378111Y-103367623D01*
X112251941Y-103300537D01*
X112250961Y-103300012D01*
X112244912Y-103296741D01*
X112234715Y-103290517D01*
X112182326Y-103254645D01*
X112180878Y-103253668D01*
X112127833Y-103218425D01*
X112118869Y-103211817D01*
X112007937Y-103121342D01*
X112007423Y-103120919D01*
X112001962Y-103116402D01*
X111993154Y-103108303D01*
X111948768Y-103062977D01*
X111947538Y-103061738D01*
X111902345Y-103016860D01*
X111894799Y-103008595D01*
X111803551Y-102898295D01*
X111803061Y-102897699D01*
X111798670Y-102892314D01*
X111791596Y-102882649D01*
X111756831Y-102829524D01*
X111755866Y-102828071D01*
X111720271Y-102775298D01*
X111714481Y-102765739D01*
X111646484Y-102639980D01*
X111645960Y-102639002D01*
X111642772Y-102633006D01*
X111637711Y-102622152D01*
X111613921Y-102563269D01*
X111613255Y-102561653D01*
X111588589Y-102502976D01*
X111584772Y-102492489D01*
X111542447Y-102355759D01*
X111542210Y-102354983D01*
X111540203Y-102348338D01*
X111537350Y-102336721D01*
X111525440Y-102274285D01*
X111525101Y-102272570D01*
X111512312Y-102210273D01*
X111510604Y-102199242D01*
X111495623Y-102056713D01*
X111495563Y-102056123D01*
X111494884Y-102049191D01*
X111494341Y-102037241D01*
X111494783Y-101973730D01*
X111494783Y-101971989D01*
X111494339Y-101908329D01*
X111494807Y-101897169D01*
X111507761Y-101754841D01*
X111507877Y-101753610D01*
X111508534Y-101746917D01*
X111510322Y-101735095D01*
X111523089Y-101672896D01*
X111523428Y-101671185D01*
X111535357Y-101608650D01*
X111537984Y-101597791D01*
X111576274Y-101467693D01*
X111578571Y-101462031D01*
X111579028Y-101460480D01*
X111579157Y-101460518D01*
X111579260Y-101460171D01*
X111579132Y-101460132D01*
X111579669Y-101458352D01*
X111580750Y-101452739D01*
X111584679Y-101441824D01*
X111609311Y-101383226D01*
X111609974Y-101381616D01*
X111633804Y-101322639D01*
X111638495Y-101312486D01*
X111704664Y-101185916D01*
X111705235Y-101184834D01*
X111708432Y-101178821D01*
X111714601Y-101168553D01*
X111750118Y-101115897D01*
X111751084Y-101114442D01*
X111785923Y-101061201D01*
X111792488Y-101052165D01*
X111882168Y-100940623D01*
X111882636Y-100940045D01*
X111887067Y-100934612D01*
X111895110Y-100925744D01*
X111940123Y-100881043D01*
X111941352Y-100879805D01*
X111985927Y-100834286D01*
X111994130Y-100826691D01*
X112103708Y-100734745D01*
X112104382Y-100734183D01*
X112109754Y-100729739D01*
X112119357Y-100722607D01*
X112172302Y-100687430D01*
X112173748Y-100686455D01*
X112226209Y-100650534D01*
X112235726Y-100644679D01*
X112361220Y-100575688D01*
X112361704Y-100575424D01*
X112367967Y-100572038D01*
X112378768Y-100566909D01*
X112437478Y-100542710D01*
X112439086Y-100542034D01*
X112497594Y-100516957D01*
X112508063Y-100513064D01*
X112644675Y-100469728D01*
X112645091Y-100469598D01*
X112651896Y-100467491D01*
X112663505Y-100464553D01*
X112725787Y-100452221D01*
X112727497Y-100451870D01*
X112789760Y-100438636D01*
X112800778Y-100436851D01*
X112942978Y-100420901D01*
X112943770Y-100420815D01*
X112950725Y-100420084D01*
X112962684Y-100419457D01*
X112984216Y-100419457D01*
X112997281Y-100418772D01*
X113018900Y-100416500D01*
X113030061Y-100415876D01*
X113037342Y-100415825D01*
X113037934Y-100415823D01*
X113042881Y-100415823D01*
X113043248Y-100415805D01*
X114036924Y-100415805D01*
X114053063Y-100417394D01*
X114053063Y-100417394D01*
G37*
G36*
X102047341Y-101178038D02*
G01*
X102082260Y-101188631D01*
X102114442Y-101205833D01*
X102147416Y-101232894D01*
X102200448Y-101285926D01*
X102200454Y-101285931D01*
X103131155Y-102216632D01*
X103131160Y-102216638D01*
X103184192Y-102269670D01*
X103211253Y-102302644D01*
X103228455Y-102334826D01*
X103239048Y-102369745D01*
X103242624Y-102406062D01*
X103239048Y-102442379D01*
X103228455Y-102477298D01*
X103211253Y-102509480D01*
X103184192Y-102542454D01*
X103131160Y-102595486D01*
X103131155Y-102595492D01*
X102430264Y-103296383D01*
X102430258Y-103296388D01*
X102377226Y-103349420D01*
X102344252Y-103376481D01*
X102312070Y-103393683D01*
X102277151Y-103404276D01*
X102240834Y-103407852D01*
X102204517Y-103404276D01*
X102169598Y-103393683D01*
X102137416Y-103376481D01*
X102104442Y-103349420D01*
X102051410Y-103296388D01*
X102051404Y-103296383D01*
X101120703Y-102365682D01*
X101120698Y-102365676D01*
X101067666Y-102312644D01*
X101040605Y-102279670D01*
X101023403Y-102247488D01*
X101012810Y-102212569D01*
X101009234Y-102176252D01*
X101012810Y-102139935D01*
X101023403Y-102105016D01*
X101040605Y-102072834D01*
X101067666Y-102039860D01*
X101120698Y-101986828D01*
X101120703Y-101986822D01*
X101821594Y-101285931D01*
X101821600Y-101285926D01*
X101874632Y-101232894D01*
X101907606Y-101205833D01*
X101939788Y-101188631D01*
X101974707Y-101178038D01*
X102011024Y-101174462D01*
X102047341Y-101178038D01*
X102047341Y-101178038D01*
G37*
G36*
X86067382Y-100864162D02*
G01*
X84639195Y-102406463D01*
X83830624Y-101657718D01*
X85258811Y-100115417D01*
X86067382Y-100864162D01*
X86067382Y-100864162D01*
G37*
G36*
X71748274Y-100811044D02*
G01*
X71808996Y-100868266D01*
X70367406Y-102398044D01*
X69915287Y-101971989D01*
X69565401Y-101642273D01*
X69565400Y-101642272D01*
X71006990Y-100112494D01*
X71748274Y-100811044D01*
X71748274Y-100811044D01*
G37*
G36*
X57544665Y-100872851D02*
G01*
X57544665Y-100872852D01*
X56979109Y-101460551D01*
X56087134Y-102387450D01*
X55293087Y-101623321D01*
X55293087Y-101623320D01*
X56128324Y-100755381D01*
X56750618Y-100108722D01*
X57544665Y-100872851D01*
X57544665Y-100872851D01*
G37*
G36*
X51024206Y-98965516D02*
G01*
X51024315Y-98964410D01*
X51037058Y-98966300D01*
X51072086Y-98966300D01*
X51083258Y-98966846D01*
X51225871Y-98980830D01*
X51225920Y-98980334D01*
X51226287Y-98980399D01*
X51226238Y-98980868D01*
X51233389Y-98981619D01*
X51245220Y-98983493D01*
X51307315Y-98996691D01*
X51309024Y-98997041D01*
X51371477Y-99009407D01*
X51382308Y-99012107D01*
X51519392Y-99053494D01*
X51519973Y-99053672D01*
X51526743Y-99055768D01*
X51537977Y-99059901D01*
X51596338Y-99084914D01*
X51597945Y-99085590D01*
X51656797Y-99109847D01*
X51666909Y-99114606D01*
X51793057Y-99181680D01*
X51794059Y-99182217D01*
X51800108Y-99185488D01*
X51810305Y-99191712D01*
X51862694Y-99227584D01*
X51864142Y-99228561D01*
X51917187Y-99263804D01*
X51926151Y-99270412D01*
X52037083Y-99360887D01*
X52037597Y-99361310D01*
X52043058Y-99365827D01*
X52051866Y-99373926D01*
X52096252Y-99419252D01*
X52097482Y-99420491D01*
X52142675Y-99465369D01*
X52150221Y-99473634D01*
X52241469Y-99583934D01*
X52241959Y-99584530D01*
X52246350Y-99589915D01*
X52253424Y-99599580D01*
X52288189Y-99652705D01*
X52289154Y-99654158D01*
X52324749Y-99706931D01*
X52330539Y-99716490D01*
X52398536Y-99842249D01*
X52399060Y-99843227D01*
X52402248Y-99849223D01*
X52407309Y-99860077D01*
X52431099Y-99918960D01*
X52431765Y-99920576D01*
X52456431Y-99979253D01*
X52460248Y-99989740D01*
X52502573Y-100126470D01*
X52502810Y-100127246D01*
X52504817Y-100133891D01*
X52507670Y-100145508D01*
X52519580Y-100207944D01*
X52519919Y-100209659D01*
X52532708Y-100271956D01*
X52534416Y-100282987D01*
X52549397Y-100425516D01*
X52549457Y-100426106D01*
X52550136Y-100433038D01*
X52550679Y-100444988D01*
X52550237Y-100508498D01*
X52550237Y-100510239D01*
X52550681Y-100573900D01*
X52550213Y-100585060D01*
X52537259Y-100727388D01*
X52537150Y-100728545D01*
X52536486Y-100735312D01*
X52534698Y-100747134D01*
X52521931Y-100809333D01*
X52521592Y-100811044D01*
X52509663Y-100873579D01*
X52507036Y-100884438D01*
X52468746Y-101014536D01*
X52466449Y-101020198D01*
X52465992Y-101021749D01*
X52465863Y-101021711D01*
X52465760Y-101022058D01*
X52465888Y-101022097D01*
X52465351Y-101023877D01*
X52464270Y-101029490D01*
X52460341Y-101040405D01*
X52435709Y-101099003D01*
X52435046Y-101100613D01*
X52411216Y-101159590D01*
X52406525Y-101169743D01*
X52340356Y-101296313D01*
X52339807Y-101297354D01*
X52336588Y-101303408D01*
X52330419Y-101313676D01*
X52294902Y-101366332D01*
X52293936Y-101367787D01*
X52259097Y-101421028D01*
X52252532Y-101430064D01*
X52162852Y-101541606D01*
X52162384Y-101542184D01*
X52157953Y-101547617D01*
X52149910Y-101556485D01*
X52104897Y-101601186D01*
X52103668Y-101602424D01*
X52059093Y-101647943D01*
X52050890Y-101655538D01*
X51941312Y-101747484D01*
X51940638Y-101748046D01*
X51935266Y-101752490D01*
X51925663Y-101759622D01*
X51872718Y-101794799D01*
X51871272Y-101795774D01*
X51818811Y-101831695D01*
X51809294Y-101837550D01*
X51683800Y-101906541D01*
X51683316Y-101906805D01*
X51677053Y-101910191D01*
X51666252Y-101915320D01*
X51607542Y-101939519D01*
X51605934Y-101940195D01*
X51547426Y-101965272D01*
X51536957Y-101969165D01*
X51400374Y-102012492D01*
X51399929Y-102012631D01*
X51393124Y-102014738D01*
X51381515Y-102017676D01*
X51319233Y-102030008D01*
X51317523Y-102030359D01*
X51255260Y-102043593D01*
X51244242Y-102045378D01*
X51102042Y-102061328D01*
X51101250Y-102061414D01*
X51094295Y-102062145D01*
X51082336Y-102062772D01*
X51060804Y-102062772D01*
X51047739Y-102063457D01*
X51026120Y-102065729D01*
X51014959Y-102066353D01*
X51007678Y-102066404D01*
X51007086Y-102066406D01*
X51002139Y-102066406D01*
X51001772Y-102066424D01*
X50008096Y-102066424D01*
X49991957Y-102064835D01*
X49982348Y-102061920D01*
X49973484Y-102057182D01*
X49965719Y-102050809D01*
X49959346Y-102043044D01*
X49954608Y-102034180D01*
X49951693Y-102024571D01*
X49950104Y-102008432D01*
X49950104Y-101432898D01*
X49947702Y-101408512D01*
X49940589Y-101385063D01*
X49929038Y-101363452D01*
X49913493Y-101344510D01*
X49894551Y-101328965D01*
X49872940Y-101317414D01*
X49849491Y-101310301D01*
X49776671Y-101295816D01*
X49755238Y-101289315D01*
X49628585Y-101236853D01*
X49608835Y-101226295D01*
X49494850Y-101150133D01*
X49477541Y-101135929D01*
X49380599Y-101038987D01*
X49366395Y-101021678D01*
X49290233Y-100907693D01*
X49279675Y-100887943D01*
X49227213Y-100761290D01*
X49220712Y-100739857D01*
X49193967Y-100605401D01*
X49191773Y-100583121D01*
X49191773Y-100446023D01*
X49193967Y-100423743D01*
X49220712Y-100289287D01*
X49227213Y-100267854D01*
X49279675Y-100141201D01*
X49290233Y-100121451D01*
X49366395Y-100007466D01*
X49380599Y-99990157D01*
X49477541Y-99893215D01*
X49494850Y-99879011D01*
X49608835Y-99802849D01*
X49628585Y-99792291D01*
X49755238Y-99739829D01*
X49776671Y-99733328D01*
X49849491Y-99718843D01*
X49872940Y-99711730D01*
X49894551Y-99700179D01*
X49913493Y-99684633D01*
X49929038Y-99665692D01*
X49940589Y-99644081D01*
X49947702Y-99620632D01*
X49950104Y-99596246D01*
X49950104Y-99020712D01*
X49951693Y-99004573D01*
X49954608Y-98994964D01*
X49959346Y-98986100D01*
X49965719Y-98978335D01*
X49973484Y-98971962D01*
X49982348Y-98967224D01*
X49991957Y-98964309D01*
X50008096Y-98962720D01*
X50995816Y-98962720D01*
X51024206Y-98965516D01*
X51024206Y-98965516D01*
G37*
G36*
X104150983Y-99074396D02*
G01*
X104185902Y-99084989D01*
X104218084Y-99102191D01*
X104251058Y-99129252D01*
X104304090Y-99182284D01*
X104304096Y-99182289D01*
X105234797Y-100112990D01*
X105234802Y-100112996D01*
X105287834Y-100166028D01*
X105314895Y-100199002D01*
X105332097Y-100231184D01*
X105342690Y-100266103D01*
X105346266Y-100302420D01*
X105342690Y-100338737D01*
X105332097Y-100373656D01*
X105314895Y-100405838D01*
X105287834Y-100438812D01*
X105234802Y-100491844D01*
X105234797Y-100491850D01*
X104533906Y-101192741D01*
X104533900Y-101192746D01*
X104480868Y-101245778D01*
X104447894Y-101272839D01*
X104415712Y-101290041D01*
X104380793Y-101300634D01*
X104344476Y-101304210D01*
X104308159Y-101300634D01*
X104273240Y-101290041D01*
X104241058Y-101272839D01*
X104208084Y-101245778D01*
X104155052Y-101192746D01*
X104155046Y-101192741D01*
X103224345Y-100262040D01*
X103224340Y-100262034D01*
X103171308Y-100209002D01*
X103144247Y-100176028D01*
X103127045Y-100143846D01*
X103116452Y-100108927D01*
X103112876Y-100072610D01*
X103116452Y-100036293D01*
X103127045Y-100001374D01*
X103144247Y-99969192D01*
X103171308Y-99936218D01*
X103224340Y-99883186D01*
X103224345Y-99883180D01*
X103925236Y-99182289D01*
X103925242Y-99182284D01*
X103978274Y-99129252D01*
X104011248Y-99102191D01*
X104043430Y-99084989D01*
X104078349Y-99074396D01*
X104114666Y-99070820D01*
X104150983Y-99074396D01*
X104150983Y-99074396D01*
G37*
G36*
X82985717Y-98010509D02*
G01*
X81557530Y-99552810D01*
X80748959Y-98804065D01*
X82177146Y-97261764D01*
X82985717Y-98010509D01*
X82985717Y-98010509D01*
G37*
G36*
X68643301Y-97885065D02*
G01*
X68752351Y-97987829D01*
X67310761Y-99517607D01*
X67002996Y-99227584D01*
X66508756Y-98761836D01*
X66508755Y-98761835D01*
X67950345Y-97232057D01*
X68643301Y-97885065D01*
X68643301Y-97885065D01*
G37*
G36*
X54518351Y-97960563D02*
G01*
X54518351Y-97960564D01*
X53796159Y-98711032D01*
X53060820Y-99475162D01*
X52266773Y-98711033D01*
X52266773Y-98711032D01*
X53063945Y-97882649D01*
X53724304Y-97196434D01*
X54518351Y-97960563D01*
X54518351Y-97960563D01*
G37*
G36*
X114053063Y-95417394D02*
G01*
X114062672Y-95420309D01*
X114071536Y-95425047D01*
X114079301Y-95431420D01*
X114085674Y-95439185D01*
X114090412Y-95448049D01*
X114093327Y-95457658D01*
X114094916Y-95473797D01*
X114094916Y-96049331D01*
X114097318Y-96073717D01*
X114104431Y-96097166D01*
X114115982Y-96118777D01*
X114131527Y-96137719D01*
X114150469Y-96153264D01*
X114172080Y-96164815D01*
X114195529Y-96171928D01*
X114268349Y-96186413D01*
X114289782Y-96192914D01*
X114416435Y-96245376D01*
X114436185Y-96255934D01*
X114550170Y-96332096D01*
X114567479Y-96346300D01*
X114664421Y-96443242D01*
X114678625Y-96460551D01*
X114754787Y-96574536D01*
X114765345Y-96594286D01*
X114817807Y-96720939D01*
X114824308Y-96742372D01*
X114851053Y-96876828D01*
X114853247Y-96899108D01*
X114853247Y-97036206D01*
X114851053Y-97058486D01*
X114824308Y-97192942D01*
X114817807Y-97214375D01*
X114765345Y-97341028D01*
X114754787Y-97360778D01*
X114678625Y-97474763D01*
X114664421Y-97492072D01*
X114567479Y-97589014D01*
X114550170Y-97603218D01*
X114436185Y-97679380D01*
X114416435Y-97689938D01*
X114289782Y-97742400D01*
X114268349Y-97748901D01*
X114195529Y-97763386D01*
X114172080Y-97770499D01*
X114150469Y-97782050D01*
X114131527Y-97797596D01*
X114115982Y-97816537D01*
X114104431Y-97838148D01*
X114097318Y-97861597D01*
X114094916Y-97885983D01*
X114094916Y-98461517D01*
X114093327Y-98477656D01*
X114090412Y-98487265D01*
X114085674Y-98496129D01*
X114079301Y-98503894D01*
X114071536Y-98510267D01*
X114062672Y-98515005D01*
X114053063Y-98517920D01*
X114036924Y-98519509D01*
X113049204Y-98519509D01*
X113020814Y-98516713D01*
X113020705Y-98517819D01*
X113007962Y-98515929D01*
X112972934Y-98515929D01*
X112961762Y-98515383D01*
X112819149Y-98501399D01*
X112819100Y-98501895D01*
X112818733Y-98501830D01*
X112818782Y-98501361D01*
X112811631Y-98500610D01*
X112799800Y-98498736D01*
X112737705Y-98485538D01*
X112735996Y-98485188D01*
X112673543Y-98472822D01*
X112662712Y-98470122D01*
X112525628Y-98428735D01*
X112525047Y-98428557D01*
X112518277Y-98426461D01*
X112507043Y-98422328D01*
X112448682Y-98397315D01*
X112447075Y-98396639D01*
X112388223Y-98372382D01*
X112378111Y-98367623D01*
X112251941Y-98300537D01*
X112250961Y-98300012D01*
X112244912Y-98296741D01*
X112234715Y-98290517D01*
X112182326Y-98254645D01*
X112180878Y-98253668D01*
X112127833Y-98218425D01*
X112118869Y-98211817D01*
X112007937Y-98121342D01*
X112007423Y-98120919D01*
X112001962Y-98116402D01*
X111993154Y-98108303D01*
X111948768Y-98062977D01*
X111947538Y-98061738D01*
X111902345Y-98016860D01*
X111894799Y-98008595D01*
X111803551Y-97898295D01*
X111803061Y-97897699D01*
X111798670Y-97892314D01*
X111791596Y-97882649D01*
X111756831Y-97829524D01*
X111755866Y-97828071D01*
X111720271Y-97775298D01*
X111714481Y-97765739D01*
X111646484Y-97639980D01*
X111645960Y-97639002D01*
X111642772Y-97633006D01*
X111637711Y-97622152D01*
X111613921Y-97563269D01*
X111613255Y-97561653D01*
X111588589Y-97502976D01*
X111584772Y-97492489D01*
X111542447Y-97355759D01*
X111542210Y-97354983D01*
X111540203Y-97348338D01*
X111537350Y-97336721D01*
X111525440Y-97274285D01*
X111525101Y-97272570D01*
X111512312Y-97210273D01*
X111510604Y-97199242D01*
X111495623Y-97056713D01*
X111495563Y-97056123D01*
X111494884Y-97049191D01*
X111494341Y-97037241D01*
X111494783Y-96973730D01*
X111494783Y-96971989D01*
X111494339Y-96908329D01*
X111494807Y-96897169D01*
X111507761Y-96754841D01*
X111507877Y-96753610D01*
X111508534Y-96746917D01*
X111510322Y-96735095D01*
X111523089Y-96672896D01*
X111523428Y-96671185D01*
X111535357Y-96608650D01*
X111537984Y-96597791D01*
X111576274Y-96467693D01*
X111578571Y-96462031D01*
X111579028Y-96460480D01*
X111579157Y-96460518D01*
X111579260Y-96460171D01*
X111579132Y-96460132D01*
X111579669Y-96458352D01*
X111580750Y-96452739D01*
X111584679Y-96441824D01*
X111609311Y-96383226D01*
X111609974Y-96381616D01*
X111633804Y-96322639D01*
X111638495Y-96312486D01*
X111704664Y-96185916D01*
X111705235Y-96184834D01*
X111708432Y-96178821D01*
X111714601Y-96168553D01*
X111750118Y-96115897D01*
X111751084Y-96114442D01*
X111785923Y-96061201D01*
X111792488Y-96052165D01*
X111882168Y-95940623D01*
X111882636Y-95940045D01*
X111887067Y-95934612D01*
X111895110Y-95925744D01*
X111940123Y-95881043D01*
X111941352Y-95879805D01*
X111985927Y-95834286D01*
X111994130Y-95826691D01*
X112103708Y-95734745D01*
X112104382Y-95734183D01*
X112109754Y-95729739D01*
X112119357Y-95722607D01*
X112172302Y-95687430D01*
X112173748Y-95686455D01*
X112226209Y-95650534D01*
X112235726Y-95644679D01*
X112361220Y-95575688D01*
X112361704Y-95575424D01*
X112367967Y-95572038D01*
X112378768Y-95566909D01*
X112437478Y-95542710D01*
X112439086Y-95542034D01*
X112497594Y-95516957D01*
X112508063Y-95513064D01*
X112644675Y-95469728D01*
X112645091Y-95469598D01*
X112651896Y-95467491D01*
X112663505Y-95464553D01*
X112725787Y-95452221D01*
X112727497Y-95451870D01*
X112789760Y-95438636D01*
X112800778Y-95436851D01*
X112942978Y-95420901D01*
X112943770Y-95420815D01*
X112950725Y-95420084D01*
X112962684Y-95419457D01*
X112984216Y-95419457D01*
X112997281Y-95418772D01*
X113018900Y-95416500D01*
X113030061Y-95415876D01*
X113037342Y-95415825D01*
X113037934Y-95415823D01*
X113042881Y-95415823D01*
X113043248Y-95415805D01*
X114036924Y-95415805D01*
X114053063Y-95417394D01*
X114053063Y-95417394D01*
G37*
G36*
X61982437Y-96261323D02*
G01*
X61982437Y-96261324D01*
X61329144Y-96940195D01*
X60524906Y-97775922D01*
X59730859Y-97011793D01*
X59730859Y-97011792D01*
X60545924Y-96164815D01*
X61188390Y-95497194D01*
X61982437Y-96261323D01*
X61982437Y-96261323D01*
G37*
G36*
X76156939Y-96171607D02*
G01*
X76198233Y-96210521D01*
X74756643Y-97740299D01*
X74248834Y-97261764D01*
X73954638Y-96984528D01*
X73954637Y-96984527D01*
X75396227Y-95454749D01*
X76156939Y-96171607D01*
X76156939Y-96171607D01*
G37*
G36*
X90415807Y-96168291D02*
G01*
X88987620Y-97710592D01*
X88179049Y-96961847D01*
X89607236Y-95419546D01*
X90415807Y-96168291D01*
X90415807Y-96168291D01*
G37*
G36*
X51024206Y-93965516D02*
G01*
X51024315Y-93964410D01*
X51037058Y-93966300D01*
X51072086Y-93966300D01*
X51083258Y-93966846D01*
X51225871Y-93980830D01*
X51225920Y-93980334D01*
X51226287Y-93980399D01*
X51226238Y-93980868D01*
X51233389Y-93981619D01*
X51245220Y-93983493D01*
X51307315Y-93996691D01*
X51309024Y-93997041D01*
X51371477Y-94009407D01*
X51382308Y-94012107D01*
X51519392Y-94053494D01*
X51519973Y-94053672D01*
X51526743Y-94055768D01*
X51537977Y-94059901D01*
X51596338Y-94084914D01*
X51597945Y-94085590D01*
X51656797Y-94109847D01*
X51666909Y-94114606D01*
X51793057Y-94181680D01*
X51794059Y-94182217D01*
X51800108Y-94185488D01*
X51810305Y-94191712D01*
X51862694Y-94227584D01*
X51864142Y-94228561D01*
X51917187Y-94263804D01*
X51926151Y-94270412D01*
X52037083Y-94360887D01*
X52037597Y-94361310D01*
X52043058Y-94365827D01*
X52051866Y-94373926D01*
X52096252Y-94419252D01*
X52097482Y-94420491D01*
X52142675Y-94465369D01*
X52150221Y-94473634D01*
X52241469Y-94583934D01*
X52241959Y-94584530D01*
X52246350Y-94589915D01*
X52253424Y-94599580D01*
X52288189Y-94652705D01*
X52289154Y-94654158D01*
X52324749Y-94706931D01*
X52330539Y-94716490D01*
X52398536Y-94842249D01*
X52399060Y-94843227D01*
X52402248Y-94849223D01*
X52407309Y-94860077D01*
X52431099Y-94918960D01*
X52431765Y-94920576D01*
X52456431Y-94979253D01*
X52460248Y-94989740D01*
X52502573Y-95126470D01*
X52502810Y-95127246D01*
X52504817Y-95133891D01*
X52507670Y-95145508D01*
X52519580Y-95207944D01*
X52519919Y-95209659D01*
X52532708Y-95271956D01*
X52534416Y-95282987D01*
X52549397Y-95425516D01*
X52549457Y-95426106D01*
X52550136Y-95433038D01*
X52550679Y-95444988D01*
X52550237Y-95508498D01*
X52550237Y-95510239D01*
X52550681Y-95573900D01*
X52550213Y-95585060D01*
X52537259Y-95727388D01*
X52537150Y-95728545D01*
X52536486Y-95735312D01*
X52534698Y-95747134D01*
X52521931Y-95809333D01*
X52521592Y-95811044D01*
X52509663Y-95873579D01*
X52507036Y-95884438D01*
X52468746Y-96014536D01*
X52466449Y-96020198D01*
X52465992Y-96021749D01*
X52465863Y-96021711D01*
X52465760Y-96022058D01*
X52465888Y-96022097D01*
X52465351Y-96023877D01*
X52464270Y-96029490D01*
X52460341Y-96040405D01*
X52435709Y-96099003D01*
X52435046Y-96100613D01*
X52411216Y-96159590D01*
X52406525Y-96169743D01*
X52340356Y-96296313D01*
X52339807Y-96297354D01*
X52336588Y-96303408D01*
X52330419Y-96313676D01*
X52294902Y-96366332D01*
X52293936Y-96367787D01*
X52259097Y-96421028D01*
X52252532Y-96430064D01*
X52162852Y-96541606D01*
X52162384Y-96542184D01*
X52157953Y-96547617D01*
X52149910Y-96556485D01*
X52104897Y-96601186D01*
X52103668Y-96602424D01*
X52059093Y-96647943D01*
X52050890Y-96655538D01*
X51941312Y-96747484D01*
X51940638Y-96748046D01*
X51935266Y-96752490D01*
X51925663Y-96759622D01*
X51872718Y-96794799D01*
X51871272Y-96795774D01*
X51818811Y-96831695D01*
X51809294Y-96837550D01*
X51683800Y-96906541D01*
X51683316Y-96906805D01*
X51677053Y-96910191D01*
X51666252Y-96915320D01*
X51607542Y-96939519D01*
X51605934Y-96940195D01*
X51547426Y-96965272D01*
X51536957Y-96969165D01*
X51400374Y-97012492D01*
X51399929Y-97012631D01*
X51393124Y-97014738D01*
X51381515Y-97017676D01*
X51319233Y-97030008D01*
X51317523Y-97030359D01*
X51255260Y-97043593D01*
X51244242Y-97045378D01*
X51102042Y-97061328D01*
X51101250Y-97061414D01*
X51094295Y-97062145D01*
X51082336Y-97062772D01*
X51060804Y-97062772D01*
X51047739Y-97063457D01*
X51026120Y-97065729D01*
X51014959Y-97066353D01*
X51007678Y-97066404D01*
X51007086Y-97066406D01*
X51002139Y-97066406D01*
X51001772Y-97066424D01*
X50008096Y-97066424D01*
X49991957Y-97064835D01*
X49982348Y-97061920D01*
X49973484Y-97057182D01*
X49965719Y-97050809D01*
X49959346Y-97043044D01*
X49954608Y-97034180D01*
X49951693Y-97024571D01*
X49950104Y-97008432D01*
X49950104Y-96432898D01*
X49947702Y-96408512D01*
X49940589Y-96385063D01*
X49929038Y-96363452D01*
X49913493Y-96344510D01*
X49894551Y-96328965D01*
X49872940Y-96317414D01*
X49849491Y-96310301D01*
X49776671Y-96295816D01*
X49755238Y-96289315D01*
X49628585Y-96236853D01*
X49608835Y-96226295D01*
X49494850Y-96150133D01*
X49477541Y-96135929D01*
X49380599Y-96038987D01*
X49366395Y-96021678D01*
X49290233Y-95907693D01*
X49279675Y-95887943D01*
X49227213Y-95761290D01*
X49220712Y-95739857D01*
X49193967Y-95605401D01*
X49191773Y-95583121D01*
X49191773Y-95446023D01*
X49193967Y-95423743D01*
X49220712Y-95289287D01*
X49227213Y-95267854D01*
X49279675Y-95141201D01*
X49290233Y-95121451D01*
X49366395Y-95007466D01*
X49380599Y-94990157D01*
X49477541Y-94893215D01*
X49494850Y-94879011D01*
X49608835Y-94802849D01*
X49628585Y-94792291D01*
X49755238Y-94739829D01*
X49776671Y-94733328D01*
X49849491Y-94718843D01*
X49872940Y-94711730D01*
X49894551Y-94700179D01*
X49913493Y-94684633D01*
X49929038Y-94665692D01*
X49940589Y-94644081D01*
X49947702Y-94620632D01*
X49950104Y-94596246D01*
X49950104Y-94020712D01*
X49951693Y-94004573D01*
X49954608Y-93994964D01*
X49959346Y-93986100D01*
X49965719Y-93978335D01*
X49973484Y-93971962D01*
X49982348Y-93967224D01*
X49991957Y-93964309D01*
X50008096Y-93962720D01*
X50995816Y-93962720D01*
X51024206Y-93965516D01*
X51024206Y-93965516D01*
G37*
G36*
X58956123Y-93349035D02*
G01*
X58956123Y-93349036D01*
X58247971Y-94084914D01*
X57498592Y-94863634D01*
X56704545Y-94099505D01*
X56704545Y-94099504D01*
X57459839Y-93314638D01*
X58162076Y-92584906D01*
X58956123Y-93349035D01*
X58956123Y-93349035D01*
G37*
G36*
X73141588Y-93330084D02*
G01*
X71699998Y-94859862D01*
X71481710Y-94654158D01*
X70897993Y-94104091D01*
X70897992Y-94104090D01*
X72339582Y-92574312D01*
X73141588Y-93330084D01*
X73141588Y-93330084D01*
G37*
G36*
X87334142Y-93314638D02*
G01*
X85905955Y-94856939D01*
X85097384Y-94108194D01*
X86525571Y-92565893D01*
X87334142Y-93314638D01*
X87334142Y-93314638D01*
G37*
G36*
X114349628Y-88808160D02*
G01*
X114540897Y-88887386D01*
X114540899Y-88887387D01*
X114713037Y-89002406D01*
X114859429Y-89148798D01*
X114974449Y-89320938D01*
X115053675Y-89512207D01*
X115094064Y-89715255D01*
X115094064Y-89922287D01*
X115053675Y-90125335D01*
X114974449Y-90316604D01*
X114974448Y-90316606D01*
X114859429Y-90488744D01*
X114713037Y-90635136D01*
X114540899Y-90750155D01*
X114540898Y-90750156D01*
X114540897Y-90750156D01*
X114349628Y-90829382D01*
X114146580Y-90869771D01*
X113939548Y-90869771D01*
X113736500Y-90829382D01*
X113545231Y-90750156D01*
X113545230Y-90750156D01*
X113545229Y-90750155D01*
X113373091Y-90635136D01*
X113226699Y-90488744D01*
X113111680Y-90316606D01*
X113111679Y-90316604D01*
X113032453Y-90125335D01*
X112992064Y-89922287D01*
X112992064Y-89715255D01*
X113032453Y-89512207D01*
X113111679Y-89320938D01*
X113226699Y-89148798D01*
X113373091Y-89002406D01*
X113545229Y-88887387D01*
X113545231Y-88887386D01*
X113736500Y-88808160D01*
X113939548Y-88767771D01*
X114146580Y-88767771D01*
X114349628Y-88808160D01*
X114349628Y-88808160D01*
G37*
G36*
X82922532Y-87883229D02*
G01*
X81120532Y-87883229D01*
X81120532Y-86081229D01*
X82922532Y-86081229D01*
X82922532Y-87883229D01*
X82922532Y-87883229D01*
G37*
G36*
X84671975Y-86087748D02*
G01*
X84738159Y-86094266D01*
X84907998Y-86145786D01*
X85064523Y-86229451D01*
X85100261Y-86258781D01*
X85201718Y-86342043D01*
X85284980Y-86443500D01*
X85314310Y-86479238D01*
X85397975Y-86635763D01*
X85449495Y-86805602D01*
X85466891Y-86982229D01*
X85449495Y-87158856D01*
X85397975Y-87328695D01*
X85314310Y-87485220D01*
X85284980Y-87520958D01*
X85201718Y-87622415D01*
X85100261Y-87705677D01*
X85064523Y-87735007D01*
X84907998Y-87818672D01*
X84738159Y-87870192D01*
X84671975Y-87876710D01*
X84605792Y-87883229D01*
X84517272Y-87883229D01*
X84451089Y-87876710D01*
X84384905Y-87870192D01*
X84215066Y-87818672D01*
X84058541Y-87735007D01*
X84022803Y-87705677D01*
X83921346Y-87622415D01*
X83838084Y-87520958D01*
X83808754Y-87485220D01*
X83725089Y-87328695D01*
X83673569Y-87158856D01*
X83656173Y-86982229D01*
X83673569Y-86805602D01*
X83725089Y-86635763D01*
X83808754Y-86479238D01*
X83838084Y-86443500D01*
X83921346Y-86342043D01*
X84022803Y-86258781D01*
X84058541Y-86229451D01*
X84215066Y-86145786D01*
X84384905Y-86094266D01*
X84451089Y-86087748D01*
X84517272Y-86081229D01*
X84605792Y-86081229D01*
X84671975Y-86087748D01*
X84671975Y-86087748D01*
G37*
G36*
X87211975Y-86087748D02*
G01*
X87278159Y-86094266D01*
X87447998Y-86145786D01*
X87604523Y-86229451D01*
X87640261Y-86258781D01*
X87741718Y-86342043D01*
X87824980Y-86443500D01*
X87854310Y-86479238D01*
X87937975Y-86635763D01*
X87989495Y-86805602D01*
X88006891Y-86982229D01*
X87989495Y-87158856D01*
X87937975Y-87328695D01*
X87854310Y-87485220D01*
X87824980Y-87520958D01*
X87741718Y-87622415D01*
X87640261Y-87705677D01*
X87604523Y-87735007D01*
X87447998Y-87818672D01*
X87278159Y-87870192D01*
X87211975Y-87876710D01*
X87145792Y-87883229D01*
X87057272Y-87883229D01*
X86991089Y-87876710D01*
X86924905Y-87870192D01*
X86755066Y-87818672D01*
X86598541Y-87735007D01*
X86562803Y-87705677D01*
X86461346Y-87622415D01*
X86378084Y-87520958D01*
X86348754Y-87485220D01*
X86265089Y-87328695D01*
X86213569Y-87158856D01*
X86196173Y-86982229D01*
X86213569Y-86805602D01*
X86265089Y-86635763D01*
X86348754Y-86479238D01*
X86378084Y-86443500D01*
X86461346Y-86342043D01*
X86562803Y-86258781D01*
X86598541Y-86229451D01*
X86755066Y-86145786D01*
X86924905Y-86094266D01*
X86991089Y-86087748D01*
X87057272Y-86081229D01*
X87145792Y-86081229D01*
X87211975Y-86087748D01*
X87211975Y-86087748D01*
G37*
G36*
X105004909Y-85113776D02*
G01*
X105196178Y-85193002D01*
X105196180Y-85193003D01*
X105368318Y-85308022D01*
X105514710Y-85454414D01*
X105629730Y-85626554D01*
X105708956Y-85817823D01*
X105749345Y-86020871D01*
X105749345Y-86227903D01*
X105708956Y-86430951D01*
X105688954Y-86479240D01*
X105629729Y-86622222D01*
X105514710Y-86794360D01*
X105368318Y-86940752D01*
X105196180Y-87055771D01*
X105196179Y-87055772D01*
X105196178Y-87055772D01*
X105004909Y-87134998D01*
X104801861Y-87175387D01*
X104594829Y-87175387D01*
X104391781Y-87134998D01*
X104200512Y-87055772D01*
X104200511Y-87055772D01*
X104200510Y-87055771D01*
X104028372Y-86940752D01*
X103881980Y-86794360D01*
X103766961Y-86622222D01*
X103707736Y-86479240D01*
X103687734Y-86430951D01*
X103647345Y-86227903D01*
X103647345Y-86020871D01*
X103687734Y-85817823D01*
X103766960Y-85626554D01*
X103881980Y-85454414D01*
X104028372Y-85308022D01*
X104200510Y-85193003D01*
X104200512Y-85193002D01*
X104391781Y-85113776D01*
X104594829Y-85073387D01*
X104801861Y-85073387D01*
X105004909Y-85113776D01*
X105004909Y-85113776D01*
G37*
M02*
