G04 #@! TF.GenerationSoftware,KiCad,Pcbnew,5.1.4-e60b266~84~ubuntu18.04.1*
G04 #@! TF.CreationDate,2019-08-23T14:23:09+02:00*
G04 #@! TF.ProjectId,aab1,61616231-2e6b-4696-9361-645f70636258,rev?*
G04 #@! TF.SameCoordinates,Original*
G04 #@! TF.FileFunction,Legend,Bot*
G04 #@! TF.FilePolarity,Positive*
%FSLAX46Y46*%
G04 Gerber Fmt 4.6, Leading zero omitted, Abs format (unit mm)*
G04 Created by KiCad (PCBNEW 5.1.4-e60b266~84~ubuntu18.04.1) date 2019-08-23 14:23:09*
%MOMM*%
%LPD*%
G04 APERTURE LIST*
%ADD10C,0.150000*%
%ADD11C,0.100000*%
%ADD12C,0.300000*%
%ADD13C,0.500000*%
%ADD14C,0.120000*%
G04 APERTURE END LIST*
D10*
X112197825Y-145244485D02*
X111959730Y-145911151D01*
X111721635Y-145244485D01*
X110626397Y-145006390D02*
X110578778Y-144958771D01*
X110483540Y-144911151D01*
X110245444Y-144911151D01*
X110150206Y-144958771D01*
X110102587Y-145006390D01*
X110054968Y-145101628D01*
X110054968Y-145196866D01*
X110102587Y-145339723D01*
X110674016Y-145911151D01*
X110054968Y-145911151D01*
X109435921Y-144911151D02*
X109340683Y-144911151D01*
X109245444Y-144958771D01*
X109197825Y-145006390D01*
X109150206Y-145101628D01*
X109102587Y-145292104D01*
X109102587Y-145530199D01*
X109150206Y-145720675D01*
X109197825Y-145815913D01*
X109245444Y-145863532D01*
X109340683Y-145911151D01*
X109435921Y-145911151D01*
X109531159Y-145863532D01*
X109578778Y-145815913D01*
X109626397Y-145720675D01*
X109674016Y-145530199D01*
X109674016Y-145292104D01*
X109626397Y-145101628D01*
X109578778Y-145006390D01*
X109531159Y-144958771D01*
X109435921Y-144911151D01*
X108150206Y-145911151D02*
X108721635Y-145911151D01*
X108435921Y-145911151D02*
X108435921Y-144911151D01*
X108531159Y-145054009D01*
X108626397Y-145149247D01*
X108721635Y-145196866D01*
X107674016Y-145911151D02*
X107483540Y-145911151D01*
X107388302Y-145863532D01*
X107340683Y-145815913D01*
X107245444Y-145673056D01*
X107197825Y-145482580D01*
X107197825Y-145101628D01*
X107245444Y-145006390D01*
X107293064Y-144958771D01*
X107388302Y-144911151D01*
X107578778Y-144911151D01*
X107674016Y-144958771D01*
X107721635Y-145006390D01*
X107769254Y-145101628D01*
X107769254Y-145339723D01*
X107721635Y-145434961D01*
X107674016Y-145482580D01*
X107578778Y-145530199D01*
X107388302Y-145530199D01*
X107293064Y-145482580D01*
X107245444Y-145434961D01*
X107197825Y-145339723D01*
X106769254Y-145815913D02*
X106721635Y-145863532D01*
X106769254Y-145911151D01*
X106816873Y-145863532D01*
X106769254Y-145815913D01*
X106769254Y-145911151D01*
X106102587Y-144911151D02*
X106007349Y-144911151D01*
X105912111Y-144958771D01*
X105864492Y-145006390D01*
X105816873Y-145101628D01*
X105769254Y-145292104D01*
X105769254Y-145530199D01*
X105816873Y-145720675D01*
X105864492Y-145815913D01*
X105912111Y-145863532D01*
X106007349Y-145911151D01*
X106102587Y-145911151D01*
X106197825Y-145863532D01*
X106245444Y-145815913D01*
X106293064Y-145720675D01*
X106340683Y-145530199D01*
X106340683Y-145292104D01*
X106293064Y-145101628D01*
X106245444Y-145006390D01*
X106197825Y-144958771D01*
X106102587Y-144911151D01*
X105293064Y-145911151D02*
X105102587Y-145911151D01*
X105007349Y-145863532D01*
X104959730Y-145815913D01*
X104864492Y-145673056D01*
X104816873Y-145482580D01*
X104816873Y-145101628D01*
X104864492Y-145006390D01*
X104912111Y-144958771D01*
X105007349Y-144911151D01*
X105197825Y-144911151D01*
X105293064Y-144958771D01*
X105340683Y-145006390D01*
X105388302Y-145101628D01*
X105388302Y-145339723D01*
X105340683Y-145434961D01*
X105293064Y-145482580D01*
X105197825Y-145530199D01*
X105007349Y-145530199D01*
X104912111Y-145482580D01*
X104864492Y-145434961D01*
X104816873Y-145339723D01*
X104388302Y-145815913D02*
X104340683Y-145863532D01*
X104388302Y-145911151D01*
X104435921Y-145863532D01*
X104388302Y-145815913D01*
X104388302Y-145911151D01*
X103959730Y-145006390D02*
X103912111Y-144958771D01*
X103816873Y-144911151D01*
X103578778Y-144911151D01*
X103483540Y-144958771D01*
X103435921Y-145006390D01*
X103388302Y-145101628D01*
X103388302Y-145196866D01*
X103435921Y-145339723D01*
X104007349Y-145911151D01*
X103388302Y-145911151D01*
X103007349Y-145006390D02*
X102959730Y-144958771D01*
X102864492Y-144911151D01*
X102626397Y-144911151D01*
X102531159Y-144958771D01*
X102483540Y-145006390D01*
X102435921Y-145101628D01*
X102435921Y-145196866D01*
X102483540Y-145339723D01*
X103054968Y-145911151D01*
X102435921Y-145911151D01*
D11*
G36*
X90583228Y-145163418D02*
G01*
X91044424Y-145515706D01*
X91236376Y-146196671D01*
X91038865Y-147185954D01*
X90868228Y-147239708D01*
X90978228Y-147605012D01*
X90868228Y-147748623D01*
X91128170Y-147984395D01*
X91047523Y-148213771D01*
X89500679Y-148213771D01*
X89433162Y-147945469D01*
X89679275Y-147753036D01*
X89564421Y-147622216D01*
X89678750Y-147036705D01*
X90293064Y-146308771D01*
X89644086Y-146351571D01*
X89523228Y-146490801D01*
X89367755Y-146515301D01*
X89152553Y-146392781D01*
X89074975Y-146254658D01*
X89183228Y-146037361D01*
X89567355Y-145717093D01*
X89304716Y-145325862D01*
X89305245Y-145248770D01*
X89361079Y-145242167D01*
X89721367Y-145593771D01*
X89774375Y-145548771D01*
X89830847Y-145308770D01*
X90291728Y-145110479D01*
X90583228Y-145163418D01*
G37*
X90583228Y-145163418D02*
X91044424Y-145515706D01*
X91236376Y-146196671D01*
X91038865Y-147185954D01*
X90868228Y-147239708D01*
X90978228Y-147605012D01*
X90868228Y-147748623D01*
X91128170Y-147984395D01*
X91047523Y-148213771D01*
X89500679Y-148213771D01*
X89433162Y-147945469D01*
X89679275Y-147753036D01*
X89564421Y-147622216D01*
X89678750Y-147036705D01*
X90293064Y-146308771D01*
X89644086Y-146351571D01*
X89523228Y-146490801D01*
X89367755Y-146515301D01*
X89152553Y-146392781D01*
X89074975Y-146254658D01*
X89183228Y-146037361D01*
X89567355Y-145717093D01*
X89304716Y-145325862D01*
X89305245Y-145248770D01*
X89361079Y-145242167D01*
X89721367Y-145593771D01*
X89774375Y-145548771D01*
X89830847Y-145308770D01*
X90291728Y-145110479D01*
X90583228Y-145163418D01*
D12*
X94782000Y-147338000D02*
G75*
G02X94274000Y-147338000I-254000J0D01*
G01*
X94528000Y-147846000D02*
X95036000Y-147338000D01*
X94020000Y-147338000D02*
X94528000Y-147846000D01*
X94528000Y-147338000D02*
G75*
G02X95036000Y-147338000I254000J0D01*
G01*
X94020000Y-147338000D02*
G75*
G02X94528000Y-147338000I254000J0D01*
G01*
D10*
X111940683Y-147911151D02*
X111940683Y-146911151D01*
X111702587Y-146911151D01*
X111559730Y-146958771D01*
X111464492Y-147054009D01*
X111416873Y-147149247D01*
X111369254Y-147339723D01*
X111369254Y-147482580D01*
X111416873Y-147673056D01*
X111464492Y-147768294D01*
X111559730Y-147863532D01*
X111702587Y-147911151D01*
X111940683Y-147911151D01*
X110559730Y-147863532D02*
X110654968Y-147911151D01*
X110845444Y-147911151D01*
X110940683Y-147863532D01*
X110988302Y-147768294D01*
X110988302Y-147387342D01*
X110940683Y-147292104D01*
X110845444Y-147244485D01*
X110654968Y-147244485D01*
X110559730Y-147292104D01*
X110512111Y-147387342D01*
X110512111Y-147482580D01*
X110988302Y-147577818D01*
X110131159Y-147863532D02*
X110035921Y-147911151D01*
X109845444Y-147911151D01*
X109750206Y-147863532D01*
X109702587Y-147768294D01*
X109702587Y-147720675D01*
X109750206Y-147625437D01*
X109845444Y-147577818D01*
X109988302Y-147577818D01*
X110083540Y-147530199D01*
X110131159Y-147434961D01*
X110131159Y-147387342D01*
X110083540Y-147292104D01*
X109988302Y-147244485D01*
X109845444Y-147244485D01*
X109750206Y-147292104D01*
X109274016Y-147911151D02*
X109274016Y-147244485D01*
X109274016Y-146911151D02*
X109321635Y-146958771D01*
X109274016Y-147006390D01*
X109226397Y-146958771D01*
X109274016Y-146911151D01*
X109274016Y-147006390D01*
X108369254Y-147244485D02*
X108369254Y-148054009D01*
X108416873Y-148149247D01*
X108464492Y-148196866D01*
X108559730Y-148244485D01*
X108702587Y-148244485D01*
X108797825Y-148196866D01*
X108369254Y-147863532D02*
X108464492Y-147911151D01*
X108654968Y-147911151D01*
X108750206Y-147863532D01*
X108797825Y-147815913D01*
X108845444Y-147720675D01*
X108845444Y-147434961D01*
X108797825Y-147339723D01*
X108750206Y-147292104D01*
X108654968Y-147244485D01*
X108464492Y-147244485D01*
X108369254Y-147292104D01*
X107893064Y-147244485D02*
X107893064Y-147911151D01*
X107893064Y-147339723D02*
X107845444Y-147292104D01*
X107750206Y-147244485D01*
X107607349Y-147244485D01*
X107512111Y-147292104D01*
X107464492Y-147387342D01*
X107464492Y-147911151D01*
X106607349Y-147863532D02*
X106702587Y-147911151D01*
X106893064Y-147911151D01*
X106988302Y-147863532D01*
X107035921Y-147768294D01*
X107035921Y-147387342D01*
X106988302Y-147292104D01*
X106893064Y-147244485D01*
X106702587Y-147244485D01*
X106607349Y-147292104D01*
X106559730Y-147387342D01*
X106559730Y-147482580D01*
X107035921Y-147577818D01*
X105702587Y-147911151D02*
X105702587Y-146911151D01*
X105702587Y-147863532D02*
X105797825Y-147911151D01*
X105988302Y-147911151D01*
X106083540Y-147863532D01*
X106131159Y-147815913D01*
X106178778Y-147720675D01*
X106178778Y-147434961D01*
X106131159Y-147339723D01*
X106083540Y-147292104D01*
X105988302Y-147244485D01*
X105797825Y-147244485D01*
X105702587Y-147292104D01*
X104464492Y-147911151D02*
X104464492Y-147244485D01*
X104464492Y-146911151D02*
X104512111Y-146958771D01*
X104464492Y-147006390D01*
X104416873Y-146958771D01*
X104464492Y-146911151D01*
X104464492Y-147006390D01*
X103988302Y-147244485D02*
X103988302Y-147911151D01*
X103988302Y-147339723D02*
X103940683Y-147292104D01*
X103845444Y-147244485D01*
X103702587Y-147244485D01*
X103607349Y-147292104D01*
X103559730Y-147387342D01*
X103559730Y-147911151D01*
X102321635Y-147911151D02*
X102321635Y-146911151D01*
X101988302Y-147244485D02*
X101607349Y-147244485D01*
X101845444Y-146911151D02*
X101845444Y-147768294D01*
X101797825Y-147863532D01*
X101702587Y-147911151D01*
X101607349Y-147911151D01*
X100845444Y-147911151D02*
X100845444Y-147387342D01*
X100893064Y-147292104D01*
X100988302Y-147244485D01*
X101178778Y-147244485D01*
X101274016Y-147292104D01*
X100845444Y-147863532D02*
X100940683Y-147911151D01*
X101178778Y-147911151D01*
X101274016Y-147863532D01*
X101321635Y-147768294D01*
X101321635Y-147673056D01*
X101274016Y-147577818D01*
X101178778Y-147530199D01*
X100940683Y-147530199D01*
X100845444Y-147482580D01*
X100226397Y-147911151D02*
X100321635Y-147863532D01*
X100369254Y-147768294D01*
X100369254Y-146911151D01*
X99940683Y-147244485D02*
X99702587Y-147911151D01*
X99464492Y-147244485D02*
X99702587Y-147911151D01*
X99797825Y-148149247D01*
X99845444Y-148196866D01*
X99940683Y-148244485D01*
X98416873Y-147244485D02*
X98226397Y-147911151D01*
X98035921Y-147434961D01*
X97845444Y-147911151D01*
X97654968Y-147244485D01*
X97274016Y-147911151D02*
X97274016Y-147244485D01*
X97274016Y-146911151D02*
X97321635Y-146958771D01*
X97274016Y-147006390D01*
X97226397Y-146958771D01*
X97274016Y-146911151D01*
X97274016Y-147006390D01*
X96940683Y-147244485D02*
X96559730Y-147244485D01*
X96797825Y-146911151D02*
X96797825Y-147768294D01*
X96750206Y-147863532D01*
X96654968Y-147911151D01*
X96559730Y-147911151D01*
X96226397Y-147911151D02*
X96226397Y-146911151D01*
X95797825Y-147911151D02*
X95797825Y-147387342D01*
X95845444Y-147292104D01*
X95940683Y-147244485D01*
X96083540Y-147244485D01*
X96178778Y-147292104D01*
X96226397Y-147339723D01*
X93035921Y-147911151D02*
X93035921Y-146911151D01*
X93035921Y-147292104D02*
X92940683Y-147244485D01*
X92750206Y-147244485D01*
X92654968Y-147292104D01*
X92607349Y-147339723D01*
X92559730Y-147434961D01*
X92559730Y-147720675D01*
X92607349Y-147815913D01*
X92654968Y-147863532D01*
X92750206Y-147911151D01*
X92940683Y-147911151D01*
X93035921Y-147863532D01*
X92226397Y-147244485D02*
X91988302Y-147911151D01*
X91750206Y-147244485D02*
X91988302Y-147911151D01*
X92083540Y-148149247D01*
X92131159Y-148196866D01*
X92226397Y-148244485D01*
D11*
X112714492Y-139423056D02*
X113314492Y-139623056D01*
X112714492Y-139823056D01*
X113314492Y-140023056D02*
X112714492Y-140023056D01*
X112714492Y-140165913D01*
X112743064Y-140251628D01*
X112800206Y-140308771D01*
X112857349Y-140337342D01*
X112971635Y-140365913D01*
X113057349Y-140365913D01*
X113171635Y-140337342D01*
X113228778Y-140308771D01*
X113285921Y-140251628D01*
X113314492Y-140165913D01*
X113314492Y-140023056D01*
X113314492Y-140623056D02*
X112714492Y-140623056D01*
X112714492Y-140765913D01*
X112743064Y-140851628D01*
X112800206Y-140908771D01*
X112857349Y-140937342D01*
X112971635Y-140965913D01*
X113057349Y-140965913D01*
X113171635Y-140937342D01*
X113228778Y-140908771D01*
X113285921Y-140851628D01*
X113314492Y-140765913D01*
X113314492Y-140623056D01*
X113314492Y-141623056D02*
X112914492Y-141937342D01*
X112914492Y-141623056D02*
X113314492Y-141937342D01*
X112771635Y-142594485D02*
X112743064Y-142623056D01*
X112714492Y-142680199D01*
X112714492Y-142823056D01*
X112743064Y-142880199D01*
X112771635Y-142908771D01*
X112828778Y-142937342D01*
X112885921Y-142937342D01*
X112971635Y-142908771D01*
X113314492Y-142565913D01*
X113314492Y-142937342D01*
X113314492Y-123094485D02*
X112714492Y-123094485D01*
X112714492Y-123237342D01*
X112743064Y-123323056D01*
X112800206Y-123380199D01*
X112857349Y-123408771D01*
X112971635Y-123437342D01*
X113057349Y-123437342D01*
X113171635Y-123408771D01*
X113228778Y-123380199D01*
X113285921Y-123323056D01*
X113314492Y-123237342D01*
X113314492Y-123094485D01*
X113314492Y-123694485D02*
X112714492Y-123694485D01*
X113314492Y-123980199D02*
X112714492Y-123980199D01*
X113314492Y-124323056D01*
X112714492Y-124323056D01*
X112714492Y-109451628D02*
X113314492Y-109651628D01*
X112714492Y-109851628D01*
X113285921Y-110023056D02*
X113314492Y-110108771D01*
X113314492Y-110251628D01*
X113285921Y-110308771D01*
X113257349Y-110337342D01*
X113200206Y-110365913D01*
X113143064Y-110365913D01*
X113085921Y-110337342D01*
X113057349Y-110308771D01*
X113028778Y-110251628D01*
X113000206Y-110137342D01*
X112971635Y-110080199D01*
X112943064Y-110051628D01*
X112885921Y-110023056D01*
X112828778Y-110023056D01*
X112771635Y-110051628D01*
X112743064Y-110080199D01*
X112714492Y-110137342D01*
X112714492Y-110280199D01*
X112743064Y-110365913D01*
X113285921Y-110594485D02*
X113314492Y-110680199D01*
X113314492Y-110823056D01*
X113285921Y-110880199D01*
X113257349Y-110908771D01*
X113200206Y-110937342D01*
X113143064Y-110937342D01*
X113085921Y-110908771D01*
X113057349Y-110880199D01*
X113028778Y-110823056D01*
X113000206Y-110708771D01*
X112971635Y-110651628D01*
X112943064Y-110623056D01*
X112885921Y-110594485D01*
X112828778Y-110594485D01*
X112771635Y-110623056D01*
X112743064Y-110651628D01*
X112714492Y-110708771D01*
X112714492Y-110851628D01*
X112743064Y-110937342D01*
X113314492Y-111594485D02*
X112914492Y-111908771D01*
X112914492Y-111594485D02*
X113314492Y-111908771D01*
X112714492Y-112537342D02*
X112714492Y-112908771D01*
X112943064Y-112708771D01*
X112943064Y-112794485D01*
X112971635Y-112851628D01*
X113000206Y-112880199D01*
X113057349Y-112908771D01*
X113200206Y-112908771D01*
X113257349Y-112880199D01*
X113285921Y-112851628D01*
X113314492Y-112794485D01*
X113314492Y-112623056D01*
X113285921Y-112565913D01*
X113257349Y-112537342D01*
X77028778Y-147461151D02*
X76695444Y-148461151D01*
X76362111Y-147461151D01*
X76076397Y-148413532D02*
X75933540Y-148461151D01*
X75695444Y-148461151D01*
X75600206Y-148413532D01*
X75552587Y-148365913D01*
X75504968Y-148270675D01*
X75504968Y-148175437D01*
X75552587Y-148080199D01*
X75600206Y-148032580D01*
X75695444Y-147984961D01*
X75885921Y-147937342D01*
X75981159Y-147889723D01*
X76028778Y-147842104D01*
X76076397Y-147746866D01*
X76076397Y-147651628D01*
X76028778Y-147556390D01*
X75981159Y-147508771D01*
X75885921Y-147461151D01*
X75647825Y-147461151D01*
X75504968Y-147508771D01*
X75124016Y-148413532D02*
X74981159Y-148461151D01*
X74743064Y-148461151D01*
X74647825Y-148413532D01*
X74600206Y-148365913D01*
X74552587Y-148270675D01*
X74552587Y-148175437D01*
X74600206Y-148080199D01*
X74647825Y-148032580D01*
X74743064Y-147984961D01*
X74933540Y-147937342D01*
X75028778Y-147889723D01*
X75076397Y-147842104D01*
X75124016Y-147746866D01*
X75124016Y-147651628D01*
X75076397Y-147556390D01*
X75028778Y-147508771D01*
X74933540Y-147461151D01*
X74695444Y-147461151D01*
X74552587Y-147508771D01*
X81133540Y-148461151D02*
X81133540Y-147461151D01*
X80895444Y-147461151D01*
X80752587Y-147508771D01*
X80657349Y-147604009D01*
X80609730Y-147699247D01*
X80562111Y-147889723D01*
X80562111Y-148032580D01*
X80609730Y-148223056D01*
X80657349Y-148318294D01*
X80752587Y-148413532D01*
X80895444Y-148461151D01*
X81133540Y-148461151D01*
X79943064Y-147461151D02*
X79752587Y-147461151D01*
X79657349Y-147508771D01*
X79562111Y-147604009D01*
X79514492Y-147794485D01*
X79514492Y-148127818D01*
X79562111Y-148318294D01*
X79657349Y-148413532D01*
X79752587Y-148461151D01*
X79943064Y-148461151D01*
X80038302Y-148413532D01*
X80133540Y-148318294D01*
X80181159Y-148127818D01*
X80181159Y-147794485D01*
X80133540Y-147604009D01*
X80038302Y-147508771D01*
X79943064Y-147461151D01*
X79085921Y-147461151D02*
X79085921Y-148270675D01*
X79038302Y-148365913D01*
X78990683Y-148413532D01*
X78895444Y-148461151D01*
X78704968Y-148461151D01*
X78609730Y-148413532D01*
X78562111Y-148365913D01*
X78514492Y-148270675D01*
X78514492Y-147461151D01*
X78181159Y-147461151D02*
X77609730Y-147461151D01*
X77895444Y-148461151D02*
X77895444Y-147461151D01*
X84576397Y-147461151D02*
X84243064Y-148461151D01*
X83909730Y-147461151D01*
X83576397Y-148461151D02*
X83576397Y-147461151D01*
X83338302Y-147461151D01*
X83195444Y-147508771D01*
X83100206Y-147604009D01*
X83052587Y-147699247D01*
X83004968Y-147889723D01*
X83004968Y-148032580D01*
X83052587Y-148223056D01*
X83100206Y-148318294D01*
X83195444Y-148413532D01*
X83338302Y-148461151D01*
X83576397Y-148461151D01*
X82576397Y-148461151D02*
X82576397Y-147461151D01*
X82338302Y-147461151D01*
X82195444Y-147508771D01*
X82100206Y-147604009D01*
X82052587Y-147699247D01*
X82004968Y-147889723D01*
X82004968Y-148032580D01*
X82052587Y-148223056D01*
X82100206Y-148318294D01*
X82195444Y-148413532D01*
X82338302Y-148461151D01*
X82576397Y-148461151D01*
D13*
X57630310Y-92092121D02*
G75*
G03X57630310Y-92092121I-250000J0D01*
G01*
D10*
X57849338Y-94714038D02*
X59866881Y-96655563D01*
X56399872Y-100258318D02*
X54382329Y-98316793D01*
X56710031Y-94311571D02*
X53936424Y-97193776D01*
X60312786Y-97778580D02*
X57539179Y-100660785D01*
D13*
X57068935Y-117881747D02*
G75*
G03X57068935Y-117881747I-250000J0D01*
G01*
D10*
X56372805Y-115255837D02*
X54372282Y-113296780D01*
X57870599Y-109724417D02*
X59871122Y-111683474D01*
X57508557Y-115668231D02*
X60307210Y-112810340D01*
X53936194Y-112169914D02*
X56734847Y-109312023D01*
D13*
X71404289Y-102882617D02*
G75*
G03X71404289Y-102882617I-250001J0D01*
G01*
D10*
X70657830Y-100265756D02*
X68620066Y-98345464D01*
X72049158Y-94706600D02*
X74086922Y-96626892D01*
X71801289Y-100656269D02*
X74544563Y-97745178D01*
X68162425Y-97227178D02*
X70905699Y-94316087D01*
D13*
X57728009Y-122105923D02*
G75*
G03X57728009Y-122105923I-250000J0D01*
G01*
D10*
X57896616Y-124736361D02*
X59876515Y-126716260D01*
X56340982Y-130251793D02*
X54361083Y-128271894D01*
X56765246Y-124312096D02*
X53936818Y-127140524D01*
X60300780Y-127847630D02*
X57472352Y-130676058D01*
D13*
X71856296Y-107096070D02*
G75*
G03X71856296Y-107096070I-250000J0D01*
G01*
D10*
X72075324Y-109717987D02*
X74092867Y-111659512D01*
X70625858Y-115262267D02*
X68608315Y-113320742D01*
X70936017Y-109315520D02*
X68162410Y-112197725D01*
X74538772Y-112782529D02*
X71765165Y-115664734D01*
D13*
X85984488Y-92088207D02*
G75*
G03X85984488Y-92088207I-249999J0D01*
G01*
D10*
X86253764Y-94700636D02*
X88308208Y-96603071D01*
X84911002Y-100271720D02*
X82856558Y-98369285D01*
X85106941Y-94320115D02*
X82389176Y-97255034D01*
X88775590Y-97717322D02*
X86057825Y-100652241D01*
D14*
X104246941Y-101457080D02*
X103395494Y-102308527D01*
X102960006Y-100170145D02*
X102108559Y-101021592D01*
X104208889Y-116487544D02*
X103366405Y-117347861D01*
X102908549Y-115214157D02*
X102066065Y-116074474D01*
X89947340Y-116513612D02*
X89112395Y-117381248D01*
X88635937Y-115251620D02*
X87800992Y-116119256D01*
X104170020Y-131520998D02*
X103335075Y-132388634D01*
X102858617Y-130259006D02*
X102023672Y-131126642D01*
X89911723Y-131542722D02*
X89085910Y-132419053D01*
X88587176Y-130294533D02*
X87761363Y-131170864D01*
X83351532Y-146830000D02*
X83351532Y-145500000D01*
X82021532Y-146830000D02*
X83351532Y-146830000D01*
X80751532Y-146830000D02*
X80751532Y-144170000D01*
X80751532Y-144170000D02*
X75611532Y-144170000D01*
X80751532Y-146830000D02*
X75611532Y-146830000D01*
X75611532Y-146830000D02*
X75611532Y-144170000D01*
X75648752Y-131571467D02*
X74830618Y-132454972D01*
X74313364Y-130334884D02*
X73495230Y-131218389D01*
D10*
X60670374Y-99213129D02*
X59949823Y-98519728D01*
X59784727Y-98691287D01*
X59719982Y-98827242D01*
X59722567Y-98961905D01*
X59758172Y-99062255D01*
X59862401Y-99228643D01*
X59965337Y-99327701D01*
X60135604Y-99425465D01*
X60237247Y-99457192D01*
X60371909Y-99454606D01*
X60505278Y-99384689D01*
X60670374Y-99213129D01*
X59613762Y-100311112D02*
X60009991Y-99899369D01*
X59811877Y-100105240D02*
X59091325Y-99411838D01*
X59260300Y-99442272D01*
X59394962Y-99439686D01*
X59495312Y-99404081D01*
X58697681Y-99958244D02*
X58630350Y-99959537D01*
X58530000Y-99995142D01*
X58364904Y-100166701D01*
X58333178Y-100268345D01*
X58334471Y-100335676D01*
X58370076Y-100436026D01*
X58438700Y-100502064D01*
X58574655Y-100566810D01*
X59382628Y-100551296D01*
X58953379Y-100997351D01*
X55936747Y-109630178D02*
X55222274Y-108930515D01*
X55055687Y-109100627D01*
X54989758Y-109236012D01*
X54991168Y-109370692D01*
X55025896Y-109471349D01*
X55128669Y-109638640D01*
X55230736Y-109738592D01*
X55400144Y-109837839D01*
X55501506Y-109870451D01*
X55636186Y-109869041D01*
X55770160Y-109800290D01*
X55936747Y-109630178D01*
X54870593Y-110718898D02*
X55270400Y-110310628D01*
X55070497Y-110514763D02*
X54356024Y-109815100D01*
X54524726Y-109847007D01*
X54659406Y-109845596D01*
X54760063Y-109810869D01*
X53722995Y-110461527D02*
X53656361Y-110529572D01*
X53623749Y-110630935D01*
X53624454Y-110698275D01*
X53659181Y-110798932D01*
X53761954Y-110966223D01*
X53932067Y-111132810D01*
X54101474Y-111232057D01*
X54202836Y-111264669D01*
X54270176Y-111263964D01*
X54370833Y-111229236D01*
X54437468Y-111161191D01*
X54470080Y-111059828D01*
X54469375Y-110992489D01*
X54434647Y-110891832D01*
X54331874Y-110724540D01*
X54161762Y-110557953D01*
X53992355Y-110458707D01*
X53890992Y-110426095D01*
X53823652Y-110426800D01*
X53722995Y-110461527D01*
X70113853Y-94649504D02*
X69386081Y-93963685D01*
X69222791Y-94136964D01*
X69159472Y-94273590D01*
X69163468Y-94408218D01*
X69200122Y-94508190D01*
X69306087Y-94673478D01*
X69410055Y-94771452D01*
X69581336Y-94867428D01*
X69683306Y-94898088D01*
X69817933Y-94894092D01*
X69950563Y-94822783D01*
X70113853Y-94649504D01*
X69068797Y-95758491D02*
X69460693Y-95342621D01*
X69264745Y-95550556D02*
X68536972Y-94864737D01*
X68706256Y-94893400D01*
X68840884Y-94889404D01*
X68940855Y-94852750D01*
X68415637Y-96451608D02*
X68807533Y-96035737D01*
X68611585Y-96243672D02*
X67883812Y-95557854D01*
X68053096Y-95586517D01*
X68187723Y-95582521D01*
X68287695Y-95545867D01*
X60294044Y-129625498D02*
X59586938Y-128918391D01*
X59418579Y-129086750D01*
X59351235Y-129221437D01*
X59351235Y-129356124D01*
X59384907Y-129457139D01*
X59485922Y-129625498D01*
X59586938Y-129726513D01*
X59755296Y-129827529D01*
X59856312Y-129861200D01*
X59990999Y-129861200D01*
X60125686Y-129793857D01*
X60294044Y-129625498D01*
X59553266Y-130366277D02*
X59418579Y-130500964D01*
X59317563Y-130534635D01*
X59250220Y-130534635D01*
X59081861Y-130500964D01*
X58913502Y-130399948D01*
X58644128Y-130130574D01*
X58610457Y-130029559D01*
X58610457Y-129962216D01*
X58644128Y-129861200D01*
X58778815Y-129726513D01*
X58879831Y-129692841D01*
X58947174Y-129692841D01*
X59048189Y-129726513D01*
X59216548Y-129894872D01*
X59250220Y-129995887D01*
X59250220Y-130063231D01*
X59216548Y-130164246D01*
X59081861Y-130298933D01*
X58980846Y-130332605D01*
X58913502Y-130332605D01*
X58812487Y-130298933D01*
X74566170Y-114560199D02*
X73845619Y-113866797D01*
X73680523Y-114038357D01*
X73615777Y-114174312D01*
X73618363Y-114308974D01*
X73653968Y-114409324D01*
X73758197Y-114575713D01*
X73861132Y-114674770D01*
X74031399Y-114772535D01*
X74133042Y-114804261D01*
X74267705Y-114801675D01*
X74401074Y-114731759D01*
X74566170Y-114560199D01*
X73361967Y-114987456D02*
X73393693Y-114885813D01*
X73392400Y-114818482D01*
X73356796Y-114718132D01*
X73322484Y-114685113D01*
X73220841Y-114653386D01*
X73153510Y-114654679D01*
X73053159Y-114690284D01*
X72921083Y-114827532D01*
X72889356Y-114929175D01*
X72890649Y-114996506D01*
X72926254Y-115096856D01*
X72960566Y-115129875D01*
X73062209Y-115161602D01*
X73129540Y-115160309D01*
X73229890Y-115124704D01*
X73361967Y-114987456D01*
X73462317Y-114951852D01*
X73529648Y-114950559D01*
X73631291Y-114982285D01*
X73768539Y-115114362D01*
X73804144Y-115214712D01*
X73805437Y-115282043D01*
X73773710Y-115383686D01*
X73641634Y-115520934D01*
X73541284Y-115556539D01*
X73473953Y-115557831D01*
X73372310Y-115526105D01*
X73235062Y-115394029D01*
X73199457Y-115293678D01*
X73198164Y-115226347D01*
X73229890Y-115124704D01*
X88837109Y-99494137D02*
X88103379Y-98814696D01*
X87941608Y-98989394D01*
X87879484Y-99126566D01*
X87884655Y-99261154D01*
X87922179Y-99360802D01*
X88029583Y-99525159D01*
X88134401Y-99622222D01*
X88306514Y-99716700D01*
X88408747Y-99746469D01*
X88543335Y-99741299D01*
X88675338Y-99668835D01*
X88837109Y-99494137D01*
X87488647Y-99478547D02*
X87035686Y-99967700D01*
X88060605Y-100332686D01*
X102261205Y-100087089D02*
X102328548Y-100087089D01*
X102463235Y-100019745D01*
X102530579Y-99952402D01*
X102597922Y-99817714D01*
X102597922Y-99683027D01*
X102564251Y-99582012D01*
X102463235Y-99413653D01*
X102362220Y-99312638D01*
X102193861Y-99211623D01*
X102092846Y-99177951D01*
X101958159Y-99177951D01*
X101823472Y-99245295D01*
X101756128Y-99312638D01*
X101688785Y-99447325D01*
X101688785Y-99514669D01*
X101655113Y-100827867D02*
X102059174Y-100423806D01*
X101857144Y-100625837D02*
X101150037Y-99918730D01*
X101318396Y-99952402D01*
X101453083Y-99952402D01*
X101554098Y-99918730D01*
X102208916Y-115138422D02*
X102276256Y-115137717D01*
X102410230Y-115068967D01*
X102476865Y-115000922D01*
X102542794Y-114865537D01*
X102541384Y-114730858D01*
X102506656Y-114630200D01*
X102403883Y-114462909D01*
X102301816Y-114362957D01*
X102132408Y-114263710D01*
X102031046Y-114231098D01*
X101896366Y-114232508D01*
X101762392Y-114301259D01*
X101695757Y-114369304D01*
X101629828Y-114504689D01*
X101630533Y-114572028D01*
X101610615Y-115885507D02*
X102010422Y-115477237D01*
X101810519Y-115681372D02*
X101096046Y-114981709D01*
X101264748Y-115013616D01*
X101399428Y-115012205D01*
X101500085Y-114977478D01*
X87935669Y-115181994D02*
X88003000Y-115180701D01*
X88136370Y-115110785D01*
X88202408Y-115042161D01*
X88267153Y-114906206D01*
X88264568Y-114771543D01*
X88228963Y-114671193D01*
X88124734Y-114504805D01*
X88021798Y-114405747D01*
X87851531Y-114307983D01*
X87749888Y-114276256D01*
X87615226Y-114278842D01*
X87481857Y-114348759D01*
X87415818Y-114417383D01*
X87351073Y-114553338D01*
X87352366Y-114620669D01*
X87343910Y-115934272D02*
X87740140Y-115522528D01*
X87542025Y-115728400D02*
X86821474Y-115034998D01*
X86990448Y-115065431D01*
X87125110Y-115062846D01*
X87225461Y-115027241D01*
X102158349Y-130189380D02*
X102225680Y-130188087D01*
X102359050Y-130118171D01*
X102425088Y-130049547D01*
X102489833Y-129913592D01*
X102487248Y-129778929D01*
X102451643Y-129678579D01*
X102347414Y-129512191D01*
X102244478Y-129413133D01*
X102074211Y-129315369D01*
X101972568Y-129283642D01*
X101837906Y-129286228D01*
X101704537Y-129356145D01*
X101638498Y-129424769D01*
X101573753Y-129560724D01*
X101575046Y-129628055D01*
X101566590Y-130941658D02*
X101962820Y-130529914D01*
X101764705Y-130735786D02*
X101044154Y-130042384D01*
X101213128Y-130072817D01*
X101347790Y-130070232D01*
X101448141Y-130034627D01*
X87886218Y-130232243D02*
X87953532Y-130230245D01*
X88086162Y-130158936D01*
X88151478Y-130089624D01*
X88214796Y-129952999D01*
X88210801Y-129818371D01*
X88174147Y-129718399D01*
X88068182Y-129553111D01*
X87964214Y-129455137D01*
X87792933Y-129359161D01*
X87690963Y-129328501D01*
X87556335Y-129332496D01*
X87423705Y-129403806D01*
X87358389Y-129473117D01*
X87295071Y-129609743D01*
X87297069Y-129677057D01*
X87302370Y-130990676D02*
X87694266Y-130574806D01*
X87498318Y-130782741D02*
X86770545Y-130096923D01*
X86939829Y-130125585D01*
X87074456Y-130121589D01*
X87174428Y-130084936D01*
X73611889Y-130278714D02*
X73679183Y-130276129D01*
X73811186Y-130203664D01*
X73875894Y-130133785D01*
X73938018Y-129996612D01*
X73932847Y-129862025D01*
X73895323Y-129762377D01*
X73787919Y-129598020D01*
X73683100Y-129500957D01*
X73510988Y-129406479D01*
X73408755Y-129376710D01*
X73274167Y-129381880D01*
X73142164Y-129454344D01*
X73077456Y-129524223D01*
X73015332Y-129661396D01*
X73017917Y-129728690D01*
X73034681Y-131042213D02*
X73422933Y-130622939D01*
X73228807Y-130832576D02*
X72495077Y-130153134D01*
X72664605Y-130180318D01*
X72799192Y-130175148D01*
X72898841Y-130137623D01*
M02*
