G04 #@! TF.GenerationSoftware,KiCad,Pcbnew,5.1.4-e60b266~84~ubuntu18.04.1*
G04 #@! TF.CreationDate,2019-08-23T14:23:09+02:00*
G04 #@! TF.ProjectId,aab1,61616231-2e6b-4696-9361-645f70636258,rev?*
G04 #@! TF.SameCoordinates,Original*
G04 #@! TF.FileFunction,Profile,NP*
%FSLAX46Y46*%
G04 Gerber Fmt 4.6, Leading zero omitted, Abs format (unit mm)*
G04 Created by KiCad (PCBNEW 5.1.4-e60b266~84~ubuntu18.04.1) date 2019-08-23 14:23:09*
%MOMM*%
%LPD*%
G04 APERTURE LIST*
%ADD10C,0.100000*%
G04 APERTURE END LIST*
D10*
X56175050Y-142763375D02*
X50000000Y-149273458D01*
X50000000Y-149273458D02*
X49997748Y-142663629D01*
X49997748Y-142663629D02*
X50000000Y-140663632D01*
X50000000Y-140663632D02*
X50000000Y-82482229D01*
X50000000Y-82482229D02*
X113353912Y-82482229D01*
X113353912Y-82482229D02*
X107142484Y-89030663D01*
X107142484Y-89030663D02*
X107868013Y-89718854D01*
X107868013Y-89718854D02*
X114043064Y-83208771D01*
X114043064Y-83208771D02*
X114043064Y-89068815D01*
X114043064Y-89068815D02*
X114043064Y-92568728D01*
X114043064Y-92568728D02*
X114043064Y-150000000D01*
X114043064Y-150000000D02*
X50689151Y-150000000D01*
X50689151Y-150000000D02*
X56900580Y-143451566D01*
X56900580Y-143451566D02*
X56175050Y-142763375D01*
X104932878Y-92813238D02*
X104207349Y-92125046D01*
X104207349Y-92125046D02*
X91131718Y-105910106D01*
X91131718Y-105910106D02*
X91857247Y-106598297D01*
X91857247Y-106598297D02*
X104932878Y-92813238D01*
X88922112Y-109692680D02*
X88196583Y-109004489D01*
X88196583Y-109004489D02*
X75120952Y-122789549D01*
X75120952Y-122789549D02*
X75846481Y-123477740D01*
X75846481Y-123477740D02*
X88922112Y-109692680D01*
X72911346Y-126572123D02*
X72185816Y-125883932D01*
X72185816Y-125883932D02*
X59110185Y-139668992D01*
X59110185Y-139668992D02*
X59835715Y-140357183D01*
X59835715Y-140357183D02*
X72911346Y-126572123D01*
M02*
