M48
; DRILL file {KiCad 5.1.4-e60b266~84~ubuntu18.04.1} date ven 23 ago 2019 14:34:09 CEST
; FORMAT={-:-/ absolute / inch / decimal}
; #@! TF.CreationDate,2019-08-23T14:34:09+02:00
; #@! TF.GenerationSoftware,Kicad,Pcbnew,5.1.4-e60b266~84~ubuntu18.04.1
; #@! TF.FileFunction,Plated,1,2,PTH
FMAT,2
INCH
T1C0.0157
T2C0.0300
T3C0.0394
%
G90
G05
T1
X2.1289Y-4.3307
X2.1358Y-2.1211
X2.1368Y-3.2283
X2.2047Y-3.3612
X2.2165Y-2.2569
X2.3199Y-4.4518
X2.5098Y-2.8071
X2.5187Y-1.7116
X2.5187Y-3.9124
X2.6909Y-3.627
X2.6929Y-1.435
X2.6969Y-2.5325
X2.7126Y-3.2165
X2.7146Y-2.1093
X2.7205Y-5.189
X2.815Y-3.375
X2.8337Y-2.2717
X2.9921Y-5.3819
X2.9961Y-4.7598
X3.124Y-2.814
X3.1339Y-4.5906
X3.1388Y-1.7146
X3.2864Y-2.5453
X3.2913Y-1.4478
X3.2992Y-2.0984
X3.3268Y-5.1693
X3.3386Y-4.063
X3.4409Y-2.2667
X3.5787Y-4.311
X3.5787Y-5.4055
X3.5945Y-4.7441
X3.6024Y-3.6417
X3.751Y-1.7146
X3.752Y-3.4882
X3.752Y-4.5866
X3.876Y-1.4656
X3.9409Y-5.1614
X3.9449Y-4.0551
X3.9488Y-2.9646
X4.1575Y-4.3228
X4.1693Y-3.2205
X4.1772Y-5.4134
X4.189Y-3.6299
X4.189Y-4.7283
X4.252Y-2.4016
X4.3661Y-3.4882
X4.3661Y-4.5925
X4.4528Y-2.6811
T2
X1.9684Y-1.2275
X1.9684Y-1.4244
X1.9684Y-1.6212
X1.9684Y-3.5897
X1.9684Y-3.7866
X1.9684Y-3.9834
X4.6148Y-1.6902
X4.6148Y-1.887
X4.6148Y-2.0839
X4.6142Y-5.2402
X4.6142Y-5.437
X4.6142Y-5.6339
X1.9684Y-4.7708
X1.9684Y-4.9677
X1.9684Y-5.1645
X1.9684Y-2.4086
X1.9684Y-2.6055
X1.9684Y-2.8023
X4.6148Y-4.0524
X4.6148Y-4.2492
X4.6148Y-4.4461
X4.6148Y-2.8713
X4.6148Y-3.0681
X4.6148Y-3.265
T3
X3.2916Y-1.146
X3.3916Y-1.146
X3.4916Y-1.146
X3.0916Y-5.7087
X3.1916Y-5.7087
X3.2916Y-5.7087
T0
M30
