G04 #@! TF.GenerationSoftware,KiCad,Pcbnew,5.1.4-e60b266~84~ubuntu18.04.1*
G04 #@! TF.CreationDate,2019-08-23T14:34:05+02:00*
G04 #@! TF.ProjectId,bcc1,62636331-2e6b-4696-9361-645f70636258,rev?*
G04 #@! TF.SameCoordinates,Original*
G04 #@! TF.FileFunction,Profile,NP*
%FSLAX46Y46*%
G04 Gerber Fmt 4.6, Leading zero omitted, Abs format (unit mm)*
G04 Created by KiCad (PCBNEW 5.1.4-e60b266~84~ubuntu18.04.1) date 2019-08-23 14:34:05*
%MOMM*%
%LPD*%
G04 APERTURE LIST*
%ADD10C,0.100000*%
G04 APERTURE END LIST*
D10*
X110940613Y-36919969D02*
X110058469Y-36448989D01*
X110058469Y-36448989D02*
X101109855Y-53209726D01*
X101109855Y-53209726D02*
X101991999Y-53680706D01*
X101991999Y-53680706D02*
X110940613Y-36919969D01*
X99738361Y-57901765D02*
X98856217Y-57430785D01*
X98856217Y-57430785D02*
X89907602Y-74191522D01*
X89907602Y-74191522D02*
X90789747Y-74662502D01*
X90789747Y-74662502D02*
X99738361Y-57901765D01*
X88536109Y-78883561D02*
X87653965Y-78412582D01*
X87653965Y-78412582D02*
X78705350Y-95173319D01*
X78705350Y-95173319D02*
X79587494Y-95644298D01*
X79587494Y-95644298D02*
X88536109Y-78883561D01*
X77333856Y-99865357D02*
X76451712Y-99394378D01*
X76451712Y-99394378D02*
X67503098Y-116155115D01*
X67503098Y-116155115D02*
X68385242Y-116626094D01*
X68385242Y-116626094D02*
X77333856Y-99865357D01*
X66131604Y-120847154D02*
X65249460Y-120376174D01*
X65249460Y-120376174D02*
X56300846Y-137136911D01*
X56300846Y-137136911D02*
X57182990Y-137607891D01*
X57182990Y-137607891D02*
X66131604Y-120847154D01*
X117211398Y-35430307D02*
X117190000Y-150000000D01*
X117190000Y-150000000D02*
X50566800Y-150000000D01*
X50566800Y-150000000D02*
X54929352Y-141828950D01*
X54929352Y-141828950D02*
X54047208Y-141357970D01*
X54047208Y-141357970D02*
X50000198Y-148938012D01*
X50000198Y-148938012D02*
X50001740Y-140678914D01*
X50001740Y-140678914D02*
X50002114Y-138678917D01*
X50002114Y-138678917D02*
X50023513Y-24109223D01*
X50023513Y-24109223D02*
X116646712Y-24109223D01*
X116646712Y-24109223D02*
X112312107Y-32227930D01*
X112312107Y-32227930D02*
X113194251Y-32698910D01*
X113194251Y-32698910D02*
X117213314Y-25171212D01*
X117213314Y-25171212D02*
X117211772Y-33430310D01*
X117211772Y-33430310D02*
X117213050Y-35430309D01*
X117213050Y-35430309D02*
X117211398Y-35430307D01*
M02*
