G04 #@! TF.GenerationSoftware,KiCad,Pcbnew,5.1.4-e60b266~84~ubuntu18.04.1*
G04 #@! TF.CreationDate,2019-08-23T14:34:05+02:00*
G04 #@! TF.ProjectId,bcc1,62636331-2e6b-4696-9361-645f70636258,rev?*
G04 #@! TF.SameCoordinates,Original*
G04 #@! TF.FileFunction,Soldermask,Top*
G04 #@! TF.FilePolarity,Negative*
%FSLAX46Y46*%
G04 Gerber Fmt 4.6, Leading zero omitted, Abs format (unit mm)*
G04 Created by KiCad (PCBNEW 5.1.4-e60b266~84~ubuntu18.04.1) date 2019-08-23 14:34:05*
%MOMM*%
%LPD*%
G04 APERTURE LIST*
%ADD10C,0.150000*%
G04 APERTURE END LIST*
D10*
G36*
X58538627Y-144340490D02*
G01*
X58650883Y-144386988D01*
X58729898Y-144419717D01*
X58849999Y-144499966D01*
X58902036Y-144534736D01*
X59048428Y-144681128D01*
X59163448Y-144853268D01*
X59242674Y-145044537D01*
X59283063Y-145247585D01*
X59283063Y-145454617D01*
X59242674Y-145657665D01*
X59168622Y-145836442D01*
X59163447Y-145848936D01*
X59048428Y-146021074D01*
X58902036Y-146167466D01*
X58729898Y-146282485D01*
X58729897Y-146282486D01*
X58729896Y-146282486D01*
X58538627Y-146361712D01*
X58335579Y-146402101D01*
X58128547Y-146402101D01*
X57925499Y-146361712D01*
X57734230Y-146282486D01*
X57734229Y-146282486D01*
X57734228Y-146282485D01*
X57562090Y-146167466D01*
X57415698Y-146021074D01*
X57300679Y-145848936D01*
X57295504Y-145836442D01*
X57221452Y-145657665D01*
X57181063Y-145454617D01*
X57181063Y-145247585D01*
X57221452Y-145044537D01*
X57300678Y-144853268D01*
X57415698Y-144681128D01*
X57562090Y-144534736D01*
X57614127Y-144499966D01*
X57734228Y-144419717D01*
X57813243Y-144386988D01*
X57925499Y-144340490D01*
X58128547Y-144300101D01*
X58335579Y-144300101D01*
X58538627Y-144340490D01*
X58538627Y-144340490D01*
G37*
G36*
X84507756Y-145901000D02*
G01*
X82705756Y-145901000D01*
X82705756Y-144099000D01*
X84507756Y-144099000D01*
X84507756Y-145901000D01*
X84507756Y-145901000D01*
G37*
G36*
X81177198Y-144105518D02*
G01*
X81243383Y-144112037D01*
X81413222Y-144163557D01*
X81569747Y-144247222D01*
X81577622Y-144253685D01*
X81706942Y-144359814D01*
X81790204Y-144461271D01*
X81819534Y-144497009D01*
X81821597Y-144500868D01*
X81900806Y-144649056D01*
X81903199Y-144653534D01*
X81954719Y-144823373D01*
X81972115Y-145000000D01*
X81954719Y-145176627D01*
X81903199Y-145346466D01*
X81819534Y-145502991D01*
X81790204Y-145538729D01*
X81706942Y-145640186D01*
X81605485Y-145723448D01*
X81569747Y-145752778D01*
X81413222Y-145836443D01*
X81243383Y-145887963D01*
X81177198Y-145894482D01*
X81111016Y-145901000D01*
X81022496Y-145901000D01*
X80956314Y-145894482D01*
X80890129Y-145887963D01*
X80720290Y-145836443D01*
X80563765Y-145752778D01*
X80528027Y-145723448D01*
X80426570Y-145640186D01*
X80343308Y-145538729D01*
X80313978Y-145502991D01*
X80230313Y-145346466D01*
X80178793Y-145176627D01*
X80161397Y-145000000D01*
X80178793Y-144823373D01*
X80230313Y-144653534D01*
X80232707Y-144649056D01*
X80311915Y-144500868D01*
X80313978Y-144497009D01*
X80343308Y-144461271D01*
X80426570Y-144359814D01*
X80555890Y-144253685D01*
X80563765Y-144247222D01*
X80720290Y-144163557D01*
X80890129Y-144112037D01*
X80956314Y-144105518D01*
X81022496Y-144099000D01*
X81111016Y-144099000D01*
X81177198Y-144105518D01*
X81177198Y-144105518D01*
G37*
G36*
X78637198Y-144105518D02*
G01*
X78703383Y-144112037D01*
X78873222Y-144163557D01*
X79029747Y-144247222D01*
X79037622Y-144253685D01*
X79166942Y-144359814D01*
X79250204Y-144461271D01*
X79279534Y-144497009D01*
X79281597Y-144500868D01*
X79360806Y-144649056D01*
X79363199Y-144653534D01*
X79414719Y-144823373D01*
X79432115Y-145000000D01*
X79414719Y-145176627D01*
X79363199Y-145346466D01*
X79279534Y-145502991D01*
X79250204Y-145538729D01*
X79166942Y-145640186D01*
X79065485Y-145723448D01*
X79029747Y-145752778D01*
X78873222Y-145836443D01*
X78703383Y-145887963D01*
X78637198Y-145894482D01*
X78571016Y-145901000D01*
X78482496Y-145901000D01*
X78416314Y-145894482D01*
X78350129Y-145887963D01*
X78180290Y-145836443D01*
X78023765Y-145752778D01*
X77988027Y-145723448D01*
X77886570Y-145640186D01*
X77803308Y-145538729D01*
X77773978Y-145502991D01*
X77690313Y-145346466D01*
X77638793Y-145176627D01*
X77621397Y-145000000D01*
X77638793Y-144823373D01*
X77690313Y-144653534D01*
X77692707Y-144649056D01*
X77771915Y-144500868D01*
X77773978Y-144497009D01*
X77803308Y-144461271D01*
X77886570Y-144359814D01*
X78015890Y-144253685D01*
X78023765Y-144247222D01*
X78180290Y-144163557D01*
X78350129Y-144112037D01*
X78416314Y-144105518D01*
X78482496Y-144099000D01*
X78571016Y-144099000D01*
X78637198Y-144105518D01*
X78637198Y-144105518D01*
G37*
G36*
X117209999Y-141549737D02*
G01*
X117219608Y-141552652D01*
X117228472Y-141557390D01*
X117236237Y-141563763D01*
X117242610Y-141571528D01*
X117247348Y-141580392D01*
X117250263Y-141590001D01*
X117251852Y-141606140D01*
X117251852Y-142181674D01*
X117254254Y-142206060D01*
X117261367Y-142229509D01*
X117272918Y-142251120D01*
X117288463Y-142270062D01*
X117307405Y-142285607D01*
X117329016Y-142297158D01*
X117352465Y-142304271D01*
X117425285Y-142318756D01*
X117446718Y-142325257D01*
X117573371Y-142377719D01*
X117593121Y-142388277D01*
X117707106Y-142464439D01*
X117724415Y-142478643D01*
X117821357Y-142575585D01*
X117835561Y-142592894D01*
X117911723Y-142706879D01*
X117922281Y-142726629D01*
X117974743Y-142853282D01*
X117981244Y-142874715D01*
X118007989Y-143009171D01*
X118010183Y-143031451D01*
X118010183Y-143168549D01*
X118007989Y-143190829D01*
X117981244Y-143325285D01*
X117974743Y-143346718D01*
X117922281Y-143473371D01*
X117911723Y-143493121D01*
X117835561Y-143607106D01*
X117821357Y-143624415D01*
X117724415Y-143721357D01*
X117707106Y-143735561D01*
X117593121Y-143811723D01*
X117573371Y-143822281D01*
X117446718Y-143874743D01*
X117425285Y-143881244D01*
X117352465Y-143895729D01*
X117329016Y-143902842D01*
X117307405Y-143914393D01*
X117288463Y-143929939D01*
X117272918Y-143948880D01*
X117261367Y-143970491D01*
X117254254Y-143993940D01*
X117251852Y-144018326D01*
X117251852Y-144593860D01*
X117250263Y-144609999D01*
X117247348Y-144619608D01*
X117242610Y-144628472D01*
X117236237Y-144636237D01*
X117228472Y-144642610D01*
X117219608Y-144647348D01*
X117209999Y-144650263D01*
X117193860Y-144651852D01*
X116206140Y-144651852D01*
X116177750Y-144649056D01*
X116177641Y-144650162D01*
X116164898Y-144648272D01*
X116129870Y-144648272D01*
X116118698Y-144647726D01*
X115976085Y-144633742D01*
X115976036Y-144634238D01*
X115975669Y-144634173D01*
X115975718Y-144633704D01*
X115968567Y-144632953D01*
X115956736Y-144631079D01*
X115894641Y-144617881D01*
X115892932Y-144617531D01*
X115830479Y-144605165D01*
X115819648Y-144602465D01*
X115682564Y-144561078D01*
X115681983Y-144560900D01*
X115675213Y-144558804D01*
X115663979Y-144554671D01*
X115605618Y-144529658D01*
X115604011Y-144528982D01*
X115545159Y-144504725D01*
X115535047Y-144499966D01*
X115408877Y-144432880D01*
X115407897Y-144432355D01*
X115401848Y-144429084D01*
X115391651Y-144422860D01*
X115339262Y-144386988D01*
X115337814Y-144386011D01*
X115284769Y-144350768D01*
X115275805Y-144344160D01*
X115164873Y-144253685D01*
X115164359Y-144253262D01*
X115158898Y-144248745D01*
X115150090Y-144240646D01*
X115105704Y-144195320D01*
X115104474Y-144194081D01*
X115059281Y-144149203D01*
X115051735Y-144140938D01*
X114960487Y-144030638D01*
X114959997Y-144030042D01*
X114955606Y-144024657D01*
X114948532Y-144014992D01*
X114913767Y-143961867D01*
X114912802Y-143960414D01*
X114877207Y-143907641D01*
X114871417Y-143898082D01*
X114803420Y-143772323D01*
X114802896Y-143771345D01*
X114799708Y-143765349D01*
X114794647Y-143754495D01*
X114770857Y-143695612D01*
X114770191Y-143693996D01*
X114745525Y-143635319D01*
X114741708Y-143624832D01*
X114699383Y-143488102D01*
X114699146Y-143487326D01*
X114697139Y-143480681D01*
X114694286Y-143469064D01*
X114682376Y-143406628D01*
X114682037Y-143404913D01*
X114669248Y-143342616D01*
X114667540Y-143331585D01*
X114652559Y-143189056D01*
X114652499Y-143188466D01*
X114651820Y-143181534D01*
X114651277Y-143169584D01*
X114651719Y-143106073D01*
X114651719Y-143104332D01*
X114651275Y-143040672D01*
X114651743Y-143029512D01*
X114664697Y-142887184D01*
X114664813Y-142885953D01*
X114665470Y-142879260D01*
X114667258Y-142867438D01*
X114680025Y-142805239D01*
X114680364Y-142803528D01*
X114692293Y-142740993D01*
X114694920Y-142730134D01*
X114733210Y-142600036D01*
X114735507Y-142594374D01*
X114735964Y-142592823D01*
X114736093Y-142592861D01*
X114736196Y-142592514D01*
X114736068Y-142592475D01*
X114736605Y-142590695D01*
X114737686Y-142585082D01*
X114741615Y-142574167D01*
X114766247Y-142515569D01*
X114766910Y-142513959D01*
X114790740Y-142454982D01*
X114795431Y-142444829D01*
X114861600Y-142318259D01*
X114862171Y-142317177D01*
X114865368Y-142311164D01*
X114871537Y-142300896D01*
X114907054Y-142248240D01*
X114908020Y-142246785D01*
X114942859Y-142193544D01*
X114949424Y-142184508D01*
X115039104Y-142072966D01*
X115039572Y-142072388D01*
X115044003Y-142066955D01*
X115052046Y-142058087D01*
X115097059Y-142013386D01*
X115098288Y-142012148D01*
X115142863Y-141966629D01*
X115151066Y-141959034D01*
X115260644Y-141867088D01*
X115261318Y-141866526D01*
X115266690Y-141862082D01*
X115276293Y-141854950D01*
X115329238Y-141819773D01*
X115330684Y-141818798D01*
X115383145Y-141782877D01*
X115392662Y-141777022D01*
X115518156Y-141708031D01*
X115518640Y-141707767D01*
X115524903Y-141704381D01*
X115535704Y-141699252D01*
X115594414Y-141675053D01*
X115596022Y-141674377D01*
X115654530Y-141649300D01*
X115664999Y-141645407D01*
X115801611Y-141602071D01*
X115802027Y-141601941D01*
X115808832Y-141599834D01*
X115820441Y-141596896D01*
X115882723Y-141584564D01*
X115884433Y-141584213D01*
X115946696Y-141570979D01*
X115957714Y-141569194D01*
X116099914Y-141553244D01*
X116100706Y-141553158D01*
X116107661Y-141552427D01*
X116119620Y-141551800D01*
X116141152Y-141551800D01*
X116154217Y-141551115D01*
X116175836Y-141548843D01*
X116186997Y-141548219D01*
X116194278Y-141548168D01*
X116194870Y-141548166D01*
X116199817Y-141548166D01*
X116200184Y-141548148D01*
X117193860Y-141548148D01*
X117209999Y-141549737D01*
X117209999Y-141549737D01*
G37*
G36*
X50306762Y-139667401D02*
G01*
X50498031Y-139746627D01*
X50498033Y-139746628D01*
X50670171Y-139861647D01*
X50816563Y-140008039D01*
X50828719Y-140026231D01*
X50931583Y-140180179D01*
X51010809Y-140371448D01*
X51051198Y-140574496D01*
X51051198Y-140781528D01*
X51010809Y-140984576D01*
X50931583Y-141175845D01*
X50931582Y-141175847D01*
X50816563Y-141347985D01*
X50670171Y-141494377D01*
X50498033Y-141609396D01*
X50498032Y-141609397D01*
X50498031Y-141609397D01*
X50306762Y-141688623D01*
X50103714Y-141729012D01*
X49896682Y-141729012D01*
X49693634Y-141688623D01*
X49502365Y-141609397D01*
X49502364Y-141609397D01*
X49502363Y-141609396D01*
X49330225Y-141494377D01*
X49183833Y-141347985D01*
X49068814Y-141175847D01*
X49068813Y-141175845D01*
X48989587Y-140984576D01*
X48949198Y-140781528D01*
X48949198Y-140574496D01*
X48989587Y-140371448D01*
X49068813Y-140180179D01*
X49171678Y-140026231D01*
X49183833Y-140008039D01*
X49330225Y-139861647D01*
X49502363Y-139746628D01*
X49502365Y-139746627D01*
X49693634Y-139667401D01*
X49896682Y-139627012D01*
X50103714Y-139627012D01*
X50306762Y-139667401D01*
X50306762Y-139667401D01*
G37*
G36*
X71360053Y-139262677D02*
G01*
X69401638Y-140026231D01*
X69001335Y-138999507D01*
X70959750Y-138235953D01*
X71360053Y-139262677D01*
X71360053Y-139262677D01*
G37*
G36*
X117209999Y-136549737D02*
G01*
X117219608Y-136552652D01*
X117228472Y-136557390D01*
X117236237Y-136563763D01*
X117242610Y-136571528D01*
X117247348Y-136580392D01*
X117250263Y-136590001D01*
X117251852Y-136606140D01*
X117251852Y-137181674D01*
X117254254Y-137206060D01*
X117261367Y-137229509D01*
X117272918Y-137251120D01*
X117288463Y-137270062D01*
X117307405Y-137285607D01*
X117329016Y-137297158D01*
X117352465Y-137304271D01*
X117425285Y-137318756D01*
X117446718Y-137325257D01*
X117573371Y-137377719D01*
X117593121Y-137388277D01*
X117707106Y-137464439D01*
X117724415Y-137478643D01*
X117821357Y-137575585D01*
X117835561Y-137592894D01*
X117911723Y-137706879D01*
X117922281Y-137726629D01*
X117974743Y-137853282D01*
X117981244Y-137874715D01*
X118007989Y-138009171D01*
X118010183Y-138031451D01*
X118010183Y-138168549D01*
X118007989Y-138190829D01*
X117981244Y-138325285D01*
X117974743Y-138346718D01*
X117922281Y-138473371D01*
X117911723Y-138493121D01*
X117835561Y-138607106D01*
X117821357Y-138624415D01*
X117724415Y-138721357D01*
X117707106Y-138735561D01*
X117593121Y-138811723D01*
X117573371Y-138822281D01*
X117446718Y-138874743D01*
X117425285Y-138881244D01*
X117352465Y-138895729D01*
X117329016Y-138902842D01*
X117307405Y-138914393D01*
X117288463Y-138929939D01*
X117272918Y-138948880D01*
X117261367Y-138970491D01*
X117254254Y-138993940D01*
X117251852Y-139018326D01*
X117251852Y-139593860D01*
X117250263Y-139609999D01*
X117247348Y-139619608D01*
X117242610Y-139628472D01*
X117236237Y-139636237D01*
X117228472Y-139642610D01*
X117219608Y-139647348D01*
X117209999Y-139650263D01*
X117193860Y-139651852D01*
X116206140Y-139651852D01*
X116177750Y-139649056D01*
X116177641Y-139650162D01*
X116164898Y-139648272D01*
X116129870Y-139648272D01*
X116118698Y-139647726D01*
X115976085Y-139633742D01*
X115976036Y-139634238D01*
X115975669Y-139634173D01*
X115975718Y-139633704D01*
X115968567Y-139632953D01*
X115956736Y-139631079D01*
X115894641Y-139617881D01*
X115892932Y-139617531D01*
X115830479Y-139605165D01*
X115819648Y-139602465D01*
X115682564Y-139561078D01*
X115681983Y-139560900D01*
X115675213Y-139558804D01*
X115663979Y-139554671D01*
X115605618Y-139529658D01*
X115604011Y-139528982D01*
X115545159Y-139504725D01*
X115535047Y-139499966D01*
X115408877Y-139432880D01*
X115407897Y-139432355D01*
X115401848Y-139429084D01*
X115391651Y-139422860D01*
X115339262Y-139386988D01*
X115337814Y-139386011D01*
X115284769Y-139350768D01*
X115275805Y-139344160D01*
X115164873Y-139253685D01*
X115164359Y-139253262D01*
X115158898Y-139248745D01*
X115150090Y-139240646D01*
X115105704Y-139195320D01*
X115104474Y-139194081D01*
X115059281Y-139149203D01*
X115051735Y-139140938D01*
X114960487Y-139030638D01*
X114959997Y-139030042D01*
X114955606Y-139024657D01*
X114948532Y-139014992D01*
X114913767Y-138961867D01*
X114912802Y-138960414D01*
X114877207Y-138907641D01*
X114871417Y-138898082D01*
X114803420Y-138772323D01*
X114802896Y-138771345D01*
X114799708Y-138765349D01*
X114794647Y-138754495D01*
X114770857Y-138695612D01*
X114770191Y-138693996D01*
X114745525Y-138635319D01*
X114741708Y-138624832D01*
X114699383Y-138488102D01*
X114699146Y-138487326D01*
X114697139Y-138480681D01*
X114694286Y-138469064D01*
X114682376Y-138406628D01*
X114682037Y-138404913D01*
X114669248Y-138342616D01*
X114667540Y-138331585D01*
X114652559Y-138189056D01*
X114652499Y-138188466D01*
X114651820Y-138181534D01*
X114651277Y-138169584D01*
X114651719Y-138106073D01*
X114651719Y-138104332D01*
X114651275Y-138040672D01*
X114651743Y-138029512D01*
X114664697Y-137887184D01*
X114664813Y-137885953D01*
X114665470Y-137879260D01*
X114667258Y-137867438D01*
X114680025Y-137805239D01*
X114680364Y-137803528D01*
X114692293Y-137740993D01*
X114694920Y-137730134D01*
X114733210Y-137600036D01*
X114735507Y-137594374D01*
X114735964Y-137592823D01*
X114736093Y-137592861D01*
X114736196Y-137592514D01*
X114736068Y-137592475D01*
X114736605Y-137590695D01*
X114737686Y-137585082D01*
X114741615Y-137574167D01*
X114766247Y-137515569D01*
X114766910Y-137513959D01*
X114790740Y-137454982D01*
X114795431Y-137444829D01*
X114861600Y-137318259D01*
X114862171Y-137317177D01*
X114865368Y-137311164D01*
X114871537Y-137300896D01*
X114907054Y-137248240D01*
X114908020Y-137246785D01*
X114942859Y-137193544D01*
X114949424Y-137184508D01*
X115039104Y-137072966D01*
X115039572Y-137072388D01*
X115044003Y-137066955D01*
X115052046Y-137058087D01*
X115097059Y-137013386D01*
X115098288Y-137012148D01*
X115142863Y-136966629D01*
X115151066Y-136959034D01*
X115260644Y-136867088D01*
X115261318Y-136866526D01*
X115266690Y-136862082D01*
X115276293Y-136854950D01*
X115329238Y-136819773D01*
X115330684Y-136818798D01*
X115383145Y-136782877D01*
X115392662Y-136777022D01*
X115518156Y-136708031D01*
X115518640Y-136707767D01*
X115524903Y-136704381D01*
X115535704Y-136699252D01*
X115594414Y-136675053D01*
X115596022Y-136674377D01*
X115654530Y-136649300D01*
X115664999Y-136645407D01*
X115801611Y-136602071D01*
X115802027Y-136601941D01*
X115808832Y-136599834D01*
X115820441Y-136596896D01*
X115882723Y-136584564D01*
X115884433Y-136584213D01*
X115946696Y-136570979D01*
X115957714Y-136569194D01*
X116099914Y-136553244D01*
X116100706Y-136553158D01*
X116107661Y-136552427D01*
X116119620Y-136551800D01*
X116141152Y-136551800D01*
X116154217Y-136551115D01*
X116175836Y-136548843D01*
X116186997Y-136548219D01*
X116194278Y-136548168D01*
X116194870Y-136548166D01*
X116199817Y-136548166D01*
X116200184Y-136548148D01*
X117193860Y-136548148D01*
X117209999Y-136549737D01*
X117209999Y-136549737D01*
G37*
G36*
X85919019Y-139119231D02*
G01*
X83884894Y-139649081D01*
X83607113Y-138582665D01*
X85641238Y-138052815D01*
X85919019Y-139119231D01*
X85919019Y-139119231D01*
G37*
G36*
X100471390Y-138914393D02*
G01*
X100471837Y-138917839D01*
X98387344Y-139188567D01*
X98245411Y-138095746D01*
X98245411Y-138095745D01*
X100329904Y-137825017D01*
X100471390Y-138914393D01*
X100471390Y-138914393D01*
G37*
G36*
X106810217Y-138029512D02*
G01*
X106818533Y-138093546D01*
X104734040Y-138364274D01*
X104700505Y-138106073D01*
X104592107Y-137271453D01*
X104592107Y-137271452D01*
X106676600Y-137000724D01*
X106810217Y-138029512D01*
X106810217Y-138029512D01*
G37*
G36*
X92112358Y-137505986D02*
G01*
X90078233Y-138035836D01*
X89800452Y-136969420D01*
X91834577Y-136439570D01*
X92112358Y-137505986D01*
X92112358Y-137505986D01*
G37*
G36*
X77322878Y-136937868D02*
G01*
X75364463Y-137701422D01*
X74964160Y-136674698D01*
X76922575Y-135911144D01*
X77322878Y-136937868D01*
X77322878Y-136937868D01*
G37*
G36*
X69834398Y-135349574D02*
G01*
X67875983Y-136113128D01*
X67475680Y-135086404D01*
X69434095Y-134322850D01*
X69834398Y-135349574D01*
X69834398Y-135349574D01*
G37*
G36*
X84860328Y-135054852D02*
G01*
X82826203Y-135584702D01*
X82548422Y-134518286D01*
X84582547Y-133988436D01*
X84860328Y-135054852D01*
X84860328Y-135054852D01*
G37*
G36*
X99917419Y-134649056D02*
G01*
X99930895Y-134752820D01*
X97846402Y-135023548D01*
X97704469Y-133930727D01*
X97704469Y-133930726D01*
X99788962Y-133659998D01*
X99917419Y-134649056D01*
X99917419Y-134649056D01*
G37*
G36*
X117209999Y-131549737D02*
G01*
X117219608Y-131552652D01*
X117228472Y-131557390D01*
X117236237Y-131563763D01*
X117242610Y-131571528D01*
X117247348Y-131580392D01*
X117250263Y-131590001D01*
X117251852Y-131606140D01*
X117251852Y-132181674D01*
X117254254Y-132206060D01*
X117261367Y-132229509D01*
X117272918Y-132251120D01*
X117288463Y-132270062D01*
X117307405Y-132285607D01*
X117329016Y-132297158D01*
X117352465Y-132304271D01*
X117425285Y-132318756D01*
X117446718Y-132325257D01*
X117573371Y-132377719D01*
X117593121Y-132388277D01*
X117707106Y-132464439D01*
X117724415Y-132478643D01*
X117821357Y-132575585D01*
X117835561Y-132592894D01*
X117911723Y-132706879D01*
X117922281Y-132726629D01*
X117974743Y-132853282D01*
X117981244Y-132874715D01*
X118007989Y-133009171D01*
X118010183Y-133031451D01*
X118010183Y-133168549D01*
X118007989Y-133190829D01*
X117981244Y-133325285D01*
X117974743Y-133346718D01*
X117922281Y-133473371D01*
X117911723Y-133493121D01*
X117835561Y-133607106D01*
X117821357Y-133624415D01*
X117724415Y-133721357D01*
X117707106Y-133735561D01*
X117593121Y-133811723D01*
X117573371Y-133822281D01*
X117446718Y-133874743D01*
X117425285Y-133881244D01*
X117352465Y-133895729D01*
X117329016Y-133902842D01*
X117307405Y-133914393D01*
X117288463Y-133929939D01*
X117272918Y-133948880D01*
X117261367Y-133970491D01*
X117254254Y-133993940D01*
X117251852Y-134018326D01*
X117251852Y-134593860D01*
X117250263Y-134609999D01*
X117247348Y-134619608D01*
X117242610Y-134628472D01*
X117236237Y-134636237D01*
X117228472Y-134642610D01*
X117219608Y-134647348D01*
X117209999Y-134650263D01*
X117193860Y-134651852D01*
X116206140Y-134651852D01*
X116177750Y-134649056D01*
X116177641Y-134650162D01*
X116164898Y-134648272D01*
X116129870Y-134648272D01*
X116118698Y-134647726D01*
X115976085Y-134633742D01*
X115976036Y-134634238D01*
X115975669Y-134634173D01*
X115975718Y-134633704D01*
X115968567Y-134632953D01*
X115956736Y-134631079D01*
X115894641Y-134617881D01*
X115892932Y-134617531D01*
X115830479Y-134605165D01*
X115819648Y-134602465D01*
X115682564Y-134561078D01*
X115681983Y-134560900D01*
X115675213Y-134558804D01*
X115663979Y-134554671D01*
X115605618Y-134529658D01*
X115604011Y-134528982D01*
X115545159Y-134504725D01*
X115535047Y-134499966D01*
X115408877Y-134432880D01*
X115407897Y-134432355D01*
X115401848Y-134429084D01*
X115391651Y-134422860D01*
X115339262Y-134386988D01*
X115337814Y-134386011D01*
X115284769Y-134350768D01*
X115275805Y-134344160D01*
X115164873Y-134253685D01*
X115164359Y-134253262D01*
X115158898Y-134248745D01*
X115150090Y-134240646D01*
X115105704Y-134195320D01*
X115104474Y-134194081D01*
X115059281Y-134149203D01*
X115051735Y-134140938D01*
X114960487Y-134030638D01*
X114959997Y-134030042D01*
X114955606Y-134024657D01*
X114948532Y-134014992D01*
X114913767Y-133961867D01*
X114912802Y-133960414D01*
X114877207Y-133907641D01*
X114871417Y-133898082D01*
X114803420Y-133772323D01*
X114802896Y-133771345D01*
X114799708Y-133765349D01*
X114794647Y-133754495D01*
X114770857Y-133695612D01*
X114770191Y-133693996D01*
X114745525Y-133635319D01*
X114741708Y-133624832D01*
X114699383Y-133488102D01*
X114699146Y-133487326D01*
X114697139Y-133480681D01*
X114694286Y-133469064D01*
X114682376Y-133406628D01*
X114682037Y-133404913D01*
X114669248Y-133342616D01*
X114667540Y-133331585D01*
X114652559Y-133189056D01*
X114652499Y-133188466D01*
X114651820Y-133181534D01*
X114651277Y-133169584D01*
X114651719Y-133106073D01*
X114651719Y-133104332D01*
X114651275Y-133040672D01*
X114651743Y-133029512D01*
X114664697Y-132887184D01*
X114664813Y-132885953D01*
X114665470Y-132879260D01*
X114667258Y-132867438D01*
X114680025Y-132805239D01*
X114680364Y-132803528D01*
X114692293Y-132740993D01*
X114694920Y-132730134D01*
X114733210Y-132600036D01*
X114735507Y-132594374D01*
X114735964Y-132592823D01*
X114736093Y-132592861D01*
X114736196Y-132592514D01*
X114736068Y-132592475D01*
X114736605Y-132590695D01*
X114737686Y-132585082D01*
X114741615Y-132574167D01*
X114766247Y-132515569D01*
X114766910Y-132513959D01*
X114790740Y-132454982D01*
X114795431Y-132444829D01*
X114861600Y-132318259D01*
X114862171Y-132317177D01*
X114865368Y-132311164D01*
X114871537Y-132300896D01*
X114907054Y-132248240D01*
X114908020Y-132246785D01*
X114942859Y-132193544D01*
X114949424Y-132184508D01*
X115039104Y-132072966D01*
X115039572Y-132072388D01*
X115044003Y-132066955D01*
X115052046Y-132058087D01*
X115097059Y-132013386D01*
X115098288Y-132012148D01*
X115142863Y-131966629D01*
X115151066Y-131959034D01*
X115260644Y-131867088D01*
X115261318Y-131866526D01*
X115266690Y-131862082D01*
X115276293Y-131854950D01*
X115329238Y-131819773D01*
X115330684Y-131818798D01*
X115383145Y-131782877D01*
X115392662Y-131777022D01*
X115518156Y-131708031D01*
X115518640Y-131707767D01*
X115524903Y-131704381D01*
X115535704Y-131699252D01*
X115594414Y-131675053D01*
X115596022Y-131674377D01*
X115654530Y-131649300D01*
X115664999Y-131645407D01*
X115801611Y-131602071D01*
X115802027Y-131601941D01*
X115808832Y-131599834D01*
X115820441Y-131596896D01*
X115882723Y-131584564D01*
X115884433Y-131584213D01*
X115946696Y-131570979D01*
X115957714Y-131569194D01*
X116099914Y-131553244D01*
X116100706Y-131553158D01*
X116107661Y-131552427D01*
X116119620Y-131551800D01*
X116141152Y-131551800D01*
X116154217Y-131551115D01*
X116175836Y-131548843D01*
X116186997Y-131548219D01*
X116194278Y-131548168D01*
X116194870Y-131548166D01*
X116199817Y-131548166D01*
X116200184Y-131548148D01*
X117193860Y-131548148D01*
X117209999Y-131549737D01*
X117209999Y-131549737D01*
G37*
G36*
X106274879Y-133907641D02*
G01*
X106277591Y-133928527D01*
X104193098Y-134199255D01*
X104158120Y-133929939D01*
X104051165Y-133106434D01*
X104051165Y-133106433D01*
X106135658Y-132835705D01*
X106274879Y-133907641D01*
X106274879Y-133907641D01*
G37*
G36*
X91053667Y-133441607D02*
G01*
X89019542Y-133971457D01*
X88741761Y-132905041D01*
X90775886Y-132375191D01*
X91053667Y-133441607D01*
X91053667Y-133441607D01*
G37*
G36*
X75797223Y-133024765D02*
G01*
X73838808Y-133788319D01*
X73438505Y-132761595D01*
X75396920Y-131998041D01*
X75797223Y-133024765D01*
X75797223Y-133024765D01*
G37*
G36*
X51019767Y-129629859D02*
G01*
X51019876Y-129628753D01*
X51032619Y-129630643D01*
X51067647Y-129630643D01*
X51078819Y-129631189D01*
X51221432Y-129645173D01*
X51221481Y-129644677D01*
X51221848Y-129644742D01*
X51221799Y-129645211D01*
X51228950Y-129645962D01*
X51240781Y-129647836D01*
X51302876Y-129661034D01*
X51304585Y-129661384D01*
X51367038Y-129673750D01*
X51377869Y-129676450D01*
X51514953Y-129717837D01*
X51515534Y-129718015D01*
X51522304Y-129720111D01*
X51533538Y-129724244D01*
X51591899Y-129749257D01*
X51593506Y-129749933D01*
X51652358Y-129774190D01*
X51662470Y-129778949D01*
X51788618Y-129846023D01*
X51789620Y-129846560D01*
X51795669Y-129849831D01*
X51805866Y-129856055D01*
X51858255Y-129891927D01*
X51859703Y-129892904D01*
X51912748Y-129928147D01*
X51921712Y-129934755D01*
X52032644Y-130025230D01*
X52033158Y-130025653D01*
X52038619Y-130030170D01*
X52047427Y-130038269D01*
X52091813Y-130083595D01*
X52093043Y-130084834D01*
X52138236Y-130129712D01*
X52145782Y-130137977D01*
X52237030Y-130248277D01*
X52237520Y-130248873D01*
X52241911Y-130254258D01*
X52248985Y-130263923D01*
X52283750Y-130317048D01*
X52284715Y-130318501D01*
X52320310Y-130371274D01*
X52326100Y-130380833D01*
X52394097Y-130506592D01*
X52394621Y-130507570D01*
X52397809Y-130513566D01*
X52402870Y-130524420D01*
X52426660Y-130583303D01*
X52427326Y-130584919D01*
X52451992Y-130643596D01*
X52455809Y-130654083D01*
X52498134Y-130790813D01*
X52498371Y-130791589D01*
X52500378Y-130798234D01*
X52503231Y-130809851D01*
X52515141Y-130872287D01*
X52515480Y-130874002D01*
X52528269Y-130936299D01*
X52529977Y-130947330D01*
X52544958Y-131089859D01*
X52545018Y-131090449D01*
X52545697Y-131097381D01*
X52546240Y-131109331D01*
X52545798Y-131172841D01*
X52545798Y-131174582D01*
X52546242Y-131238243D01*
X52545774Y-131249403D01*
X52532820Y-131391731D01*
X52532711Y-131392888D01*
X52532047Y-131399655D01*
X52530259Y-131411477D01*
X52517492Y-131473676D01*
X52517153Y-131475387D01*
X52505224Y-131537922D01*
X52502597Y-131548781D01*
X52464307Y-131678879D01*
X52462010Y-131684541D01*
X52461553Y-131686092D01*
X52461424Y-131686054D01*
X52461321Y-131686401D01*
X52461449Y-131686440D01*
X52460912Y-131688220D01*
X52459831Y-131693833D01*
X52455902Y-131704748D01*
X52431270Y-131763346D01*
X52430607Y-131764956D01*
X52406777Y-131823933D01*
X52402086Y-131834086D01*
X52335917Y-131960656D01*
X52335368Y-131961697D01*
X52332149Y-131967751D01*
X52325980Y-131978019D01*
X52290463Y-132030675D01*
X52289497Y-132032130D01*
X52254658Y-132085371D01*
X52248093Y-132094407D01*
X52158413Y-132205949D01*
X52157945Y-132206527D01*
X52153514Y-132211960D01*
X52145471Y-132220828D01*
X52100458Y-132265529D01*
X52099229Y-132266767D01*
X52054654Y-132312286D01*
X52046451Y-132319881D01*
X51936873Y-132411827D01*
X51936199Y-132412389D01*
X51930827Y-132416833D01*
X51921224Y-132423965D01*
X51868279Y-132459142D01*
X51866833Y-132460117D01*
X51814372Y-132496038D01*
X51804855Y-132501893D01*
X51679361Y-132570884D01*
X51678877Y-132571148D01*
X51672614Y-132574534D01*
X51661813Y-132579663D01*
X51603103Y-132603862D01*
X51601495Y-132604538D01*
X51542987Y-132629615D01*
X51532518Y-132633508D01*
X51395935Y-132676835D01*
X51395490Y-132676974D01*
X51388685Y-132679081D01*
X51377076Y-132682019D01*
X51314794Y-132694351D01*
X51313084Y-132694702D01*
X51250821Y-132707936D01*
X51239803Y-132709721D01*
X51097603Y-132725671D01*
X51096811Y-132725757D01*
X51089856Y-132726488D01*
X51077897Y-132727115D01*
X51056365Y-132727115D01*
X51043300Y-132727800D01*
X51021681Y-132730072D01*
X51010520Y-132730696D01*
X51003239Y-132730747D01*
X51002647Y-132730749D01*
X50997700Y-132730749D01*
X50997333Y-132730767D01*
X50003657Y-132730767D01*
X49987518Y-132729178D01*
X49977909Y-132726263D01*
X49969045Y-132721525D01*
X49961280Y-132715152D01*
X49954907Y-132707387D01*
X49950169Y-132698523D01*
X49947254Y-132688914D01*
X49945665Y-132672775D01*
X49945665Y-132097241D01*
X49943263Y-132072855D01*
X49936150Y-132049406D01*
X49924599Y-132027795D01*
X49909054Y-132008853D01*
X49890112Y-131993308D01*
X49868501Y-131981757D01*
X49845052Y-131974644D01*
X49772232Y-131960159D01*
X49750799Y-131953658D01*
X49624146Y-131901196D01*
X49604396Y-131890638D01*
X49490411Y-131814476D01*
X49473102Y-131800272D01*
X49376160Y-131703330D01*
X49361956Y-131686021D01*
X49285794Y-131572036D01*
X49275236Y-131552286D01*
X49222774Y-131425633D01*
X49216273Y-131404200D01*
X49189528Y-131269744D01*
X49187334Y-131247464D01*
X49187334Y-131110366D01*
X49189528Y-131088086D01*
X49216273Y-130953630D01*
X49222774Y-130932197D01*
X49275236Y-130805544D01*
X49285794Y-130785794D01*
X49361956Y-130671809D01*
X49376160Y-130654500D01*
X49473102Y-130557558D01*
X49490411Y-130543354D01*
X49604396Y-130467192D01*
X49624146Y-130456634D01*
X49750799Y-130404172D01*
X49772232Y-130397671D01*
X49845052Y-130383186D01*
X49868501Y-130376073D01*
X49890112Y-130364522D01*
X49909054Y-130348976D01*
X49924599Y-130330035D01*
X49936150Y-130308424D01*
X49943263Y-130284975D01*
X49945665Y-130260589D01*
X49945665Y-129685055D01*
X49947254Y-129668916D01*
X49950169Y-129659307D01*
X49954907Y-129650443D01*
X49961280Y-129642678D01*
X49969045Y-129636305D01*
X49977909Y-129631567D01*
X49987518Y-129628652D01*
X50003657Y-129627063D01*
X50991377Y-129627063D01*
X51019767Y-129629859D01*
X51019767Y-129629859D01*
G37*
G36*
X51019767Y-124629859D02*
G01*
X51019876Y-124628753D01*
X51032619Y-124630643D01*
X51067647Y-124630643D01*
X51078819Y-124631189D01*
X51221432Y-124645173D01*
X51221481Y-124644677D01*
X51221848Y-124644742D01*
X51221799Y-124645211D01*
X51228950Y-124645962D01*
X51240781Y-124647836D01*
X51302876Y-124661034D01*
X51304585Y-124661384D01*
X51367038Y-124673750D01*
X51377869Y-124676450D01*
X51514953Y-124717837D01*
X51515534Y-124718015D01*
X51522304Y-124720111D01*
X51533538Y-124724244D01*
X51591899Y-124749257D01*
X51593506Y-124749933D01*
X51652358Y-124774190D01*
X51662470Y-124778949D01*
X51788618Y-124846023D01*
X51789620Y-124846560D01*
X51795669Y-124849831D01*
X51805866Y-124856055D01*
X51858255Y-124891927D01*
X51859703Y-124892904D01*
X51912748Y-124928147D01*
X51921712Y-124934755D01*
X52032644Y-125025230D01*
X52033158Y-125025653D01*
X52038619Y-125030170D01*
X52047427Y-125038269D01*
X52091813Y-125083595D01*
X52093043Y-125084834D01*
X52138236Y-125129712D01*
X52145782Y-125137977D01*
X52237030Y-125248277D01*
X52237520Y-125248873D01*
X52241911Y-125254258D01*
X52248985Y-125263923D01*
X52283750Y-125317048D01*
X52284715Y-125318501D01*
X52320310Y-125371274D01*
X52326100Y-125380833D01*
X52394097Y-125506592D01*
X52394621Y-125507570D01*
X52397809Y-125513566D01*
X52402870Y-125524420D01*
X52426660Y-125583303D01*
X52427326Y-125584919D01*
X52451992Y-125643596D01*
X52455809Y-125654083D01*
X52498134Y-125790813D01*
X52498371Y-125791589D01*
X52500378Y-125798234D01*
X52503231Y-125809851D01*
X52515141Y-125872287D01*
X52515480Y-125874002D01*
X52528269Y-125936299D01*
X52529977Y-125947330D01*
X52544958Y-126089859D01*
X52545018Y-126090449D01*
X52545697Y-126097381D01*
X52546240Y-126109331D01*
X52545798Y-126172841D01*
X52545798Y-126174582D01*
X52546242Y-126238243D01*
X52545774Y-126249403D01*
X52532820Y-126391731D01*
X52532711Y-126392888D01*
X52532047Y-126399655D01*
X52530259Y-126411477D01*
X52517492Y-126473676D01*
X52517153Y-126475387D01*
X52505224Y-126537922D01*
X52502597Y-126548781D01*
X52464307Y-126678879D01*
X52462010Y-126684541D01*
X52461553Y-126686092D01*
X52461424Y-126686054D01*
X52461321Y-126686401D01*
X52461449Y-126686440D01*
X52460912Y-126688220D01*
X52459831Y-126693833D01*
X52455902Y-126704748D01*
X52431270Y-126763346D01*
X52430607Y-126764956D01*
X52406777Y-126823933D01*
X52402086Y-126834086D01*
X52335917Y-126960656D01*
X52335368Y-126961697D01*
X52332149Y-126967751D01*
X52325980Y-126978019D01*
X52290463Y-127030675D01*
X52289497Y-127032130D01*
X52254658Y-127085371D01*
X52248093Y-127094407D01*
X52158413Y-127205949D01*
X52157945Y-127206527D01*
X52153514Y-127211960D01*
X52145471Y-127220828D01*
X52100458Y-127265529D01*
X52099229Y-127266767D01*
X52054654Y-127312286D01*
X52046451Y-127319881D01*
X51936873Y-127411827D01*
X51936199Y-127412389D01*
X51930827Y-127416833D01*
X51921224Y-127423965D01*
X51868279Y-127459142D01*
X51866833Y-127460117D01*
X51814372Y-127496038D01*
X51804855Y-127501893D01*
X51679361Y-127570884D01*
X51678877Y-127571148D01*
X51672614Y-127574534D01*
X51661813Y-127579663D01*
X51603103Y-127603862D01*
X51601495Y-127604538D01*
X51542987Y-127629615D01*
X51532518Y-127633508D01*
X51395935Y-127676835D01*
X51395490Y-127676974D01*
X51388685Y-127679081D01*
X51377076Y-127682019D01*
X51314794Y-127694351D01*
X51313084Y-127694702D01*
X51250821Y-127707936D01*
X51239803Y-127709721D01*
X51097603Y-127725671D01*
X51096811Y-127725757D01*
X51089856Y-127726488D01*
X51077897Y-127727115D01*
X51056365Y-127727115D01*
X51043300Y-127727800D01*
X51021681Y-127730072D01*
X51010520Y-127730696D01*
X51003239Y-127730747D01*
X51002647Y-127730749D01*
X50997700Y-127730749D01*
X50997333Y-127730767D01*
X50003657Y-127730767D01*
X49987518Y-127729178D01*
X49977909Y-127726263D01*
X49969045Y-127721525D01*
X49961280Y-127715152D01*
X49954907Y-127707387D01*
X49950169Y-127698523D01*
X49947254Y-127688914D01*
X49945665Y-127672775D01*
X49945665Y-127097241D01*
X49943263Y-127072855D01*
X49936150Y-127049406D01*
X49924599Y-127027795D01*
X49909054Y-127008853D01*
X49890112Y-126993308D01*
X49868501Y-126981757D01*
X49845052Y-126974644D01*
X49772232Y-126960159D01*
X49750799Y-126953658D01*
X49624146Y-126901196D01*
X49604396Y-126890638D01*
X49490411Y-126814476D01*
X49473102Y-126800272D01*
X49376160Y-126703330D01*
X49361956Y-126686021D01*
X49285794Y-126572036D01*
X49275236Y-126552286D01*
X49222774Y-126425633D01*
X49216273Y-126404200D01*
X49189528Y-126269744D01*
X49187334Y-126247464D01*
X49187334Y-126110366D01*
X49189528Y-126088086D01*
X49216273Y-125953630D01*
X49222774Y-125932197D01*
X49275236Y-125805544D01*
X49285794Y-125785794D01*
X49361956Y-125671809D01*
X49376160Y-125654500D01*
X49473102Y-125557558D01*
X49490411Y-125543354D01*
X49604396Y-125467192D01*
X49624146Y-125456634D01*
X49750799Y-125404172D01*
X49772232Y-125397671D01*
X49845052Y-125383186D01*
X49868501Y-125376073D01*
X49890112Y-125364522D01*
X49909054Y-125348976D01*
X49924599Y-125330035D01*
X49936150Y-125308424D01*
X49943263Y-125284975D01*
X49945665Y-125260589D01*
X49945665Y-124685055D01*
X49947254Y-124668916D01*
X49950169Y-124659307D01*
X49954907Y-124650443D01*
X49961280Y-124642678D01*
X49969045Y-124636305D01*
X49977909Y-124631567D01*
X49987518Y-124628652D01*
X50003657Y-124627063D01*
X50991377Y-124627063D01*
X51019767Y-124629859D01*
X51019767Y-124629859D01*
G37*
G36*
X78537894Y-125167247D02*
G01*
X76518335Y-125750163D01*
X76212734Y-124691383D01*
X78232293Y-124108467D01*
X78537894Y-125167247D01*
X78537894Y-125167247D01*
G37*
G36*
X93137342Y-125005273D02*
G01*
X91066642Y-125366668D01*
X90877176Y-124281077D01*
X92947876Y-123919682D01*
X93137342Y-125005273D01*
X93137342Y-125005273D01*
G37*
G36*
X107732446Y-124718454D02*
G01*
X107736835Y-124794582D01*
X105638321Y-124915581D01*
X105574885Y-123815409D01*
X105574885Y-123815408D01*
X107673399Y-123694409D01*
X107732446Y-124718454D01*
X107732446Y-124718454D01*
G37*
G36*
X114126222Y-124426172D02*
G01*
X112027708Y-124547171D01*
X111964272Y-123446999D01*
X111964272Y-123446998D01*
X114062786Y-123325999D01*
X114126222Y-124426172D01*
X114126222Y-124426172D01*
G37*
G36*
X99442042Y-123904926D02*
G01*
X97371342Y-124266321D01*
X97181876Y-123180730D01*
X99252576Y-122819335D01*
X99442042Y-123904926D01*
X99442042Y-123904926D01*
G37*
G36*
X84686881Y-123392434D02*
G01*
X82667322Y-123975350D01*
X82361721Y-122916570D01*
X84381280Y-122333654D01*
X84686881Y-123392434D01*
X84686881Y-123392434D01*
G37*
G36*
X51019767Y-119629859D02*
G01*
X51019876Y-119628753D01*
X51032619Y-119630643D01*
X51067647Y-119630643D01*
X51078819Y-119631189D01*
X51221432Y-119645173D01*
X51221481Y-119644677D01*
X51221848Y-119644742D01*
X51221799Y-119645211D01*
X51228950Y-119645962D01*
X51240781Y-119647836D01*
X51302876Y-119661034D01*
X51304585Y-119661384D01*
X51367038Y-119673750D01*
X51377869Y-119676450D01*
X51514953Y-119717837D01*
X51515534Y-119718015D01*
X51522304Y-119720111D01*
X51533538Y-119724244D01*
X51591899Y-119749257D01*
X51593506Y-119749933D01*
X51652358Y-119774190D01*
X51662470Y-119778949D01*
X51788618Y-119846023D01*
X51789620Y-119846560D01*
X51795669Y-119849831D01*
X51805866Y-119856055D01*
X51858255Y-119891927D01*
X51859703Y-119892904D01*
X51912748Y-119928147D01*
X51921712Y-119934755D01*
X52032644Y-120025230D01*
X52033158Y-120025653D01*
X52038619Y-120030170D01*
X52047427Y-120038269D01*
X52091813Y-120083595D01*
X52093043Y-120084834D01*
X52138236Y-120129712D01*
X52145782Y-120137977D01*
X52237030Y-120248277D01*
X52237520Y-120248873D01*
X52241911Y-120254258D01*
X52248985Y-120263923D01*
X52283750Y-120317048D01*
X52284715Y-120318501D01*
X52320310Y-120371274D01*
X52326100Y-120380833D01*
X52394097Y-120506592D01*
X52394621Y-120507570D01*
X52397809Y-120513566D01*
X52402870Y-120524420D01*
X52426660Y-120583303D01*
X52427326Y-120584919D01*
X52451992Y-120643596D01*
X52455809Y-120654083D01*
X52498134Y-120790813D01*
X52498371Y-120791589D01*
X52500378Y-120798234D01*
X52503231Y-120809851D01*
X52515141Y-120872287D01*
X52515480Y-120874002D01*
X52528269Y-120936299D01*
X52529977Y-120947330D01*
X52544958Y-121089859D01*
X52545018Y-121090449D01*
X52545697Y-121097381D01*
X52546240Y-121109331D01*
X52545798Y-121172841D01*
X52545798Y-121174582D01*
X52546242Y-121238243D01*
X52545774Y-121249403D01*
X52532820Y-121391731D01*
X52532711Y-121392888D01*
X52532047Y-121399655D01*
X52530259Y-121411477D01*
X52517492Y-121473676D01*
X52517153Y-121475387D01*
X52505224Y-121537922D01*
X52502597Y-121548781D01*
X52464307Y-121678879D01*
X52462010Y-121684541D01*
X52461553Y-121686092D01*
X52461424Y-121686054D01*
X52461321Y-121686401D01*
X52461449Y-121686440D01*
X52460912Y-121688220D01*
X52459831Y-121693833D01*
X52455902Y-121704748D01*
X52431270Y-121763346D01*
X52430607Y-121764956D01*
X52406777Y-121823933D01*
X52402086Y-121834086D01*
X52335917Y-121960656D01*
X52335368Y-121961697D01*
X52332149Y-121967751D01*
X52325980Y-121978019D01*
X52290463Y-122030675D01*
X52289497Y-122032130D01*
X52254658Y-122085371D01*
X52248093Y-122094407D01*
X52158413Y-122205949D01*
X52157945Y-122206527D01*
X52153514Y-122211960D01*
X52145471Y-122220828D01*
X52100458Y-122265529D01*
X52099229Y-122266767D01*
X52054654Y-122312286D01*
X52046451Y-122319881D01*
X51936873Y-122411827D01*
X51936199Y-122412389D01*
X51930827Y-122416833D01*
X51921224Y-122423965D01*
X51868279Y-122459142D01*
X51866833Y-122460117D01*
X51814372Y-122496038D01*
X51804855Y-122501893D01*
X51679361Y-122570884D01*
X51678877Y-122571148D01*
X51672614Y-122574534D01*
X51661813Y-122579663D01*
X51603103Y-122603862D01*
X51601495Y-122604538D01*
X51542987Y-122629615D01*
X51532518Y-122633508D01*
X51395935Y-122676835D01*
X51395490Y-122676974D01*
X51388685Y-122679081D01*
X51377076Y-122682019D01*
X51314794Y-122694351D01*
X51313084Y-122694702D01*
X51250821Y-122707936D01*
X51239803Y-122709721D01*
X51097603Y-122725671D01*
X51096811Y-122725757D01*
X51089856Y-122726488D01*
X51077897Y-122727115D01*
X51056365Y-122727115D01*
X51043300Y-122727800D01*
X51021681Y-122730072D01*
X51010520Y-122730696D01*
X51003239Y-122730747D01*
X51002647Y-122730749D01*
X50997700Y-122730749D01*
X50997333Y-122730767D01*
X50003657Y-122730767D01*
X49987518Y-122729178D01*
X49977909Y-122726263D01*
X49969045Y-122721525D01*
X49961280Y-122715152D01*
X49954907Y-122707387D01*
X49950169Y-122698523D01*
X49947254Y-122688914D01*
X49945665Y-122672775D01*
X49945665Y-122097241D01*
X49943263Y-122072855D01*
X49936150Y-122049406D01*
X49924599Y-122027795D01*
X49909054Y-122008853D01*
X49890112Y-121993308D01*
X49868501Y-121981757D01*
X49845052Y-121974644D01*
X49772232Y-121960159D01*
X49750799Y-121953658D01*
X49624146Y-121901196D01*
X49604396Y-121890638D01*
X49490411Y-121814476D01*
X49473102Y-121800272D01*
X49376160Y-121703330D01*
X49361956Y-121686021D01*
X49285794Y-121572036D01*
X49275236Y-121552286D01*
X49222774Y-121425633D01*
X49216273Y-121404200D01*
X49189528Y-121269744D01*
X49187334Y-121247464D01*
X49187334Y-121110366D01*
X49189528Y-121088086D01*
X49216273Y-120953630D01*
X49222774Y-120932197D01*
X49275236Y-120805544D01*
X49285794Y-120785794D01*
X49361956Y-120671809D01*
X49376160Y-120654500D01*
X49473102Y-120557558D01*
X49490411Y-120543354D01*
X49604396Y-120467192D01*
X49624146Y-120456634D01*
X49750799Y-120404172D01*
X49772232Y-120397671D01*
X49845052Y-120383186D01*
X49868501Y-120376073D01*
X49890112Y-120364522D01*
X49909054Y-120348976D01*
X49924599Y-120330035D01*
X49936150Y-120308424D01*
X49943263Y-120284975D01*
X49945665Y-120260589D01*
X49945665Y-119685055D01*
X49947254Y-119668916D01*
X49950169Y-119659307D01*
X49954907Y-119650443D01*
X49961280Y-119642678D01*
X49969045Y-119636305D01*
X49977909Y-119631567D01*
X49987518Y-119628652D01*
X50003657Y-119627063D01*
X50991377Y-119627063D01*
X51019767Y-119629859D01*
X51019767Y-119629859D01*
G37*
G36*
X77373173Y-121131974D02*
G01*
X75353614Y-121714890D01*
X75048013Y-120656110D01*
X77067572Y-120073194D01*
X77373173Y-121131974D01*
X77373173Y-121131974D01*
G37*
G36*
X92415240Y-120867814D02*
G01*
X90344540Y-121229209D01*
X90155074Y-120143618D01*
X92225774Y-119782223D01*
X92415240Y-120867814D01*
X92415240Y-120867814D01*
G37*
G36*
X107489644Y-120507503D02*
G01*
X107495066Y-120601546D01*
X105396552Y-120722545D01*
X105333116Y-119622373D01*
X105333116Y-119622372D01*
X107431630Y-119501373D01*
X107489644Y-120507503D01*
X107489644Y-120507503D01*
G37*
G36*
X113879292Y-120143619D02*
G01*
X113884453Y-120233136D01*
X111785939Y-120354135D01*
X111773475Y-120137977D01*
X111722503Y-119253963D01*
X111722503Y-119253962D01*
X113821017Y-119132963D01*
X113879292Y-120143619D01*
X113879292Y-120143619D01*
G37*
G36*
X98719940Y-119767467D02*
G01*
X96649240Y-120128862D01*
X96459774Y-119043271D01*
X98530474Y-118681876D01*
X98719940Y-119767467D01*
X98719940Y-119767467D01*
G37*
G36*
X83522160Y-119357161D02*
G01*
X81502601Y-119940077D01*
X81197000Y-118881297D01*
X83216559Y-118298381D01*
X83522160Y-119357161D01*
X83522160Y-119357161D01*
G37*
G36*
X117225995Y-111380046D02*
G01*
X117235604Y-111382961D01*
X117244468Y-111387699D01*
X117252233Y-111394072D01*
X117258606Y-111401837D01*
X117263344Y-111410701D01*
X117266259Y-111420310D01*
X117267848Y-111436449D01*
X117267848Y-112011983D01*
X117270250Y-112036369D01*
X117277363Y-112059818D01*
X117288914Y-112081429D01*
X117304459Y-112100371D01*
X117323401Y-112115916D01*
X117345012Y-112127467D01*
X117368461Y-112134580D01*
X117441281Y-112149065D01*
X117462714Y-112155566D01*
X117589367Y-112208028D01*
X117609117Y-112218586D01*
X117723102Y-112294748D01*
X117740411Y-112308952D01*
X117837353Y-112405894D01*
X117851557Y-112423203D01*
X117927719Y-112537188D01*
X117938277Y-112556938D01*
X117990739Y-112683591D01*
X117997240Y-112705024D01*
X118023985Y-112839480D01*
X118026179Y-112861760D01*
X118026179Y-112998858D01*
X118023985Y-113021138D01*
X117997240Y-113155594D01*
X117990739Y-113177027D01*
X117938277Y-113303680D01*
X117927719Y-113323430D01*
X117851557Y-113437415D01*
X117837353Y-113454724D01*
X117740411Y-113551666D01*
X117723102Y-113565870D01*
X117609117Y-113642032D01*
X117589367Y-113652590D01*
X117462714Y-113705052D01*
X117441281Y-113711553D01*
X117368461Y-113726038D01*
X117345012Y-113733151D01*
X117323401Y-113744702D01*
X117304459Y-113760248D01*
X117288914Y-113779189D01*
X117277363Y-113800800D01*
X117270250Y-113824249D01*
X117267848Y-113848635D01*
X117267848Y-114424169D01*
X117266259Y-114440308D01*
X117263344Y-114449917D01*
X117258606Y-114458781D01*
X117252233Y-114466546D01*
X117244468Y-114472919D01*
X117235604Y-114477657D01*
X117225995Y-114480572D01*
X117209856Y-114482161D01*
X116222136Y-114482161D01*
X116193746Y-114479365D01*
X116193637Y-114480471D01*
X116180894Y-114478581D01*
X116145866Y-114478581D01*
X116134694Y-114478035D01*
X115992081Y-114464051D01*
X115992032Y-114464547D01*
X115991665Y-114464482D01*
X115991714Y-114464013D01*
X115984563Y-114463262D01*
X115972732Y-114461388D01*
X115910637Y-114448190D01*
X115908928Y-114447840D01*
X115846475Y-114435474D01*
X115835644Y-114432774D01*
X115698560Y-114391387D01*
X115697979Y-114391209D01*
X115691209Y-114389113D01*
X115679975Y-114384980D01*
X115621614Y-114359967D01*
X115620007Y-114359291D01*
X115561155Y-114335034D01*
X115551043Y-114330275D01*
X115424873Y-114263189D01*
X115423893Y-114262664D01*
X115417844Y-114259393D01*
X115407647Y-114253169D01*
X115355258Y-114217297D01*
X115353810Y-114216320D01*
X115300765Y-114181077D01*
X115291801Y-114174469D01*
X115180869Y-114083994D01*
X115180355Y-114083571D01*
X115174894Y-114079054D01*
X115166086Y-114070955D01*
X115121700Y-114025629D01*
X115120470Y-114024390D01*
X115075277Y-113979512D01*
X115067731Y-113971247D01*
X114976483Y-113860947D01*
X114975993Y-113860351D01*
X114971602Y-113854966D01*
X114964528Y-113845301D01*
X114929763Y-113792176D01*
X114928798Y-113790723D01*
X114893203Y-113737950D01*
X114887413Y-113728391D01*
X114819416Y-113602632D01*
X114818892Y-113601654D01*
X114815704Y-113595658D01*
X114810643Y-113584804D01*
X114786853Y-113525921D01*
X114786187Y-113524305D01*
X114761521Y-113465628D01*
X114757704Y-113455141D01*
X114715379Y-113318411D01*
X114715142Y-113317635D01*
X114713135Y-113310990D01*
X114710282Y-113299373D01*
X114698372Y-113236937D01*
X114698033Y-113235222D01*
X114685244Y-113172925D01*
X114683536Y-113161894D01*
X114668555Y-113019365D01*
X114668495Y-113018775D01*
X114667816Y-113011843D01*
X114667273Y-112999893D01*
X114667715Y-112936382D01*
X114667715Y-112934641D01*
X114667271Y-112870981D01*
X114667739Y-112859821D01*
X114680693Y-112717493D01*
X114680809Y-112716262D01*
X114681466Y-112709569D01*
X114683254Y-112697747D01*
X114696021Y-112635548D01*
X114696360Y-112633837D01*
X114708289Y-112571302D01*
X114710916Y-112560443D01*
X114749206Y-112430345D01*
X114751503Y-112424683D01*
X114751960Y-112423132D01*
X114752089Y-112423170D01*
X114752192Y-112422823D01*
X114752064Y-112422784D01*
X114752601Y-112421004D01*
X114753682Y-112415391D01*
X114757611Y-112404476D01*
X114782243Y-112345878D01*
X114782906Y-112344268D01*
X114806736Y-112285291D01*
X114811427Y-112275138D01*
X114877596Y-112148568D01*
X114878167Y-112147486D01*
X114881364Y-112141473D01*
X114887533Y-112131205D01*
X114923050Y-112078549D01*
X114924016Y-112077094D01*
X114958855Y-112023853D01*
X114965420Y-112014817D01*
X115055100Y-111903275D01*
X115055568Y-111902697D01*
X115059999Y-111897264D01*
X115068042Y-111888396D01*
X115113055Y-111843695D01*
X115114284Y-111842457D01*
X115158859Y-111796938D01*
X115167062Y-111789343D01*
X115276640Y-111697397D01*
X115277314Y-111696835D01*
X115282686Y-111692391D01*
X115292289Y-111685259D01*
X115345234Y-111650082D01*
X115346680Y-111649107D01*
X115399141Y-111613186D01*
X115408658Y-111607331D01*
X115534152Y-111538340D01*
X115534636Y-111538076D01*
X115540899Y-111534690D01*
X115551700Y-111529561D01*
X115610410Y-111505362D01*
X115612018Y-111504686D01*
X115670526Y-111479609D01*
X115680995Y-111475716D01*
X115817607Y-111432380D01*
X115818023Y-111432250D01*
X115824828Y-111430143D01*
X115836437Y-111427205D01*
X115898719Y-111414873D01*
X115900429Y-111414522D01*
X115962692Y-111401288D01*
X115973710Y-111399503D01*
X116115910Y-111383553D01*
X116116702Y-111383467D01*
X116123657Y-111382736D01*
X116135616Y-111382109D01*
X116157148Y-111382109D01*
X116170213Y-111381424D01*
X116191832Y-111379152D01*
X116202993Y-111378528D01*
X116210274Y-111378477D01*
X116210866Y-111378475D01*
X116215813Y-111378475D01*
X116216180Y-111378457D01*
X117209856Y-111378457D01*
X117225995Y-111380046D01*
X117225995Y-111380046D01*
G37*
G36*
X56695596Y-112447748D02*
G01*
X56730905Y-112456929D01*
X56763752Y-112472826D01*
X56792873Y-112494830D01*
X56817133Y-112522084D01*
X56835611Y-112553546D01*
X56847600Y-112588021D01*
X56853481Y-112630273D01*
X56856491Y-112705210D01*
X56856491Y-112705211D01*
X56862532Y-112855620D01*
X56912323Y-114095291D01*
X56909848Y-114137890D01*
X56900665Y-114173209D01*
X56884769Y-114206054D01*
X56862767Y-114235172D01*
X56835515Y-114259432D01*
X56804049Y-114277911D01*
X56769575Y-114289900D01*
X56727323Y-114295781D01*
X55587043Y-114341579D01*
X55544438Y-114339104D01*
X55509129Y-114329923D01*
X55476282Y-114314026D01*
X55447161Y-114292022D01*
X55422901Y-114264768D01*
X55404423Y-114233306D01*
X55392434Y-114198831D01*
X55386553Y-114156579D01*
X55383188Y-114072788D01*
X55352515Y-113309125D01*
X55327711Y-112691561D01*
X55330186Y-112648962D01*
X55339369Y-112613643D01*
X55355265Y-112580798D01*
X55377267Y-112551680D01*
X55404519Y-112527420D01*
X55435985Y-112508941D01*
X55470459Y-112496952D01*
X55512711Y-112491071D01*
X56652991Y-112445273D01*
X56695596Y-112447748D01*
X56695596Y-112447748D01*
G37*
G36*
X59668200Y-112328356D02*
G01*
X59703509Y-112337537D01*
X59736356Y-112353434D01*
X59765477Y-112375438D01*
X59789737Y-112402692D01*
X59808215Y-112434154D01*
X59820204Y-112468629D01*
X59826085Y-112510881D01*
X59829095Y-112585818D01*
X59829095Y-112585819D01*
X59834370Y-112717150D01*
X59884927Y-113975899D01*
X59882452Y-114018498D01*
X59873269Y-114053817D01*
X59857373Y-114086662D01*
X59835371Y-114115780D01*
X59808119Y-114140040D01*
X59776653Y-114158519D01*
X59742179Y-114170508D01*
X59699927Y-114176389D01*
X58559647Y-114222187D01*
X58517042Y-114219712D01*
X58481733Y-114210531D01*
X58448886Y-114194634D01*
X58419765Y-114172630D01*
X58395505Y-114145376D01*
X58377027Y-114113914D01*
X58365038Y-114079439D01*
X58359157Y-114037187D01*
X58355792Y-113953396D01*
X58330273Y-113318051D01*
X58300315Y-112572169D01*
X58302790Y-112529570D01*
X58311973Y-112494251D01*
X58327869Y-112461406D01*
X58349871Y-112432288D01*
X58377123Y-112408028D01*
X58408589Y-112389549D01*
X58443063Y-112377560D01*
X58485315Y-112371679D01*
X59625595Y-112325881D01*
X59668200Y-112328356D01*
X59668200Y-112328356D01*
G37*
G36*
X85774148Y-111070848D02*
G01*
X83716568Y-111500699D01*
X83491214Y-110421986D01*
X85548794Y-109992135D01*
X85774148Y-111070848D01*
X85774148Y-111070848D01*
G37*
G36*
X100406604Y-110897517D02*
G01*
X98316119Y-111117236D01*
X98316118Y-111117236D01*
X98200928Y-110021273D01*
X98478157Y-109992135D01*
X100291413Y-109801554D01*
X100291414Y-109801554D01*
X100406604Y-110897517D01*
X100406604Y-110897517D01*
G37*
G36*
X106749760Y-110021273D02*
G01*
X106771544Y-110228535D01*
X104681059Y-110448254D01*
X104681058Y-110448254D01*
X104565868Y-109352291D01*
X104775336Y-109330275D01*
X106656353Y-109132572D01*
X106656354Y-109132572D01*
X106749760Y-110021273D01*
X106749760Y-110021273D01*
G37*
G36*
X92038900Y-109762073D02*
G01*
X89981320Y-110191924D01*
X89755966Y-109113211D01*
X91813546Y-108683360D01*
X92038900Y-109762073D01*
X92038900Y-109762073D01*
G37*
G36*
X117225995Y-106380046D02*
G01*
X117235604Y-106382961D01*
X117244468Y-106387699D01*
X117252233Y-106394072D01*
X117258606Y-106401837D01*
X117263344Y-106410701D01*
X117266259Y-106420310D01*
X117267848Y-106436449D01*
X117267848Y-107011983D01*
X117270250Y-107036369D01*
X117277363Y-107059818D01*
X117288914Y-107081429D01*
X117304459Y-107100371D01*
X117323401Y-107115916D01*
X117345012Y-107127467D01*
X117368461Y-107134580D01*
X117441281Y-107149065D01*
X117462714Y-107155566D01*
X117589367Y-107208028D01*
X117609117Y-107218586D01*
X117723102Y-107294748D01*
X117740411Y-107308952D01*
X117837353Y-107405894D01*
X117851557Y-107423203D01*
X117927719Y-107537188D01*
X117938277Y-107556938D01*
X117990739Y-107683591D01*
X117997240Y-107705024D01*
X118023985Y-107839480D01*
X118026179Y-107861760D01*
X118026179Y-107998858D01*
X118023985Y-108021138D01*
X117997240Y-108155594D01*
X117990739Y-108177027D01*
X117938277Y-108303680D01*
X117927719Y-108323430D01*
X117851557Y-108437415D01*
X117837353Y-108454724D01*
X117740411Y-108551666D01*
X117723102Y-108565870D01*
X117609117Y-108642032D01*
X117589367Y-108652590D01*
X117462714Y-108705052D01*
X117441281Y-108711553D01*
X117368461Y-108726038D01*
X117345012Y-108733151D01*
X117323401Y-108744702D01*
X117304459Y-108760248D01*
X117288914Y-108779189D01*
X117277363Y-108800800D01*
X117270250Y-108824249D01*
X117267848Y-108848635D01*
X117267848Y-109424169D01*
X117266259Y-109440308D01*
X117263344Y-109449917D01*
X117258606Y-109458781D01*
X117252233Y-109466546D01*
X117244468Y-109472919D01*
X117235604Y-109477657D01*
X117225995Y-109480572D01*
X117209856Y-109482161D01*
X116222136Y-109482161D01*
X116193746Y-109479365D01*
X116193637Y-109480471D01*
X116180894Y-109478581D01*
X116145866Y-109478581D01*
X116134694Y-109478035D01*
X115992081Y-109464051D01*
X115992032Y-109464547D01*
X115991665Y-109464482D01*
X115991714Y-109464013D01*
X115984563Y-109463262D01*
X115972732Y-109461388D01*
X115910637Y-109448190D01*
X115908928Y-109447840D01*
X115846475Y-109435474D01*
X115835644Y-109432774D01*
X115698560Y-109391387D01*
X115697979Y-109391209D01*
X115691209Y-109389113D01*
X115679975Y-109384980D01*
X115621614Y-109359967D01*
X115620007Y-109359291D01*
X115561155Y-109335034D01*
X115551043Y-109330275D01*
X115424873Y-109263189D01*
X115423893Y-109262664D01*
X115417844Y-109259393D01*
X115407647Y-109253169D01*
X115355258Y-109217297D01*
X115353810Y-109216320D01*
X115300765Y-109181077D01*
X115291801Y-109174469D01*
X115180869Y-109083994D01*
X115180355Y-109083571D01*
X115174894Y-109079054D01*
X115166086Y-109070955D01*
X115121700Y-109025629D01*
X115120470Y-109024390D01*
X115075277Y-108979512D01*
X115067731Y-108971247D01*
X114976483Y-108860947D01*
X114975993Y-108860351D01*
X114971602Y-108854966D01*
X114964528Y-108845301D01*
X114929763Y-108792176D01*
X114928798Y-108790723D01*
X114893203Y-108737950D01*
X114887413Y-108728391D01*
X114819416Y-108602632D01*
X114818892Y-108601654D01*
X114815704Y-108595658D01*
X114810643Y-108584804D01*
X114786853Y-108525921D01*
X114786187Y-108524305D01*
X114761521Y-108465628D01*
X114757704Y-108455141D01*
X114715379Y-108318411D01*
X114715142Y-108317635D01*
X114713135Y-108310990D01*
X114710282Y-108299373D01*
X114698372Y-108236937D01*
X114698033Y-108235222D01*
X114685244Y-108172925D01*
X114683536Y-108161894D01*
X114668555Y-108019365D01*
X114668495Y-108018775D01*
X114667816Y-108011843D01*
X114667273Y-107999893D01*
X114667715Y-107936382D01*
X114667715Y-107934641D01*
X114667271Y-107870981D01*
X114667739Y-107859821D01*
X114680693Y-107717493D01*
X114680809Y-107716262D01*
X114681466Y-107709569D01*
X114683254Y-107697747D01*
X114696021Y-107635548D01*
X114696360Y-107633837D01*
X114708289Y-107571302D01*
X114710916Y-107560443D01*
X114749206Y-107430345D01*
X114751503Y-107424683D01*
X114751960Y-107423132D01*
X114752089Y-107423170D01*
X114752192Y-107422823D01*
X114752064Y-107422784D01*
X114752601Y-107421004D01*
X114753682Y-107415391D01*
X114757611Y-107404476D01*
X114782243Y-107345878D01*
X114782906Y-107344268D01*
X114806736Y-107285291D01*
X114811427Y-107275138D01*
X114877596Y-107148568D01*
X114878167Y-107147486D01*
X114881364Y-107141473D01*
X114887533Y-107131205D01*
X114923050Y-107078549D01*
X114924016Y-107077094D01*
X114958855Y-107023853D01*
X114965420Y-107014817D01*
X115055100Y-106903275D01*
X115055568Y-106902697D01*
X115059999Y-106897264D01*
X115068042Y-106888396D01*
X115113055Y-106843695D01*
X115114284Y-106842457D01*
X115158859Y-106796938D01*
X115167062Y-106789343D01*
X115276640Y-106697397D01*
X115277314Y-106696835D01*
X115282686Y-106692391D01*
X115292289Y-106685259D01*
X115345234Y-106650082D01*
X115346680Y-106649107D01*
X115399141Y-106613186D01*
X115408658Y-106607331D01*
X115534152Y-106538340D01*
X115534636Y-106538076D01*
X115540899Y-106534690D01*
X115551700Y-106529561D01*
X115610410Y-106505362D01*
X115612018Y-106504686D01*
X115670526Y-106479609D01*
X115680995Y-106475716D01*
X115817607Y-106432380D01*
X115818023Y-106432250D01*
X115824828Y-106430143D01*
X115836437Y-106427205D01*
X115898719Y-106414873D01*
X115900429Y-106414522D01*
X115962692Y-106401288D01*
X115973710Y-106399503D01*
X116115910Y-106383553D01*
X116116702Y-106383467D01*
X116123657Y-106382736D01*
X116135616Y-106382109D01*
X116157148Y-106382109D01*
X116170213Y-106381424D01*
X116191832Y-106379152D01*
X116202993Y-106378528D01*
X116210274Y-106378477D01*
X116210866Y-106378475D01*
X116215813Y-106378475D01*
X116216180Y-106378457D01*
X117209856Y-106378457D01*
X117225995Y-106380046D01*
X117225995Y-106380046D01*
G37*
G36*
X84915264Y-106959605D02*
G01*
X82857684Y-107389456D01*
X82632330Y-106310743D01*
X84689910Y-105880892D01*
X84915264Y-106959605D01*
X84915264Y-106959605D01*
G37*
G36*
X99948468Y-106538649D02*
G01*
X99967584Y-106720525D01*
X97877099Y-106940244D01*
X97877098Y-106940244D01*
X97761908Y-105844281D01*
X99852393Y-105624562D01*
X99852394Y-105624562D01*
X99948468Y-106538649D01*
X99948468Y-106538649D01*
G37*
G36*
X106290407Y-105650830D02*
G01*
X106332524Y-106051543D01*
X104242039Y-106271262D01*
X104242038Y-106271262D01*
X104126848Y-105175299D01*
X104126847Y-105175299D01*
X106217333Y-104955580D01*
X106217334Y-104955580D01*
X106290407Y-105650830D01*
X106290407Y-105650830D01*
G37*
G36*
X91180016Y-105650830D02*
G01*
X89122436Y-106080681D01*
X88897082Y-105001968D01*
X90954662Y-104572117D01*
X91180016Y-105650830D01*
X91180016Y-105650830D01*
G37*
G36*
X117225995Y-101380046D02*
G01*
X117235604Y-101382961D01*
X117244468Y-101387699D01*
X117252233Y-101394072D01*
X117258606Y-101401837D01*
X117263344Y-101410701D01*
X117266259Y-101420310D01*
X117267848Y-101436449D01*
X117267848Y-102011983D01*
X117270250Y-102036369D01*
X117277363Y-102059818D01*
X117288914Y-102081429D01*
X117304459Y-102100371D01*
X117323401Y-102115916D01*
X117345012Y-102127467D01*
X117368461Y-102134580D01*
X117441281Y-102149065D01*
X117462714Y-102155566D01*
X117589367Y-102208028D01*
X117609117Y-102218586D01*
X117723102Y-102294748D01*
X117740411Y-102308952D01*
X117837353Y-102405894D01*
X117851557Y-102423203D01*
X117927719Y-102537188D01*
X117938277Y-102556938D01*
X117990739Y-102683591D01*
X117997240Y-102705024D01*
X118023985Y-102839480D01*
X118026179Y-102861760D01*
X118026179Y-102998858D01*
X118023985Y-103021138D01*
X117997240Y-103155594D01*
X117990739Y-103177027D01*
X117938277Y-103303680D01*
X117927719Y-103323430D01*
X117851557Y-103437415D01*
X117837353Y-103454724D01*
X117740411Y-103551666D01*
X117723102Y-103565870D01*
X117609117Y-103642032D01*
X117589367Y-103652590D01*
X117462714Y-103705052D01*
X117441281Y-103711553D01*
X117368461Y-103726038D01*
X117345012Y-103733151D01*
X117323401Y-103744702D01*
X117304459Y-103760248D01*
X117288914Y-103779189D01*
X117277363Y-103800800D01*
X117270250Y-103824249D01*
X117267848Y-103848635D01*
X117267848Y-104424169D01*
X117266259Y-104440308D01*
X117263344Y-104449917D01*
X117258606Y-104458781D01*
X117252233Y-104466546D01*
X117244468Y-104472919D01*
X117235604Y-104477657D01*
X117225995Y-104480572D01*
X117209856Y-104482161D01*
X116222136Y-104482161D01*
X116193746Y-104479365D01*
X116193637Y-104480471D01*
X116180894Y-104478581D01*
X116145866Y-104478581D01*
X116134694Y-104478035D01*
X115992081Y-104464051D01*
X115992032Y-104464547D01*
X115991665Y-104464482D01*
X115991714Y-104464013D01*
X115984563Y-104463262D01*
X115972732Y-104461388D01*
X115910637Y-104448190D01*
X115908928Y-104447840D01*
X115846475Y-104435474D01*
X115835644Y-104432774D01*
X115698560Y-104391387D01*
X115697979Y-104391209D01*
X115691209Y-104389113D01*
X115679975Y-104384980D01*
X115621614Y-104359967D01*
X115620007Y-104359291D01*
X115561155Y-104335034D01*
X115551043Y-104330275D01*
X115424873Y-104263189D01*
X115423893Y-104262664D01*
X115417844Y-104259393D01*
X115407647Y-104253169D01*
X115355258Y-104217297D01*
X115353810Y-104216320D01*
X115300765Y-104181077D01*
X115291801Y-104174469D01*
X115180869Y-104083994D01*
X115180355Y-104083571D01*
X115174894Y-104079054D01*
X115166086Y-104070955D01*
X115121700Y-104025629D01*
X115120470Y-104024390D01*
X115075277Y-103979512D01*
X115067731Y-103971247D01*
X114976483Y-103860947D01*
X114975993Y-103860351D01*
X114971602Y-103854966D01*
X114964528Y-103845301D01*
X114929763Y-103792176D01*
X114928798Y-103790723D01*
X114893203Y-103737950D01*
X114887413Y-103728391D01*
X114819416Y-103602632D01*
X114818892Y-103601654D01*
X114815704Y-103595658D01*
X114810643Y-103584804D01*
X114786853Y-103525921D01*
X114786187Y-103524305D01*
X114761521Y-103465628D01*
X114757704Y-103455141D01*
X114715379Y-103318411D01*
X114715142Y-103317635D01*
X114713135Y-103310990D01*
X114710282Y-103299373D01*
X114698372Y-103236937D01*
X114698033Y-103235222D01*
X114685244Y-103172925D01*
X114683536Y-103161894D01*
X114668555Y-103019365D01*
X114668495Y-103018775D01*
X114667816Y-103011843D01*
X114667273Y-102999893D01*
X114667715Y-102936382D01*
X114667715Y-102934641D01*
X114667271Y-102870981D01*
X114667739Y-102859821D01*
X114680693Y-102717493D01*
X114680809Y-102716262D01*
X114681466Y-102709569D01*
X114683254Y-102697747D01*
X114696021Y-102635548D01*
X114696360Y-102633837D01*
X114708289Y-102571302D01*
X114710916Y-102560443D01*
X114749206Y-102430345D01*
X114751503Y-102424683D01*
X114751960Y-102423132D01*
X114752089Y-102423170D01*
X114752192Y-102422823D01*
X114752064Y-102422784D01*
X114752601Y-102421004D01*
X114753682Y-102415391D01*
X114757611Y-102404476D01*
X114782243Y-102345878D01*
X114782906Y-102344268D01*
X114806736Y-102285291D01*
X114811427Y-102275138D01*
X114877596Y-102148568D01*
X114878167Y-102147486D01*
X114881364Y-102141473D01*
X114887533Y-102131205D01*
X114923050Y-102078549D01*
X114924016Y-102077094D01*
X114958855Y-102023853D01*
X114965420Y-102014817D01*
X115055100Y-101903275D01*
X115055568Y-101902697D01*
X115059999Y-101897264D01*
X115068042Y-101888396D01*
X115113055Y-101843695D01*
X115114284Y-101842457D01*
X115158859Y-101796938D01*
X115167062Y-101789343D01*
X115276640Y-101697397D01*
X115277314Y-101696835D01*
X115282686Y-101692391D01*
X115292289Y-101685259D01*
X115345234Y-101650082D01*
X115346680Y-101649107D01*
X115399141Y-101613186D01*
X115408658Y-101607331D01*
X115534152Y-101538340D01*
X115534636Y-101538076D01*
X115540899Y-101534690D01*
X115551700Y-101529561D01*
X115610410Y-101505362D01*
X115612018Y-101504686D01*
X115670526Y-101479609D01*
X115680995Y-101475716D01*
X115817607Y-101432380D01*
X115818023Y-101432250D01*
X115824828Y-101430143D01*
X115836437Y-101427205D01*
X115898719Y-101414873D01*
X115900429Y-101414522D01*
X115962692Y-101401288D01*
X115973710Y-101399503D01*
X116115910Y-101383553D01*
X116116702Y-101383467D01*
X116123657Y-101382736D01*
X116135616Y-101382109D01*
X116157148Y-101382109D01*
X116170213Y-101381424D01*
X116191832Y-101379152D01*
X116202993Y-101378528D01*
X116210274Y-101378477D01*
X116210866Y-101378475D01*
X116215813Y-101378475D01*
X116216180Y-101378457D01*
X117209856Y-101378457D01*
X117225995Y-101380046D01*
X117225995Y-101380046D01*
G37*
G36*
X51019767Y-99629859D02*
G01*
X51019876Y-99628753D01*
X51032619Y-99630643D01*
X51067647Y-99630643D01*
X51078819Y-99631189D01*
X51221432Y-99645173D01*
X51221481Y-99644677D01*
X51221848Y-99644742D01*
X51221799Y-99645211D01*
X51228950Y-99645962D01*
X51240781Y-99647836D01*
X51302876Y-99661034D01*
X51304585Y-99661384D01*
X51367038Y-99673750D01*
X51377869Y-99676450D01*
X51514953Y-99717837D01*
X51515534Y-99718015D01*
X51522304Y-99720111D01*
X51533538Y-99724244D01*
X51591899Y-99749257D01*
X51593506Y-99749933D01*
X51652358Y-99774190D01*
X51662470Y-99778949D01*
X51788618Y-99846023D01*
X51789620Y-99846560D01*
X51795669Y-99849831D01*
X51805866Y-99856055D01*
X51858255Y-99891927D01*
X51859703Y-99892904D01*
X51912748Y-99928147D01*
X51921712Y-99934755D01*
X52032644Y-100025230D01*
X52033158Y-100025653D01*
X52038619Y-100030170D01*
X52047427Y-100038269D01*
X52091813Y-100083595D01*
X52093043Y-100084834D01*
X52138236Y-100129712D01*
X52145782Y-100137977D01*
X52237030Y-100248277D01*
X52237520Y-100248873D01*
X52241911Y-100254258D01*
X52248985Y-100263923D01*
X52283750Y-100317048D01*
X52284715Y-100318501D01*
X52320310Y-100371274D01*
X52326100Y-100380833D01*
X52394097Y-100506592D01*
X52394621Y-100507570D01*
X52397809Y-100513566D01*
X52402870Y-100524420D01*
X52426660Y-100583303D01*
X52427326Y-100584919D01*
X52451992Y-100643596D01*
X52455809Y-100654083D01*
X52498134Y-100790813D01*
X52498371Y-100791589D01*
X52500378Y-100798234D01*
X52503231Y-100809851D01*
X52515141Y-100872287D01*
X52515480Y-100874002D01*
X52528269Y-100936299D01*
X52529977Y-100947330D01*
X52544958Y-101089859D01*
X52545018Y-101090449D01*
X52545697Y-101097381D01*
X52546240Y-101109331D01*
X52545798Y-101172841D01*
X52545798Y-101174582D01*
X52546242Y-101238243D01*
X52545774Y-101249403D01*
X52532820Y-101391731D01*
X52532711Y-101392888D01*
X52532047Y-101399655D01*
X52530259Y-101411477D01*
X52517492Y-101473676D01*
X52517153Y-101475387D01*
X52505224Y-101537922D01*
X52502597Y-101548781D01*
X52464307Y-101678879D01*
X52462010Y-101684541D01*
X52461553Y-101686092D01*
X52461424Y-101686054D01*
X52461321Y-101686401D01*
X52461449Y-101686440D01*
X52460912Y-101688220D01*
X52459831Y-101693833D01*
X52455902Y-101704748D01*
X52431270Y-101763346D01*
X52430607Y-101764956D01*
X52406777Y-101823933D01*
X52402086Y-101834086D01*
X52335917Y-101960656D01*
X52335368Y-101961697D01*
X52332149Y-101967751D01*
X52325980Y-101978019D01*
X52290463Y-102030675D01*
X52289497Y-102032130D01*
X52254658Y-102085371D01*
X52248093Y-102094407D01*
X52158413Y-102205949D01*
X52157945Y-102206527D01*
X52153514Y-102211960D01*
X52145471Y-102220828D01*
X52100458Y-102265529D01*
X52099229Y-102266767D01*
X52054654Y-102312286D01*
X52046451Y-102319881D01*
X51936873Y-102411827D01*
X51936199Y-102412389D01*
X51930827Y-102416833D01*
X51921224Y-102423965D01*
X51868279Y-102459142D01*
X51866833Y-102460117D01*
X51814372Y-102496038D01*
X51804855Y-102501893D01*
X51679361Y-102570884D01*
X51678877Y-102571148D01*
X51672614Y-102574534D01*
X51661813Y-102579663D01*
X51603103Y-102603862D01*
X51601495Y-102604538D01*
X51542987Y-102629615D01*
X51532518Y-102633508D01*
X51395935Y-102676835D01*
X51395490Y-102676974D01*
X51388685Y-102679081D01*
X51377076Y-102682019D01*
X51314794Y-102694351D01*
X51313084Y-102694702D01*
X51250821Y-102707936D01*
X51239803Y-102709721D01*
X51097603Y-102725671D01*
X51096811Y-102725757D01*
X51089856Y-102726488D01*
X51077897Y-102727115D01*
X51056365Y-102727115D01*
X51043300Y-102727800D01*
X51021681Y-102730072D01*
X51010520Y-102730696D01*
X51003239Y-102730747D01*
X51002647Y-102730749D01*
X50997700Y-102730749D01*
X50997333Y-102730767D01*
X50003657Y-102730767D01*
X49987518Y-102729178D01*
X49977909Y-102726263D01*
X49969045Y-102721525D01*
X49961280Y-102715152D01*
X49954907Y-102707387D01*
X49950169Y-102698523D01*
X49947254Y-102688914D01*
X49945665Y-102672775D01*
X49945665Y-102097241D01*
X49943263Y-102072855D01*
X49936150Y-102049406D01*
X49924599Y-102027795D01*
X49909054Y-102008853D01*
X49890112Y-101993308D01*
X49868501Y-101981757D01*
X49845052Y-101974644D01*
X49772232Y-101960159D01*
X49750799Y-101953658D01*
X49624146Y-101901196D01*
X49604396Y-101890638D01*
X49490411Y-101814476D01*
X49473102Y-101800272D01*
X49376160Y-101703330D01*
X49361956Y-101686021D01*
X49285794Y-101572036D01*
X49275236Y-101552286D01*
X49222774Y-101425633D01*
X49216273Y-101404200D01*
X49189528Y-101269744D01*
X49187334Y-101247464D01*
X49187334Y-101110366D01*
X49189528Y-101088086D01*
X49216273Y-100953630D01*
X49222774Y-100932197D01*
X49275236Y-100805544D01*
X49285794Y-100785794D01*
X49361956Y-100671809D01*
X49376160Y-100654500D01*
X49473102Y-100557558D01*
X49490411Y-100543354D01*
X49604396Y-100467192D01*
X49624146Y-100456634D01*
X49750799Y-100404172D01*
X49772232Y-100397671D01*
X49845052Y-100383186D01*
X49868501Y-100376073D01*
X49890112Y-100364522D01*
X49909054Y-100348976D01*
X49924599Y-100330035D01*
X49936150Y-100308424D01*
X49943263Y-100284975D01*
X49945665Y-100260589D01*
X49945665Y-99685055D01*
X49947254Y-99668916D01*
X49950169Y-99659307D01*
X49954907Y-99650443D01*
X49961280Y-99642678D01*
X49969045Y-99636305D01*
X49977909Y-99631567D01*
X49987518Y-99628652D01*
X50003657Y-99627063D01*
X50991377Y-99627063D01*
X51019767Y-99629859D01*
X51019767Y-99629859D01*
G37*
G36*
X64451052Y-98486364D02*
G01*
X64486764Y-98493873D01*
X64520319Y-98508202D01*
X64550442Y-98528809D01*
X64575962Y-98554892D01*
X64595903Y-98585452D01*
X64609498Y-98619314D01*
X64617367Y-98661256D01*
X64745154Y-100121868D01*
X64744688Y-100164538D01*
X64737179Y-100200249D01*
X64722848Y-100233807D01*
X64702246Y-100263924D01*
X64676160Y-100289447D01*
X64645600Y-100309388D01*
X64611738Y-100322983D01*
X64569796Y-100330852D01*
X64495092Y-100337388D01*
X64495091Y-100337388D01*
X63923419Y-100387403D01*
X63514203Y-100423205D01*
X63507653Y-100423778D01*
X63432947Y-100430314D01*
X63390278Y-100429848D01*
X63354566Y-100422339D01*
X63321011Y-100408010D01*
X63290888Y-100387403D01*
X63265368Y-100361320D01*
X63245427Y-100330760D01*
X63231832Y-100296898D01*
X63223963Y-100254956D01*
X63096176Y-98794344D01*
X63096642Y-98751674D01*
X63104151Y-98715963D01*
X63118482Y-98682405D01*
X63139084Y-98652288D01*
X63165170Y-98626765D01*
X63195730Y-98606824D01*
X63229592Y-98593229D01*
X63271534Y-98585360D01*
X63346238Y-98578824D01*
X63346239Y-98578824D01*
X64180275Y-98505855D01*
X64408383Y-98485898D01*
X64451052Y-98486364D01*
X64451052Y-98486364D01*
G37*
G36*
X67414732Y-98227076D02*
G01*
X67450444Y-98234585D01*
X67483999Y-98248914D01*
X67514122Y-98269521D01*
X67539642Y-98295604D01*
X67559583Y-98326164D01*
X67573178Y-98360026D01*
X67581047Y-98401968D01*
X67708834Y-99862580D01*
X67708368Y-99905250D01*
X67700859Y-99940961D01*
X67686528Y-99974519D01*
X67665926Y-100004636D01*
X67639840Y-100030159D01*
X67609280Y-100050100D01*
X67575418Y-100063695D01*
X67533476Y-100071564D01*
X67458772Y-100078100D01*
X67458771Y-100078100D01*
X66774377Y-100137977D01*
X66477883Y-100163917D01*
X66471333Y-100164490D01*
X66396627Y-100171026D01*
X66353958Y-100170560D01*
X66318246Y-100163051D01*
X66284691Y-100148722D01*
X66254568Y-100128115D01*
X66229048Y-100102032D01*
X66209107Y-100071472D01*
X66195512Y-100037610D01*
X66187643Y-99995668D01*
X66059856Y-98535056D01*
X66060322Y-98492386D01*
X66067831Y-98456675D01*
X66082162Y-98423117D01*
X66102764Y-98393000D01*
X66128850Y-98367477D01*
X66159410Y-98347536D01*
X66193272Y-98333941D01*
X66235214Y-98326072D01*
X66309918Y-98319536D01*
X66309919Y-98319536D01*
X67117129Y-98248914D01*
X67372063Y-98226610D01*
X67414732Y-98227076D01*
X67414732Y-98227076D01*
G37*
G36*
X51019767Y-94629859D02*
G01*
X51019876Y-94628753D01*
X51032619Y-94630643D01*
X51067647Y-94630643D01*
X51078819Y-94631189D01*
X51221432Y-94645173D01*
X51221481Y-94644677D01*
X51221848Y-94644742D01*
X51221799Y-94645211D01*
X51228950Y-94645962D01*
X51240781Y-94647836D01*
X51302876Y-94661034D01*
X51304585Y-94661384D01*
X51367038Y-94673750D01*
X51377869Y-94676450D01*
X51514953Y-94717837D01*
X51515534Y-94718015D01*
X51522304Y-94720111D01*
X51533538Y-94724244D01*
X51591899Y-94749257D01*
X51593506Y-94749933D01*
X51652358Y-94774190D01*
X51662470Y-94778949D01*
X51788618Y-94846023D01*
X51789620Y-94846560D01*
X51795669Y-94849831D01*
X51805866Y-94856055D01*
X51858255Y-94891927D01*
X51859703Y-94892904D01*
X51912748Y-94928147D01*
X51921712Y-94934755D01*
X52032644Y-95025230D01*
X52033158Y-95025653D01*
X52038619Y-95030170D01*
X52047427Y-95038269D01*
X52091813Y-95083595D01*
X52093043Y-95084834D01*
X52138236Y-95129712D01*
X52145782Y-95137977D01*
X52237030Y-95248277D01*
X52237520Y-95248873D01*
X52241911Y-95254258D01*
X52248985Y-95263923D01*
X52283750Y-95317048D01*
X52284715Y-95318501D01*
X52320310Y-95371274D01*
X52326100Y-95380833D01*
X52394097Y-95506592D01*
X52394621Y-95507570D01*
X52397809Y-95513566D01*
X52402870Y-95524420D01*
X52426660Y-95583303D01*
X52427326Y-95584919D01*
X52451992Y-95643596D01*
X52455809Y-95654083D01*
X52498134Y-95790813D01*
X52498371Y-95791589D01*
X52500378Y-95798234D01*
X52503231Y-95809851D01*
X52515141Y-95872287D01*
X52515480Y-95874002D01*
X52528269Y-95936299D01*
X52529977Y-95947330D01*
X52544958Y-96089859D01*
X52545018Y-96090449D01*
X52545697Y-96097381D01*
X52546240Y-96109331D01*
X52545798Y-96172841D01*
X52545798Y-96174582D01*
X52546242Y-96238243D01*
X52545774Y-96249403D01*
X52532820Y-96391731D01*
X52532711Y-96392888D01*
X52532047Y-96399655D01*
X52530259Y-96411477D01*
X52517492Y-96473676D01*
X52517153Y-96475387D01*
X52505224Y-96537922D01*
X52502597Y-96548781D01*
X52464307Y-96678879D01*
X52462010Y-96684541D01*
X52461553Y-96686092D01*
X52461424Y-96686054D01*
X52461321Y-96686401D01*
X52461449Y-96686440D01*
X52460912Y-96688220D01*
X52459831Y-96693833D01*
X52455902Y-96704748D01*
X52431270Y-96763346D01*
X52430607Y-96764956D01*
X52406777Y-96823933D01*
X52402086Y-96834086D01*
X52335917Y-96960656D01*
X52335368Y-96961697D01*
X52332149Y-96967751D01*
X52325980Y-96978019D01*
X52290463Y-97030675D01*
X52289497Y-97032130D01*
X52254658Y-97085371D01*
X52248093Y-97094407D01*
X52158413Y-97205949D01*
X52157945Y-97206527D01*
X52153514Y-97211960D01*
X52145471Y-97220828D01*
X52100458Y-97265529D01*
X52099229Y-97266767D01*
X52054654Y-97312286D01*
X52046451Y-97319881D01*
X51936873Y-97411827D01*
X51936199Y-97412389D01*
X51930827Y-97416833D01*
X51921224Y-97423965D01*
X51868279Y-97459142D01*
X51866833Y-97460117D01*
X51814372Y-97496038D01*
X51804855Y-97501893D01*
X51679361Y-97570884D01*
X51678877Y-97571148D01*
X51672614Y-97574534D01*
X51661813Y-97579663D01*
X51603103Y-97603862D01*
X51601495Y-97604538D01*
X51542987Y-97629615D01*
X51532518Y-97633508D01*
X51395935Y-97676835D01*
X51395490Y-97676974D01*
X51388685Y-97679081D01*
X51377076Y-97682019D01*
X51314794Y-97694351D01*
X51313084Y-97694702D01*
X51250821Y-97707936D01*
X51239803Y-97709721D01*
X51097603Y-97725671D01*
X51096811Y-97725757D01*
X51089856Y-97726488D01*
X51077897Y-97727115D01*
X51056365Y-97727115D01*
X51043300Y-97727800D01*
X51021681Y-97730072D01*
X51010520Y-97730696D01*
X51003239Y-97730747D01*
X51002647Y-97730749D01*
X50997700Y-97730749D01*
X50997333Y-97730767D01*
X50003657Y-97730767D01*
X49987518Y-97729178D01*
X49977909Y-97726263D01*
X49969045Y-97721525D01*
X49961280Y-97715152D01*
X49954907Y-97707387D01*
X49950169Y-97698523D01*
X49947254Y-97688914D01*
X49945665Y-97672775D01*
X49945665Y-97097241D01*
X49943263Y-97072855D01*
X49936150Y-97049406D01*
X49924599Y-97027795D01*
X49909054Y-97008853D01*
X49890112Y-96993308D01*
X49868501Y-96981757D01*
X49845052Y-96974644D01*
X49772232Y-96960159D01*
X49750799Y-96953658D01*
X49624146Y-96901196D01*
X49604396Y-96890638D01*
X49490411Y-96814476D01*
X49473102Y-96800272D01*
X49376160Y-96703330D01*
X49361956Y-96686021D01*
X49285794Y-96572036D01*
X49275236Y-96552286D01*
X49222774Y-96425633D01*
X49216273Y-96404200D01*
X49189528Y-96269744D01*
X49187334Y-96247464D01*
X49187334Y-96110366D01*
X49189528Y-96088086D01*
X49216273Y-95953630D01*
X49222774Y-95932197D01*
X49275236Y-95805544D01*
X49285794Y-95785794D01*
X49361956Y-95671809D01*
X49376160Y-95654500D01*
X49473102Y-95557558D01*
X49490411Y-95543354D01*
X49604396Y-95467192D01*
X49624146Y-95456634D01*
X49750799Y-95404172D01*
X49772232Y-95397671D01*
X49845052Y-95383186D01*
X49868501Y-95376073D01*
X49890112Y-95364522D01*
X49909054Y-95348976D01*
X49924599Y-95330035D01*
X49936150Y-95308424D01*
X49943263Y-95284975D01*
X49945665Y-95260589D01*
X49945665Y-94685055D01*
X49947254Y-94668916D01*
X49950169Y-94659307D01*
X49954907Y-94650443D01*
X49961280Y-94642678D01*
X49969045Y-94636305D01*
X49977909Y-94631567D01*
X49987518Y-94628652D01*
X50003657Y-94627063D01*
X50991377Y-94627063D01*
X51019767Y-94629859D01*
X51019767Y-94629859D01*
G37*
G36*
X93049752Y-96975893D02*
G01*
X93049751Y-96975893D01*
X93049751Y-96975894D01*
X90968722Y-97272068D01*
X90968721Y-97272068D01*
X90813448Y-96181063D01*
X90813449Y-96181063D01*
X90813449Y-96181062D01*
X92894478Y-95884888D01*
X92894479Y-95884888D01*
X93049752Y-96975893D01*
X93049752Y-96975893D01*
G37*
G36*
X107713159Y-96797832D02*
G01*
X105613492Y-96896851D01*
X105561581Y-95796074D01*
X107661248Y-95697055D01*
X107713159Y-96797832D01*
X107713159Y-96797832D01*
G37*
G36*
X114106054Y-96496351D02*
G01*
X112006387Y-96595370D01*
X111954476Y-95494593D01*
X114054143Y-95395574D01*
X114106054Y-96496351D01*
X114106054Y-96496351D01*
G37*
G36*
X99385903Y-96074124D02*
G01*
X99385902Y-96074124D01*
X99385902Y-96074125D01*
X97304873Y-96370299D01*
X97304872Y-96370299D01*
X97149599Y-95279294D01*
X97149600Y-95279294D01*
X97149600Y-95279293D01*
X99230629Y-94983119D01*
X99230630Y-94983119D01*
X99385903Y-96074124D01*
X99385903Y-96074124D01*
G37*
G36*
X92457967Y-92817794D02*
G01*
X92457966Y-92817794D01*
X92457966Y-92817795D01*
X90376937Y-93113969D01*
X90376936Y-93113969D01*
X90221663Y-92022964D01*
X90221664Y-92022964D01*
X90221664Y-92022963D01*
X92302693Y-91726789D01*
X92302694Y-91726789D01*
X92457967Y-92817794D01*
X92457967Y-92817794D01*
G37*
G36*
X51019767Y-89629859D02*
G01*
X51019876Y-89628753D01*
X51032619Y-89630643D01*
X51067647Y-89630643D01*
X51078819Y-89631189D01*
X51221432Y-89645173D01*
X51221481Y-89644677D01*
X51221848Y-89644742D01*
X51221799Y-89645211D01*
X51228950Y-89645962D01*
X51240781Y-89647836D01*
X51302876Y-89661034D01*
X51304585Y-89661384D01*
X51367038Y-89673750D01*
X51377869Y-89676450D01*
X51514953Y-89717837D01*
X51515534Y-89718015D01*
X51522304Y-89720111D01*
X51533538Y-89724244D01*
X51591899Y-89749257D01*
X51593506Y-89749933D01*
X51652358Y-89774190D01*
X51662470Y-89778949D01*
X51788618Y-89846023D01*
X51789620Y-89846560D01*
X51795669Y-89849831D01*
X51805866Y-89856055D01*
X51858255Y-89891927D01*
X51859703Y-89892904D01*
X51912748Y-89928147D01*
X51921712Y-89934755D01*
X52032644Y-90025230D01*
X52033158Y-90025653D01*
X52038619Y-90030170D01*
X52047427Y-90038269D01*
X52091813Y-90083595D01*
X52093043Y-90084834D01*
X52138236Y-90129712D01*
X52145782Y-90137977D01*
X52237030Y-90248277D01*
X52237520Y-90248873D01*
X52241911Y-90254258D01*
X52248985Y-90263923D01*
X52283750Y-90317048D01*
X52284715Y-90318501D01*
X52320310Y-90371274D01*
X52326100Y-90380833D01*
X52394097Y-90506592D01*
X52394621Y-90507570D01*
X52397809Y-90513566D01*
X52402870Y-90524420D01*
X52426660Y-90583303D01*
X52427326Y-90584919D01*
X52451992Y-90643596D01*
X52455809Y-90654083D01*
X52498134Y-90790813D01*
X52498371Y-90791589D01*
X52500378Y-90798234D01*
X52503231Y-90809851D01*
X52515141Y-90872287D01*
X52515480Y-90874002D01*
X52528269Y-90936299D01*
X52529977Y-90947330D01*
X52544958Y-91089859D01*
X52545018Y-91090449D01*
X52545697Y-91097381D01*
X52546240Y-91109331D01*
X52545798Y-91172841D01*
X52545798Y-91174582D01*
X52546242Y-91238243D01*
X52545774Y-91249403D01*
X52532820Y-91391731D01*
X52532711Y-91392888D01*
X52532047Y-91399655D01*
X52530259Y-91411477D01*
X52517492Y-91473676D01*
X52517153Y-91475387D01*
X52505224Y-91537922D01*
X52502597Y-91548781D01*
X52464307Y-91678879D01*
X52462010Y-91684541D01*
X52461553Y-91686092D01*
X52461424Y-91686054D01*
X52461321Y-91686401D01*
X52461449Y-91686440D01*
X52460912Y-91688220D01*
X52459831Y-91693833D01*
X52455902Y-91704748D01*
X52431270Y-91763346D01*
X52430607Y-91764956D01*
X52406777Y-91823933D01*
X52402086Y-91834086D01*
X52335917Y-91960656D01*
X52335368Y-91961697D01*
X52332149Y-91967751D01*
X52325980Y-91978019D01*
X52290463Y-92030675D01*
X52289497Y-92032130D01*
X52254658Y-92085371D01*
X52248093Y-92094407D01*
X52158413Y-92205949D01*
X52157945Y-92206527D01*
X52153514Y-92211960D01*
X52145471Y-92220828D01*
X52100458Y-92265529D01*
X52099229Y-92266767D01*
X52054654Y-92312286D01*
X52046451Y-92319881D01*
X51936873Y-92411827D01*
X51936199Y-92412389D01*
X51930827Y-92416833D01*
X51921224Y-92423965D01*
X51868279Y-92459142D01*
X51866833Y-92460117D01*
X51814372Y-92496038D01*
X51804855Y-92501893D01*
X51679361Y-92570884D01*
X51678877Y-92571148D01*
X51672614Y-92574534D01*
X51661813Y-92579663D01*
X51603103Y-92603862D01*
X51601495Y-92604538D01*
X51542987Y-92629615D01*
X51532518Y-92633508D01*
X51395935Y-92676835D01*
X51395490Y-92676974D01*
X51388685Y-92679081D01*
X51377076Y-92682019D01*
X51314794Y-92694351D01*
X51313084Y-92694702D01*
X51250821Y-92707936D01*
X51239803Y-92709721D01*
X51097603Y-92725671D01*
X51096811Y-92725757D01*
X51089856Y-92726488D01*
X51077897Y-92727115D01*
X51056365Y-92727115D01*
X51043300Y-92727800D01*
X51021681Y-92730072D01*
X51010520Y-92730696D01*
X51003239Y-92730747D01*
X51002647Y-92730749D01*
X50997700Y-92730749D01*
X50997333Y-92730767D01*
X50003657Y-92730767D01*
X49987518Y-92729178D01*
X49977909Y-92726263D01*
X49969045Y-92721525D01*
X49961280Y-92715152D01*
X49954907Y-92707387D01*
X49950169Y-92698523D01*
X49947254Y-92688914D01*
X49945665Y-92672775D01*
X49945665Y-92097241D01*
X49943263Y-92072855D01*
X49936150Y-92049406D01*
X49924599Y-92027795D01*
X49909054Y-92008853D01*
X49890112Y-91993308D01*
X49868501Y-91981757D01*
X49845052Y-91974644D01*
X49772232Y-91960159D01*
X49750799Y-91953658D01*
X49624146Y-91901196D01*
X49604396Y-91890638D01*
X49490411Y-91814476D01*
X49473102Y-91800272D01*
X49376160Y-91703330D01*
X49361956Y-91686021D01*
X49285794Y-91572036D01*
X49275236Y-91552286D01*
X49222774Y-91425633D01*
X49216273Y-91404200D01*
X49189528Y-91269744D01*
X49187334Y-91247464D01*
X49187334Y-91110366D01*
X49189528Y-91088086D01*
X49216273Y-90953630D01*
X49222774Y-90932197D01*
X49275236Y-90805544D01*
X49285794Y-90785794D01*
X49361956Y-90671809D01*
X49376160Y-90654500D01*
X49473102Y-90557558D01*
X49490411Y-90543354D01*
X49604396Y-90467192D01*
X49624146Y-90456634D01*
X49750799Y-90404172D01*
X49772232Y-90397671D01*
X49845052Y-90383186D01*
X49868501Y-90376073D01*
X49890112Y-90364522D01*
X49909054Y-90348976D01*
X49924599Y-90330035D01*
X49936150Y-90308424D01*
X49943263Y-90284975D01*
X49945665Y-90260589D01*
X49945665Y-89685055D01*
X49947254Y-89668916D01*
X49950169Y-89659307D01*
X49954907Y-89650443D01*
X49961280Y-89642678D01*
X49969045Y-89636305D01*
X49977909Y-89631567D01*
X49987518Y-89628652D01*
X50003657Y-89627063D01*
X50991377Y-89627063D01*
X51019767Y-89629859D01*
X51019767Y-89629859D01*
G37*
G36*
X107515312Y-92602495D02*
G01*
X105415645Y-92701514D01*
X105363734Y-91600737D01*
X107463401Y-91501718D01*
X107515312Y-92602495D01*
X107515312Y-92602495D01*
G37*
G36*
X113908207Y-92301014D02*
G01*
X111808540Y-92400033D01*
X111756629Y-91299256D01*
X113856296Y-91200237D01*
X113908207Y-92301014D01*
X113908207Y-92301014D01*
G37*
G36*
X98794118Y-91916025D02*
G01*
X98794117Y-91916025D01*
X98794117Y-91916026D01*
X96713088Y-92212200D01*
X96713087Y-92212200D01*
X96557814Y-91121195D01*
X96557815Y-91121195D01*
X96557815Y-91121194D01*
X98638844Y-90825020D01*
X98638845Y-90825020D01*
X98794118Y-91916025D01*
X98794118Y-91916025D01*
G37*
G36*
X72198737Y-84523708D02*
G01*
X72233023Y-84536204D01*
X72264211Y-84555148D01*
X72291109Y-84579816D01*
X72312671Y-84609250D01*
X72328079Y-84642332D01*
X72338201Y-84683775D01*
X72544792Y-86135361D01*
X72546634Y-86177977D01*
X72541067Y-86214043D01*
X72528571Y-86248329D01*
X72509627Y-86279517D01*
X72484959Y-86306415D01*
X72455525Y-86327977D01*
X72422444Y-86343385D01*
X72380998Y-86353508D01*
X71251172Y-86514305D01*
X71208555Y-86516147D01*
X71172489Y-86510580D01*
X71138203Y-86498084D01*
X71107015Y-86479140D01*
X71080117Y-86454472D01*
X71058555Y-86425038D01*
X71043147Y-86391956D01*
X71033025Y-86350513D01*
X70826434Y-84898927D01*
X70824592Y-84856311D01*
X70830159Y-84820245D01*
X70842655Y-84785959D01*
X70861599Y-84754771D01*
X70886267Y-84727873D01*
X70915701Y-84706311D01*
X70948782Y-84690903D01*
X70990228Y-84680780D01*
X72120054Y-84519983D01*
X72162671Y-84518141D01*
X72198737Y-84523708D01*
X72198737Y-84523708D01*
G37*
G36*
X56813363Y-84475100D02*
G01*
X56848741Y-84484035D01*
X56881702Y-84499704D01*
X56910971Y-84521500D01*
X56935421Y-84548583D01*
X56954123Y-84579926D01*
X56966347Y-84614302D01*
X56972526Y-84656523D01*
X57041593Y-86121097D01*
X57039415Y-86163705D01*
X57030480Y-86199083D01*
X57014811Y-86232044D01*
X56993015Y-86261313D01*
X56965932Y-86285763D01*
X56934589Y-86304465D01*
X56900213Y-86316689D01*
X56857992Y-86322868D01*
X55718057Y-86376626D01*
X55675449Y-86374448D01*
X55640071Y-86365513D01*
X55607110Y-86349844D01*
X55577841Y-86328048D01*
X55553391Y-86300965D01*
X55534689Y-86269622D01*
X55522465Y-86235246D01*
X55516286Y-86193025D01*
X55447219Y-84728451D01*
X55449397Y-84685843D01*
X55458332Y-84650465D01*
X55474001Y-84617504D01*
X55495797Y-84588235D01*
X55522880Y-84563785D01*
X55554223Y-84545083D01*
X55588599Y-84532859D01*
X55630820Y-84526680D01*
X56770755Y-84472922D01*
X56813363Y-84475100D01*
X56813363Y-84475100D01*
G37*
G36*
X59785061Y-84334958D02*
G01*
X59820439Y-84343893D01*
X59853400Y-84359562D01*
X59882669Y-84381358D01*
X59907119Y-84408441D01*
X59925821Y-84439784D01*
X59938045Y-84474160D01*
X59944224Y-84516381D01*
X60013291Y-85980955D01*
X60011113Y-86023563D01*
X60002178Y-86058941D01*
X59986509Y-86091902D01*
X59964713Y-86121171D01*
X59937630Y-86145621D01*
X59906287Y-86164323D01*
X59871911Y-86176547D01*
X59829690Y-86182726D01*
X58689755Y-86236484D01*
X58647147Y-86234306D01*
X58611769Y-86225371D01*
X58578808Y-86209702D01*
X58549539Y-86187906D01*
X58525089Y-86160823D01*
X58506387Y-86129480D01*
X58494163Y-86095104D01*
X58487984Y-86052883D01*
X58418917Y-84588309D01*
X58421095Y-84545701D01*
X58430030Y-84510323D01*
X58445699Y-84477362D01*
X58467495Y-84448093D01*
X58494578Y-84423643D01*
X58525921Y-84404941D01*
X58560297Y-84392717D01*
X58602518Y-84386538D01*
X59742453Y-84332780D01*
X59785061Y-84334958D01*
X59785061Y-84334958D01*
G37*
G36*
X75144057Y-84104526D02*
G01*
X75178343Y-84117022D01*
X75209531Y-84135966D01*
X75236429Y-84160634D01*
X75257991Y-84190068D01*
X75273399Y-84223150D01*
X75283521Y-84264593D01*
X75490112Y-85716179D01*
X75491954Y-85758795D01*
X75486387Y-85794861D01*
X75473891Y-85829147D01*
X75454947Y-85860335D01*
X75430279Y-85887233D01*
X75400845Y-85908795D01*
X75367764Y-85924203D01*
X75326318Y-85934326D01*
X74196492Y-86095123D01*
X74153875Y-86096965D01*
X74117809Y-86091398D01*
X74083523Y-86078902D01*
X74052335Y-86059958D01*
X74025437Y-86035290D01*
X74003875Y-86005856D01*
X73988467Y-85972774D01*
X73978345Y-85931331D01*
X73771754Y-84479745D01*
X73769912Y-84437129D01*
X73775479Y-84401063D01*
X73787975Y-84366777D01*
X73806919Y-84335589D01*
X73831587Y-84308691D01*
X73861021Y-84287129D01*
X73894102Y-84271721D01*
X73935548Y-84261598D01*
X75065374Y-84100801D01*
X75107991Y-84098959D01*
X75144057Y-84104526D01*
X75144057Y-84104526D01*
G37*
G36*
X117225995Y-81380046D02*
G01*
X117235604Y-81382961D01*
X117244468Y-81387699D01*
X117252233Y-81394072D01*
X117258606Y-81401837D01*
X117263344Y-81410701D01*
X117266259Y-81420310D01*
X117267848Y-81436449D01*
X117267848Y-82011983D01*
X117270250Y-82036369D01*
X117277363Y-82059818D01*
X117288914Y-82081429D01*
X117304459Y-82100371D01*
X117323401Y-82115916D01*
X117345012Y-82127467D01*
X117368461Y-82134580D01*
X117441281Y-82149065D01*
X117462714Y-82155566D01*
X117589367Y-82208028D01*
X117609117Y-82218586D01*
X117723102Y-82294748D01*
X117740411Y-82308952D01*
X117837353Y-82405894D01*
X117851557Y-82423203D01*
X117927719Y-82537188D01*
X117938277Y-82556938D01*
X117990739Y-82683591D01*
X117997240Y-82705024D01*
X118023985Y-82839480D01*
X118026179Y-82861760D01*
X118026179Y-82998858D01*
X118023985Y-83021138D01*
X117997240Y-83155594D01*
X117990739Y-83177027D01*
X117938277Y-83303680D01*
X117927719Y-83323430D01*
X117851557Y-83437415D01*
X117837353Y-83454724D01*
X117740411Y-83551666D01*
X117723102Y-83565870D01*
X117609117Y-83642032D01*
X117589367Y-83652590D01*
X117462714Y-83705052D01*
X117441281Y-83711553D01*
X117368461Y-83726038D01*
X117345012Y-83733151D01*
X117323401Y-83744702D01*
X117304459Y-83760248D01*
X117288914Y-83779189D01*
X117277363Y-83800800D01*
X117270250Y-83824249D01*
X117267848Y-83848635D01*
X117267848Y-84424169D01*
X117266259Y-84440308D01*
X117263344Y-84449917D01*
X117258606Y-84458781D01*
X117252233Y-84466546D01*
X117244468Y-84472919D01*
X117235604Y-84477657D01*
X117225995Y-84480572D01*
X117209856Y-84482161D01*
X116222136Y-84482161D01*
X116193746Y-84479365D01*
X116193637Y-84480471D01*
X116180894Y-84478581D01*
X116145866Y-84478581D01*
X116134694Y-84478035D01*
X115992081Y-84464051D01*
X115992032Y-84464547D01*
X115991665Y-84464482D01*
X115991714Y-84464013D01*
X115984563Y-84463262D01*
X115972732Y-84461388D01*
X115910637Y-84448190D01*
X115908928Y-84447840D01*
X115846475Y-84435474D01*
X115835644Y-84432774D01*
X115698560Y-84391387D01*
X115697979Y-84391209D01*
X115691209Y-84389113D01*
X115679975Y-84384980D01*
X115621614Y-84359967D01*
X115620007Y-84359291D01*
X115561155Y-84335034D01*
X115551043Y-84330275D01*
X115424873Y-84263189D01*
X115423893Y-84262664D01*
X115417844Y-84259393D01*
X115407647Y-84253169D01*
X115355258Y-84217297D01*
X115353810Y-84216320D01*
X115300765Y-84181077D01*
X115291801Y-84174469D01*
X115180869Y-84083994D01*
X115180355Y-84083571D01*
X115174894Y-84079054D01*
X115166086Y-84070955D01*
X115121700Y-84025629D01*
X115120470Y-84024390D01*
X115075277Y-83979512D01*
X115067731Y-83971247D01*
X114976483Y-83860947D01*
X114975993Y-83860351D01*
X114971602Y-83854966D01*
X114964528Y-83845301D01*
X114929763Y-83792176D01*
X114928798Y-83790723D01*
X114893203Y-83737950D01*
X114887413Y-83728391D01*
X114819416Y-83602632D01*
X114818892Y-83601654D01*
X114815704Y-83595658D01*
X114810643Y-83584804D01*
X114786853Y-83525921D01*
X114786187Y-83524305D01*
X114761521Y-83465628D01*
X114757704Y-83455141D01*
X114715379Y-83318411D01*
X114715142Y-83317635D01*
X114713135Y-83310990D01*
X114710282Y-83299373D01*
X114698372Y-83236937D01*
X114698033Y-83235222D01*
X114685244Y-83172925D01*
X114683536Y-83161894D01*
X114668555Y-83019365D01*
X114668495Y-83018775D01*
X114667816Y-83011843D01*
X114667273Y-82999893D01*
X114667715Y-82936382D01*
X114667715Y-82934641D01*
X114667271Y-82870981D01*
X114667739Y-82859821D01*
X114680693Y-82717493D01*
X114680809Y-82716262D01*
X114681466Y-82709569D01*
X114683254Y-82697747D01*
X114696021Y-82635548D01*
X114696360Y-82633837D01*
X114708289Y-82571302D01*
X114710916Y-82560443D01*
X114749206Y-82430345D01*
X114751503Y-82424683D01*
X114751960Y-82423132D01*
X114752089Y-82423170D01*
X114752192Y-82422823D01*
X114752064Y-82422784D01*
X114752601Y-82421004D01*
X114753682Y-82415391D01*
X114757611Y-82404476D01*
X114782243Y-82345878D01*
X114782906Y-82344268D01*
X114806736Y-82285291D01*
X114811427Y-82275138D01*
X114877596Y-82148568D01*
X114878167Y-82147486D01*
X114881364Y-82141473D01*
X114887533Y-82131205D01*
X114923050Y-82078549D01*
X114924016Y-82077094D01*
X114958855Y-82023853D01*
X114965420Y-82014817D01*
X115055100Y-81903275D01*
X115055568Y-81902697D01*
X115059999Y-81897264D01*
X115068042Y-81888396D01*
X115113055Y-81843695D01*
X115114284Y-81842457D01*
X115158859Y-81796938D01*
X115167062Y-81789343D01*
X115276640Y-81697397D01*
X115277314Y-81696835D01*
X115282686Y-81692391D01*
X115292289Y-81685259D01*
X115345234Y-81650082D01*
X115346680Y-81649107D01*
X115399141Y-81613186D01*
X115408658Y-81607331D01*
X115534152Y-81538340D01*
X115534636Y-81538076D01*
X115540899Y-81534690D01*
X115551700Y-81529561D01*
X115610410Y-81505362D01*
X115612018Y-81504686D01*
X115670526Y-81479609D01*
X115680995Y-81475716D01*
X115817607Y-81432380D01*
X115818023Y-81432250D01*
X115824828Y-81430143D01*
X115836437Y-81427205D01*
X115898719Y-81414873D01*
X115900429Y-81414522D01*
X115962692Y-81401288D01*
X115973710Y-81399503D01*
X116115910Y-81383553D01*
X116116702Y-81383467D01*
X116123657Y-81382736D01*
X116135616Y-81382109D01*
X116157148Y-81382109D01*
X116170213Y-81381424D01*
X116191832Y-81379152D01*
X116202993Y-81378528D01*
X116210274Y-81378477D01*
X116210866Y-81378475D01*
X116215813Y-81378475D01*
X116216180Y-81378457D01*
X117209856Y-81378457D01*
X117225995Y-81380046D01*
X117225995Y-81380046D01*
G37*
G36*
X100362179Y-82888890D02*
G01*
X98268177Y-83072092D01*
X98172131Y-81974284D01*
X100266133Y-81791082D01*
X100362179Y-82888890D01*
X100362179Y-82888890D01*
G37*
G36*
X106737825Y-82331093D02*
G01*
X104643823Y-82514295D01*
X104547777Y-81416487D01*
X106641779Y-81233285D01*
X106737825Y-82331093D01*
X106737825Y-82331093D01*
G37*
G36*
X117225995Y-76380046D02*
G01*
X117235604Y-76382961D01*
X117244468Y-76387699D01*
X117252233Y-76394072D01*
X117258606Y-76401837D01*
X117263344Y-76410701D01*
X117266259Y-76420310D01*
X117267848Y-76436449D01*
X117267848Y-77011983D01*
X117270250Y-77036369D01*
X117277363Y-77059818D01*
X117288914Y-77081429D01*
X117304459Y-77100371D01*
X117323401Y-77115916D01*
X117345012Y-77127467D01*
X117368461Y-77134580D01*
X117441281Y-77149065D01*
X117462714Y-77155566D01*
X117589367Y-77208028D01*
X117609117Y-77218586D01*
X117723102Y-77294748D01*
X117740411Y-77308952D01*
X117837353Y-77405894D01*
X117851557Y-77423203D01*
X117927719Y-77537188D01*
X117938277Y-77556938D01*
X117990739Y-77683591D01*
X117997240Y-77705024D01*
X118023985Y-77839480D01*
X118026179Y-77861760D01*
X118026179Y-77998858D01*
X118023985Y-78021138D01*
X117997240Y-78155594D01*
X117990739Y-78177027D01*
X117938277Y-78303680D01*
X117927719Y-78323430D01*
X117851557Y-78437415D01*
X117837353Y-78454724D01*
X117740411Y-78551666D01*
X117723102Y-78565870D01*
X117609117Y-78642032D01*
X117589367Y-78652590D01*
X117462714Y-78705052D01*
X117441281Y-78711553D01*
X117368461Y-78726038D01*
X117345012Y-78733151D01*
X117323401Y-78744702D01*
X117304459Y-78760248D01*
X117288914Y-78779189D01*
X117277363Y-78800800D01*
X117270250Y-78824249D01*
X117267848Y-78848635D01*
X117267848Y-79424169D01*
X117266259Y-79440308D01*
X117263344Y-79449917D01*
X117258606Y-79458781D01*
X117252233Y-79466546D01*
X117244468Y-79472919D01*
X117235604Y-79477657D01*
X117225995Y-79480572D01*
X117209856Y-79482161D01*
X116222136Y-79482161D01*
X116193746Y-79479365D01*
X116193637Y-79480471D01*
X116180894Y-79478581D01*
X116145866Y-79478581D01*
X116134694Y-79478035D01*
X115992081Y-79464051D01*
X115992032Y-79464547D01*
X115991665Y-79464482D01*
X115991714Y-79464013D01*
X115984563Y-79463262D01*
X115972732Y-79461388D01*
X115910637Y-79448190D01*
X115908928Y-79447840D01*
X115846475Y-79435474D01*
X115835644Y-79432774D01*
X115698560Y-79391387D01*
X115697979Y-79391209D01*
X115691209Y-79389113D01*
X115679975Y-79384980D01*
X115621614Y-79359967D01*
X115620007Y-79359291D01*
X115561155Y-79335034D01*
X115551043Y-79330275D01*
X115424873Y-79263189D01*
X115423893Y-79262664D01*
X115417844Y-79259393D01*
X115407647Y-79253169D01*
X115355258Y-79217297D01*
X115353810Y-79216320D01*
X115300765Y-79181077D01*
X115291801Y-79174469D01*
X115180869Y-79083994D01*
X115180355Y-79083571D01*
X115174894Y-79079054D01*
X115166086Y-79070955D01*
X115121700Y-79025629D01*
X115120470Y-79024390D01*
X115075277Y-78979512D01*
X115067731Y-78971247D01*
X114976483Y-78860947D01*
X114975993Y-78860351D01*
X114971602Y-78854966D01*
X114964528Y-78845301D01*
X114929763Y-78792176D01*
X114928798Y-78790723D01*
X114893203Y-78737950D01*
X114887413Y-78728391D01*
X114819416Y-78602632D01*
X114818892Y-78601654D01*
X114815704Y-78595658D01*
X114810643Y-78584804D01*
X114786853Y-78525921D01*
X114786187Y-78524305D01*
X114761521Y-78465628D01*
X114757704Y-78455141D01*
X114715379Y-78318411D01*
X114715142Y-78317635D01*
X114713135Y-78310990D01*
X114710282Y-78299373D01*
X114698372Y-78236937D01*
X114698033Y-78235222D01*
X114685244Y-78172925D01*
X114683536Y-78161894D01*
X114668555Y-78019365D01*
X114668495Y-78018775D01*
X114667816Y-78011843D01*
X114667273Y-77999893D01*
X114667715Y-77936382D01*
X114667715Y-77934641D01*
X114667271Y-77870981D01*
X114667739Y-77859821D01*
X114680693Y-77717493D01*
X114680809Y-77716262D01*
X114681466Y-77709569D01*
X114683254Y-77697747D01*
X114696021Y-77635548D01*
X114696360Y-77633837D01*
X114708289Y-77571302D01*
X114710916Y-77560443D01*
X114749206Y-77430345D01*
X114751503Y-77424683D01*
X114751960Y-77423132D01*
X114752089Y-77423170D01*
X114752192Y-77422823D01*
X114752064Y-77422784D01*
X114752601Y-77421004D01*
X114753682Y-77415391D01*
X114757611Y-77404476D01*
X114782243Y-77345878D01*
X114782906Y-77344268D01*
X114806736Y-77285291D01*
X114811427Y-77275138D01*
X114877596Y-77148568D01*
X114878167Y-77147486D01*
X114881364Y-77141473D01*
X114887533Y-77131205D01*
X114923050Y-77078549D01*
X114924016Y-77077094D01*
X114958855Y-77023853D01*
X114965420Y-77014817D01*
X115055100Y-76903275D01*
X115055568Y-76902697D01*
X115059999Y-76897264D01*
X115068042Y-76888396D01*
X115113055Y-76843695D01*
X115114284Y-76842457D01*
X115158859Y-76796938D01*
X115167062Y-76789343D01*
X115276640Y-76697397D01*
X115277314Y-76696835D01*
X115282686Y-76692391D01*
X115292289Y-76685259D01*
X115345234Y-76650082D01*
X115346680Y-76649107D01*
X115399141Y-76613186D01*
X115408658Y-76607331D01*
X115534152Y-76538340D01*
X115534636Y-76538076D01*
X115540899Y-76534690D01*
X115551700Y-76529561D01*
X115610410Y-76505362D01*
X115612018Y-76504686D01*
X115670526Y-76479609D01*
X115680995Y-76475716D01*
X115817607Y-76432380D01*
X115818023Y-76432250D01*
X115824828Y-76430143D01*
X115836437Y-76427205D01*
X115898719Y-76414873D01*
X115900429Y-76414522D01*
X115962692Y-76401288D01*
X115973710Y-76399503D01*
X116115910Y-76383553D01*
X116116702Y-76383467D01*
X116123657Y-76382736D01*
X116135616Y-76382109D01*
X116157148Y-76382109D01*
X116170213Y-76381424D01*
X116191832Y-76379152D01*
X116202993Y-76378528D01*
X116210274Y-76378477D01*
X116210866Y-76378475D01*
X116215813Y-76378475D01*
X116216180Y-76378457D01*
X117209856Y-76378457D01*
X117225995Y-76380046D01*
X117225995Y-76380046D01*
G37*
G36*
X99996125Y-78704873D02*
G01*
X97902123Y-78888075D01*
X97806077Y-77790267D01*
X99900079Y-77607065D01*
X99996125Y-78704873D01*
X99996125Y-78704873D01*
G37*
G36*
X106371771Y-78147076D02*
G01*
X104277769Y-78330278D01*
X104181723Y-77232470D01*
X106275725Y-77049268D01*
X106371771Y-78147076D01*
X106371771Y-78147076D01*
G37*
G36*
X117225995Y-71380046D02*
G01*
X117235604Y-71382961D01*
X117244468Y-71387699D01*
X117252233Y-71394072D01*
X117258606Y-71401837D01*
X117263344Y-71410701D01*
X117266259Y-71420310D01*
X117267848Y-71436449D01*
X117267848Y-72011983D01*
X117270250Y-72036369D01*
X117277363Y-72059818D01*
X117288914Y-72081429D01*
X117304459Y-72100371D01*
X117323401Y-72115916D01*
X117345012Y-72127467D01*
X117368461Y-72134580D01*
X117441281Y-72149065D01*
X117462714Y-72155566D01*
X117589367Y-72208028D01*
X117609117Y-72218586D01*
X117723102Y-72294748D01*
X117740411Y-72308952D01*
X117837353Y-72405894D01*
X117851557Y-72423203D01*
X117927719Y-72537188D01*
X117938277Y-72556938D01*
X117990739Y-72683591D01*
X117997240Y-72705024D01*
X118023985Y-72839480D01*
X118026179Y-72861760D01*
X118026179Y-72998858D01*
X118023985Y-73021138D01*
X117997240Y-73155594D01*
X117990739Y-73177027D01*
X117938277Y-73303680D01*
X117927719Y-73323430D01*
X117851557Y-73437415D01*
X117837353Y-73454724D01*
X117740411Y-73551666D01*
X117723102Y-73565870D01*
X117609117Y-73642032D01*
X117589367Y-73652590D01*
X117462714Y-73705052D01*
X117441281Y-73711553D01*
X117368461Y-73726038D01*
X117345012Y-73733151D01*
X117323401Y-73744702D01*
X117304459Y-73760248D01*
X117288914Y-73779189D01*
X117277363Y-73800800D01*
X117270250Y-73824249D01*
X117267848Y-73848635D01*
X117267848Y-74424169D01*
X117266259Y-74440308D01*
X117263344Y-74449917D01*
X117258606Y-74458781D01*
X117252233Y-74466546D01*
X117244468Y-74472919D01*
X117235604Y-74477657D01*
X117225995Y-74480572D01*
X117209856Y-74482161D01*
X116222136Y-74482161D01*
X116193746Y-74479365D01*
X116193637Y-74480471D01*
X116180894Y-74478581D01*
X116145866Y-74478581D01*
X116134694Y-74478035D01*
X115992081Y-74464051D01*
X115992032Y-74464547D01*
X115991665Y-74464482D01*
X115991714Y-74464013D01*
X115984563Y-74463262D01*
X115972732Y-74461388D01*
X115910637Y-74448190D01*
X115908928Y-74447840D01*
X115846475Y-74435474D01*
X115835644Y-74432774D01*
X115698560Y-74391387D01*
X115697979Y-74391209D01*
X115691209Y-74389113D01*
X115679975Y-74384980D01*
X115621614Y-74359967D01*
X115620007Y-74359291D01*
X115561155Y-74335034D01*
X115551043Y-74330275D01*
X115424873Y-74263189D01*
X115423893Y-74262664D01*
X115417844Y-74259393D01*
X115407647Y-74253169D01*
X115355258Y-74217297D01*
X115353810Y-74216320D01*
X115300765Y-74181077D01*
X115291801Y-74174469D01*
X115180869Y-74083994D01*
X115180355Y-74083571D01*
X115174894Y-74079054D01*
X115166086Y-74070955D01*
X115121700Y-74025629D01*
X115120470Y-74024390D01*
X115075277Y-73979512D01*
X115067731Y-73971247D01*
X114976483Y-73860947D01*
X114975993Y-73860351D01*
X114971602Y-73854966D01*
X114964528Y-73845301D01*
X114929763Y-73792176D01*
X114928798Y-73790723D01*
X114893203Y-73737950D01*
X114887413Y-73728391D01*
X114819416Y-73602632D01*
X114818892Y-73601654D01*
X114815704Y-73595658D01*
X114810643Y-73584804D01*
X114786853Y-73525921D01*
X114786187Y-73524305D01*
X114761521Y-73465628D01*
X114757704Y-73455141D01*
X114715379Y-73318411D01*
X114715142Y-73317635D01*
X114713135Y-73310990D01*
X114710282Y-73299373D01*
X114698372Y-73236937D01*
X114698033Y-73235222D01*
X114685244Y-73172925D01*
X114683536Y-73161894D01*
X114668555Y-73019365D01*
X114668495Y-73018775D01*
X114667816Y-73011843D01*
X114667273Y-72999893D01*
X114667715Y-72936382D01*
X114667715Y-72934641D01*
X114667271Y-72870981D01*
X114667739Y-72859821D01*
X114680693Y-72717493D01*
X114680809Y-72716262D01*
X114681466Y-72709569D01*
X114683254Y-72697747D01*
X114696021Y-72635548D01*
X114696360Y-72633837D01*
X114708289Y-72571302D01*
X114710916Y-72560443D01*
X114749206Y-72430345D01*
X114751503Y-72424683D01*
X114751960Y-72423132D01*
X114752089Y-72423170D01*
X114752192Y-72422823D01*
X114752064Y-72422784D01*
X114752601Y-72421004D01*
X114753682Y-72415391D01*
X114757611Y-72404476D01*
X114782243Y-72345878D01*
X114782906Y-72344268D01*
X114806736Y-72285291D01*
X114811427Y-72275138D01*
X114877596Y-72148568D01*
X114878167Y-72147486D01*
X114881364Y-72141473D01*
X114887533Y-72131205D01*
X114923050Y-72078549D01*
X114924016Y-72077094D01*
X114958855Y-72023853D01*
X114965420Y-72014817D01*
X115055100Y-71903275D01*
X115055568Y-71902697D01*
X115059999Y-71897264D01*
X115068042Y-71888396D01*
X115113055Y-71843695D01*
X115114284Y-71842457D01*
X115158859Y-71796938D01*
X115167062Y-71789343D01*
X115276640Y-71697397D01*
X115277314Y-71696835D01*
X115282686Y-71692391D01*
X115292289Y-71685259D01*
X115345234Y-71650082D01*
X115346680Y-71649107D01*
X115399141Y-71613186D01*
X115408658Y-71607331D01*
X115534152Y-71538340D01*
X115534636Y-71538076D01*
X115540899Y-71534690D01*
X115551700Y-71529561D01*
X115610410Y-71505362D01*
X115612018Y-71504686D01*
X115670526Y-71479609D01*
X115680995Y-71475716D01*
X115817607Y-71432380D01*
X115818023Y-71432250D01*
X115824828Y-71430143D01*
X115836437Y-71427205D01*
X115898719Y-71414873D01*
X115900429Y-71414522D01*
X115962692Y-71401288D01*
X115973710Y-71399503D01*
X116115910Y-71383553D01*
X116116702Y-71383467D01*
X116123657Y-71382736D01*
X116135616Y-71382109D01*
X116157148Y-71382109D01*
X116170213Y-71381424D01*
X116191832Y-71379152D01*
X116202993Y-71378528D01*
X116210274Y-71378477D01*
X116210866Y-71378475D01*
X116215813Y-71378475D01*
X116216180Y-71378457D01*
X117209856Y-71378457D01*
X117225995Y-71380046D01*
X117225995Y-71380046D01*
G37*
G36*
X51019767Y-69629859D02*
G01*
X51019876Y-69628753D01*
X51032619Y-69630643D01*
X51067647Y-69630643D01*
X51078819Y-69631189D01*
X51221432Y-69645173D01*
X51221481Y-69644677D01*
X51221848Y-69644742D01*
X51221799Y-69645211D01*
X51228950Y-69645962D01*
X51240781Y-69647836D01*
X51302876Y-69661034D01*
X51304585Y-69661384D01*
X51367038Y-69673750D01*
X51377869Y-69676450D01*
X51514953Y-69717837D01*
X51515534Y-69718015D01*
X51522304Y-69720111D01*
X51533538Y-69724244D01*
X51591899Y-69749257D01*
X51593506Y-69749933D01*
X51652358Y-69774190D01*
X51662470Y-69778949D01*
X51788618Y-69846023D01*
X51789620Y-69846560D01*
X51795669Y-69849831D01*
X51805866Y-69856055D01*
X51858255Y-69891927D01*
X51859703Y-69892904D01*
X51912748Y-69928147D01*
X51921712Y-69934755D01*
X52032644Y-70025230D01*
X52033158Y-70025653D01*
X52038619Y-70030170D01*
X52047427Y-70038269D01*
X52091813Y-70083595D01*
X52093043Y-70084834D01*
X52138236Y-70129712D01*
X52145782Y-70137977D01*
X52237030Y-70248277D01*
X52237520Y-70248873D01*
X52241911Y-70254258D01*
X52248985Y-70263923D01*
X52283750Y-70317048D01*
X52284715Y-70318501D01*
X52320310Y-70371274D01*
X52326100Y-70380833D01*
X52394097Y-70506592D01*
X52394621Y-70507570D01*
X52397809Y-70513566D01*
X52402870Y-70524420D01*
X52426660Y-70583303D01*
X52427326Y-70584919D01*
X52451992Y-70643596D01*
X52455809Y-70654083D01*
X52498134Y-70790813D01*
X52498371Y-70791589D01*
X52500378Y-70798234D01*
X52503231Y-70809851D01*
X52515141Y-70872287D01*
X52515480Y-70874002D01*
X52528269Y-70936299D01*
X52529977Y-70947330D01*
X52544958Y-71089859D01*
X52545018Y-71090449D01*
X52545697Y-71097381D01*
X52546240Y-71109331D01*
X52545798Y-71172841D01*
X52545798Y-71174582D01*
X52546242Y-71238243D01*
X52545774Y-71249403D01*
X52532820Y-71391731D01*
X52532711Y-71392888D01*
X52532047Y-71399655D01*
X52530259Y-71411477D01*
X52517492Y-71473676D01*
X52517153Y-71475387D01*
X52505224Y-71537922D01*
X52502597Y-71548781D01*
X52464307Y-71678879D01*
X52462010Y-71684541D01*
X52461553Y-71686092D01*
X52461424Y-71686054D01*
X52461321Y-71686401D01*
X52461449Y-71686440D01*
X52460912Y-71688220D01*
X52459831Y-71693833D01*
X52455902Y-71704748D01*
X52431270Y-71763346D01*
X52430607Y-71764956D01*
X52406777Y-71823933D01*
X52402086Y-71834086D01*
X52335917Y-71960656D01*
X52335389Y-71961657D01*
X52332149Y-71967751D01*
X52325980Y-71978019D01*
X52290463Y-72030675D01*
X52289497Y-72032130D01*
X52254658Y-72085371D01*
X52248093Y-72094407D01*
X52158413Y-72205949D01*
X52157945Y-72206527D01*
X52153514Y-72211960D01*
X52145471Y-72220828D01*
X52100458Y-72265529D01*
X52099229Y-72266767D01*
X52054654Y-72312286D01*
X52046451Y-72319881D01*
X51936873Y-72411827D01*
X51936199Y-72412389D01*
X51930827Y-72416833D01*
X51921224Y-72423965D01*
X51868279Y-72459142D01*
X51866833Y-72460117D01*
X51814372Y-72496038D01*
X51804855Y-72501893D01*
X51679361Y-72570884D01*
X51678877Y-72571148D01*
X51672614Y-72574534D01*
X51661813Y-72579663D01*
X51603103Y-72603862D01*
X51601495Y-72604538D01*
X51542987Y-72629615D01*
X51532518Y-72633508D01*
X51395935Y-72676835D01*
X51395490Y-72676974D01*
X51388685Y-72679081D01*
X51377076Y-72682019D01*
X51314794Y-72694351D01*
X51313084Y-72694702D01*
X51250821Y-72707936D01*
X51239803Y-72709721D01*
X51097603Y-72725671D01*
X51096811Y-72725757D01*
X51089856Y-72726488D01*
X51077897Y-72727115D01*
X51056365Y-72727115D01*
X51043300Y-72727800D01*
X51021681Y-72730072D01*
X51010520Y-72730696D01*
X51003239Y-72730747D01*
X51002647Y-72730749D01*
X50997700Y-72730749D01*
X50997333Y-72730767D01*
X50003657Y-72730767D01*
X49987518Y-72729178D01*
X49977909Y-72726263D01*
X49969045Y-72721525D01*
X49961280Y-72715152D01*
X49954907Y-72707387D01*
X49950169Y-72698523D01*
X49947254Y-72688914D01*
X49945665Y-72672775D01*
X49945665Y-72097241D01*
X49943263Y-72072855D01*
X49936150Y-72049406D01*
X49924599Y-72027795D01*
X49909054Y-72008853D01*
X49890112Y-71993308D01*
X49868501Y-71981757D01*
X49845052Y-71974644D01*
X49772232Y-71960159D01*
X49750799Y-71953658D01*
X49624146Y-71901196D01*
X49604396Y-71890638D01*
X49490411Y-71814476D01*
X49473102Y-71800272D01*
X49376160Y-71703330D01*
X49361956Y-71686021D01*
X49285794Y-71572036D01*
X49275236Y-71552286D01*
X49222774Y-71425633D01*
X49216273Y-71404200D01*
X49189528Y-71269744D01*
X49187334Y-71247464D01*
X49187334Y-71110366D01*
X49189528Y-71088086D01*
X49216273Y-70953630D01*
X49222774Y-70932197D01*
X49275236Y-70805544D01*
X49285794Y-70785794D01*
X49361956Y-70671809D01*
X49376160Y-70654500D01*
X49473102Y-70557558D01*
X49490411Y-70543354D01*
X49604396Y-70467192D01*
X49624146Y-70456634D01*
X49750799Y-70404172D01*
X49772232Y-70397671D01*
X49845052Y-70383186D01*
X49868501Y-70376073D01*
X49890112Y-70364522D01*
X49909054Y-70348976D01*
X49924599Y-70330035D01*
X49936150Y-70308424D01*
X49943263Y-70284975D01*
X49945665Y-70260589D01*
X49945665Y-69685055D01*
X49947254Y-69668916D01*
X49950169Y-69659307D01*
X49954907Y-69650443D01*
X49961280Y-69642678D01*
X49969045Y-69636305D01*
X49977909Y-69631567D01*
X49987518Y-69628652D01*
X50003657Y-69627063D01*
X50991377Y-69627063D01*
X51019767Y-69629859D01*
X51019767Y-69629859D01*
G37*
G36*
X79953363Y-70540574D02*
G01*
X79988386Y-70550832D01*
X80020730Y-70567722D01*
X80049161Y-70590602D01*
X80072579Y-70618586D01*
X80090091Y-70650604D01*
X80102868Y-70691314D01*
X80118203Y-70764720D01*
X80118204Y-70764722D01*
X80125761Y-70800896D01*
X80402700Y-72126524D01*
X80407290Y-72168946D01*
X80404061Y-72205294D01*
X80393803Y-72240317D01*
X80376913Y-72272661D01*
X80354034Y-72301090D01*
X80326045Y-72324513D01*
X80294033Y-72342022D01*
X80253324Y-72354798D01*
X79136242Y-72588169D01*
X79093821Y-72592759D01*
X79057473Y-72589530D01*
X79022450Y-72579272D01*
X78990106Y-72562382D01*
X78961675Y-72539502D01*
X78938257Y-72511518D01*
X78920745Y-72479500D01*
X78907968Y-72438790D01*
X78888558Y-72345878D01*
X78837268Y-72100371D01*
X78608136Y-71003580D01*
X78603546Y-70961158D01*
X78606775Y-70924810D01*
X78617033Y-70889787D01*
X78633923Y-70857443D01*
X78656802Y-70829014D01*
X78684791Y-70805591D01*
X78716803Y-70788082D01*
X78757512Y-70775306D01*
X79874594Y-70541935D01*
X79917015Y-70537345D01*
X79953363Y-70540574D01*
X79953363Y-70540574D01*
G37*
G36*
X64567059Y-70525674D02*
G01*
X64600862Y-70539418D01*
X64631335Y-70559492D01*
X64657309Y-70585128D01*
X64677781Y-70615336D01*
X64691966Y-70648958D01*
X64700563Y-70690748D01*
X64853824Y-72148923D01*
X64854103Y-72191583D01*
X64847219Y-72227418D01*
X64833474Y-72261227D01*
X64813402Y-72291695D01*
X64787765Y-72317670D01*
X64757557Y-72338142D01*
X64723935Y-72352327D01*
X64682145Y-72360924D01*
X63547190Y-72480213D01*
X63504530Y-72480492D01*
X63468693Y-72473608D01*
X63434890Y-72459864D01*
X63404417Y-72439790D01*
X63378443Y-72414154D01*
X63357971Y-72383946D01*
X63343786Y-72350324D01*
X63335189Y-72308534D01*
X63181928Y-70850359D01*
X63181649Y-70807699D01*
X63188533Y-70771864D01*
X63202278Y-70738055D01*
X63222350Y-70707587D01*
X63247987Y-70681612D01*
X63278195Y-70661140D01*
X63311817Y-70646955D01*
X63353607Y-70638358D01*
X64488562Y-70519069D01*
X64531222Y-70518790D01*
X64567059Y-70525674D01*
X64567059Y-70525674D01*
G37*
G36*
X67525761Y-70214702D02*
G01*
X67559564Y-70228446D01*
X67590037Y-70248520D01*
X67616011Y-70274156D01*
X67636483Y-70304364D01*
X67650668Y-70337986D01*
X67659265Y-70379776D01*
X67812526Y-71837951D01*
X67812805Y-71880611D01*
X67805921Y-71916446D01*
X67792176Y-71950255D01*
X67772104Y-71980723D01*
X67746467Y-72006698D01*
X67716259Y-72027170D01*
X67682637Y-72041355D01*
X67640847Y-72049952D01*
X66505892Y-72169241D01*
X66463232Y-72169520D01*
X66427395Y-72162636D01*
X66393592Y-72148892D01*
X66363119Y-72128818D01*
X66337145Y-72103182D01*
X66316673Y-72072974D01*
X66302488Y-72039352D01*
X66293891Y-71997562D01*
X66140630Y-70539387D01*
X66140351Y-70496727D01*
X66147235Y-70460892D01*
X66160980Y-70427083D01*
X66181052Y-70396615D01*
X66206689Y-70370640D01*
X66236897Y-70350168D01*
X66270519Y-70335983D01*
X66312309Y-70327386D01*
X67447264Y-70208097D01*
X67489924Y-70207818D01*
X67525761Y-70214702D01*
X67525761Y-70214702D01*
G37*
G36*
X82865493Y-69932198D02*
G01*
X82900516Y-69942456D01*
X82932860Y-69959346D01*
X82961291Y-69982226D01*
X82984709Y-70010210D01*
X83002221Y-70042228D01*
X83014998Y-70082938D01*
X83314830Y-71518148D01*
X83319420Y-71560570D01*
X83316191Y-71596918D01*
X83305933Y-71631941D01*
X83289043Y-71664285D01*
X83266164Y-71692714D01*
X83238175Y-71716137D01*
X83206163Y-71733646D01*
X83165454Y-71746422D01*
X82048372Y-71979793D01*
X82005951Y-71984383D01*
X81969603Y-71981154D01*
X81934580Y-71970896D01*
X81902236Y-71954006D01*
X81873805Y-71931126D01*
X81850387Y-71903142D01*
X81832875Y-71871124D01*
X81820098Y-71830414D01*
X81792113Y-71696456D01*
X81746811Y-71479609D01*
X81520266Y-70395204D01*
X81515676Y-70352782D01*
X81518905Y-70316434D01*
X81529163Y-70281411D01*
X81546053Y-70249067D01*
X81568932Y-70220638D01*
X81596921Y-70197215D01*
X81628933Y-70179706D01*
X81669642Y-70166930D01*
X82786724Y-69933559D01*
X82829145Y-69928969D01*
X82865493Y-69932198D01*
X82865493Y-69932198D01*
G37*
G36*
X107699241Y-68807923D02*
G01*
X107699240Y-68807923D01*
X107699240Y-68807924D01*
X105598933Y-68892281D01*
X105554707Y-67791169D01*
X105554708Y-67791169D01*
X105554708Y-67791168D01*
X107655015Y-67706811D01*
X107699241Y-68807923D01*
X107699241Y-68807923D01*
G37*
G36*
X114094085Y-68551079D02*
G01*
X114094084Y-68551079D01*
X114094084Y-68551080D01*
X111993777Y-68635437D01*
X111949551Y-67534325D01*
X111949552Y-67534325D01*
X111949552Y-67534324D01*
X114049859Y-67449967D01*
X114094085Y-68551079D01*
X114094085Y-68551079D01*
G37*
G36*
X51019767Y-64629859D02*
G01*
X51019876Y-64628753D01*
X51032619Y-64630643D01*
X51067647Y-64630643D01*
X51078819Y-64631189D01*
X51221432Y-64645173D01*
X51221481Y-64644677D01*
X51221848Y-64644742D01*
X51221799Y-64645211D01*
X51228950Y-64645962D01*
X51240781Y-64647836D01*
X51302876Y-64661034D01*
X51304585Y-64661384D01*
X51367038Y-64673750D01*
X51377869Y-64676450D01*
X51514953Y-64717837D01*
X51515534Y-64718015D01*
X51522304Y-64720111D01*
X51533538Y-64724244D01*
X51591899Y-64749257D01*
X51593506Y-64749933D01*
X51652358Y-64774190D01*
X51662470Y-64778949D01*
X51788618Y-64846023D01*
X51789620Y-64846560D01*
X51795669Y-64849831D01*
X51805866Y-64856055D01*
X51858255Y-64891927D01*
X51859703Y-64892904D01*
X51912748Y-64928147D01*
X51921712Y-64934755D01*
X52032644Y-65025230D01*
X52033158Y-65025653D01*
X52038619Y-65030170D01*
X52047427Y-65038269D01*
X52091813Y-65083595D01*
X52093043Y-65084834D01*
X52138236Y-65129712D01*
X52145782Y-65137977D01*
X52237030Y-65248277D01*
X52237520Y-65248873D01*
X52241911Y-65254258D01*
X52248985Y-65263923D01*
X52283750Y-65317048D01*
X52284715Y-65318501D01*
X52320310Y-65371274D01*
X52326100Y-65380833D01*
X52394097Y-65506592D01*
X52394621Y-65507570D01*
X52397809Y-65513566D01*
X52402870Y-65524420D01*
X52426660Y-65583303D01*
X52427326Y-65584919D01*
X52451992Y-65643596D01*
X52455809Y-65654083D01*
X52498134Y-65790813D01*
X52498371Y-65791589D01*
X52500378Y-65798234D01*
X52503231Y-65809851D01*
X52515141Y-65872287D01*
X52515480Y-65874002D01*
X52528269Y-65936299D01*
X52529977Y-65947330D01*
X52544958Y-66089859D01*
X52545018Y-66090449D01*
X52545697Y-66097381D01*
X52546240Y-66109331D01*
X52545798Y-66172841D01*
X52545798Y-66174582D01*
X52546242Y-66238243D01*
X52545774Y-66249403D01*
X52532820Y-66391731D01*
X52532711Y-66392888D01*
X52532047Y-66399655D01*
X52530259Y-66411477D01*
X52517492Y-66473676D01*
X52517153Y-66475387D01*
X52505224Y-66537922D01*
X52502597Y-66548781D01*
X52464307Y-66678879D01*
X52462010Y-66684541D01*
X52461553Y-66686092D01*
X52461424Y-66686054D01*
X52461321Y-66686401D01*
X52461449Y-66686440D01*
X52460912Y-66688220D01*
X52459831Y-66693833D01*
X52455902Y-66704748D01*
X52431270Y-66763346D01*
X52430607Y-66764956D01*
X52406777Y-66823933D01*
X52402086Y-66834086D01*
X52335917Y-66960656D01*
X52335368Y-66961697D01*
X52332149Y-66967751D01*
X52325980Y-66978019D01*
X52290463Y-67030675D01*
X52289497Y-67032130D01*
X52254658Y-67085371D01*
X52248093Y-67094407D01*
X52158413Y-67205949D01*
X52157945Y-67206527D01*
X52153514Y-67211960D01*
X52145471Y-67220828D01*
X52100458Y-67265529D01*
X52099229Y-67266767D01*
X52054654Y-67312286D01*
X52046451Y-67319881D01*
X51936873Y-67411827D01*
X51936199Y-67412389D01*
X51930827Y-67416833D01*
X51921224Y-67423965D01*
X51868279Y-67459142D01*
X51866833Y-67460117D01*
X51814372Y-67496038D01*
X51804855Y-67501893D01*
X51679361Y-67570884D01*
X51678877Y-67571148D01*
X51672614Y-67574534D01*
X51661813Y-67579663D01*
X51603103Y-67603862D01*
X51601495Y-67604538D01*
X51542987Y-67629615D01*
X51532518Y-67633508D01*
X51395935Y-67676835D01*
X51395490Y-67676974D01*
X51388685Y-67679081D01*
X51377076Y-67682019D01*
X51314794Y-67694351D01*
X51313084Y-67694702D01*
X51250821Y-67707936D01*
X51239803Y-67709721D01*
X51097603Y-67725671D01*
X51096811Y-67725757D01*
X51089856Y-67726488D01*
X51077897Y-67727115D01*
X51056365Y-67727115D01*
X51043300Y-67727800D01*
X51021681Y-67730072D01*
X51010520Y-67730696D01*
X51003239Y-67730747D01*
X51002647Y-67730749D01*
X50997700Y-67730749D01*
X50997333Y-67730767D01*
X50003657Y-67730767D01*
X49987518Y-67729178D01*
X49977909Y-67726263D01*
X49969045Y-67721525D01*
X49961280Y-67715152D01*
X49954907Y-67707387D01*
X49950169Y-67698523D01*
X49947254Y-67688914D01*
X49945665Y-67672775D01*
X49945665Y-67097241D01*
X49943263Y-67072855D01*
X49936150Y-67049406D01*
X49924599Y-67027795D01*
X49909054Y-67008853D01*
X49890112Y-66993308D01*
X49868501Y-66981757D01*
X49845052Y-66974644D01*
X49772232Y-66960159D01*
X49750799Y-66953658D01*
X49624146Y-66901196D01*
X49604396Y-66890638D01*
X49490411Y-66814476D01*
X49473102Y-66800272D01*
X49376160Y-66703330D01*
X49361956Y-66686021D01*
X49285794Y-66572036D01*
X49275236Y-66552286D01*
X49222774Y-66425633D01*
X49216273Y-66404200D01*
X49189528Y-66269744D01*
X49187334Y-66247464D01*
X49187334Y-66110366D01*
X49189528Y-66088086D01*
X49216273Y-65953630D01*
X49222774Y-65932197D01*
X49275236Y-65805544D01*
X49285794Y-65785794D01*
X49361956Y-65671809D01*
X49376160Y-65654500D01*
X49473102Y-65557558D01*
X49490411Y-65543354D01*
X49604396Y-65467192D01*
X49624146Y-65456634D01*
X49750799Y-65404172D01*
X49772232Y-65397671D01*
X49845052Y-65383186D01*
X49868501Y-65376073D01*
X49890112Y-65364522D01*
X49909054Y-65348976D01*
X49924599Y-65330035D01*
X49936150Y-65308424D01*
X49943263Y-65284975D01*
X49945665Y-65260589D01*
X49945665Y-64685055D01*
X49947254Y-64668916D01*
X49950169Y-64659307D01*
X49954907Y-64650443D01*
X49961280Y-64642678D01*
X49969045Y-64636305D01*
X49977909Y-64631567D01*
X49987518Y-64628652D01*
X50003657Y-64627063D01*
X50991377Y-64627063D01*
X51019767Y-64629859D01*
X51019767Y-64629859D01*
G37*
G36*
X107530687Y-64611307D02*
G01*
X107530686Y-64611307D01*
X107530686Y-64611308D01*
X105430379Y-64695665D01*
X105386153Y-63594553D01*
X105386154Y-63594553D01*
X105386154Y-63594552D01*
X107486461Y-63510195D01*
X107530687Y-64611307D01*
X107530687Y-64611307D01*
G37*
G36*
X113925531Y-64354463D02*
G01*
X113925530Y-64354463D01*
X113925530Y-64354464D01*
X111825223Y-64438821D01*
X111780997Y-63337709D01*
X111780998Y-63337709D01*
X111780998Y-63337708D01*
X113881305Y-63253351D01*
X113925531Y-64354463D01*
X113925531Y-64354463D01*
G37*
G36*
X51019767Y-59629859D02*
G01*
X51019876Y-59628753D01*
X51032619Y-59630643D01*
X51067647Y-59630643D01*
X51078819Y-59631189D01*
X51221432Y-59645173D01*
X51221481Y-59644677D01*
X51221848Y-59644742D01*
X51221799Y-59645211D01*
X51228950Y-59645962D01*
X51240781Y-59647836D01*
X51302876Y-59661034D01*
X51304585Y-59661384D01*
X51367038Y-59673750D01*
X51377869Y-59676450D01*
X51514953Y-59717837D01*
X51515534Y-59718015D01*
X51522304Y-59720111D01*
X51533538Y-59724244D01*
X51591899Y-59749257D01*
X51593506Y-59749933D01*
X51652358Y-59774190D01*
X51662470Y-59778949D01*
X51788618Y-59846023D01*
X51789620Y-59846560D01*
X51795669Y-59849831D01*
X51805866Y-59856055D01*
X51858255Y-59891927D01*
X51859703Y-59892904D01*
X51912748Y-59928147D01*
X51921712Y-59934755D01*
X52032644Y-60025230D01*
X52033158Y-60025653D01*
X52038619Y-60030170D01*
X52047427Y-60038269D01*
X52091813Y-60083595D01*
X52093043Y-60084834D01*
X52138236Y-60129712D01*
X52145782Y-60137977D01*
X52237030Y-60248277D01*
X52237520Y-60248873D01*
X52241911Y-60254258D01*
X52248985Y-60263923D01*
X52283750Y-60317048D01*
X52284715Y-60318501D01*
X52320310Y-60371274D01*
X52326100Y-60380833D01*
X52394097Y-60506592D01*
X52394621Y-60507570D01*
X52397809Y-60513566D01*
X52402870Y-60524420D01*
X52426660Y-60583303D01*
X52427326Y-60584919D01*
X52451992Y-60643596D01*
X52455809Y-60654083D01*
X52498134Y-60790813D01*
X52498371Y-60791589D01*
X52500378Y-60798234D01*
X52503231Y-60809851D01*
X52515141Y-60872287D01*
X52515480Y-60874002D01*
X52528269Y-60936299D01*
X52529977Y-60947330D01*
X52544958Y-61089859D01*
X52545018Y-61090449D01*
X52545697Y-61097381D01*
X52546240Y-61109331D01*
X52545798Y-61172841D01*
X52545798Y-61174582D01*
X52546242Y-61238243D01*
X52545774Y-61249403D01*
X52532820Y-61391731D01*
X52532711Y-61392888D01*
X52532047Y-61399655D01*
X52530259Y-61411477D01*
X52517492Y-61473676D01*
X52517153Y-61475387D01*
X52505224Y-61537922D01*
X52502597Y-61548781D01*
X52464307Y-61678879D01*
X52462010Y-61684541D01*
X52461553Y-61686092D01*
X52461424Y-61686054D01*
X52461321Y-61686401D01*
X52461449Y-61686440D01*
X52460912Y-61688220D01*
X52459831Y-61693833D01*
X52455902Y-61704748D01*
X52431270Y-61763346D01*
X52430607Y-61764956D01*
X52406777Y-61823933D01*
X52402086Y-61834086D01*
X52335917Y-61960656D01*
X52335368Y-61961697D01*
X52332149Y-61967751D01*
X52325980Y-61978019D01*
X52290463Y-62030675D01*
X52289497Y-62032130D01*
X52254658Y-62085371D01*
X52248093Y-62094407D01*
X52158413Y-62205949D01*
X52157945Y-62206527D01*
X52153514Y-62211960D01*
X52145471Y-62220828D01*
X52100458Y-62265529D01*
X52099229Y-62266767D01*
X52054654Y-62312286D01*
X52046451Y-62319881D01*
X51936873Y-62411827D01*
X51936199Y-62412389D01*
X51930827Y-62416833D01*
X51921224Y-62423965D01*
X51868279Y-62459142D01*
X51866833Y-62460117D01*
X51814372Y-62496038D01*
X51804855Y-62501893D01*
X51679361Y-62570884D01*
X51678877Y-62571148D01*
X51672614Y-62574534D01*
X51661813Y-62579663D01*
X51603103Y-62603862D01*
X51601495Y-62604538D01*
X51542987Y-62629615D01*
X51532518Y-62633508D01*
X51395935Y-62676835D01*
X51395490Y-62676974D01*
X51388685Y-62679081D01*
X51377076Y-62682019D01*
X51314794Y-62694351D01*
X51313084Y-62694702D01*
X51250821Y-62707936D01*
X51239803Y-62709721D01*
X51097603Y-62725671D01*
X51096811Y-62725757D01*
X51089856Y-62726488D01*
X51077897Y-62727115D01*
X51056365Y-62727115D01*
X51043300Y-62727800D01*
X51021681Y-62730072D01*
X51010520Y-62730696D01*
X51003239Y-62730747D01*
X51002647Y-62730749D01*
X50997700Y-62730749D01*
X50997333Y-62730767D01*
X50003657Y-62730767D01*
X49987518Y-62729178D01*
X49977909Y-62726263D01*
X49969045Y-62721525D01*
X49961280Y-62715152D01*
X49954907Y-62707387D01*
X49950169Y-62698523D01*
X49947254Y-62688914D01*
X49945665Y-62672775D01*
X49945665Y-62097241D01*
X49943263Y-62072855D01*
X49936150Y-62049406D01*
X49924599Y-62027795D01*
X49909054Y-62008853D01*
X49890112Y-61993308D01*
X49868501Y-61981757D01*
X49845052Y-61974644D01*
X49772232Y-61960159D01*
X49750799Y-61953658D01*
X49624146Y-61901196D01*
X49604396Y-61890638D01*
X49490411Y-61814476D01*
X49473102Y-61800272D01*
X49376160Y-61703330D01*
X49361956Y-61686021D01*
X49285794Y-61572036D01*
X49275236Y-61552286D01*
X49222774Y-61425633D01*
X49216273Y-61404200D01*
X49189528Y-61269744D01*
X49187334Y-61247464D01*
X49187334Y-61110366D01*
X49189528Y-61088086D01*
X49216273Y-60953630D01*
X49222774Y-60932197D01*
X49275236Y-60805544D01*
X49285794Y-60785794D01*
X49361956Y-60671809D01*
X49376160Y-60654500D01*
X49473102Y-60557558D01*
X49490411Y-60543354D01*
X49604396Y-60467192D01*
X49624146Y-60456634D01*
X49750799Y-60404172D01*
X49772232Y-60397671D01*
X49845052Y-60383186D01*
X49868501Y-60376073D01*
X49890112Y-60364522D01*
X49909054Y-60348976D01*
X49924599Y-60330035D01*
X49936150Y-60308424D01*
X49943263Y-60284975D01*
X49945665Y-60260589D01*
X49945665Y-59685055D01*
X49947254Y-59668916D01*
X49950169Y-59659307D01*
X49954907Y-59650443D01*
X49961280Y-59642678D01*
X49969045Y-59636305D01*
X49977909Y-59631567D01*
X49987518Y-59628652D01*
X50003657Y-59627063D01*
X50991377Y-59627063D01*
X51019767Y-59629859D01*
X51019767Y-59629859D01*
G37*
G36*
X87760226Y-56533343D02*
G01*
X87795908Y-56540944D01*
X87829435Y-56555366D01*
X87859502Y-56576049D01*
X87884953Y-56602199D01*
X87904814Y-56632811D01*
X87920606Y-56672444D01*
X88327205Y-58081138D01*
X88334962Y-58123095D01*
X88334469Y-58159589D01*
X88326868Y-58195271D01*
X88312446Y-58228798D01*
X88291763Y-58258865D01*
X88265613Y-58284316D01*
X88235001Y-58304177D01*
X88195368Y-58319969D01*
X87098927Y-58636441D01*
X87056970Y-58644198D01*
X87020476Y-58643705D01*
X86984794Y-58636104D01*
X86951267Y-58621682D01*
X86921200Y-58600999D01*
X86895749Y-58574849D01*
X86875888Y-58544237D01*
X86860096Y-58504604D01*
X86453497Y-57095910D01*
X86445740Y-57053953D01*
X86446233Y-57017459D01*
X86453834Y-56981777D01*
X86468256Y-56948250D01*
X86488939Y-56918183D01*
X86515089Y-56892732D01*
X86545701Y-56872871D01*
X86585334Y-56857079D01*
X87681775Y-56540607D01*
X87723732Y-56532850D01*
X87760226Y-56533343D01*
X87760226Y-56533343D01*
G37*
G36*
X72338049Y-56553487D02*
G01*
X72372709Y-56564900D01*
X72404474Y-56582853D01*
X72432135Y-56606667D01*
X72454612Y-56635410D01*
X72471051Y-56667988D01*
X72482469Y-56709092D01*
X72495362Y-56782968D01*
X72495365Y-56782977D01*
X72721660Y-58079587D01*
X72721661Y-58079594D01*
X72734555Y-58153476D01*
X72737734Y-58196012D01*
X72733303Y-58232237D01*
X72721891Y-58266896D01*
X72703936Y-58298664D01*
X72680125Y-58326322D01*
X72651380Y-58348800D01*
X72618801Y-58365239D01*
X72577700Y-58376657D01*
X72128464Y-58455061D01*
X71527362Y-58559970D01*
X71527357Y-58559970D01*
X71453474Y-58572865D01*
X71410937Y-58576044D01*
X71374713Y-58571613D01*
X71340053Y-58560200D01*
X71308288Y-58542247D01*
X71280627Y-58518433D01*
X71258150Y-58489690D01*
X71241711Y-58457112D01*
X71230293Y-58416008D01*
X71217400Y-58342132D01*
X71217397Y-58342123D01*
X70991102Y-57045513D01*
X70991101Y-57045506D01*
X70978207Y-56971624D01*
X70975028Y-56929088D01*
X70979459Y-56892863D01*
X70990871Y-56858204D01*
X71008826Y-56826436D01*
X71032637Y-56798778D01*
X71061382Y-56776300D01*
X71093961Y-56759861D01*
X71135062Y-56748443D01*
X71689617Y-56651658D01*
X72185400Y-56565130D01*
X72185405Y-56565130D01*
X72259288Y-56552235D01*
X72301825Y-56549056D01*
X72338049Y-56553487D01*
X72338049Y-56553487D01*
G37*
G36*
X56864056Y-56506141D02*
G01*
X56899529Y-56514706D01*
X56932655Y-56530030D01*
X56962145Y-56551515D01*
X56986878Y-56578340D01*
X57005908Y-56609486D01*
X57018491Y-56643733D01*
X57025111Y-56685883D01*
X57109512Y-58149663D01*
X57107781Y-58192284D01*
X57099216Y-58227757D01*
X57083895Y-58260877D01*
X57062403Y-58290377D01*
X57035579Y-58315107D01*
X57004437Y-58334136D01*
X56970189Y-58346719D01*
X56928039Y-58353339D01*
X56853171Y-58357656D01*
X56853164Y-58357657D01*
X55863598Y-58414715D01*
X55863593Y-58414715D01*
X55788719Y-58419032D01*
X55746098Y-58417301D01*
X55710625Y-58408736D01*
X55677499Y-58393412D01*
X55648009Y-58371927D01*
X55623276Y-58345102D01*
X55604246Y-58313956D01*
X55591663Y-58279709D01*
X55585043Y-58237559D01*
X55500642Y-56773779D01*
X55502373Y-56731158D01*
X55510938Y-56695685D01*
X55526259Y-56662565D01*
X55547751Y-56633065D01*
X55574575Y-56608335D01*
X55605717Y-56589306D01*
X55639965Y-56576723D01*
X55682115Y-56570103D01*
X55756983Y-56565786D01*
X55756990Y-56565785D01*
X56746556Y-56508727D01*
X56746561Y-56508727D01*
X56821435Y-56504410D01*
X56864056Y-56506141D01*
X56864056Y-56506141D01*
G37*
G36*
X59834122Y-56334889D02*
G01*
X59869595Y-56343454D01*
X59902721Y-56358778D01*
X59932211Y-56380263D01*
X59956944Y-56407088D01*
X59975974Y-56438234D01*
X59988557Y-56472481D01*
X59995177Y-56514631D01*
X60079578Y-57978411D01*
X60077847Y-58021032D01*
X60069282Y-58056505D01*
X60053961Y-58089625D01*
X60032469Y-58119125D01*
X60005645Y-58143855D01*
X59974503Y-58162884D01*
X59940255Y-58175467D01*
X59898105Y-58182087D01*
X59823237Y-58186404D01*
X59823230Y-58186405D01*
X58833664Y-58243463D01*
X58833659Y-58243463D01*
X58758785Y-58247780D01*
X58716164Y-58246049D01*
X58680691Y-58237484D01*
X58647565Y-58222160D01*
X58618075Y-58200675D01*
X58593342Y-58173850D01*
X58574312Y-58142704D01*
X58561729Y-58108457D01*
X58555109Y-58066307D01*
X58470708Y-56602527D01*
X58472439Y-56559906D01*
X58481004Y-56524433D01*
X58496325Y-56491313D01*
X58517817Y-56461813D01*
X58544641Y-56437083D01*
X58575783Y-56418054D01*
X58610031Y-56405471D01*
X58652181Y-56398851D01*
X58727049Y-56394534D01*
X58727056Y-56394533D01*
X59716622Y-56337475D01*
X59716627Y-56337475D01*
X59791501Y-56333158D01*
X59834122Y-56334889D01*
X59834122Y-56334889D01*
G37*
G36*
X75268749Y-56041997D02*
G01*
X75303409Y-56053410D01*
X75335174Y-56071363D01*
X75362835Y-56095177D01*
X75385312Y-56123920D01*
X75401751Y-56156498D01*
X75413169Y-56197602D01*
X75426062Y-56271478D01*
X75426065Y-56271487D01*
X75652360Y-57568097D01*
X75652361Y-57568104D01*
X75665255Y-57641986D01*
X75668434Y-57684522D01*
X75664003Y-57720747D01*
X75652591Y-57755406D01*
X75634636Y-57787174D01*
X75610825Y-57814832D01*
X75582080Y-57837310D01*
X75549501Y-57853749D01*
X75508400Y-57865167D01*
X75059164Y-57943571D01*
X74458062Y-58048480D01*
X74458057Y-58048480D01*
X74384174Y-58061375D01*
X74341637Y-58064554D01*
X74305413Y-58060123D01*
X74270753Y-58048710D01*
X74238988Y-58030757D01*
X74211327Y-58006943D01*
X74188850Y-57978200D01*
X74172411Y-57945622D01*
X74160993Y-57904518D01*
X74148100Y-57830642D01*
X74148097Y-57830633D01*
X73921802Y-56534023D01*
X73921801Y-56534016D01*
X73908907Y-56460134D01*
X73905728Y-56417598D01*
X73910159Y-56381373D01*
X73921571Y-56346714D01*
X73939526Y-56314946D01*
X73963337Y-56287288D01*
X73992082Y-56264810D01*
X74024661Y-56248371D01*
X74065762Y-56236953D01*
X74514998Y-56158549D01*
X75116100Y-56053640D01*
X75116105Y-56053640D01*
X75189988Y-56040745D01*
X75232525Y-56037566D01*
X75268749Y-56041997D01*
X75268749Y-56041997D01*
G37*
G36*
X90618544Y-55708331D02*
G01*
X90654226Y-55715932D01*
X90687753Y-55730354D01*
X90717820Y-55751037D01*
X90743271Y-55777187D01*
X90763132Y-55807799D01*
X90778924Y-55847432D01*
X91185523Y-57256126D01*
X91193280Y-57298083D01*
X91192787Y-57334577D01*
X91185186Y-57370259D01*
X91170764Y-57403786D01*
X91150081Y-57433853D01*
X91123931Y-57459304D01*
X91093319Y-57479165D01*
X91053686Y-57494957D01*
X89957245Y-57811429D01*
X89915288Y-57819186D01*
X89878794Y-57818693D01*
X89843112Y-57811092D01*
X89809585Y-57796670D01*
X89779518Y-57775987D01*
X89754067Y-57749837D01*
X89734206Y-57719225D01*
X89718414Y-57679592D01*
X89311815Y-56270898D01*
X89304058Y-56228941D01*
X89304551Y-56192447D01*
X89312152Y-56156765D01*
X89326574Y-56123238D01*
X89347257Y-56093171D01*
X89373407Y-56067720D01*
X89404019Y-56047859D01*
X89443652Y-56032067D01*
X90540093Y-55715595D01*
X90582050Y-55707838D01*
X90618544Y-55708331D01*
X90618544Y-55708331D01*
G37*
G36*
X117225995Y-51380046D02*
G01*
X117235604Y-51382961D01*
X117244468Y-51387699D01*
X117252233Y-51394072D01*
X117258606Y-51401837D01*
X117263344Y-51410701D01*
X117266259Y-51420310D01*
X117267848Y-51436449D01*
X117267848Y-52011983D01*
X117270250Y-52036369D01*
X117277363Y-52059818D01*
X117288914Y-52081429D01*
X117304459Y-52100371D01*
X117323401Y-52115916D01*
X117345012Y-52127467D01*
X117368461Y-52134580D01*
X117441281Y-52149065D01*
X117462714Y-52155566D01*
X117589367Y-52208028D01*
X117609117Y-52218586D01*
X117723102Y-52294748D01*
X117740411Y-52308952D01*
X117837353Y-52405894D01*
X117851557Y-52423203D01*
X117927719Y-52537188D01*
X117938277Y-52556938D01*
X117990739Y-52683591D01*
X117997240Y-52705024D01*
X118023985Y-52839480D01*
X118026179Y-52861760D01*
X118026179Y-52998858D01*
X118023985Y-53021138D01*
X117997240Y-53155594D01*
X117990739Y-53177027D01*
X117938277Y-53303680D01*
X117927719Y-53323430D01*
X117851557Y-53437415D01*
X117837353Y-53454724D01*
X117740411Y-53551666D01*
X117723102Y-53565870D01*
X117609117Y-53642032D01*
X117589367Y-53652590D01*
X117462714Y-53705052D01*
X117441281Y-53711553D01*
X117368461Y-53726038D01*
X117345012Y-53733151D01*
X117323401Y-53744702D01*
X117304459Y-53760248D01*
X117288914Y-53779189D01*
X117277363Y-53800800D01*
X117270250Y-53824249D01*
X117267848Y-53848635D01*
X117267848Y-54424169D01*
X117266259Y-54440308D01*
X117263344Y-54449917D01*
X117258606Y-54458781D01*
X117252233Y-54466546D01*
X117244468Y-54472919D01*
X117235604Y-54477657D01*
X117225995Y-54480572D01*
X117209856Y-54482161D01*
X116222136Y-54482161D01*
X116193746Y-54479365D01*
X116193637Y-54480471D01*
X116180894Y-54478581D01*
X116145866Y-54478581D01*
X116134694Y-54478035D01*
X115992081Y-54464051D01*
X115992032Y-54464547D01*
X115991665Y-54464482D01*
X115991714Y-54464013D01*
X115984563Y-54463262D01*
X115972732Y-54461388D01*
X115910637Y-54448190D01*
X115908928Y-54447840D01*
X115846475Y-54435474D01*
X115835644Y-54432774D01*
X115698560Y-54391387D01*
X115697979Y-54391209D01*
X115691209Y-54389113D01*
X115679975Y-54384980D01*
X115621614Y-54359967D01*
X115620007Y-54359291D01*
X115561155Y-54335034D01*
X115551043Y-54330275D01*
X115424873Y-54263189D01*
X115423893Y-54262664D01*
X115417844Y-54259393D01*
X115407647Y-54253169D01*
X115355258Y-54217297D01*
X115353810Y-54216320D01*
X115300765Y-54181077D01*
X115291801Y-54174469D01*
X115180869Y-54083994D01*
X115180355Y-54083571D01*
X115174894Y-54079054D01*
X115166086Y-54070955D01*
X115121700Y-54025629D01*
X115120470Y-54024390D01*
X115075277Y-53979512D01*
X115067731Y-53971247D01*
X114976483Y-53860947D01*
X114975993Y-53860351D01*
X114971602Y-53854966D01*
X114964528Y-53845301D01*
X114929763Y-53792176D01*
X114928798Y-53790723D01*
X114893203Y-53737950D01*
X114887413Y-53728391D01*
X114819416Y-53602632D01*
X114818892Y-53601654D01*
X114815704Y-53595658D01*
X114810643Y-53584804D01*
X114786853Y-53525921D01*
X114786187Y-53524305D01*
X114761521Y-53465628D01*
X114757704Y-53455141D01*
X114715379Y-53318411D01*
X114715142Y-53317635D01*
X114713135Y-53310990D01*
X114710282Y-53299373D01*
X114698372Y-53236937D01*
X114698033Y-53235222D01*
X114685244Y-53172925D01*
X114683536Y-53161894D01*
X114668555Y-53019365D01*
X114668495Y-53018775D01*
X114667816Y-53011843D01*
X114667273Y-52999893D01*
X114667715Y-52936382D01*
X114667715Y-52934641D01*
X114667271Y-52870981D01*
X114667739Y-52859821D01*
X114680693Y-52717493D01*
X114680809Y-52716262D01*
X114681466Y-52709569D01*
X114683254Y-52697747D01*
X114696021Y-52635548D01*
X114696360Y-52633837D01*
X114708289Y-52571302D01*
X114710916Y-52560443D01*
X114749206Y-52430345D01*
X114751503Y-52424683D01*
X114751960Y-52423132D01*
X114752089Y-52423170D01*
X114752192Y-52422823D01*
X114752064Y-52422784D01*
X114752601Y-52421004D01*
X114753682Y-52415391D01*
X114757611Y-52404476D01*
X114782243Y-52345878D01*
X114782906Y-52344268D01*
X114806736Y-52285291D01*
X114811427Y-52275138D01*
X114877596Y-52148568D01*
X114878167Y-52147486D01*
X114881364Y-52141473D01*
X114887533Y-52131205D01*
X114923050Y-52078549D01*
X114924016Y-52077094D01*
X114958855Y-52023853D01*
X114965420Y-52014817D01*
X115055100Y-51903275D01*
X115055568Y-51902697D01*
X115059999Y-51897264D01*
X115068042Y-51888396D01*
X115113055Y-51843695D01*
X115114284Y-51842457D01*
X115158859Y-51796938D01*
X115167062Y-51789343D01*
X115276640Y-51697397D01*
X115277314Y-51696835D01*
X115282686Y-51692391D01*
X115292289Y-51685259D01*
X115345234Y-51650082D01*
X115346680Y-51649107D01*
X115399141Y-51613186D01*
X115408658Y-51607331D01*
X115534152Y-51538340D01*
X115534636Y-51538076D01*
X115540899Y-51534690D01*
X115551700Y-51529561D01*
X115610410Y-51505362D01*
X115612018Y-51504686D01*
X115670526Y-51479609D01*
X115680995Y-51475716D01*
X115817607Y-51432380D01*
X115818023Y-51432250D01*
X115824828Y-51430143D01*
X115836437Y-51427205D01*
X115898719Y-51414873D01*
X115900429Y-51414522D01*
X115962692Y-51401288D01*
X115973710Y-51399503D01*
X116115910Y-51383553D01*
X116116702Y-51383467D01*
X116123657Y-51382736D01*
X116135616Y-51382109D01*
X116157148Y-51382109D01*
X116170213Y-51381424D01*
X116191832Y-51379152D01*
X116202993Y-51378528D01*
X116210274Y-51378477D01*
X116210866Y-51378475D01*
X116215813Y-51378475D01*
X116216180Y-51378457D01*
X117209856Y-51378457D01*
X117225995Y-51380046D01*
X117225995Y-51380046D01*
G37*
G36*
X117225995Y-46380046D02*
G01*
X117235604Y-46382961D01*
X117244468Y-46387699D01*
X117252233Y-46394072D01*
X117258606Y-46401837D01*
X117263344Y-46410701D01*
X117266259Y-46420310D01*
X117267848Y-46436449D01*
X117267848Y-47011983D01*
X117270250Y-47036369D01*
X117277363Y-47059818D01*
X117288914Y-47081429D01*
X117304459Y-47100371D01*
X117323401Y-47115916D01*
X117345012Y-47127467D01*
X117368461Y-47134580D01*
X117441281Y-47149065D01*
X117462714Y-47155566D01*
X117589367Y-47208028D01*
X117609117Y-47218586D01*
X117723102Y-47294748D01*
X117740411Y-47308952D01*
X117837353Y-47405894D01*
X117851557Y-47423203D01*
X117927719Y-47537188D01*
X117938277Y-47556938D01*
X117990739Y-47683591D01*
X117997240Y-47705024D01*
X118023985Y-47839480D01*
X118026179Y-47861760D01*
X118026179Y-47998858D01*
X118023985Y-48021138D01*
X117997240Y-48155594D01*
X117990739Y-48177027D01*
X117938277Y-48303680D01*
X117927719Y-48323430D01*
X117851557Y-48437415D01*
X117837353Y-48454724D01*
X117740411Y-48551666D01*
X117723102Y-48565870D01*
X117609117Y-48642032D01*
X117589367Y-48652590D01*
X117462714Y-48705052D01*
X117441281Y-48711553D01*
X117368461Y-48726038D01*
X117345012Y-48733151D01*
X117323401Y-48744702D01*
X117304459Y-48760248D01*
X117288914Y-48779189D01*
X117277363Y-48800800D01*
X117270250Y-48824249D01*
X117267848Y-48848635D01*
X117267848Y-49424169D01*
X117266259Y-49440308D01*
X117263344Y-49449917D01*
X117258606Y-49458781D01*
X117252233Y-49466546D01*
X117244468Y-49472919D01*
X117235604Y-49477657D01*
X117225995Y-49480572D01*
X117209856Y-49482161D01*
X116222136Y-49482161D01*
X116193746Y-49479365D01*
X116193637Y-49480471D01*
X116180894Y-49478581D01*
X116145866Y-49478581D01*
X116134694Y-49478035D01*
X115992081Y-49464051D01*
X115992032Y-49464547D01*
X115991665Y-49464482D01*
X115991714Y-49464013D01*
X115984563Y-49463262D01*
X115972732Y-49461388D01*
X115910637Y-49448190D01*
X115908928Y-49447840D01*
X115846475Y-49435474D01*
X115835644Y-49432774D01*
X115698560Y-49391387D01*
X115697979Y-49391209D01*
X115691209Y-49389113D01*
X115679975Y-49384980D01*
X115621614Y-49359967D01*
X115620007Y-49359291D01*
X115561155Y-49335034D01*
X115551043Y-49330275D01*
X115424873Y-49263189D01*
X115423893Y-49262664D01*
X115417844Y-49259393D01*
X115407647Y-49253169D01*
X115355258Y-49217297D01*
X115353810Y-49216320D01*
X115300765Y-49181077D01*
X115291801Y-49174469D01*
X115180869Y-49083994D01*
X115180355Y-49083571D01*
X115174894Y-49079054D01*
X115166086Y-49070955D01*
X115121700Y-49025629D01*
X115120470Y-49024390D01*
X115075277Y-48979512D01*
X115067731Y-48971247D01*
X114976483Y-48860947D01*
X114975993Y-48860351D01*
X114971602Y-48854966D01*
X114964528Y-48845301D01*
X114929763Y-48792176D01*
X114928798Y-48790723D01*
X114893203Y-48737950D01*
X114887413Y-48728391D01*
X114819416Y-48602632D01*
X114818892Y-48601654D01*
X114815704Y-48595658D01*
X114810643Y-48584804D01*
X114786853Y-48525921D01*
X114786187Y-48524305D01*
X114761521Y-48465628D01*
X114757704Y-48455141D01*
X114715379Y-48318411D01*
X114715142Y-48317635D01*
X114713135Y-48310990D01*
X114710282Y-48299373D01*
X114698372Y-48236937D01*
X114698033Y-48235222D01*
X114685244Y-48172925D01*
X114683536Y-48161894D01*
X114668555Y-48019365D01*
X114668495Y-48018775D01*
X114667816Y-48011843D01*
X114667273Y-47999893D01*
X114667715Y-47936382D01*
X114667715Y-47934641D01*
X114667271Y-47870981D01*
X114667739Y-47859821D01*
X114680693Y-47717493D01*
X114680809Y-47716262D01*
X114681466Y-47709569D01*
X114683254Y-47697747D01*
X114696021Y-47635548D01*
X114696360Y-47633837D01*
X114708289Y-47571302D01*
X114710916Y-47560443D01*
X114749206Y-47430345D01*
X114751503Y-47424683D01*
X114751960Y-47423132D01*
X114752089Y-47423170D01*
X114752192Y-47422823D01*
X114752064Y-47422784D01*
X114752601Y-47421004D01*
X114753682Y-47415391D01*
X114757611Y-47404476D01*
X114782243Y-47345878D01*
X114782906Y-47344268D01*
X114806736Y-47285291D01*
X114811427Y-47275138D01*
X114877596Y-47148568D01*
X114878167Y-47147486D01*
X114881364Y-47141473D01*
X114887533Y-47131205D01*
X114923050Y-47078549D01*
X114924016Y-47077094D01*
X114958855Y-47023853D01*
X114965420Y-47014817D01*
X115055100Y-46903275D01*
X115055568Y-46902697D01*
X115059999Y-46897264D01*
X115068042Y-46888396D01*
X115113055Y-46843695D01*
X115114284Y-46842457D01*
X115158859Y-46796938D01*
X115167062Y-46789343D01*
X115276640Y-46697397D01*
X115277314Y-46696835D01*
X115282686Y-46692391D01*
X115292289Y-46685259D01*
X115345234Y-46650082D01*
X115346680Y-46649107D01*
X115399141Y-46613186D01*
X115408658Y-46607331D01*
X115534152Y-46538340D01*
X115534636Y-46538076D01*
X115540899Y-46534690D01*
X115551700Y-46529561D01*
X115610410Y-46505362D01*
X115612018Y-46504686D01*
X115670526Y-46479609D01*
X115680995Y-46475716D01*
X115817607Y-46432380D01*
X115818023Y-46432250D01*
X115824828Y-46430143D01*
X115836437Y-46427205D01*
X115898719Y-46414873D01*
X115900429Y-46414522D01*
X115962692Y-46401288D01*
X115973710Y-46399503D01*
X116115910Y-46383553D01*
X116116702Y-46383467D01*
X116123657Y-46382736D01*
X116135616Y-46382109D01*
X116157148Y-46382109D01*
X116170213Y-46381424D01*
X116191832Y-46379152D01*
X116202993Y-46378528D01*
X116210274Y-46378477D01*
X116210866Y-46378475D01*
X116215813Y-46378475D01*
X116216180Y-46378457D01*
X117209856Y-46378457D01*
X117225995Y-46380046D01*
X117225995Y-46380046D01*
G37*
G36*
X95661187Y-42495883D02*
G01*
X95695876Y-42507205D01*
X95727697Y-42525080D01*
X95755412Y-42548814D01*
X95777966Y-42577500D01*
X95797285Y-42615539D01*
X96329885Y-43981587D01*
X96341413Y-44022668D01*
X96344229Y-44059051D01*
X96339892Y-44095283D01*
X96328570Y-44129972D01*
X96310695Y-44161793D01*
X96286961Y-44189508D01*
X96258275Y-44212062D01*
X96220243Y-44231378D01*
X95954350Y-44335045D01*
X95226859Y-44618682D01*
X95226853Y-44618684D01*
X95156980Y-44645926D01*
X95115905Y-44657452D01*
X95079523Y-44660268D01*
X95043291Y-44655931D01*
X95008602Y-44644609D01*
X94976781Y-44626734D01*
X94949066Y-44603000D01*
X94926512Y-44574314D01*
X94907193Y-44536275D01*
X94374592Y-43170224D01*
X94363065Y-43129146D01*
X94360249Y-43092763D01*
X94364586Y-43056531D01*
X94375908Y-43021842D01*
X94393783Y-42990021D01*
X94417517Y-42962306D01*
X94446203Y-42939752D01*
X94484235Y-42920436D01*
X94812929Y-42792284D01*
X95477619Y-42533132D01*
X95477625Y-42533130D01*
X95547498Y-42505888D01*
X95588573Y-42494362D01*
X95624955Y-42491546D01*
X95661187Y-42495883D01*
X95661187Y-42495883D01*
G37*
G36*
X80173343Y-42556709D02*
G01*
X80208825Y-42565244D01*
X80241958Y-42580536D01*
X80271472Y-42601999D01*
X80296232Y-42628807D01*
X80315281Y-42659924D01*
X80330033Y-42699963D01*
X80469665Y-43236019D01*
X80675344Y-44025629D01*
X80699618Y-44118821D01*
X80706274Y-44160968D01*
X80704826Y-44197426D01*
X80696291Y-44232907D01*
X80681000Y-44266038D01*
X80659536Y-44295553D01*
X80632728Y-44320313D01*
X80601611Y-44339362D01*
X80561572Y-44354114D01*
X79457220Y-44641777D01*
X79415074Y-44648433D01*
X79378617Y-44646985D01*
X79343135Y-44638450D01*
X79310002Y-44623158D01*
X79280488Y-44601695D01*
X79255728Y-44574887D01*
X79236679Y-44543770D01*
X79221927Y-44503731D01*
X78986953Y-43601654D01*
X78871246Y-43157448D01*
X78871245Y-43157444D01*
X78852342Y-43084873D01*
X78845686Y-43042726D01*
X78847134Y-43006268D01*
X78855669Y-42970787D01*
X78870960Y-42937656D01*
X78892424Y-42908141D01*
X78919232Y-42883381D01*
X78950349Y-42864332D01*
X78990388Y-42849580D01*
X80094740Y-42561917D01*
X80136886Y-42555261D01*
X80173343Y-42556709D01*
X80173343Y-42556709D01*
G37*
G36*
X64684712Y-42557438D02*
G01*
X64718844Y-42570352D01*
X64749797Y-42589676D01*
X64776392Y-42614672D01*
X64797592Y-42644365D01*
X64812597Y-42677636D01*
X64822209Y-42719192D01*
X64831868Y-42793565D01*
X64831870Y-42793572D01*
X65001392Y-44098819D01*
X65001392Y-44098825D01*
X65011051Y-44173194D01*
X65012373Y-44215836D01*
X65006366Y-44251829D01*
X64993452Y-44285961D01*
X64974129Y-44316914D01*
X64949135Y-44343505D01*
X64919433Y-44364712D01*
X64886171Y-44379713D01*
X64844612Y-44389326D01*
X64770239Y-44398985D01*
X64770232Y-44398987D01*
X63787278Y-44526650D01*
X63787271Y-44526650D01*
X63712902Y-44536309D01*
X63670261Y-44537631D01*
X63634268Y-44531624D01*
X63600136Y-44518710D01*
X63569183Y-44499386D01*
X63542588Y-44474390D01*
X63521388Y-44444697D01*
X63506383Y-44411426D01*
X63496771Y-44369870D01*
X63487112Y-44295497D01*
X63487110Y-44295490D01*
X63317588Y-42990243D01*
X63317588Y-42990237D01*
X63307929Y-42915868D01*
X63306607Y-42873226D01*
X63312614Y-42837233D01*
X63325528Y-42803101D01*
X63344851Y-42772148D01*
X63369845Y-42745557D01*
X63399547Y-42724350D01*
X63432809Y-42709349D01*
X63474368Y-42699736D01*
X63548741Y-42690077D01*
X63548748Y-42690075D01*
X64531702Y-42562412D01*
X64531709Y-42562412D01*
X64606078Y-42552753D01*
X64648719Y-42551431D01*
X64684712Y-42557438D01*
X64684712Y-42557438D01*
G37*
G36*
X117225995Y-41380046D02*
G01*
X117235604Y-41382961D01*
X117244468Y-41387699D01*
X117252233Y-41394072D01*
X117258606Y-41401837D01*
X117263344Y-41410701D01*
X117266259Y-41420310D01*
X117267848Y-41436449D01*
X117267848Y-42011983D01*
X117270250Y-42036369D01*
X117277363Y-42059818D01*
X117288914Y-42081429D01*
X117304459Y-42100371D01*
X117323401Y-42115916D01*
X117345012Y-42127467D01*
X117368461Y-42134580D01*
X117441281Y-42149065D01*
X117462714Y-42155566D01*
X117589367Y-42208028D01*
X117609117Y-42218586D01*
X117723102Y-42294748D01*
X117740411Y-42308952D01*
X117837353Y-42405894D01*
X117851557Y-42423203D01*
X117927719Y-42537188D01*
X117938277Y-42556938D01*
X117990739Y-42683591D01*
X117997240Y-42705024D01*
X118023985Y-42839480D01*
X118026179Y-42861760D01*
X118026179Y-42998858D01*
X118023985Y-43021138D01*
X117997240Y-43155594D01*
X117990739Y-43177027D01*
X117938277Y-43303680D01*
X117927719Y-43323430D01*
X117851557Y-43437415D01*
X117837353Y-43454724D01*
X117740411Y-43551666D01*
X117723102Y-43565870D01*
X117609117Y-43642032D01*
X117589367Y-43652590D01*
X117462714Y-43705052D01*
X117441281Y-43711553D01*
X117368461Y-43726038D01*
X117345012Y-43733151D01*
X117323401Y-43744702D01*
X117304459Y-43760248D01*
X117288914Y-43779189D01*
X117277363Y-43800800D01*
X117270250Y-43824249D01*
X117267848Y-43848635D01*
X117267848Y-44424169D01*
X117266259Y-44440308D01*
X117263344Y-44449917D01*
X117258606Y-44458781D01*
X117252233Y-44466546D01*
X117244468Y-44472919D01*
X117235604Y-44477657D01*
X117225995Y-44480572D01*
X117209856Y-44482161D01*
X116222136Y-44482161D01*
X116193746Y-44479365D01*
X116193637Y-44480471D01*
X116180894Y-44478581D01*
X116145866Y-44478581D01*
X116134694Y-44478035D01*
X115992081Y-44464051D01*
X115992032Y-44464547D01*
X115991665Y-44464482D01*
X115991714Y-44464013D01*
X115984563Y-44463262D01*
X115972732Y-44461388D01*
X115910637Y-44448190D01*
X115908928Y-44447840D01*
X115846475Y-44435474D01*
X115835644Y-44432774D01*
X115698560Y-44391387D01*
X115697979Y-44391209D01*
X115691209Y-44389113D01*
X115679975Y-44384980D01*
X115621614Y-44359967D01*
X115620007Y-44359291D01*
X115561155Y-44335034D01*
X115551043Y-44330275D01*
X115424873Y-44263189D01*
X115423893Y-44262664D01*
X115417844Y-44259393D01*
X115407647Y-44253169D01*
X115355258Y-44217297D01*
X115353810Y-44216320D01*
X115300765Y-44181077D01*
X115291801Y-44174469D01*
X115180869Y-44083994D01*
X115180355Y-44083571D01*
X115174894Y-44079054D01*
X115166086Y-44070955D01*
X115121700Y-44025629D01*
X115120470Y-44024390D01*
X115075277Y-43979512D01*
X115067731Y-43971247D01*
X114976483Y-43860947D01*
X114975993Y-43860351D01*
X114971602Y-43854966D01*
X114964528Y-43845301D01*
X114929763Y-43792176D01*
X114928798Y-43790723D01*
X114893203Y-43737950D01*
X114887413Y-43728391D01*
X114819416Y-43602632D01*
X114818892Y-43601654D01*
X114815704Y-43595658D01*
X114810643Y-43584804D01*
X114786853Y-43525921D01*
X114786187Y-43524305D01*
X114761521Y-43465628D01*
X114757704Y-43455141D01*
X114715379Y-43318411D01*
X114715142Y-43317635D01*
X114713135Y-43310990D01*
X114710282Y-43299373D01*
X114698372Y-43236937D01*
X114698033Y-43235222D01*
X114685244Y-43172925D01*
X114683536Y-43161894D01*
X114668555Y-43019365D01*
X114668495Y-43018775D01*
X114667816Y-43011843D01*
X114667273Y-42999893D01*
X114667715Y-42936382D01*
X114667715Y-42934641D01*
X114667271Y-42870981D01*
X114667739Y-42859821D01*
X114680693Y-42717493D01*
X114680809Y-42716262D01*
X114681466Y-42709569D01*
X114683254Y-42697747D01*
X114696021Y-42635548D01*
X114696360Y-42633837D01*
X114708289Y-42571302D01*
X114710916Y-42560443D01*
X114749206Y-42430345D01*
X114751503Y-42424683D01*
X114751960Y-42423132D01*
X114752089Y-42423170D01*
X114752192Y-42422823D01*
X114752064Y-42422784D01*
X114752601Y-42421004D01*
X114753682Y-42415391D01*
X114757611Y-42404476D01*
X114782243Y-42345878D01*
X114782906Y-42344268D01*
X114806736Y-42285291D01*
X114811427Y-42275138D01*
X114877596Y-42148568D01*
X114878167Y-42147486D01*
X114881364Y-42141473D01*
X114887533Y-42131205D01*
X114923050Y-42078549D01*
X114924016Y-42077094D01*
X114958855Y-42023853D01*
X114965420Y-42014817D01*
X115055100Y-41903275D01*
X115055568Y-41902697D01*
X115059999Y-41897264D01*
X115068042Y-41888396D01*
X115113055Y-41843695D01*
X115114284Y-41842457D01*
X115158859Y-41796938D01*
X115167062Y-41789343D01*
X115276640Y-41697397D01*
X115277314Y-41696835D01*
X115282686Y-41692391D01*
X115292289Y-41685259D01*
X115345234Y-41650082D01*
X115346680Y-41649107D01*
X115399141Y-41613186D01*
X115408658Y-41607331D01*
X115534152Y-41538340D01*
X115534636Y-41538076D01*
X115540899Y-41534690D01*
X115551700Y-41529561D01*
X115610410Y-41505362D01*
X115612018Y-41504686D01*
X115670526Y-41479609D01*
X115680995Y-41475716D01*
X115817607Y-41432380D01*
X115818023Y-41432250D01*
X115824828Y-41430143D01*
X115836437Y-41427205D01*
X115898719Y-41414873D01*
X115900429Y-41414522D01*
X115962692Y-41401288D01*
X115973710Y-41399503D01*
X116115910Y-41383553D01*
X116116702Y-41383467D01*
X116123657Y-41382736D01*
X116135616Y-41382109D01*
X116157148Y-41382109D01*
X116170213Y-41381424D01*
X116191832Y-41379152D01*
X116202993Y-41378528D01*
X116210274Y-41378477D01*
X116210866Y-41378475D01*
X116215813Y-41378475D01*
X116216180Y-41378457D01*
X117209856Y-41378457D01*
X117225995Y-41380046D01*
X117225995Y-41380046D01*
G37*
G36*
X67634934Y-42174272D02*
G01*
X67669066Y-42187186D01*
X67700019Y-42206510D01*
X67726614Y-42231506D01*
X67747814Y-42261199D01*
X67762819Y-42294470D01*
X67772431Y-42336026D01*
X67782090Y-42410399D01*
X67782092Y-42410406D01*
X67951614Y-43715653D01*
X67951614Y-43715659D01*
X67961273Y-43790028D01*
X67962595Y-43832670D01*
X67956588Y-43868663D01*
X67943674Y-43902795D01*
X67924351Y-43933748D01*
X67899357Y-43960339D01*
X67869655Y-43981546D01*
X67836393Y-43996547D01*
X67794834Y-44006160D01*
X67720461Y-44015819D01*
X67720454Y-44015821D01*
X66737500Y-44143484D01*
X66737493Y-44143484D01*
X66663124Y-44153143D01*
X66620483Y-44154465D01*
X66584490Y-44148458D01*
X66550358Y-44135544D01*
X66519405Y-44116220D01*
X66492810Y-44091224D01*
X66471610Y-44061531D01*
X66456605Y-44028260D01*
X66446993Y-43986704D01*
X66437334Y-43912331D01*
X66437332Y-43912324D01*
X66267810Y-42607077D01*
X66267810Y-42607071D01*
X66258151Y-42532702D01*
X66256829Y-42490060D01*
X66262836Y-42454067D01*
X66275750Y-42419935D01*
X66295073Y-42388982D01*
X66320067Y-42362391D01*
X66349769Y-42341184D01*
X66383031Y-42326183D01*
X66424590Y-42316570D01*
X66498963Y-42306911D01*
X66498970Y-42306909D01*
X67481924Y-42179246D01*
X67481931Y-42179246D01*
X67556300Y-42169587D01*
X67598941Y-42168265D01*
X67634934Y-42174272D01*
X67634934Y-42174272D01*
G37*
G36*
X83052277Y-41806803D02*
G01*
X83087759Y-41815338D01*
X83120892Y-41830630D01*
X83150406Y-41852093D01*
X83175166Y-41878901D01*
X83194215Y-41910018D01*
X83208967Y-41950057D01*
X83379447Y-42604538D01*
X83544175Y-43236937D01*
X83578552Y-43368915D01*
X83585208Y-43411062D01*
X83583760Y-43447520D01*
X83575225Y-43483001D01*
X83559934Y-43516132D01*
X83538470Y-43545647D01*
X83511662Y-43570407D01*
X83480545Y-43589456D01*
X83440506Y-43604208D01*
X82336154Y-43891871D01*
X82294008Y-43898527D01*
X82257551Y-43897079D01*
X82222069Y-43888544D01*
X82188936Y-43873252D01*
X82159422Y-43851789D01*
X82134662Y-43824981D01*
X82115613Y-43793864D01*
X82100861Y-43753825D01*
X81888811Y-42939752D01*
X81750180Y-42407542D01*
X81750179Y-42407538D01*
X81731276Y-42334967D01*
X81724620Y-42292820D01*
X81726068Y-42256362D01*
X81734603Y-42220881D01*
X81749894Y-42187750D01*
X81771358Y-42158235D01*
X81798166Y-42133475D01*
X81829283Y-42114426D01*
X81869322Y-42099674D01*
X82973674Y-41812011D01*
X83015820Y-41805355D01*
X83052277Y-41806803D01*
X83052277Y-41806803D01*
G37*
G36*
X98432969Y-41415211D02*
G01*
X98467658Y-41426533D01*
X98499479Y-41444408D01*
X98527194Y-41468142D01*
X98549748Y-41496828D01*
X98569067Y-41534867D01*
X99101668Y-42900918D01*
X99113195Y-42941996D01*
X99116011Y-42978379D01*
X99111674Y-43014611D01*
X99100352Y-43049300D01*
X99082477Y-43081121D01*
X99058743Y-43108836D01*
X99030057Y-43131390D01*
X98992025Y-43150706D01*
X98775252Y-43235222D01*
X97998641Y-43538010D01*
X97998635Y-43538012D01*
X97928762Y-43565254D01*
X97887687Y-43576780D01*
X97851305Y-43579596D01*
X97815073Y-43575259D01*
X97780384Y-43563937D01*
X97748563Y-43546062D01*
X97720848Y-43522328D01*
X97698294Y-43493642D01*
X97678975Y-43455603D01*
X97146374Y-42089552D01*
X97134847Y-42048474D01*
X97132031Y-42012091D01*
X97136368Y-41975859D01*
X97147690Y-41941170D01*
X97165565Y-41909349D01*
X97189299Y-41881634D01*
X97217985Y-41859080D01*
X97256017Y-41839764D01*
X97647922Y-41686967D01*
X98249401Y-41452460D01*
X98249407Y-41452458D01*
X98319280Y-41425216D01*
X98360355Y-41413690D01*
X98396737Y-41410874D01*
X98432969Y-41415211D01*
X98432969Y-41415211D01*
G37*
G36*
X51019767Y-39629859D02*
G01*
X51019876Y-39628753D01*
X51032619Y-39630643D01*
X51067647Y-39630643D01*
X51078819Y-39631189D01*
X51221432Y-39645173D01*
X51221481Y-39644677D01*
X51221848Y-39644742D01*
X51221799Y-39645211D01*
X51228950Y-39645962D01*
X51240781Y-39647836D01*
X51302876Y-39661034D01*
X51304585Y-39661384D01*
X51367038Y-39673750D01*
X51377869Y-39676450D01*
X51514953Y-39717837D01*
X51515534Y-39718015D01*
X51522304Y-39720111D01*
X51533538Y-39724244D01*
X51591899Y-39749257D01*
X51593506Y-39749933D01*
X51652358Y-39774190D01*
X51662470Y-39778949D01*
X51788618Y-39846023D01*
X51789620Y-39846560D01*
X51795669Y-39849831D01*
X51805866Y-39856055D01*
X51858255Y-39891927D01*
X51859703Y-39892904D01*
X51912748Y-39928147D01*
X51921712Y-39934755D01*
X52032644Y-40025230D01*
X52033158Y-40025653D01*
X52038619Y-40030170D01*
X52047427Y-40038269D01*
X52091813Y-40083595D01*
X52093043Y-40084834D01*
X52138236Y-40129712D01*
X52145782Y-40137977D01*
X52237030Y-40248277D01*
X52237520Y-40248873D01*
X52241911Y-40254258D01*
X52248985Y-40263923D01*
X52283750Y-40317048D01*
X52284715Y-40318501D01*
X52320310Y-40371274D01*
X52326100Y-40380833D01*
X52394097Y-40506592D01*
X52394621Y-40507570D01*
X52397809Y-40513566D01*
X52402870Y-40524420D01*
X52426660Y-40583303D01*
X52427326Y-40584919D01*
X52451992Y-40643596D01*
X52455809Y-40654083D01*
X52498134Y-40790813D01*
X52498371Y-40791589D01*
X52500378Y-40798234D01*
X52503231Y-40809851D01*
X52515141Y-40872287D01*
X52515480Y-40874002D01*
X52528269Y-40936299D01*
X52529977Y-40947330D01*
X52544958Y-41089859D01*
X52545018Y-41090449D01*
X52545697Y-41097381D01*
X52546240Y-41109331D01*
X52545798Y-41172841D01*
X52545798Y-41174582D01*
X52546242Y-41238243D01*
X52545774Y-41249403D01*
X52532820Y-41391731D01*
X52532711Y-41392888D01*
X52532047Y-41399655D01*
X52530259Y-41411477D01*
X52517492Y-41473676D01*
X52517153Y-41475387D01*
X52505224Y-41537922D01*
X52502597Y-41548781D01*
X52464307Y-41678879D01*
X52462010Y-41684541D01*
X52461553Y-41686092D01*
X52461424Y-41686054D01*
X52461321Y-41686401D01*
X52461449Y-41686440D01*
X52460912Y-41688220D01*
X52459831Y-41693833D01*
X52455902Y-41704748D01*
X52431270Y-41763346D01*
X52430607Y-41764956D01*
X52406777Y-41823933D01*
X52402086Y-41834086D01*
X52335917Y-41960656D01*
X52335368Y-41961697D01*
X52332149Y-41967751D01*
X52325980Y-41978019D01*
X52290463Y-42030675D01*
X52289497Y-42032130D01*
X52254658Y-42085371D01*
X52248093Y-42094407D01*
X52158413Y-42205949D01*
X52157945Y-42206527D01*
X52153514Y-42211960D01*
X52145471Y-42220828D01*
X52100458Y-42265529D01*
X52099229Y-42266767D01*
X52054654Y-42312286D01*
X52046451Y-42319881D01*
X51936873Y-42411827D01*
X51936199Y-42412389D01*
X51930827Y-42416833D01*
X51921224Y-42423965D01*
X51868279Y-42459142D01*
X51866833Y-42460117D01*
X51814372Y-42496038D01*
X51804855Y-42501893D01*
X51679361Y-42570884D01*
X51678877Y-42571148D01*
X51672614Y-42574534D01*
X51661813Y-42579663D01*
X51603103Y-42603862D01*
X51601495Y-42604538D01*
X51542987Y-42629615D01*
X51532518Y-42633508D01*
X51395935Y-42676835D01*
X51395490Y-42676974D01*
X51388685Y-42679081D01*
X51377076Y-42682019D01*
X51314794Y-42694351D01*
X51313084Y-42694702D01*
X51250821Y-42707936D01*
X51239803Y-42709721D01*
X51097603Y-42725671D01*
X51096811Y-42725757D01*
X51089856Y-42726488D01*
X51077897Y-42727115D01*
X51056365Y-42727115D01*
X51043300Y-42727800D01*
X51021681Y-42730072D01*
X51010520Y-42730696D01*
X51003239Y-42730747D01*
X51002647Y-42730749D01*
X50997700Y-42730749D01*
X50997333Y-42730767D01*
X50003657Y-42730767D01*
X49987518Y-42729178D01*
X49977909Y-42726263D01*
X49969045Y-42721525D01*
X49961280Y-42715152D01*
X49954907Y-42707387D01*
X49950169Y-42698523D01*
X49947254Y-42688914D01*
X49945665Y-42672775D01*
X49945665Y-42097241D01*
X49943263Y-42072855D01*
X49936150Y-42049406D01*
X49924599Y-42027795D01*
X49909054Y-42008853D01*
X49890112Y-41993308D01*
X49868501Y-41981757D01*
X49845052Y-41974644D01*
X49772232Y-41960159D01*
X49750799Y-41953658D01*
X49624146Y-41901196D01*
X49604396Y-41890638D01*
X49490411Y-41814476D01*
X49473102Y-41800272D01*
X49376160Y-41703330D01*
X49361956Y-41686021D01*
X49285794Y-41572036D01*
X49275236Y-41552286D01*
X49222774Y-41425633D01*
X49216273Y-41404200D01*
X49189528Y-41269744D01*
X49187334Y-41247464D01*
X49187334Y-41110366D01*
X49189528Y-41088086D01*
X49216273Y-40953630D01*
X49222774Y-40932197D01*
X49275236Y-40805544D01*
X49285794Y-40785794D01*
X49361956Y-40671809D01*
X49376160Y-40654500D01*
X49473102Y-40557558D01*
X49490411Y-40543354D01*
X49604396Y-40467192D01*
X49624146Y-40456634D01*
X49750799Y-40404172D01*
X49772232Y-40397671D01*
X49845052Y-40383186D01*
X49868501Y-40376073D01*
X49890112Y-40364522D01*
X49909054Y-40348976D01*
X49924599Y-40330035D01*
X49936150Y-40308424D01*
X49943263Y-40284975D01*
X49945665Y-40260589D01*
X49945665Y-39685055D01*
X49947254Y-39668916D01*
X49950169Y-39659307D01*
X49954907Y-39650443D01*
X49961280Y-39642678D01*
X49969045Y-39636305D01*
X49977909Y-39631567D01*
X49987518Y-39628652D01*
X50003657Y-39627063D01*
X50991377Y-39627063D01*
X51019767Y-39629859D01*
X51019767Y-39629859D01*
G37*
G36*
X51019767Y-34629859D02*
G01*
X51019876Y-34628753D01*
X51032619Y-34630643D01*
X51067647Y-34630643D01*
X51078819Y-34631189D01*
X51221432Y-34645173D01*
X51221481Y-34644677D01*
X51221848Y-34644742D01*
X51221799Y-34645211D01*
X51228950Y-34645962D01*
X51240781Y-34647836D01*
X51302876Y-34661034D01*
X51304585Y-34661384D01*
X51367038Y-34673750D01*
X51377869Y-34676450D01*
X51514953Y-34717837D01*
X51515534Y-34718015D01*
X51522304Y-34720111D01*
X51533538Y-34724244D01*
X51591899Y-34749257D01*
X51593506Y-34749933D01*
X51652358Y-34774190D01*
X51662470Y-34778949D01*
X51788618Y-34846023D01*
X51789620Y-34846560D01*
X51795669Y-34849831D01*
X51805866Y-34856055D01*
X51858255Y-34891927D01*
X51859703Y-34892904D01*
X51912748Y-34928147D01*
X51921712Y-34934755D01*
X52032644Y-35025230D01*
X52033158Y-35025653D01*
X52038619Y-35030170D01*
X52047427Y-35038269D01*
X52091813Y-35083595D01*
X52093043Y-35084834D01*
X52138236Y-35129712D01*
X52145782Y-35137977D01*
X52237030Y-35248277D01*
X52237520Y-35248873D01*
X52241911Y-35254258D01*
X52248985Y-35263923D01*
X52283750Y-35317048D01*
X52284715Y-35318501D01*
X52320310Y-35371274D01*
X52326100Y-35380833D01*
X52394097Y-35506592D01*
X52394621Y-35507570D01*
X52397809Y-35513566D01*
X52402870Y-35524420D01*
X52426660Y-35583303D01*
X52427326Y-35584919D01*
X52451992Y-35643596D01*
X52455809Y-35654083D01*
X52498134Y-35790813D01*
X52498371Y-35791589D01*
X52500378Y-35798234D01*
X52503231Y-35809851D01*
X52515141Y-35872287D01*
X52515480Y-35874002D01*
X52528269Y-35936299D01*
X52529977Y-35947330D01*
X52544958Y-36089859D01*
X52545018Y-36090449D01*
X52545697Y-36097381D01*
X52546240Y-36109331D01*
X52545798Y-36172841D01*
X52545798Y-36174582D01*
X52546242Y-36238243D01*
X52545774Y-36249403D01*
X52532820Y-36391731D01*
X52532711Y-36392888D01*
X52532047Y-36399655D01*
X52530259Y-36411477D01*
X52517492Y-36473676D01*
X52517153Y-36475387D01*
X52505224Y-36537922D01*
X52502597Y-36548781D01*
X52464307Y-36678879D01*
X52462010Y-36684541D01*
X52461553Y-36686092D01*
X52461424Y-36686054D01*
X52461321Y-36686401D01*
X52461449Y-36686440D01*
X52460912Y-36688220D01*
X52459831Y-36693833D01*
X52455902Y-36704748D01*
X52431270Y-36763346D01*
X52430607Y-36764956D01*
X52406777Y-36823933D01*
X52402086Y-36834086D01*
X52335917Y-36960656D01*
X52335368Y-36961697D01*
X52332149Y-36967751D01*
X52325980Y-36978019D01*
X52290463Y-37030675D01*
X52289497Y-37032130D01*
X52254658Y-37085371D01*
X52248093Y-37094407D01*
X52158413Y-37205949D01*
X52157945Y-37206527D01*
X52153514Y-37211960D01*
X52145471Y-37220828D01*
X52100458Y-37265529D01*
X52099229Y-37266767D01*
X52054654Y-37312286D01*
X52046451Y-37319881D01*
X51936873Y-37411827D01*
X51936199Y-37412389D01*
X51930827Y-37416833D01*
X51921224Y-37423965D01*
X51868279Y-37459142D01*
X51866833Y-37460117D01*
X51814372Y-37496038D01*
X51804855Y-37501893D01*
X51679361Y-37570884D01*
X51678877Y-37571148D01*
X51672614Y-37574534D01*
X51661813Y-37579663D01*
X51603103Y-37603862D01*
X51601495Y-37604538D01*
X51542987Y-37629615D01*
X51532518Y-37633508D01*
X51395935Y-37676835D01*
X51395490Y-37676974D01*
X51388685Y-37679081D01*
X51377076Y-37682019D01*
X51314794Y-37694351D01*
X51313084Y-37694702D01*
X51250821Y-37707936D01*
X51239803Y-37709721D01*
X51097603Y-37725671D01*
X51096811Y-37725757D01*
X51089856Y-37726488D01*
X51077897Y-37727115D01*
X51056365Y-37727115D01*
X51043300Y-37727800D01*
X51021681Y-37730072D01*
X51010520Y-37730696D01*
X51003239Y-37730747D01*
X51002647Y-37730749D01*
X50997700Y-37730749D01*
X50997333Y-37730767D01*
X50003657Y-37730767D01*
X49987518Y-37729178D01*
X49977909Y-37726263D01*
X49969045Y-37721525D01*
X49961280Y-37715152D01*
X49954907Y-37707387D01*
X49950169Y-37698523D01*
X49947254Y-37688914D01*
X49945665Y-37672775D01*
X49945665Y-37097241D01*
X49943263Y-37072855D01*
X49936150Y-37049406D01*
X49924599Y-37027795D01*
X49909054Y-37008853D01*
X49890112Y-36993308D01*
X49868501Y-36981757D01*
X49845052Y-36974644D01*
X49772232Y-36960159D01*
X49750799Y-36953658D01*
X49624146Y-36901196D01*
X49604396Y-36890638D01*
X49490411Y-36814476D01*
X49473102Y-36800272D01*
X49376160Y-36703330D01*
X49361956Y-36686021D01*
X49285794Y-36572036D01*
X49275236Y-36552286D01*
X49222774Y-36425633D01*
X49216273Y-36404200D01*
X49189528Y-36269744D01*
X49187334Y-36247464D01*
X49187334Y-36110366D01*
X49189528Y-36088086D01*
X49216273Y-35953630D01*
X49222774Y-35932197D01*
X49275236Y-35805544D01*
X49285794Y-35785794D01*
X49361956Y-35671809D01*
X49376160Y-35654500D01*
X49473102Y-35557558D01*
X49490411Y-35543354D01*
X49604396Y-35467192D01*
X49624146Y-35456634D01*
X49750799Y-35404172D01*
X49772232Y-35397671D01*
X49845052Y-35383186D01*
X49868501Y-35376073D01*
X49890112Y-35364522D01*
X49909054Y-35348976D01*
X49924599Y-35330035D01*
X49936150Y-35308424D01*
X49943263Y-35284975D01*
X49945665Y-35260589D01*
X49945665Y-34685055D01*
X49947254Y-34668916D01*
X49950169Y-34659307D01*
X49954907Y-34650443D01*
X49961280Y-34642678D01*
X49969045Y-34636305D01*
X49977909Y-34631567D01*
X49987518Y-34628652D01*
X50003657Y-34627063D01*
X50991377Y-34627063D01*
X51019767Y-34629859D01*
X51019767Y-34629859D01*
G37*
G36*
X117519878Y-32420601D02*
G01*
X117711147Y-32499827D01*
X117711149Y-32499828D01*
X117830630Y-32579663D01*
X117883287Y-32614847D01*
X118029679Y-32761239D01*
X118144699Y-32933379D01*
X118223925Y-33124648D01*
X118264314Y-33327696D01*
X118264314Y-33534728D01*
X118223925Y-33737776D01*
X118144699Y-33929045D01*
X118144698Y-33929047D01*
X118029679Y-34101185D01*
X117883287Y-34247577D01*
X117711149Y-34362596D01*
X117711148Y-34362597D01*
X117711147Y-34362597D01*
X117519878Y-34441823D01*
X117316830Y-34482212D01*
X117109798Y-34482212D01*
X116906750Y-34441823D01*
X116715481Y-34362597D01*
X116715480Y-34362597D01*
X116715479Y-34362596D01*
X116543341Y-34247577D01*
X116396949Y-34101185D01*
X116281930Y-33929047D01*
X116281929Y-33929045D01*
X116202703Y-33737776D01*
X116162314Y-33534728D01*
X116162314Y-33327696D01*
X116202703Y-33124648D01*
X116281929Y-32933379D01*
X116396949Y-32761239D01*
X116543341Y-32614847D01*
X116595998Y-32579663D01*
X116715479Y-32499828D01*
X116715481Y-32499827D01*
X116906750Y-32420601D01*
X117109798Y-32380212D01*
X117316830Y-32380212D01*
X117519878Y-32420601D01*
X117519878Y-32420601D01*
G37*
G36*
X51019767Y-29629859D02*
G01*
X51019876Y-29628753D01*
X51032619Y-29630643D01*
X51067647Y-29630643D01*
X51078819Y-29631189D01*
X51221432Y-29645173D01*
X51221481Y-29644677D01*
X51221848Y-29644742D01*
X51221799Y-29645211D01*
X51228950Y-29645962D01*
X51240781Y-29647836D01*
X51302876Y-29661034D01*
X51304585Y-29661384D01*
X51367038Y-29673750D01*
X51377869Y-29676450D01*
X51514953Y-29717837D01*
X51515534Y-29718015D01*
X51522304Y-29720111D01*
X51533538Y-29724244D01*
X51591899Y-29749257D01*
X51593506Y-29749933D01*
X51652358Y-29774190D01*
X51662470Y-29778949D01*
X51788618Y-29846023D01*
X51789620Y-29846560D01*
X51795669Y-29849831D01*
X51805866Y-29856055D01*
X51858255Y-29891927D01*
X51859703Y-29892904D01*
X51912748Y-29928147D01*
X51921712Y-29934755D01*
X52032644Y-30025230D01*
X52033158Y-30025653D01*
X52038619Y-30030170D01*
X52047427Y-30038269D01*
X52091813Y-30083595D01*
X52093043Y-30084834D01*
X52138236Y-30129712D01*
X52145782Y-30137977D01*
X52237030Y-30248277D01*
X52237520Y-30248873D01*
X52241911Y-30254258D01*
X52248985Y-30263923D01*
X52283750Y-30317048D01*
X52284715Y-30318501D01*
X52320310Y-30371274D01*
X52326100Y-30380833D01*
X52394097Y-30506592D01*
X52394621Y-30507570D01*
X52397809Y-30513566D01*
X52402870Y-30524420D01*
X52426660Y-30583303D01*
X52427326Y-30584919D01*
X52451992Y-30643596D01*
X52455809Y-30654083D01*
X52498134Y-30790813D01*
X52498371Y-30791589D01*
X52500378Y-30798234D01*
X52503231Y-30809851D01*
X52515141Y-30872287D01*
X52515480Y-30874002D01*
X52528269Y-30936299D01*
X52529977Y-30947330D01*
X52544958Y-31089859D01*
X52545018Y-31090449D01*
X52545697Y-31097381D01*
X52546240Y-31109331D01*
X52545798Y-31172841D01*
X52545798Y-31174582D01*
X52546242Y-31238243D01*
X52545774Y-31249403D01*
X52532820Y-31391731D01*
X52532711Y-31392888D01*
X52532047Y-31399655D01*
X52530259Y-31411477D01*
X52517492Y-31473676D01*
X52517153Y-31475387D01*
X52505224Y-31537922D01*
X52502597Y-31548781D01*
X52464307Y-31678879D01*
X52462010Y-31684541D01*
X52461553Y-31686092D01*
X52461424Y-31686054D01*
X52461321Y-31686401D01*
X52461449Y-31686440D01*
X52460912Y-31688220D01*
X52459831Y-31693833D01*
X52455902Y-31704748D01*
X52431270Y-31763346D01*
X52430607Y-31764956D01*
X52406777Y-31823933D01*
X52402086Y-31834086D01*
X52335917Y-31960656D01*
X52335368Y-31961697D01*
X52332149Y-31967751D01*
X52325980Y-31978019D01*
X52290463Y-32030675D01*
X52289497Y-32032130D01*
X52254658Y-32085371D01*
X52248093Y-32094407D01*
X52158413Y-32205949D01*
X52157945Y-32206527D01*
X52153514Y-32211960D01*
X52145471Y-32220828D01*
X52100458Y-32265529D01*
X52099229Y-32266767D01*
X52054654Y-32312286D01*
X52046451Y-32319881D01*
X51936873Y-32411827D01*
X51936199Y-32412389D01*
X51930827Y-32416833D01*
X51921224Y-32423965D01*
X51868279Y-32459142D01*
X51866833Y-32460117D01*
X51814372Y-32496038D01*
X51804855Y-32501893D01*
X51679361Y-32570884D01*
X51678877Y-32571148D01*
X51672614Y-32574534D01*
X51661813Y-32579663D01*
X51603103Y-32603862D01*
X51601495Y-32604538D01*
X51542987Y-32629615D01*
X51532518Y-32633508D01*
X51395935Y-32676835D01*
X51395490Y-32676974D01*
X51388685Y-32679081D01*
X51377076Y-32682019D01*
X51314794Y-32694351D01*
X51313084Y-32694702D01*
X51250821Y-32707936D01*
X51239803Y-32709721D01*
X51097603Y-32725671D01*
X51096811Y-32725757D01*
X51089856Y-32726488D01*
X51077897Y-32727115D01*
X51056365Y-32727115D01*
X51043300Y-32727800D01*
X51021681Y-32730072D01*
X51010520Y-32730696D01*
X51003239Y-32730747D01*
X51002647Y-32730749D01*
X50997700Y-32730749D01*
X50997333Y-32730767D01*
X50003657Y-32730767D01*
X49987518Y-32729178D01*
X49977909Y-32726263D01*
X49969045Y-32721525D01*
X49961280Y-32715152D01*
X49954907Y-32707387D01*
X49950169Y-32698523D01*
X49947254Y-32688914D01*
X49945665Y-32672775D01*
X49945665Y-32097241D01*
X49943263Y-32072855D01*
X49936150Y-32049406D01*
X49924599Y-32027795D01*
X49909054Y-32008853D01*
X49890112Y-31993308D01*
X49868501Y-31981757D01*
X49845052Y-31974644D01*
X49772232Y-31960159D01*
X49750799Y-31953658D01*
X49624146Y-31901196D01*
X49604396Y-31890638D01*
X49490411Y-31814476D01*
X49473102Y-31800272D01*
X49376160Y-31703330D01*
X49361956Y-31686021D01*
X49285794Y-31572036D01*
X49275236Y-31552286D01*
X49222774Y-31425633D01*
X49216273Y-31404200D01*
X49189528Y-31269744D01*
X49187334Y-31247464D01*
X49187334Y-31110366D01*
X49189528Y-31088086D01*
X49216273Y-30953630D01*
X49222774Y-30932197D01*
X49275236Y-30805544D01*
X49285794Y-30785794D01*
X49361956Y-30671809D01*
X49376160Y-30654500D01*
X49473102Y-30557558D01*
X49490411Y-30543354D01*
X49604396Y-30467192D01*
X49624146Y-30456634D01*
X49750799Y-30404172D01*
X49772232Y-30397671D01*
X49845052Y-30383186D01*
X49868501Y-30376073D01*
X49890112Y-30364522D01*
X49909054Y-30348976D01*
X49924599Y-30330035D01*
X49936150Y-30308424D01*
X49943263Y-30284975D01*
X49945665Y-30260589D01*
X49945665Y-29685055D01*
X49947254Y-29668916D01*
X49950169Y-29659307D01*
X49954907Y-29650443D01*
X49961280Y-29642678D01*
X49969045Y-29636305D01*
X49977909Y-29631567D01*
X49987518Y-29628652D01*
X50003657Y-29627063D01*
X50991377Y-29627063D01*
X51019767Y-29629859D01*
X51019767Y-29629859D01*
G37*
G36*
X88797198Y-28214741D02*
G01*
X88863383Y-28221260D01*
X89033222Y-28272780D01*
X89189747Y-28356445D01*
X89225485Y-28385775D01*
X89326942Y-28469037D01*
X89410204Y-28570494D01*
X89439534Y-28606232D01*
X89523199Y-28762757D01*
X89574719Y-28932596D01*
X89592115Y-29109223D01*
X89574719Y-29285850D01*
X89523199Y-29455689D01*
X89439534Y-29612214D01*
X89419763Y-29636305D01*
X89326942Y-29749409D01*
X89254179Y-29809123D01*
X89189747Y-29862001D01*
X89111485Y-29903833D01*
X89065998Y-29928147D01*
X89033222Y-29945666D01*
X88863383Y-29997186D01*
X88797199Y-30003704D01*
X88731016Y-30010223D01*
X88642496Y-30010223D01*
X88576313Y-30003704D01*
X88510129Y-29997186D01*
X88340290Y-29945666D01*
X88307515Y-29928147D01*
X88262028Y-29903834D01*
X88183765Y-29862001D01*
X88119333Y-29809123D01*
X88046570Y-29749409D01*
X87953749Y-29636305D01*
X87933978Y-29612214D01*
X87850313Y-29455689D01*
X87798793Y-29285850D01*
X87781397Y-29109223D01*
X87798793Y-28932596D01*
X87850313Y-28762757D01*
X87933978Y-28606232D01*
X87963308Y-28570494D01*
X88046570Y-28469037D01*
X88148027Y-28385775D01*
X88183765Y-28356445D01*
X88340290Y-28272780D01*
X88510129Y-28221260D01*
X88576314Y-28214741D01*
X88642496Y-28208223D01*
X88731016Y-28208223D01*
X88797198Y-28214741D01*
X88797198Y-28214741D01*
G37*
G36*
X86257198Y-28214741D02*
G01*
X86323383Y-28221260D01*
X86493222Y-28272780D01*
X86649747Y-28356445D01*
X86685485Y-28385775D01*
X86786942Y-28469037D01*
X86870204Y-28570494D01*
X86899534Y-28606232D01*
X86983199Y-28762757D01*
X87034719Y-28932596D01*
X87052115Y-29109223D01*
X87034719Y-29285850D01*
X86983199Y-29455689D01*
X86899534Y-29612214D01*
X86879763Y-29636305D01*
X86786942Y-29749409D01*
X86714179Y-29809123D01*
X86649747Y-29862001D01*
X86571485Y-29903833D01*
X86525998Y-29928147D01*
X86493222Y-29945666D01*
X86323383Y-29997186D01*
X86257199Y-30003704D01*
X86191016Y-30010223D01*
X86102496Y-30010223D01*
X86036313Y-30003704D01*
X85970129Y-29997186D01*
X85800290Y-29945666D01*
X85767515Y-29928147D01*
X85722028Y-29903834D01*
X85643765Y-29862001D01*
X85579333Y-29809123D01*
X85506570Y-29749409D01*
X85413749Y-29636305D01*
X85393978Y-29612214D01*
X85310313Y-29455689D01*
X85258793Y-29285850D01*
X85241397Y-29109223D01*
X85258793Y-28932596D01*
X85310313Y-28762757D01*
X85393978Y-28606232D01*
X85423308Y-28570494D01*
X85506570Y-28469037D01*
X85608027Y-28385775D01*
X85643765Y-28356445D01*
X85800290Y-28272780D01*
X85970129Y-28221260D01*
X86036314Y-28214741D01*
X86102496Y-28208223D01*
X86191016Y-28208223D01*
X86257198Y-28214741D01*
X86257198Y-28214741D01*
G37*
G36*
X84507756Y-30010223D02*
G01*
X82705756Y-30010223D01*
X82705756Y-28208223D01*
X84507756Y-28208223D01*
X84507756Y-30010223D01*
X84507756Y-30010223D01*
G37*
G36*
X109288014Y-27747512D02*
G01*
X109479283Y-27826738D01*
X109479285Y-27826739D01*
X109651423Y-27941758D01*
X109797815Y-28088150D01*
X109912835Y-28260290D01*
X109992061Y-28451559D01*
X110032450Y-28654607D01*
X110032450Y-28861639D01*
X109992061Y-29064687D01*
X109912835Y-29255956D01*
X109912834Y-29255958D01*
X109797815Y-29428096D01*
X109651423Y-29574488D01*
X109479285Y-29689507D01*
X109479284Y-29689508D01*
X109479283Y-29689508D01*
X109288014Y-29768734D01*
X109084966Y-29809123D01*
X108877934Y-29809123D01*
X108674886Y-29768734D01*
X108483617Y-29689508D01*
X108483616Y-29689508D01*
X108483615Y-29689507D01*
X108311477Y-29574488D01*
X108165085Y-29428096D01*
X108050066Y-29255958D01*
X108050065Y-29255956D01*
X107970839Y-29064687D01*
X107930450Y-28861639D01*
X107930450Y-28654607D01*
X107970839Y-28451559D01*
X108050065Y-28260290D01*
X108165085Y-28088150D01*
X108311477Y-27941758D01*
X108483615Y-27826739D01*
X108483617Y-27826738D01*
X108674886Y-27747512D01*
X108877934Y-27707123D01*
X109084966Y-27707123D01*
X109288014Y-27747512D01*
X109288014Y-27747512D01*
G37*
M02*
