G04 #@! TF.GenerationSoftware,KiCad,Pcbnew,5.1.4-e60b266~84~ubuntu18.04.1*
G04 #@! TF.CreationDate,2019-08-23T14:34:05+02:00*
G04 #@! TF.ProjectId,bcc1,62636331-2e6b-4696-9361-645f70636258,rev?*
G04 #@! TF.SameCoordinates,Original*
G04 #@! TF.FileFunction,Soldermask,Bot*
G04 #@! TF.FilePolarity,Negative*
%FSLAX46Y46*%
G04 Gerber Fmt 4.6, Leading zero omitted, Abs format (unit mm)*
G04 Created by KiCad (PCBNEW 5.1.4-e60b266~84~ubuntu18.04.1) date 2019-08-23 14:34:05*
%MOMM*%
%LPD*%
G04 APERTURE LIST*
%ADD10C,0.150000*%
G04 APERTURE END LIST*
D10*
G36*
X58538627Y-144340490D02*
G01*
X58650883Y-144386988D01*
X58729898Y-144419717D01*
X58849999Y-144499966D01*
X58902036Y-144534736D01*
X59048428Y-144681128D01*
X59163448Y-144853268D01*
X59242674Y-145044537D01*
X59283063Y-145247585D01*
X59283063Y-145454617D01*
X59242674Y-145657665D01*
X59168622Y-145836442D01*
X59163447Y-145848936D01*
X59048428Y-146021074D01*
X58902036Y-146167466D01*
X58729898Y-146282485D01*
X58729897Y-146282486D01*
X58729896Y-146282486D01*
X58538627Y-146361712D01*
X58335579Y-146402101D01*
X58128547Y-146402101D01*
X57925499Y-146361712D01*
X57734230Y-146282486D01*
X57734229Y-146282486D01*
X57734228Y-146282485D01*
X57562090Y-146167466D01*
X57415698Y-146021074D01*
X57300679Y-145848936D01*
X57295504Y-145836442D01*
X57221452Y-145657665D01*
X57181063Y-145454617D01*
X57181063Y-145247585D01*
X57221452Y-145044537D01*
X57300678Y-144853268D01*
X57415698Y-144681128D01*
X57562090Y-144534736D01*
X57614127Y-144499966D01*
X57734228Y-144419717D01*
X57813243Y-144386988D01*
X57925499Y-144340490D01*
X58128547Y-144300101D01*
X58335579Y-144300101D01*
X58538627Y-144340490D01*
X58538627Y-144340490D01*
G37*
G36*
X84507756Y-145901000D02*
G01*
X82705756Y-145901000D01*
X82705756Y-144099000D01*
X84507756Y-144099000D01*
X84507756Y-145901000D01*
X84507756Y-145901000D01*
G37*
G36*
X81177198Y-144105518D02*
G01*
X81243383Y-144112037D01*
X81413222Y-144163557D01*
X81569747Y-144247222D01*
X81577622Y-144253685D01*
X81706942Y-144359814D01*
X81790204Y-144461271D01*
X81819534Y-144497009D01*
X81821597Y-144500868D01*
X81900806Y-144649056D01*
X81903199Y-144653534D01*
X81954719Y-144823373D01*
X81972115Y-145000000D01*
X81954719Y-145176627D01*
X81903199Y-145346466D01*
X81819534Y-145502991D01*
X81790204Y-145538729D01*
X81706942Y-145640186D01*
X81605485Y-145723448D01*
X81569747Y-145752778D01*
X81413222Y-145836443D01*
X81243383Y-145887963D01*
X81177198Y-145894482D01*
X81111016Y-145901000D01*
X81022496Y-145901000D01*
X80956314Y-145894482D01*
X80890129Y-145887963D01*
X80720290Y-145836443D01*
X80563765Y-145752778D01*
X80528027Y-145723448D01*
X80426570Y-145640186D01*
X80343308Y-145538729D01*
X80313978Y-145502991D01*
X80230313Y-145346466D01*
X80178793Y-145176627D01*
X80161397Y-145000000D01*
X80178793Y-144823373D01*
X80230313Y-144653534D01*
X80232707Y-144649056D01*
X80311915Y-144500868D01*
X80313978Y-144497009D01*
X80343308Y-144461271D01*
X80426570Y-144359814D01*
X80555890Y-144253685D01*
X80563765Y-144247222D01*
X80720290Y-144163557D01*
X80890129Y-144112037D01*
X80956314Y-144105518D01*
X81022496Y-144099000D01*
X81111016Y-144099000D01*
X81177198Y-144105518D01*
X81177198Y-144105518D01*
G37*
G36*
X78637198Y-144105518D02*
G01*
X78703383Y-144112037D01*
X78873222Y-144163557D01*
X79029747Y-144247222D01*
X79037622Y-144253685D01*
X79166942Y-144359814D01*
X79250204Y-144461271D01*
X79279534Y-144497009D01*
X79281597Y-144500868D01*
X79360806Y-144649056D01*
X79363199Y-144653534D01*
X79414719Y-144823373D01*
X79432115Y-145000000D01*
X79414719Y-145176627D01*
X79363199Y-145346466D01*
X79279534Y-145502991D01*
X79250204Y-145538729D01*
X79166942Y-145640186D01*
X79065485Y-145723448D01*
X79029747Y-145752778D01*
X78873222Y-145836443D01*
X78703383Y-145887963D01*
X78637198Y-145894482D01*
X78571016Y-145901000D01*
X78482496Y-145901000D01*
X78416314Y-145894482D01*
X78350129Y-145887963D01*
X78180290Y-145836443D01*
X78023765Y-145752778D01*
X77988027Y-145723448D01*
X77886570Y-145640186D01*
X77803308Y-145538729D01*
X77773978Y-145502991D01*
X77690313Y-145346466D01*
X77638793Y-145176627D01*
X77621397Y-145000000D01*
X77638793Y-144823373D01*
X77690313Y-144653534D01*
X77692707Y-144649056D01*
X77771915Y-144500868D01*
X77773978Y-144497009D01*
X77803308Y-144461271D01*
X77886570Y-144359814D01*
X78015890Y-144253685D01*
X78023765Y-144247222D01*
X78180290Y-144163557D01*
X78350129Y-144112037D01*
X78416314Y-144105518D01*
X78482496Y-144099000D01*
X78571016Y-144099000D01*
X78637198Y-144105518D01*
X78637198Y-144105518D01*
G37*
G36*
X117209999Y-141549737D02*
G01*
X117219608Y-141552652D01*
X117228472Y-141557390D01*
X117236237Y-141563763D01*
X117242610Y-141571528D01*
X117247348Y-141580392D01*
X117250263Y-141590001D01*
X117251852Y-141606140D01*
X117251852Y-142181674D01*
X117254254Y-142206060D01*
X117261367Y-142229509D01*
X117272918Y-142251120D01*
X117288463Y-142270062D01*
X117307405Y-142285607D01*
X117329016Y-142297158D01*
X117352465Y-142304271D01*
X117425285Y-142318756D01*
X117446718Y-142325257D01*
X117573371Y-142377719D01*
X117593121Y-142388277D01*
X117707106Y-142464439D01*
X117724415Y-142478643D01*
X117821357Y-142575585D01*
X117835561Y-142592894D01*
X117911723Y-142706879D01*
X117922281Y-142726629D01*
X117974743Y-142853282D01*
X117981244Y-142874715D01*
X118007989Y-143009171D01*
X118010183Y-143031451D01*
X118010183Y-143168549D01*
X118007989Y-143190829D01*
X117981244Y-143325285D01*
X117974743Y-143346718D01*
X117922281Y-143473371D01*
X117911723Y-143493121D01*
X117835561Y-143607106D01*
X117821357Y-143624415D01*
X117724415Y-143721357D01*
X117707106Y-143735561D01*
X117593121Y-143811723D01*
X117573371Y-143822281D01*
X117446718Y-143874743D01*
X117425285Y-143881244D01*
X117352465Y-143895729D01*
X117329016Y-143902842D01*
X117307405Y-143914393D01*
X117288463Y-143929939D01*
X117272918Y-143948880D01*
X117261367Y-143970491D01*
X117254254Y-143993940D01*
X117251852Y-144018326D01*
X117251852Y-144593860D01*
X117250263Y-144609999D01*
X117247348Y-144619608D01*
X117242610Y-144628472D01*
X117236237Y-144636237D01*
X117228472Y-144642610D01*
X117219608Y-144647348D01*
X117209999Y-144650263D01*
X117193860Y-144651852D01*
X116206140Y-144651852D01*
X116177750Y-144649056D01*
X116177641Y-144650162D01*
X116164898Y-144648272D01*
X116129870Y-144648272D01*
X116118698Y-144647726D01*
X115976085Y-144633742D01*
X115976036Y-144634238D01*
X115975669Y-144634173D01*
X115975718Y-144633704D01*
X115968567Y-144632953D01*
X115956736Y-144631079D01*
X115894641Y-144617881D01*
X115892932Y-144617531D01*
X115830479Y-144605165D01*
X115819648Y-144602465D01*
X115682564Y-144561078D01*
X115681983Y-144560900D01*
X115675213Y-144558804D01*
X115663979Y-144554671D01*
X115605618Y-144529658D01*
X115604011Y-144528982D01*
X115545159Y-144504725D01*
X115535047Y-144499966D01*
X115408877Y-144432880D01*
X115407897Y-144432355D01*
X115401848Y-144429084D01*
X115391651Y-144422860D01*
X115339262Y-144386988D01*
X115337814Y-144386011D01*
X115284769Y-144350768D01*
X115275805Y-144344160D01*
X115164873Y-144253685D01*
X115164359Y-144253262D01*
X115158898Y-144248745D01*
X115150090Y-144240646D01*
X115105704Y-144195320D01*
X115104474Y-144194081D01*
X115059281Y-144149203D01*
X115051735Y-144140938D01*
X114960487Y-144030638D01*
X114959997Y-144030042D01*
X114955606Y-144024657D01*
X114948532Y-144014992D01*
X114913767Y-143961867D01*
X114912802Y-143960414D01*
X114877207Y-143907641D01*
X114871417Y-143898082D01*
X114803420Y-143772323D01*
X114802896Y-143771345D01*
X114799708Y-143765349D01*
X114794647Y-143754495D01*
X114770857Y-143695612D01*
X114770191Y-143693996D01*
X114745525Y-143635319D01*
X114741708Y-143624832D01*
X114699383Y-143488102D01*
X114699146Y-143487326D01*
X114697139Y-143480681D01*
X114694286Y-143469064D01*
X114682376Y-143406628D01*
X114682037Y-143404913D01*
X114669248Y-143342616D01*
X114667540Y-143331585D01*
X114652559Y-143189056D01*
X114652499Y-143188466D01*
X114651820Y-143181534D01*
X114651277Y-143169584D01*
X114651719Y-143106073D01*
X114651719Y-143104332D01*
X114651275Y-143040672D01*
X114651743Y-143029512D01*
X114664697Y-142887184D01*
X114664813Y-142885953D01*
X114665470Y-142879260D01*
X114667258Y-142867438D01*
X114680025Y-142805239D01*
X114680364Y-142803528D01*
X114692293Y-142740993D01*
X114694920Y-142730134D01*
X114733210Y-142600036D01*
X114735507Y-142594374D01*
X114735964Y-142592823D01*
X114736093Y-142592861D01*
X114736196Y-142592514D01*
X114736068Y-142592475D01*
X114736605Y-142590695D01*
X114737686Y-142585082D01*
X114741615Y-142574167D01*
X114766247Y-142515569D01*
X114766910Y-142513959D01*
X114790740Y-142454982D01*
X114795431Y-142444829D01*
X114861600Y-142318259D01*
X114862171Y-142317177D01*
X114865368Y-142311164D01*
X114871537Y-142300896D01*
X114907054Y-142248240D01*
X114908020Y-142246785D01*
X114942859Y-142193544D01*
X114949424Y-142184508D01*
X115039104Y-142072966D01*
X115039572Y-142072388D01*
X115044003Y-142066955D01*
X115052046Y-142058087D01*
X115097059Y-142013386D01*
X115098288Y-142012148D01*
X115142863Y-141966629D01*
X115151066Y-141959034D01*
X115260644Y-141867088D01*
X115261318Y-141866526D01*
X115266690Y-141862082D01*
X115276293Y-141854950D01*
X115329238Y-141819773D01*
X115330684Y-141818798D01*
X115383145Y-141782877D01*
X115392662Y-141777022D01*
X115518156Y-141708031D01*
X115518640Y-141707767D01*
X115524903Y-141704381D01*
X115535704Y-141699252D01*
X115594414Y-141675053D01*
X115596022Y-141674377D01*
X115654530Y-141649300D01*
X115664999Y-141645407D01*
X115801611Y-141602071D01*
X115802027Y-141601941D01*
X115808832Y-141599834D01*
X115820441Y-141596896D01*
X115882723Y-141584564D01*
X115884433Y-141584213D01*
X115946696Y-141570979D01*
X115957714Y-141569194D01*
X116099914Y-141553244D01*
X116100706Y-141553158D01*
X116107661Y-141552427D01*
X116119620Y-141551800D01*
X116141152Y-141551800D01*
X116154217Y-141551115D01*
X116175836Y-141548843D01*
X116186997Y-141548219D01*
X116194278Y-141548168D01*
X116194870Y-141548166D01*
X116199817Y-141548166D01*
X116200184Y-141548148D01*
X117193860Y-141548148D01*
X117209999Y-141549737D01*
X117209999Y-141549737D01*
G37*
G36*
X50306762Y-139667401D02*
G01*
X50498031Y-139746627D01*
X50498033Y-139746628D01*
X50670171Y-139861647D01*
X50816563Y-140008039D01*
X50931583Y-140180179D01*
X51010809Y-140371448D01*
X51051198Y-140574496D01*
X51051198Y-140781528D01*
X51010809Y-140984576D01*
X50931583Y-141175845D01*
X50931582Y-141175847D01*
X50816563Y-141347985D01*
X50670171Y-141494377D01*
X50498033Y-141609396D01*
X50498032Y-141609397D01*
X50498031Y-141609397D01*
X50306762Y-141688623D01*
X50103714Y-141729012D01*
X49896682Y-141729012D01*
X49693634Y-141688623D01*
X49502365Y-141609397D01*
X49502364Y-141609397D01*
X49502363Y-141609396D01*
X49330225Y-141494377D01*
X49183833Y-141347985D01*
X49068814Y-141175847D01*
X49068813Y-141175845D01*
X48989587Y-140984576D01*
X48949198Y-140781528D01*
X48949198Y-140574496D01*
X48989587Y-140371448D01*
X49068813Y-140180179D01*
X49183833Y-140008039D01*
X49330225Y-139861647D01*
X49502363Y-139746628D01*
X49502365Y-139746627D01*
X49693634Y-139667401D01*
X49896682Y-139627012D01*
X50103714Y-139627012D01*
X50306762Y-139667401D01*
X50306762Y-139667401D01*
G37*
G36*
X117209999Y-136549737D02*
G01*
X117219608Y-136552652D01*
X117228472Y-136557390D01*
X117236237Y-136563763D01*
X117242610Y-136571528D01*
X117247348Y-136580392D01*
X117250263Y-136590001D01*
X117251852Y-136606140D01*
X117251852Y-137181674D01*
X117254254Y-137206060D01*
X117261367Y-137229509D01*
X117272918Y-137251120D01*
X117288463Y-137270062D01*
X117307405Y-137285607D01*
X117329016Y-137297158D01*
X117352465Y-137304271D01*
X117425285Y-137318756D01*
X117446718Y-137325257D01*
X117573371Y-137377719D01*
X117593121Y-137388277D01*
X117707106Y-137464439D01*
X117724415Y-137478643D01*
X117821357Y-137575585D01*
X117835561Y-137592894D01*
X117911723Y-137706879D01*
X117922281Y-137726629D01*
X117974743Y-137853282D01*
X117981244Y-137874715D01*
X118007989Y-138009171D01*
X118010183Y-138031451D01*
X118010183Y-138168549D01*
X118007989Y-138190829D01*
X117981244Y-138325285D01*
X117974743Y-138346718D01*
X117922281Y-138473371D01*
X117911723Y-138493121D01*
X117835561Y-138607106D01*
X117821357Y-138624415D01*
X117724415Y-138721357D01*
X117707106Y-138735561D01*
X117593121Y-138811723D01*
X117573371Y-138822281D01*
X117446718Y-138874743D01*
X117425285Y-138881244D01*
X117352465Y-138895729D01*
X117329016Y-138902842D01*
X117307405Y-138914393D01*
X117288463Y-138929939D01*
X117272918Y-138948880D01*
X117261367Y-138970491D01*
X117254254Y-138993940D01*
X117251852Y-139018326D01*
X117251852Y-139593860D01*
X117250263Y-139609999D01*
X117247348Y-139619608D01*
X117242610Y-139628472D01*
X117236237Y-139636237D01*
X117228472Y-139642610D01*
X117219608Y-139647348D01*
X117209999Y-139650263D01*
X117193860Y-139651852D01*
X116206140Y-139651852D01*
X116177750Y-139649056D01*
X116177641Y-139650162D01*
X116164898Y-139648272D01*
X116129870Y-139648272D01*
X116118698Y-139647726D01*
X115976085Y-139633742D01*
X115976036Y-139634238D01*
X115975669Y-139634173D01*
X115975718Y-139633704D01*
X115968567Y-139632953D01*
X115956736Y-139631079D01*
X115894641Y-139617881D01*
X115892932Y-139617531D01*
X115830479Y-139605165D01*
X115819648Y-139602465D01*
X115682564Y-139561078D01*
X115681983Y-139560900D01*
X115675213Y-139558804D01*
X115663979Y-139554671D01*
X115605618Y-139529658D01*
X115604011Y-139528982D01*
X115545159Y-139504725D01*
X115535047Y-139499966D01*
X115408877Y-139432880D01*
X115407897Y-139432355D01*
X115401848Y-139429084D01*
X115391651Y-139422860D01*
X115339262Y-139386988D01*
X115337814Y-139386011D01*
X115284769Y-139350768D01*
X115275805Y-139344160D01*
X115164873Y-139253685D01*
X115164359Y-139253262D01*
X115158898Y-139248745D01*
X115150090Y-139240646D01*
X115105704Y-139195320D01*
X115104474Y-139194081D01*
X115059281Y-139149203D01*
X115051735Y-139140938D01*
X114960487Y-139030638D01*
X114959997Y-139030042D01*
X114955606Y-139024657D01*
X114948532Y-139014992D01*
X114913767Y-138961867D01*
X114912802Y-138960414D01*
X114877207Y-138907641D01*
X114871417Y-138898082D01*
X114803420Y-138772323D01*
X114802896Y-138771345D01*
X114799708Y-138765349D01*
X114794647Y-138754495D01*
X114770857Y-138695612D01*
X114770191Y-138693996D01*
X114745525Y-138635319D01*
X114741708Y-138624832D01*
X114699383Y-138488102D01*
X114699146Y-138487326D01*
X114697139Y-138480681D01*
X114694286Y-138469064D01*
X114682376Y-138406628D01*
X114682037Y-138404913D01*
X114669248Y-138342616D01*
X114667540Y-138331585D01*
X114652559Y-138189056D01*
X114652499Y-138188466D01*
X114651820Y-138181534D01*
X114651277Y-138169584D01*
X114651719Y-138106073D01*
X114651719Y-138104332D01*
X114651275Y-138040672D01*
X114651743Y-138029512D01*
X114664697Y-137887184D01*
X114664813Y-137885953D01*
X114665470Y-137879260D01*
X114667258Y-137867438D01*
X114680025Y-137805239D01*
X114680364Y-137803528D01*
X114692293Y-137740993D01*
X114694920Y-137730134D01*
X114733210Y-137600036D01*
X114735507Y-137594374D01*
X114735964Y-137592823D01*
X114736093Y-137592861D01*
X114736196Y-137592514D01*
X114736068Y-137592475D01*
X114736605Y-137590695D01*
X114737686Y-137585082D01*
X114741615Y-137574167D01*
X114766247Y-137515569D01*
X114766910Y-137513959D01*
X114790740Y-137454982D01*
X114795431Y-137444829D01*
X114861600Y-137318259D01*
X114862171Y-137317177D01*
X114865368Y-137311164D01*
X114871537Y-137300896D01*
X114907054Y-137248240D01*
X114908020Y-137246785D01*
X114942859Y-137193544D01*
X114949424Y-137184508D01*
X115039104Y-137072966D01*
X115039572Y-137072388D01*
X115044003Y-137066955D01*
X115052046Y-137058087D01*
X115097059Y-137013386D01*
X115098288Y-137012148D01*
X115142863Y-136966629D01*
X115151066Y-136959034D01*
X115260644Y-136867088D01*
X115261318Y-136866526D01*
X115266690Y-136862082D01*
X115276293Y-136854950D01*
X115329238Y-136819773D01*
X115330684Y-136818798D01*
X115383145Y-136782877D01*
X115392662Y-136777022D01*
X115518156Y-136708031D01*
X115518640Y-136707767D01*
X115524903Y-136704381D01*
X115535704Y-136699252D01*
X115594414Y-136675053D01*
X115596022Y-136674377D01*
X115654530Y-136649300D01*
X115664999Y-136645407D01*
X115801611Y-136602071D01*
X115802027Y-136601941D01*
X115808832Y-136599834D01*
X115820441Y-136596896D01*
X115882723Y-136584564D01*
X115884433Y-136584213D01*
X115946696Y-136570979D01*
X115957714Y-136569194D01*
X116099914Y-136553244D01*
X116100706Y-136553158D01*
X116107661Y-136552427D01*
X116119620Y-136551800D01*
X116141152Y-136551800D01*
X116154217Y-136551115D01*
X116175836Y-136548843D01*
X116186997Y-136548219D01*
X116194278Y-136548168D01*
X116194870Y-136548166D01*
X116199817Y-136548166D01*
X116200184Y-136548148D01*
X117193860Y-136548148D01*
X117209999Y-136549737D01*
X117209999Y-136549737D01*
G37*
G36*
X117209999Y-131549737D02*
G01*
X117219608Y-131552652D01*
X117228472Y-131557390D01*
X117236237Y-131563763D01*
X117242610Y-131571528D01*
X117247348Y-131580392D01*
X117250263Y-131590001D01*
X117251852Y-131606140D01*
X117251852Y-132181674D01*
X117254254Y-132206060D01*
X117261367Y-132229509D01*
X117272918Y-132251120D01*
X117288463Y-132270062D01*
X117307405Y-132285607D01*
X117329016Y-132297158D01*
X117352465Y-132304271D01*
X117425285Y-132318756D01*
X117446718Y-132325257D01*
X117573371Y-132377719D01*
X117593121Y-132388277D01*
X117707106Y-132464439D01*
X117724415Y-132478643D01*
X117821357Y-132575585D01*
X117835561Y-132592894D01*
X117911723Y-132706879D01*
X117922281Y-132726629D01*
X117974743Y-132853282D01*
X117981244Y-132874715D01*
X118007989Y-133009171D01*
X118010183Y-133031451D01*
X118010183Y-133168549D01*
X118007989Y-133190829D01*
X117981244Y-133325285D01*
X117974743Y-133346718D01*
X117922281Y-133473371D01*
X117911723Y-133493121D01*
X117835561Y-133607106D01*
X117821357Y-133624415D01*
X117724415Y-133721357D01*
X117707106Y-133735561D01*
X117593121Y-133811723D01*
X117573371Y-133822281D01*
X117446718Y-133874743D01*
X117425285Y-133881244D01*
X117352465Y-133895729D01*
X117329016Y-133902842D01*
X117307405Y-133914393D01*
X117288463Y-133929939D01*
X117272918Y-133948880D01*
X117261367Y-133970491D01*
X117254254Y-133993940D01*
X117251852Y-134018326D01*
X117251852Y-134593860D01*
X117250263Y-134609999D01*
X117247348Y-134619608D01*
X117242610Y-134628472D01*
X117236237Y-134636237D01*
X117228472Y-134642610D01*
X117219608Y-134647348D01*
X117209999Y-134650263D01*
X117193860Y-134651852D01*
X116206140Y-134651852D01*
X116177750Y-134649056D01*
X116177641Y-134650162D01*
X116164898Y-134648272D01*
X116129870Y-134648272D01*
X116118698Y-134647726D01*
X115976085Y-134633742D01*
X115976036Y-134634238D01*
X115975669Y-134634173D01*
X115975718Y-134633704D01*
X115968567Y-134632953D01*
X115956736Y-134631079D01*
X115894641Y-134617881D01*
X115892932Y-134617531D01*
X115830479Y-134605165D01*
X115819648Y-134602465D01*
X115682564Y-134561078D01*
X115681983Y-134560900D01*
X115675213Y-134558804D01*
X115663979Y-134554671D01*
X115605618Y-134529658D01*
X115604011Y-134528982D01*
X115545159Y-134504725D01*
X115535047Y-134499966D01*
X115408877Y-134432880D01*
X115407897Y-134432355D01*
X115401848Y-134429084D01*
X115391651Y-134422860D01*
X115339262Y-134386988D01*
X115337814Y-134386011D01*
X115284769Y-134350768D01*
X115275805Y-134344160D01*
X115164873Y-134253685D01*
X115164359Y-134253262D01*
X115158898Y-134248745D01*
X115150090Y-134240646D01*
X115105704Y-134195320D01*
X115104474Y-134194081D01*
X115059281Y-134149203D01*
X115051735Y-134140938D01*
X114960487Y-134030638D01*
X114959997Y-134030042D01*
X114955606Y-134024657D01*
X114948532Y-134014992D01*
X114913767Y-133961867D01*
X114912802Y-133960414D01*
X114877207Y-133907641D01*
X114871417Y-133898082D01*
X114803420Y-133772323D01*
X114802896Y-133771345D01*
X114799708Y-133765349D01*
X114794647Y-133754495D01*
X114770857Y-133695612D01*
X114770191Y-133693996D01*
X114745525Y-133635319D01*
X114741708Y-133624832D01*
X114699383Y-133488102D01*
X114699146Y-133487326D01*
X114697139Y-133480681D01*
X114694286Y-133469064D01*
X114682376Y-133406628D01*
X114682037Y-133404913D01*
X114669248Y-133342616D01*
X114667540Y-133331585D01*
X114652559Y-133189056D01*
X114652499Y-133188466D01*
X114651820Y-133181534D01*
X114651277Y-133169584D01*
X114651719Y-133106073D01*
X114651719Y-133104332D01*
X114651275Y-133040672D01*
X114651743Y-133029512D01*
X114664697Y-132887184D01*
X114664813Y-132885953D01*
X114665470Y-132879260D01*
X114667258Y-132867438D01*
X114680025Y-132805239D01*
X114680364Y-132803528D01*
X114692293Y-132740993D01*
X114694920Y-132730134D01*
X114733210Y-132600036D01*
X114735507Y-132594374D01*
X114735964Y-132592823D01*
X114736093Y-132592861D01*
X114736196Y-132592514D01*
X114736068Y-132592475D01*
X114736605Y-132590695D01*
X114737686Y-132585082D01*
X114741615Y-132574167D01*
X114766247Y-132515569D01*
X114766910Y-132513959D01*
X114790740Y-132454982D01*
X114795431Y-132444829D01*
X114861600Y-132318259D01*
X114862171Y-132317177D01*
X114865368Y-132311164D01*
X114871537Y-132300896D01*
X114907054Y-132248240D01*
X114908020Y-132246785D01*
X114942859Y-132193544D01*
X114949424Y-132184508D01*
X115039104Y-132072966D01*
X115039572Y-132072388D01*
X115044003Y-132066955D01*
X115052046Y-132058087D01*
X115097059Y-132013386D01*
X115098288Y-132012148D01*
X115142863Y-131966629D01*
X115151066Y-131959034D01*
X115260644Y-131867088D01*
X115261318Y-131866526D01*
X115266690Y-131862082D01*
X115276293Y-131854950D01*
X115329238Y-131819773D01*
X115330684Y-131818798D01*
X115383145Y-131782877D01*
X115392662Y-131777022D01*
X115518156Y-131708031D01*
X115518640Y-131707767D01*
X115524903Y-131704381D01*
X115535704Y-131699252D01*
X115594414Y-131675053D01*
X115596022Y-131674377D01*
X115654530Y-131649300D01*
X115664999Y-131645407D01*
X115801611Y-131602071D01*
X115802027Y-131601941D01*
X115808832Y-131599834D01*
X115820441Y-131596896D01*
X115882723Y-131584564D01*
X115884433Y-131584213D01*
X115946696Y-131570979D01*
X115957714Y-131569194D01*
X116099914Y-131553244D01*
X116100706Y-131553158D01*
X116107661Y-131552427D01*
X116119620Y-131551800D01*
X116141152Y-131551800D01*
X116154217Y-131551115D01*
X116175836Y-131548843D01*
X116186997Y-131548219D01*
X116194278Y-131548168D01*
X116194870Y-131548166D01*
X116199817Y-131548166D01*
X116200184Y-131548148D01*
X117193860Y-131548148D01*
X117209999Y-131549737D01*
X117209999Y-131549737D01*
G37*
G36*
X69376783Y-130579536D02*
G01*
X69411921Y-130589396D01*
X69444453Y-130605919D01*
X69473145Y-130628477D01*
X69496876Y-130656189D01*
X69517773Y-130693389D01*
X69547918Y-130762060D01*
X69547918Y-130762061D01*
X70073060Y-131958366D01*
X70107113Y-132035942D01*
X70120349Y-132076497D01*
X70124686Y-132112729D01*
X70121870Y-132149112D01*
X70112010Y-132184248D01*
X70095486Y-132216784D01*
X70072932Y-132245470D01*
X70045215Y-132269206D01*
X70008019Y-132290101D01*
X68963058Y-132748806D01*
X68922498Y-132762043D01*
X68886266Y-132766380D01*
X68849885Y-132763564D01*
X68814747Y-132753704D01*
X68782215Y-132737181D01*
X68753523Y-132714623D01*
X68729792Y-132686911D01*
X68708895Y-132649711D01*
X68650011Y-132515569D01*
X68149702Y-131375835D01*
X68149702Y-131375834D01*
X68119555Y-131307158D01*
X68106319Y-131266603D01*
X68101982Y-131230371D01*
X68104798Y-131193988D01*
X68114658Y-131158852D01*
X68131182Y-131126316D01*
X68153736Y-131097630D01*
X68181453Y-131073894D01*
X68218649Y-131052999D01*
X69263610Y-130594294D01*
X69304170Y-130581057D01*
X69340402Y-130576720D01*
X69376783Y-130579536D01*
X69376783Y-130579536D01*
G37*
G36*
X51019767Y-129629859D02*
G01*
X51019876Y-129628753D01*
X51032619Y-129630643D01*
X51067647Y-129630643D01*
X51078819Y-129631189D01*
X51221432Y-129645173D01*
X51221481Y-129644677D01*
X51221848Y-129644742D01*
X51221799Y-129645211D01*
X51228950Y-129645962D01*
X51240781Y-129647836D01*
X51302876Y-129661034D01*
X51304585Y-129661384D01*
X51367038Y-129673750D01*
X51377869Y-129676450D01*
X51514953Y-129717837D01*
X51515534Y-129718015D01*
X51522304Y-129720111D01*
X51533538Y-129724244D01*
X51591899Y-129749257D01*
X51593506Y-129749933D01*
X51652358Y-129774190D01*
X51662470Y-129778949D01*
X51788618Y-129846023D01*
X51789620Y-129846560D01*
X51795669Y-129849831D01*
X51805866Y-129856055D01*
X51858255Y-129891927D01*
X51859703Y-129892904D01*
X51912748Y-129928147D01*
X51921712Y-129934755D01*
X52032644Y-130025230D01*
X52033158Y-130025653D01*
X52038619Y-130030170D01*
X52047427Y-130038269D01*
X52091813Y-130083595D01*
X52093043Y-130084834D01*
X52138236Y-130129712D01*
X52145782Y-130137977D01*
X52237030Y-130248277D01*
X52237520Y-130248873D01*
X52241911Y-130254258D01*
X52248985Y-130263923D01*
X52283750Y-130317048D01*
X52284715Y-130318501D01*
X52320310Y-130371274D01*
X52326100Y-130380833D01*
X52394097Y-130506592D01*
X52394621Y-130507570D01*
X52397809Y-130513566D01*
X52402870Y-130524420D01*
X52426660Y-130583303D01*
X52427326Y-130584919D01*
X52451992Y-130643596D01*
X52455809Y-130654083D01*
X52498134Y-130790813D01*
X52498371Y-130791589D01*
X52500378Y-130798234D01*
X52503231Y-130809851D01*
X52515141Y-130872287D01*
X52515480Y-130874002D01*
X52528269Y-130936299D01*
X52529977Y-130947330D01*
X52544958Y-131089859D01*
X52545018Y-131090449D01*
X52545697Y-131097381D01*
X52546240Y-131109331D01*
X52545798Y-131172841D01*
X52545798Y-131174582D01*
X52546242Y-131238243D01*
X52545774Y-131249403D01*
X52532820Y-131391731D01*
X52532711Y-131392888D01*
X52532047Y-131399655D01*
X52530259Y-131411477D01*
X52517492Y-131473676D01*
X52517153Y-131475387D01*
X52505224Y-131537922D01*
X52502597Y-131548781D01*
X52464307Y-131678879D01*
X52462010Y-131684541D01*
X52461553Y-131686092D01*
X52461424Y-131686054D01*
X52461321Y-131686401D01*
X52461449Y-131686440D01*
X52460912Y-131688220D01*
X52459831Y-131693833D01*
X52455902Y-131704748D01*
X52431270Y-131763346D01*
X52430607Y-131764956D01*
X52406777Y-131823933D01*
X52402086Y-131834086D01*
X52335917Y-131960656D01*
X52335368Y-131961697D01*
X52332149Y-131967751D01*
X52325980Y-131978019D01*
X52290463Y-132030675D01*
X52289497Y-132032130D01*
X52254658Y-132085371D01*
X52248093Y-132094407D01*
X52158413Y-132205949D01*
X52157945Y-132206527D01*
X52153514Y-132211960D01*
X52145471Y-132220828D01*
X52100458Y-132265529D01*
X52099229Y-132266767D01*
X52054654Y-132312286D01*
X52046451Y-132319881D01*
X51936873Y-132411827D01*
X51936199Y-132412389D01*
X51930827Y-132416833D01*
X51921224Y-132423965D01*
X51868279Y-132459142D01*
X51866833Y-132460117D01*
X51814372Y-132496038D01*
X51804855Y-132501893D01*
X51679361Y-132570884D01*
X51678877Y-132571148D01*
X51672614Y-132574534D01*
X51661813Y-132579663D01*
X51603103Y-132603862D01*
X51601495Y-132604538D01*
X51542987Y-132629615D01*
X51532518Y-132633508D01*
X51395935Y-132676835D01*
X51395490Y-132676974D01*
X51388685Y-132679081D01*
X51377076Y-132682019D01*
X51314794Y-132694351D01*
X51313084Y-132694702D01*
X51250821Y-132707936D01*
X51239803Y-132709721D01*
X51097603Y-132725671D01*
X51096811Y-132725757D01*
X51089856Y-132726488D01*
X51077897Y-132727115D01*
X51056365Y-132727115D01*
X51043300Y-132727800D01*
X51021681Y-132730072D01*
X51010520Y-132730696D01*
X51003239Y-132730747D01*
X51002647Y-132730749D01*
X50997700Y-132730749D01*
X50997333Y-132730767D01*
X50003657Y-132730767D01*
X49987518Y-132729178D01*
X49977909Y-132726263D01*
X49969045Y-132721525D01*
X49961280Y-132715152D01*
X49954907Y-132707387D01*
X49950169Y-132698523D01*
X49947254Y-132688914D01*
X49945665Y-132672775D01*
X49945665Y-132097241D01*
X49943263Y-132072855D01*
X49936150Y-132049406D01*
X49924599Y-132027795D01*
X49909054Y-132008853D01*
X49890112Y-131993308D01*
X49868501Y-131981757D01*
X49845052Y-131974644D01*
X49772232Y-131960159D01*
X49750799Y-131953658D01*
X49624146Y-131901196D01*
X49604396Y-131890638D01*
X49490411Y-131814476D01*
X49473102Y-131800272D01*
X49376160Y-131703330D01*
X49361956Y-131686021D01*
X49285794Y-131572036D01*
X49275236Y-131552286D01*
X49222774Y-131425633D01*
X49216273Y-131404200D01*
X49189528Y-131269744D01*
X49187334Y-131247464D01*
X49187334Y-131110366D01*
X49189528Y-131088086D01*
X49216273Y-130953630D01*
X49222774Y-130932197D01*
X49275236Y-130805544D01*
X49285794Y-130785794D01*
X49361956Y-130671809D01*
X49376160Y-130654500D01*
X49473102Y-130557558D01*
X49490411Y-130543354D01*
X49604396Y-130467192D01*
X49624146Y-130456634D01*
X49750799Y-130404172D01*
X49772232Y-130397671D01*
X49845052Y-130383186D01*
X49868501Y-130376073D01*
X49890112Y-130364522D01*
X49909054Y-130348976D01*
X49924599Y-130330035D01*
X49936150Y-130308424D01*
X49943263Y-130284975D01*
X49945665Y-130260589D01*
X49945665Y-129685055D01*
X49947254Y-129668916D01*
X49950169Y-129659307D01*
X49954907Y-129650443D01*
X49961280Y-129642678D01*
X49969045Y-129636305D01*
X49977909Y-129631567D01*
X49987518Y-129628652D01*
X50003657Y-129627063D01*
X50991377Y-129627063D01*
X51019767Y-129629859D01*
X51019767Y-129629859D01*
G37*
G36*
X84955961Y-130212145D02*
G01*
X84991443Y-130220680D01*
X85024576Y-130235972D01*
X85054090Y-130257435D01*
X85078850Y-130284243D01*
X85097899Y-130315360D01*
X85112651Y-130355399D01*
X85266939Y-130947720D01*
X85463287Y-131701508D01*
X85482236Y-131774257D01*
X85488892Y-131816404D01*
X85487444Y-131852862D01*
X85478909Y-131888343D01*
X85463618Y-131921474D01*
X85442154Y-131950989D01*
X85415346Y-131975749D01*
X85384229Y-131994798D01*
X85344190Y-132009550D01*
X84239838Y-132297213D01*
X84197692Y-132303869D01*
X84161235Y-132302421D01*
X84125753Y-132293886D01*
X84092620Y-132278594D01*
X84063106Y-132257131D01*
X84038346Y-132230323D01*
X84019297Y-132199206D01*
X84004545Y-132159167D01*
X83782613Y-131307158D01*
X83653864Y-130812884D01*
X83653863Y-130812880D01*
X83634960Y-130740309D01*
X83628304Y-130698162D01*
X83629752Y-130661704D01*
X83638287Y-130626223D01*
X83653578Y-130593092D01*
X83675042Y-130563577D01*
X83701850Y-130538817D01*
X83732967Y-130519768D01*
X83773006Y-130505016D01*
X84877358Y-130217353D01*
X84919504Y-130210697D01*
X84955961Y-130212145D01*
X84955961Y-130212145D01*
G37*
G36*
X100629022Y-129960766D02*
G01*
X100663154Y-129973680D01*
X100694107Y-129993004D01*
X100720702Y-130018000D01*
X100741902Y-130047693D01*
X100756907Y-130080964D01*
X100766519Y-130122520D01*
X100776178Y-130196893D01*
X100776180Y-130196900D01*
X100945702Y-131502147D01*
X100945702Y-131502153D01*
X100955361Y-131576522D01*
X100956683Y-131619164D01*
X100950676Y-131655157D01*
X100937762Y-131689289D01*
X100918439Y-131720242D01*
X100893445Y-131746833D01*
X100863743Y-131768040D01*
X100830481Y-131783041D01*
X100788922Y-131792654D01*
X100714549Y-131802313D01*
X100714542Y-131802315D01*
X99731588Y-131929978D01*
X99731581Y-131929978D01*
X99657212Y-131939637D01*
X99614571Y-131940959D01*
X99578578Y-131934952D01*
X99544446Y-131922038D01*
X99513493Y-131902714D01*
X99486898Y-131877718D01*
X99465698Y-131848025D01*
X99450693Y-131814754D01*
X99441081Y-131773198D01*
X99431422Y-131698825D01*
X99431420Y-131698818D01*
X99261898Y-130393571D01*
X99261898Y-130393565D01*
X99252239Y-130319196D01*
X99250917Y-130276554D01*
X99256924Y-130240561D01*
X99269838Y-130206429D01*
X99289161Y-130175476D01*
X99314155Y-130148885D01*
X99343857Y-130127678D01*
X99377119Y-130112677D01*
X99418678Y-130103064D01*
X99493051Y-130093405D01*
X99493058Y-130093403D01*
X100476012Y-129965740D01*
X100476019Y-129965740D01*
X100550388Y-129956081D01*
X100593029Y-129954759D01*
X100629022Y-129960766D01*
X100629022Y-129960766D01*
G37*
G36*
X72100879Y-129383742D02*
G01*
X72136017Y-129393602D01*
X72168549Y-129410125D01*
X72197241Y-129432683D01*
X72220972Y-129460395D01*
X72241869Y-129497595D01*
X72272014Y-129566266D01*
X72272014Y-129566267D01*
X72768882Y-130698162D01*
X72831209Y-130840148D01*
X72844445Y-130880703D01*
X72848782Y-130916935D01*
X72845966Y-130953318D01*
X72836106Y-130988454D01*
X72819582Y-131020990D01*
X72797028Y-131049676D01*
X72769311Y-131073412D01*
X72732115Y-131094307D01*
X71687154Y-131553012D01*
X71646594Y-131566249D01*
X71610362Y-131570586D01*
X71573981Y-131567770D01*
X71538843Y-131557910D01*
X71506311Y-131541387D01*
X71477619Y-131518829D01*
X71453888Y-131491117D01*
X71432991Y-131453917D01*
X71345060Y-131253604D01*
X70873798Y-130180041D01*
X70873798Y-130180040D01*
X70843651Y-130111364D01*
X70830415Y-130070809D01*
X70826078Y-130034577D01*
X70828894Y-129998194D01*
X70838754Y-129963058D01*
X70855278Y-129930522D01*
X70877832Y-129901836D01*
X70905549Y-129878100D01*
X70942745Y-129857205D01*
X71987706Y-129398500D01*
X72028266Y-129385263D01*
X72064498Y-129380926D01*
X72100879Y-129383742D01*
X72100879Y-129383742D01*
G37*
G36*
X103579244Y-129577600D02*
G01*
X103613376Y-129590514D01*
X103644329Y-129609838D01*
X103670924Y-129634834D01*
X103692124Y-129664527D01*
X103707129Y-129697798D01*
X103716741Y-129739354D01*
X103726400Y-129813727D01*
X103726402Y-129813734D01*
X103895924Y-131118981D01*
X103895924Y-131118987D01*
X103905583Y-131193356D01*
X103906905Y-131235998D01*
X103900898Y-131271991D01*
X103887984Y-131306123D01*
X103868661Y-131337076D01*
X103843667Y-131363667D01*
X103813965Y-131384874D01*
X103780703Y-131399875D01*
X103739144Y-131409488D01*
X103664771Y-131419147D01*
X103664764Y-131419149D01*
X102681810Y-131546812D01*
X102681803Y-131546812D01*
X102607434Y-131556471D01*
X102564793Y-131557793D01*
X102528800Y-131551786D01*
X102494668Y-131538872D01*
X102463715Y-131519548D01*
X102437120Y-131494552D01*
X102415920Y-131464859D01*
X102400915Y-131431588D01*
X102391303Y-131390032D01*
X102381644Y-131315659D01*
X102381642Y-131315652D01*
X102212120Y-130010405D01*
X102212120Y-130010399D01*
X102202461Y-129936030D01*
X102201139Y-129893388D01*
X102207146Y-129857395D01*
X102220060Y-129823263D01*
X102239383Y-129792310D01*
X102264377Y-129765719D01*
X102294079Y-129744512D01*
X102327341Y-129729511D01*
X102368900Y-129719898D01*
X102443273Y-129710239D01*
X102443280Y-129710237D01*
X103426234Y-129582574D01*
X103426241Y-129582574D01*
X103500610Y-129572915D01*
X103543251Y-129571593D01*
X103579244Y-129577600D01*
X103579244Y-129577600D01*
G37*
G36*
X87834895Y-129462239D02*
G01*
X87870377Y-129470774D01*
X87903510Y-129486066D01*
X87933024Y-129507529D01*
X87957784Y-129534337D01*
X87976833Y-129565454D01*
X87991585Y-129605493D01*
X88145635Y-130196900D01*
X88340332Y-130944350D01*
X88361170Y-131024351D01*
X88367826Y-131066498D01*
X88366378Y-131102956D01*
X88357843Y-131138437D01*
X88342552Y-131171568D01*
X88321088Y-131201083D01*
X88294280Y-131225843D01*
X88263163Y-131244892D01*
X88223124Y-131259644D01*
X87118772Y-131547307D01*
X87076626Y-131553963D01*
X87040169Y-131552515D01*
X87004687Y-131543980D01*
X86971554Y-131528688D01*
X86942040Y-131507225D01*
X86917280Y-131480417D01*
X86898231Y-131449300D01*
X86883479Y-131409261D01*
X86648606Y-130507570D01*
X86532798Y-130062978D01*
X86532797Y-130062974D01*
X86513894Y-129990403D01*
X86507238Y-129948256D01*
X86508686Y-129911798D01*
X86517221Y-129876317D01*
X86532512Y-129843186D01*
X86553976Y-129813671D01*
X86580784Y-129788911D01*
X86611901Y-129769862D01*
X86651940Y-129755110D01*
X87756292Y-129467447D01*
X87798438Y-129460791D01*
X87834895Y-129462239D01*
X87834895Y-129462239D01*
G37*
G36*
X51019767Y-124629859D02*
G01*
X51019876Y-124628753D01*
X51032619Y-124630643D01*
X51067647Y-124630643D01*
X51078819Y-124631189D01*
X51221432Y-124645173D01*
X51221481Y-124644677D01*
X51221848Y-124644742D01*
X51221799Y-124645211D01*
X51228950Y-124645962D01*
X51240781Y-124647836D01*
X51302876Y-124661034D01*
X51304585Y-124661384D01*
X51367038Y-124673750D01*
X51377869Y-124676450D01*
X51514953Y-124717837D01*
X51515534Y-124718015D01*
X51522304Y-124720111D01*
X51533538Y-124724244D01*
X51591899Y-124749257D01*
X51593506Y-124749933D01*
X51652358Y-124774190D01*
X51662470Y-124778949D01*
X51788618Y-124846023D01*
X51789620Y-124846560D01*
X51795669Y-124849831D01*
X51805866Y-124856055D01*
X51858255Y-124891927D01*
X51859703Y-124892904D01*
X51912748Y-124928147D01*
X51921712Y-124934755D01*
X52032644Y-125025230D01*
X52033158Y-125025653D01*
X52038619Y-125030170D01*
X52047427Y-125038269D01*
X52091813Y-125083595D01*
X52093043Y-125084834D01*
X52138236Y-125129712D01*
X52145782Y-125137977D01*
X52237030Y-125248277D01*
X52237520Y-125248873D01*
X52241911Y-125254258D01*
X52248985Y-125263923D01*
X52283750Y-125317048D01*
X52284715Y-125318501D01*
X52320310Y-125371274D01*
X52326100Y-125380833D01*
X52394097Y-125506592D01*
X52394621Y-125507570D01*
X52397809Y-125513566D01*
X52402870Y-125524420D01*
X52426660Y-125583303D01*
X52427326Y-125584919D01*
X52451992Y-125643596D01*
X52455809Y-125654083D01*
X52498134Y-125790813D01*
X52498371Y-125791589D01*
X52500378Y-125798234D01*
X52503231Y-125809851D01*
X52515141Y-125872287D01*
X52515480Y-125874002D01*
X52528269Y-125936299D01*
X52529977Y-125947330D01*
X52544958Y-126089859D01*
X52545018Y-126090449D01*
X52545697Y-126097381D01*
X52546240Y-126109331D01*
X52545798Y-126172841D01*
X52545798Y-126174582D01*
X52546242Y-126238243D01*
X52545774Y-126249403D01*
X52532820Y-126391731D01*
X52532711Y-126392888D01*
X52532047Y-126399655D01*
X52530259Y-126411477D01*
X52517492Y-126473676D01*
X52517153Y-126475387D01*
X52505224Y-126537922D01*
X52502597Y-126548781D01*
X52464307Y-126678879D01*
X52462010Y-126684541D01*
X52461553Y-126686092D01*
X52461424Y-126686054D01*
X52461321Y-126686401D01*
X52461449Y-126686440D01*
X52460912Y-126688220D01*
X52459831Y-126693833D01*
X52455902Y-126704748D01*
X52431270Y-126763346D01*
X52430607Y-126764956D01*
X52406777Y-126823933D01*
X52402086Y-126834086D01*
X52335917Y-126960656D01*
X52335368Y-126961697D01*
X52332149Y-126967751D01*
X52325980Y-126978019D01*
X52290463Y-127030675D01*
X52289497Y-127032130D01*
X52254658Y-127085371D01*
X52248093Y-127094407D01*
X52158413Y-127205949D01*
X52157945Y-127206527D01*
X52153514Y-127211960D01*
X52145471Y-127220828D01*
X52100458Y-127265529D01*
X52099229Y-127266767D01*
X52054654Y-127312286D01*
X52046451Y-127319881D01*
X51936873Y-127411827D01*
X51936199Y-127412389D01*
X51930827Y-127416833D01*
X51921224Y-127423965D01*
X51868279Y-127459142D01*
X51866833Y-127460117D01*
X51814372Y-127496038D01*
X51804855Y-127501893D01*
X51679361Y-127570884D01*
X51678877Y-127571148D01*
X51672614Y-127574534D01*
X51661813Y-127579663D01*
X51603103Y-127603862D01*
X51601495Y-127604538D01*
X51542987Y-127629615D01*
X51532518Y-127633508D01*
X51395935Y-127676835D01*
X51395490Y-127676974D01*
X51388685Y-127679081D01*
X51377076Y-127682019D01*
X51314794Y-127694351D01*
X51313084Y-127694702D01*
X51250821Y-127707936D01*
X51239803Y-127709721D01*
X51097603Y-127725671D01*
X51096811Y-127725757D01*
X51089856Y-127726488D01*
X51077897Y-127727115D01*
X51056365Y-127727115D01*
X51043300Y-127727800D01*
X51021681Y-127730072D01*
X51010520Y-127730696D01*
X51003239Y-127730747D01*
X51002647Y-127730749D01*
X50997700Y-127730749D01*
X50997333Y-127730767D01*
X50003657Y-127730767D01*
X49987518Y-127729178D01*
X49977909Y-127726263D01*
X49969045Y-127721525D01*
X49961280Y-127715152D01*
X49954907Y-127707387D01*
X49950169Y-127698523D01*
X49947254Y-127688914D01*
X49945665Y-127672775D01*
X49945665Y-127097241D01*
X49943263Y-127072855D01*
X49936150Y-127049406D01*
X49924599Y-127027795D01*
X49909054Y-127008853D01*
X49890112Y-126993308D01*
X49868501Y-126981757D01*
X49845052Y-126974644D01*
X49772232Y-126960159D01*
X49750799Y-126953658D01*
X49624146Y-126901196D01*
X49604396Y-126890638D01*
X49490411Y-126814476D01*
X49473102Y-126800272D01*
X49376160Y-126703330D01*
X49361956Y-126686021D01*
X49285794Y-126572036D01*
X49275236Y-126552286D01*
X49222774Y-126425633D01*
X49216273Y-126404200D01*
X49189528Y-126269744D01*
X49187334Y-126247464D01*
X49187334Y-126110366D01*
X49189528Y-126088086D01*
X49216273Y-125953630D01*
X49222774Y-125932197D01*
X49275236Y-125805544D01*
X49285794Y-125785794D01*
X49361956Y-125671809D01*
X49376160Y-125654500D01*
X49473102Y-125557558D01*
X49490411Y-125543354D01*
X49604396Y-125467192D01*
X49624146Y-125456634D01*
X49750799Y-125404172D01*
X49772232Y-125397671D01*
X49845052Y-125383186D01*
X49868501Y-125376073D01*
X49890112Y-125364522D01*
X49909054Y-125348976D01*
X49924599Y-125330035D01*
X49936150Y-125308424D01*
X49943263Y-125284975D01*
X49945665Y-125260589D01*
X49945665Y-124685055D01*
X49947254Y-124668916D01*
X49950169Y-124659307D01*
X49954907Y-124650443D01*
X49961280Y-124642678D01*
X49969045Y-124636305D01*
X49977909Y-124631567D01*
X49987518Y-124628652D01*
X50003657Y-124627063D01*
X50991377Y-124627063D01*
X51019767Y-124629859D01*
X51019767Y-124629859D01*
G37*
G36*
X51019767Y-119629859D02*
G01*
X51019876Y-119628753D01*
X51032619Y-119630643D01*
X51067647Y-119630643D01*
X51078819Y-119631189D01*
X51221432Y-119645173D01*
X51221481Y-119644677D01*
X51221848Y-119644742D01*
X51221799Y-119645211D01*
X51228950Y-119645962D01*
X51240781Y-119647836D01*
X51302876Y-119661034D01*
X51304585Y-119661384D01*
X51367038Y-119673750D01*
X51377869Y-119676450D01*
X51514953Y-119717837D01*
X51515534Y-119718015D01*
X51522304Y-119720111D01*
X51533538Y-119724244D01*
X51591899Y-119749257D01*
X51593506Y-119749933D01*
X51652358Y-119774190D01*
X51662470Y-119778949D01*
X51788618Y-119846023D01*
X51789620Y-119846560D01*
X51795669Y-119849831D01*
X51805866Y-119856055D01*
X51858255Y-119891927D01*
X51859703Y-119892904D01*
X51912748Y-119928147D01*
X51921712Y-119934755D01*
X52032644Y-120025230D01*
X52033158Y-120025653D01*
X52038619Y-120030170D01*
X52047427Y-120038269D01*
X52091813Y-120083595D01*
X52093043Y-120084834D01*
X52138236Y-120129712D01*
X52145782Y-120137977D01*
X52237030Y-120248277D01*
X52237520Y-120248873D01*
X52241911Y-120254258D01*
X52248985Y-120263923D01*
X52283750Y-120317048D01*
X52284715Y-120318501D01*
X52320310Y-120371274D01*
X52326100Y-120380833D01*
X52394097Y-120506592D01*
X52394621Y-120507570D01*
X52397809Y-120513566D01*
X52402870Y-120524420D01*
X52426660Y-120583303D01*
X52427326Y-120584919D01*
X52451992Y-120643596D01*
X52455809Y-120654083D01*
X52498134Y-120790813D01*
X52498371Y-120791589D01*
X52500378Y-120798234D01*
X52503231Y-120809851D01*
X52515141Y-120872287D01*
X52515480Y-120874002D01*
X52528269Y-120936299D01*
X52529977Y-120947330D01*
X52544958Y-121089859D01*
X52545018Y-121090449D01*
X52545697Y-121097381D01*
X52546240Y-121109331D01*
X52545798Y-121172841D01*
X52545798Y-121174582D01*
X52546242Y-121238243D01*
X52545774Y-121249403D01*
X52532820Y-121391731D01*
X52532711Y-121392888D01*
X52532047Y-121399655D01*
X52530259Y-121411477D01*
X52517492Y-121473676D01*
X52517153Y-121475387D01*
X52505224Y-121537922D01*
X52502597Y-121548781D01*
X52464307Y-121678879D01*
X52462010Y-121684541D01*
X52461553Y-121686092D01*
X52461424Y-121686054D01*
X52461321Y-121686401D01*
X52461449Y-121686440D01*
X52460912Y-121688220D01*
X52459831Y-121693833D01*
X52455902Y-121704748D01*
X52431270Y-121763346D01*
X52430607Y-121764956D01*
X52406777Y-121823933D01*
X52402086Y-121834086D01*
X52335917Y-121960656D01*
X52335368Y-121961697D01*
X52332149Y-121967751D01*
X52325980Y-121978019D01*
X52290463Y-122030675D01*
X52289497Y-122032130D01*
X52254658Y-122085371D01*
X52248093Y-122094407D01*
X52158413Y-122205949D01*
X52157945Y-122206527D01*
X52153514Y-122211960D01*
X52145471Y-122220828D01*
X52100458Y-122265529D01*
X52099229Y-122266767D01*
X52054654Y-122312286D01*
X52046451Y-122319881D01*
X51936873Y-122411827D01*
X51936199Y-122412389D01*
X51930827Y-122416833D01*
X51921224Y-122423965D01*
X51868279Y-122459142D01*
X51866833Y-122460117D01*
X51814372Y-122496038D01*
X51804855Y-122501893D01*
X51679361Y-122570884D01*
X51678877Y-122571148D01*
X51672614Y-122574534D01*
X51661813Y-122579663D01*
X51603103Y-122603862D01*
X51601495Y-122604538D01*
X51542987Y-122629615D01*
X51532518Y-122633508D01*
X51395935Y-122676835D01*
X51395490Y-122676974D01*
X51388685Y-122679081D01*
X51377076Y-122682019D01*
X51314794Y-122694351D01*
X51313084Y-122694702D01*
X51250821Y-122707936D01*
X51239803Y-122709721D01*
X51097603Y-122725671D01*
X51096811Y-122725757D01*
X51089856Y-122726488D01*
X51077897Y-122727115D01*
X51056365Y-122727115D01*
X51043300Y-122727800D01*
X51021681Y-122730072D01*
X51010520Y-122730696D01*
X51003239Y-122730747D01*
X51002647Y-122730749D01*
X50997700Y-122730749D01*
X50997333Y-122730767D01*
X50003657Y-122730767D01*
X49987518Y-122729178D01*
X49977909Y-122726263D01*
X49969045Y-122721525D01*
X49961280Y-122715152D01*
X49954907Y-122707387D01*
X49950169Y-122698523D01*
X49947254Y-122688914D01*
X49945665Y-122672775D01*
X49945665Y-122097241D01*
X49943263Y-122072855D01*
X49936150Y-122049406D01*
X49924599Y-122027795D01*
X49909054Y-122008853D01*
X49890112Y-121993308D01*
X49868501Y-121981757D01*
X49845052Y-121974644D01*
X49772232Y-121960159D01*
X49750799Y-121953658D01*
X49624146Y-121901196D01*
X49604396Y-121890638D01*
X49490411Y-121814476D01*
X49473102Y-121800272D01*
X49376160Y-121703330D01*
X49361956Y-121686021D01*
X49285794Y-121572036D01*
X49275236Y-121552286D01*
X49222774Y-121425633D01*
X49216273Y-121404200D01*
X49189528Y-121269744D01*
X49187334Y-121247464D01*
X49187334Y-121110366D01*
X49189528Y-121088086D01*
X49216273Y-120953630D01*
X49222774Y-120932197D01*
X49275236Y-120805544D01*
X49285794Y-120785794D01*
X49361956Y-120671809D01*
X49376160Y-120654500D01*
X49473102Y-120557558D01*
X49490411Y-120543354D01*
X49604396Y-120467192D01*
X49624146Y-120456634D01*
X49750799Y-120404172D01*
X49772232Y-120397671D01*
X49845052Y-120383186D01*
X49868501Y-120376073D01*
X49890112Y-120364522D01*
X49909054Y-120348976D01*
X49924599Y-120330035D01*
X49936150Y-120308424D01*
X49943263Y-120284975D01*
X49945665Y-120260589D01*
X49945665Y-119685055D01*
X49947254Y-119668916D01*
X49950169Y-119659307D01*
X49954907Y-119650443D01*
X49961280Y-119642678D01*
X49969045Y-119636305D01*
X49977909Y-119631567D01*
X49987518Y-119628652D01*
X50003657Y-119627063D01*
X50991377Y-119627063D01*
X51019767Y-119629859D01*
X51019767Y-119629859D01*
G37*
G36*
X77334718Y-116290531D02*
G01*
X77370400Y-116298132D01*
X77403927Y-116312554D01*
X77433994Y-116333237D01*
X77459445Y-116359387D01*
X77479306Y-116389999D01*
X77495098Y-116429632D01*
X77901697Y-117838326D01*
X77909454Y-117880283D01*
X77908961Y-117916777D01*
X77901360Y-117952459D01*
X77886938Y-117985986D01*
X77866255Y-118016053D01*
X77840105Y-118041504D01*
X77809493Y-118061365D01*
X77769860Y-118077157D01*
X76673419Y-118393629D01*
X76631462Y-118401386D01*
X76594968Y-118400893D01*
X76559286Y-118393292D01*
X76525759Y-118378870D01*
X76495692Y-118358187D01*
X76470241Y-118332037D01*
X76450380Y-118301425D01*
X76434588Y-118261792D01*
X76027989Y-116853098D01*
X76020232Y-116811141D01*
X76020725Y-116774647D01*
X76028326Y-116738965D01*
X76042748Y-116705438D01*
X76063431Y-116675371D01*
X76089581Y-116649920D01*
X76120193Y-116630059D01*
X76159826Y-116614267D01*
X77256267Y-116297795D01*
X77298224Y-116290038D01*
X77334718Y-116290531D01*
X77334718Y-116290531D01*
G37*
G36*
X92908099Y-116049101D02*
G01*
X92942759Y-116060514D01*
X92974524Y-116078467D01*
X93002185Y-116102281D01*
X93024662Y-116131024D01*
X93041101Y-116163602D01*
X93052519Y-116204706D01*
X93065412Y-116278582D01*
X93065415Y-116278591D01*
X93291710Y-117575201D01*
X93291711Y-117575208D01*
X93304605Y-117649090D01*
X93307784Y-117691626D01*
X93303353Y-117727851D01*
X93291941Y-117762510D01*
X93273986Y-117794278D01*
X93250175Y-117821936D01*
X93221430Y-117844414D01*
X93188851Y-117860853D01*
X93147750Y-117872271D01*
X92698514Y-117950675D01*
X92097412Y-118055584D01*
X92097407Y-118055584D01*
X92023524Y-118068479D01*
X91980987Y-118071658D01*
X91944763Y-118067227D01*
X91910103Y-118055814D01*
X91878338Y-118037861D01*
X91850677Y-118014047D01*
X91828200Y-117985304D01*
X91811761Y-117952726D01*
X91800343Y-117911622D01*
X91787450Y-117837746D01*
X91787447Y-117837737D01*
X91561152Y-116541127D01*
X91561151Y-116541120D01*
X91548257Y-116467238D01*
X91545078Y-116424702D01*
X91549509Y-116388477D01*
X91560921Y-116353818D01*
X91578876Y-116322050D01*
X91602687Y-116294392D01*
X91631432Y-116271914D01*
X91664011Y-116255475D01*
X91705112Y-116244057D01*
X92225598Y-116153218D01*
X92755450Y-116060744D01*
X92755455Y-116060744D01*
X92829338Y-116047849D01*
X92871875Y-116044670D01*
X92908099Y-116049101D01*
X92908099Y-116049101D01*
G37*
G36*
X108497348Y-115863175D02*
G01*
X108532821Y-115871740D01*
X108565947Y-115887064D01*
X108595437Y-115908549D01*
X108620170Y-115935374D01*
X108639200Y-115966520D01*
X108651783Y-116000767D01*
X108658403Y-116042917D01*
X108742804Y-117506697D01*
X108741073Y-117549318D01*
X108732508Y-117584791D01*
X108717187Y-117617911D01*
X108695695Y-117647411D01*
X108668871Y-117672141D01*
X108637729Y-117691170D01*
X108603481Y-117703753D01*
X108561331Y-117710373D01*
X108486463Y-117714690D01*
X108486456Y-117714691D01*
X107496890Y-117771749D01*
X107496885Y-117771749D01*
X107422011Y-117776066D01*
X107379390Y-117774335D01*
X107343917Y-117765770D01*
X107310791Y-117750446D01*
X107281301Y-117728961D01*
X107256568Y-117702136D01*
X107237538Y-117670990D01*
X107224955Y-117636743D01*
X107218335Y-117594593D01*
X107133934Y-116130813D01*
X107135665Y-116088192D01*
X107144230Y-116052719D01*
X107159551Y-116019599D01*
X107181043Y-115990099D01*
X107207867Y-115965369D01*
X107239009Y-115946340D01*
X107273257Y-115933757D01*
X107315407Y-115927137D01*
X107390275Y-115922820D01*
X107390282Y-115922819D01*
X108379848Y-115865761D01*
X108379853Y-115865761D01*
X108454727Y-115861444D01*
X108497348Y-115863175D01*
X108497348Y-115863175D01*
G37*
G36*
X111467414Y-115691923D02*
G01*
X111502887Y-115700488D01*
X111536013Y-115715812D01*
X111565503Y-115737297D01*
X111590236Y-115764122D01*
X111609266Y-115795268D01*
X111621849Y-115829515D01*
X111628469Y-115871665D01*
X111712870Y-117335445D01*
X111711139Y-117378066D01*
X111702574Y-117413539D01*
X111687253Y-117446659D01*
X111665761Y-117476159D01*
X111638937Y-117500889D01*
X111607795Y-117519918D01*
X111573547Y-117532501D01*
X111531397Y-117539121D01*
X111456529Y-117543438D01*
X111456522Y-117543439D01*
X110466956Y-117600497D01*
X110466951Y-117600497D01*
X110392077Y-117604814D01*
X110349456Y-117603083D01*
X110313983Y-117594518D01*
X110280857Y-117579194D01*
X110251367Y-117557709D01*
X110226634Y-117530884D01*
X110207604Y-117499738D01*
X110195021Y-117465491D01*
X110188401Y-117423341D01*
X110104000Y-115959561D01*
X110105731Y-115916940D01*
X110114296Y-115881467D01*
X110129617Y-115848347D01*
X110151109Y-115818847D01*
X110177933Y-115794117D01*
X110209075Y-115775088D01*
X110243323Y-115762505D01*
X110285473Y-115755885D01*
X110360341Y-115751568D01*
X110360348Y-115751567D01*
X111349914Y-115694509D01*
X111349919Y-115694509D01*
X111424793Y-115690192D01*
X111467414Y-115691923D01*
X111467414Y-115691923D01*
G37*
G36*
X80193036Y-115465519D02*
G01*
X80228718Y-115473120D01*
X80262245Y-115487542D01*
X80292312Y-115508225D01*
X80317763Y-115534375D01*
X80337624Y-115564987D01*
X80353416Y-115604620D01*
X80760015Y-117013314D01*
X80767772Y-117055271D01*
X80767279Y-117091765D01*
X80759678Y-117127447D01*
X80745256Y-117160974D01*
X80724573Y-117191041D01*
X80698423Y-117216492D01*
X80667811Y-117236353D01*
X80628178Y-117252145D01*
X79531737Y-117568617D01*
X79489780Y-117576374D01*
X79453286Y-117575881D01*
X79417604Y-117568280D01*
X79384077Y-117553858D01*
X79354010Y-117533175D01*
X79328559Y-117507025D01*
X79308698Y-117476413D01*
X79292906Y-117436780D01*
X78886307Y-116028086D01*
X78878550Y-115986129D01*
X78879043Y-115949635D01*
X78886644Y-115913953D01*
X78901066Y-115880426D01*
X78921749Y-115850359D01*
X78947899Y-115824908D01*
X78978511Y-115805047D01*
X79018144Y-115789255D01*
X80114585Y-115472783D01*
X80156542Y-115465026D01*
X80193036Y-115465519D01*
X80193036Y-115465519D01*
G37*
G36*
X95838799Y-115537611D02*
G01*
X95873459Y-115549024D01*
X95905224Y-115566977D01*
X95932885Y-115590791D01*
X95955362Y-115619534D01*
X95971801Y-115652112D01*
X95983219Y-115693216D01*
X95996112Y-115767092D01*
X95996115Y-115767101D01*
X96222410Y-117063711D01*
X96222411Y-117063718D01*
X96235305Y-117137600D01*
X96238484Y-117180136D01*
X96234053Y-117216361D01*
X96222641Y-117251020D01*
X96204686Y-117282788D01*
X96180875Y-117310446D01*
X96152130Y-117332924D01*
X96119551Y-117349363D01*
X96078450Y-117360781D01*
X95671419Y-117431819D01*
X95028112Y-117544094D01*
X95028107Y-117544094D01*
X94954224Y-117556989D01*
X94911687Y-117560168D01*
X94875463Y-117555737D01*
X94840803Y-117544324D01*
X94809038Y-117526371D01*
X94781377Y-117502557D01*
X94758900Y-117473814D01*
X94742461Y-117441236D01*
X94731043Y-117400132D01*
X94718150Y-117326256D01*
X94718147Y-117326247D01*
X94491852Y-116029637D01*
X94491851Y-116029630D01*
X94478957Y-115955748D01*
X94475778Y-115913212D01*
X94480209Y-115876987D01*
X94491621Y-115842328D01*
X94509576Y-115810560D01*
X94533387Y-115782902D01*
X94562132Y-115760424D01*
X94594711Y-115743985D01*
X94635812Y-115732567D01*
X95096800Y-115652112D01*
X95686150Y-115549254D01*
X95686155Y-115549254D01*
X95760038Y-115536359D01*
X95802575Y-115533180D01*
X95838799Y-115537611D01*
X95838799Y-115537611D01*
G37*
G36*
X117225995Y-111380046D02*
G01*
X117235604Y-111382961D01*
X117244468Y-111387699D01*
X117252233Y-111394072D01*
X117258606Y-111401837D01*
X117263344Y-111410701D01*
X117266259Y-111420310D01*
X117267848Y-111436449D01*
X117267848Y-112011983D01*
X117270250Y-112036369D01*
X117277363Y-112059818D01*
X117288914Y-112081429D01*
X117304459Y-112100371D01*
X117323401Y-112115916D01*
X117345012Y-112127467D01*
X117368461Y-112134580D01*
X117441281Y-112149065D01*
X117462714Y-112155566D01*
X117589367Y-112208028D01*
X117609117Y-112218586D01*
X117723102Y-112294748D01*
X117740411Y-112308952D01*
X117837353Y-112405894D01*
X117851557Y-112423203D01*
X117927719Y-112537188D01*
X117938277Y-112556938D01*
X117990739Y-112683591D01*
X117997240Y-112705024D01*
X118023985Y-112839480D01*
X118026179Y-112861760D01*
X118026179Y-112998858D01*
X118023985Y-113021138D01*
X117997240Y-113155594D01*
X117990739Y-113177027D01*
X117938277Y-113303680D01*
X117927719Y-113323430D01*
X117851557Y-113437415D01*
X117837353Y-113454724D01*
X117740411Y-113551666D01*
X117723102Y-113565870D01*
X117609117Y-113642032D01*
X117589367Y-113652590D01*
X117462714Y-113705052D01*
X117441281Y-113711553D01*
X117368461Y-113726038D01*
X117345012Y-113733151D01*
X117323401Y-113744702D01*
X117304459Y-113760248D01*
X117288914Y-113779189D01*
X117277363Y-113800800D01*
X117270250Y-113824249D01*
X117267848Y-113848635D01*
X117267848Y-114424169D01*
X117266259Y-114440308D01*
X117263344Y-114449917D01*
X117258606Y-114458781D01*
X117252233Y-114466546D01*
X117244468Y-114472919D01*
X117235604Y-114477657D01*
X117225995Y-114480572D01*
X117209856Y-114482161D01*
X116222136Y-114482161D01*
X116193746Y-114479365D01*
X116193637Y-114480471D01*
X116180894Y-114478581D01*
X116145866Y-114478581D01*
X116134694Y-114478035D01*
X115992081Y-114464051D01*
X115992032Y-114464547D01*
X115991665Y-114464482D01*
X115991714Y-114464013D01*
X115984563Y-114463262D01*
X115972732Y-114461388D01*
X115910637Y-114448190D01*
X115908928Y-114447840D01*
X115846475Y-114435474D01*
X115835644Y-114432774D01*
X115698560Y-114391387D01*
X115697979Y-114391209D01*
X115691209Y-114389113D01*
X115679975Y-114384980D01*
X115621614Y-114359967D01*
X115620007Y-114359291D01*
X115561155Y-114335034D01*
X115551043Y-114330275D01*
X115424873Y-114263189D01*
X115423893Y-114262664D01*
X115417844Y-114259393D01*
X115407647Y-114253169D01*
X115355258Y-114217297D01*
X115353810Y-114216320D01*
X115300765Y-114181077D01*
X115291801Y-114174469D01*
X115180869Y-114083994D01*
X115180355Y-114083571D01*
X115174894Y-114079054D01*
X115166086Y-114070955D01*
X115121700Y-114025629D01*
X115120470Y-114024390D01*
X115075277Y-113979512D01*
X115067731Y-113971247D01*
X114976483Y-113860947D01*
X114975993Y-113860351D01*
X114971602Y-113854966D01*
X114964528Y-113845301D01*
X114929763Y-113792176D01*
X114928798Y-113790723D01*
X114893203Y-113737950D01*
X114887413Y-113728391D01*
X114819416Y-113602632D01*
X114818892Y-113601654D01*
X114815704Y-113595658D01*
X114810643Y-113584804D01*
X114786853Y-113525921D01*
X114786187Y-113524305D01*
X114761521Y-113465628D01*
X114757704Y-113455141D01*
X114715379Y-113318411D01*
X114715142Y-113317635D01*
X114713135Y-113310990D01*
X114710282Y-113299373D01*
X114698372Y-113236937D01*
X114698033Y-113235222D01*
X114685244Y-113172925D01*
X114683536Y-113161894D01*
X114668555Y-113019365D01*
X114668495Y-113018775D01*
X114667816Y-113011843D01*
X114667273Y-112999893D01*
X114667715Y-112936382D01*
X114667715Y-112934641D01*
X114667271Y-112870981D01*
X114667739Y-112859821D01*
X114680693Y-112717493D01*
X114680809Y-112716262D01*
X114681466Y-112709569D01*
X114683254Y-112697747D01*
X114696021Y-112635548D01*
X114696360Y-112633837D01*
X114708289Y-112571302D01*
X114710916Y-112560443D01*
X114749206Y-112430345D01*
X114751503Y-112424683D01*
X114751960Y-112423132D01*
X114752089Y-112423170D01*
X114752192Y-112422823D01*
X114752064Y-112422784D01*
X114752601Y-112421004D01*
X114753682Y-112415391D01*
X114757611Y-112404476D01*
X114782243Y-112345878D01*
X114782906Y-112344268D01*
X114806736Y-112285291D01*
X114811427Y-112275138D01*
X114877596Y-112148568D01*
X114878167Y-112147486D01*
X114881364Y-112141473D01*
X114887533Y-112131205D01*
X114923050Y-112078549D01*
X114924016Y-112077094D01*
X114958855Y-112023853D01*
X114965420Y-112014817D01*
X115055100Y-111903275D01*
X115055568Y-111902697D01*
X115059999Y-111897264D01*
X115068042Y-111888396D01*
X115113055Y-111843695D01*
X115114284Y-111842457D01*
X115158859Y-111796938D01*
X115167062Y-111789343D01*
X115276640Y-111697397D01*
X115277314Y-111696835D01*
X115282686Y-111692391D01*
X115292289Y-111685259D01*
X115345234Y-111650082D01*
X115346680Y-111649107D01*
X115399141Y-111613186D01*
X115408658Y-111607331D01*
X115534152Y-111538340D01*
X115534636Y-111538076D01*
X115540899Y-111534690D01*
X115551700Y-111529561D01*
X115610410Y-111505362D01*
X115612018Y-111504686D01*
X115670526Y-111479609D01*
X115680995Y-111475716D01*
X115817607Y-111432380D01*
X115818023Y-111432250D01*
X115824828Y-111430143D01*
X115836437Y-111427205D01*
X115898719Y-111414873D01*
X115900429Y-111414522D01*
X115962692Y-111401288D01*
X115973710Y-111399503D01*
X116115910Y-111383553D01*
X116116702Y-111383467D01*
X116123657Y-111382736D01*
X116135616Y-111382109D01*
X116157148Y-111382109D01*
X116170213Y-111381424D01*
X116191832Y-111379152D01*
X116202993Y-111378528D01*
X116210274Y-111378477D01*
X116210866Y-111378475D01*
X116215813Y-111378475D01*
X116216180Y-111378457D01*
X117209856Y-111378457D01*
X117225995Y-111380046D01*
X117225995Y-111380046D01*
G37*
G36*
X61658804Y-109754760D02*
G01*
X61658804Y-109754761D01*
X61658805Y-109754761D01*
X61614579Y-110855873D01*
X59514272Y-110771516D01*
X59514272Y-110771515D01*
X59514271Y-110771515D01*
X59558497Y-109670403D01*
X61658804Y-109754760D01*
X61658804Y-109754760D01*
G37*
G36*
X55263960Y-109497916D02*
G01*
X55263960Y-109497917D01*
X55263961Y-109497917D01*
X55219735Y-110599029D01*
X53119428Y-110514672D01*
X53119428Y-110514671D01*
X53119427Y-110514671D01*
X53163653Y-109413559D01*
X55263960Y-109497916D01*
X55263960Y-109497916D01*
G37*
G36*
X117225995Y-106380046D02*
G01*
X117235604Y-106382961D01*
X117244468Y-106387699D01*
X117252233Y-106394072D01*
X117258606Y-106401837D01*
X117263344Y-106410701D01*
X117266259Y-106420310D01*
X117267848Y-106436449D01*
X117267848Y-107011983D01*
X117270250Y-107036369D01*
X117277363Y-107059818D01*
X117288914Y-107081429D01*
X117304459Y-107100371D01*
X117323401Y-107115916D01*
X117345012Y-107127467D01*
X117368461Y-107134580D01*
X117441281Y-107149065D01*
X117462714Y-107155566D01*
X117589367Y-107208028D01*
X117609117Y-107218586D01*
X117723102Y-107294748D01*
X117740411Y-107308952D01*
X117837353Y-107405894D01*
X117851557Y-107423203D01*
X117927719Y-107537188D01*
X117938277Y-107556938D01*
X117990739Y-107683591D01*
X117997240Y-107705024D01*
X118023985Y-107839480D01*
X118026179Y-107861760D01*
X118026179Y-107998858D01*
X118023985Y-108021138D01*
X117997240Y-108155594D01*
X117990739Y-108177027D01*
X117938277Y-108303680D01*
X117927719Y-108323430D01*
X117851557Y-108437415D01*
X117837353Y-108454724D01*
X117740411Y-108551666D01*
X117723102Y-108565870D01*
X117609117Y-108642032D01*
X117589367Y-108652590D01*
X117462714Y-108705052D01*
X117441281Y-108711553D01*
X117368461Y-108726038D01*
X117345012Y-108733151D01*
X117323401Y-108744702D01*
X117304459Y-108760248D01*
X117288914Y-108779189D01*
X117277363Y-108800800D01*
X117270250Y-108824249D01*
X117267848Y-108848635D01*
X117267848Y-109424169D01*
X117266259Y-109440308D01*
X117263344Y-109449917D01*
X117258606Y-109458781D01*
X117252233Y-109466546D01*
X117244468Y-109472919D01*
X117235604Y-109477657D01*
X117225995Y-109480572D01*
X117209856Y-109482161D01*
X116222136Y-109482161D01*
X116193746Y-109479365D01*
X116193637Y-109480471D01*
X116180894Y-109478581D01*
X116145866Y-109478581D01*
X116134694Y-109478035D01*
X115992081Y-109464051D01*
X115992032Y-109464547D01*
X115991665Y-109464482D01*
X115991714Y-109464013D01*
X115984563Y-109463262D01*
X115972732Y-109461388D01*
X115910637Y-109448190D01*
X115908928Y-109447840D01*
X115846475Y-109435474D01*
X115835644Y-109432774D01*
X115698560Y-109391387D01*
X115697979Y-109391209D01*
X115691209Y-109389113D01*
X115679975Y-109384980D01*
X115621614Y-109359967D01*
X115620007Y-109359291D01*
X115561155Y-109335034D01*
X115551043Y-109330275D01*
X115424873Y-109263189D01*
X115423893Y-109262664D01*
X115417844Y-109259393D01*
X115407647Y-109253169D01*
X115355258Y-109217297D01*
X115353810Y-109216320D01*
X115300765Y-109181077D01*
X115291801Y-109174469D01*
X115180869Y-109083994D01*
X115180355Y-109083571D01*
X115174894Y-109079054D01*
X115166086Y-109070955D01*
X115121700Y-109025629D01*
X115120470Y-109024390D01*
X115075277Y-108979512D01*
X115067731Y-108971247D01*
X114976483Y-108860947D01*
X114975993Y-108860351D01*
X114971602Y-108854966D01*
X114964528Y-108845301D01*
X114929763Y-108792176D01*
X114928798Y-108790723D01*
X114893203Y-108737950D01*
X114887413Y-108728391D01*
X114819416Y-108602632D01*
X114818892Y-108601654D01*
X114815704Y-108595658D01*
X114810643Y-108584804D01*
X114786853Y-108525921D01*
X114786187Y-108524305D01*
X114761521Y-108465628D01*
X114757704Y-108455141D01*
X114715379Y-108318411D01*
X114715142Y-108317635D01*
X114713135Y-108310990D01*
X114710282Y-108299373D01*
X114698372Y-108236937D01*
X114698033Y-108235222D01*
X114685244Y-108172925D01*
X114683536Y-108161894D01*
X114668555Y-108019365D01*
X114668495Y-108018775D01*
X114667816Y-108011843D01*
X114667273Y-107999893D01*
X114667715Y-107936382D01*
X114667715Y-107934641D01*
X114667271Y-107870981D01*
X114667739Y-107859821D01*
X114680693Y-107717493D01*
X114680809Y-107716262D01*
X114681466Y-107709569D01*
X114683254Y-107697747D01*
X114696021Y-107635548D01*
X114696360Y-107633837D01*
X114708289Y-107571302D01*
X114710916Y-107560443D01*
X114749206Y-107430345D01*
X114751503Y-107424683D01*
X114751960Y-107423132D01*
X114752089Y-107423170D01*
X114752192Y-107422823D01*
X114752064Y-107422784D01*
X114752601Y-107421004D01*
X114753682Y-107415391D01*
X114757611Y-107404476D01*
X114782243Y-107345878D01*
X114782906Y-107344268D01*
X114806736Y-107285291D01*
X114811427Y-107275138D01*
X114877596Y-107148568D01*
X114878167Y-107147486D01*
X114881364Y-107141473D01*
X114887533Y-107131205D01*
X114923050Y-107078549D01*
X114924016Y-107077094D01*
X114958855Y-107023853D01*
X114965420Y-107014817D01*
X115055100Y-106903275D01*
X115055568Y-106902697D01*
X115059999Y-106897264D01*
X115068042Y-106888396D01*
X115113055Y-106843695D01*
X115114284Y-106842457D01*
X115158859Y-106796938D01*
X115167062Y-106789343D01*
X115276640Y-106697397D01*
X115277314Y-106696835D01*
X115282686Y-106692391D01*
X115292289Y-106685259D01*
X115345234Y-106650082D01*
X115346680Y-106649107D01*
X115399141Y-106613186D01*
X115408658Y-106607331D01*
X115534152Y-106538340D01*
X115534636Y-106538076D01*
X115540899Y-106534690D01*
X115551700Y-106529561D01*
X115610410Y-106505362D01*
X115612018Y-106504686D01*
X115670526Y-106479609D01*
X115680995Y-106475716D01*
X115817607Y-106432380D01*
X115818023Y-106432250D01*
X115824828Y-106430143D01*
X115836437Y-106427205D01*
X115898719Y-106414873D01*
X115900429Y-106414522D01*
X115962692Y-106401288D01*
X115973710Y-106399503D01*
X116115910Y-106383553D01*
X116116702Y-106383467D01*
X116123657Y-106382736D01*
X116135616Y-106382109D01*
X116157148Y-106382109D01*
X116170213Y-106381424D01*
X116191832Y-106379152D01*
X116202993Y-106378528D01*
X116210274Y-106378477D01*
X116210866Y-106378475D01*
X116215813Y-106378475D01*
X116216180Y-106378457D01*
X117209856Y-106378457D01*
X117225995Y-106380046D01*
X117225995Y-106380046D01*
G37*
G36*
X61827358Y-105558144D02*
G01*
X61827358Y-105558145D01*
X61827359Y-105558145D01*
X61783133Y-106659257D01*
X59682826Y-106574900D01*
X59682826Y-106574899D01*
X59682825Y-106574899D01*
X59727051Y-105473787D01*
X61827358Y-105558144D01*
X61827358Y-105558144D01*
G37*
G36*
X55432514Y-105301300D02*
G01*
X55432514Y-105301301D01*
X55432515Y-105301301D01*
X55388289Y-106402413D01*
X53287982Y-106318056D01*
X53287982Y-106318055D01*
X53287981Y-106318055D01*
X53332207Y-105216943D01*
X55432514Y-105301300D01*
X55432514Y-105301300D01*
G37*
G36*
X117225995Y-101380046D02*
G01*
X117235604Y-101382961D01*
X117244468Y-101387699D01*
X117252233Y-101394072D01*
X117258606Y-101401837D01*
X117263344Y-101410701D01*
X117266259Y-101420310D01*
X117267848Y-101436449D01*
X117267848Y-102011983D01*
X117270250Y-102036369D01*
X117277363Y-102059818D01*
X117288914Y-102081429D01*
X117304459Y-102100371D01*
X117323401Y-102115916D01*
X117345012Y-102127467D01*
X117368461Y-102134580D01*
X117441281Y-102149065D01*
X117462714Y-102155566D01*
X117589367Y-102208028D01*
X117609117Y-102218586D01*
X117723102Y-102294748D01*
X117740411Y-102308952D01*
X117837353Y-102405894D01*
X117851557Y-102423203D01*
X117927719Y-102537188D01*
X117938277Y-102556938D01*
X117990739Y-102683591D01*
X117997240Y-102705024D01*
X118023985Y-102839480D01*
X118026179Y-102861760D01*
X118026179Y-102998858D01*
X118023985Y-103021138D01*
X117997240Y-103155594D01*
X117990739Y-103177027D01*
X117938277Y-103303680D01*
X117927719Y-103323430D01*
X117851557Y-103437415D01*
X117837353Y-103454724D01*
X117740411Y-103551666D01*
X117723102Y-103565870D01*
X117609117Y-103642032D01*
X117589367Y-103652590D01*
X117462714Y-103705052D01*
X117441281Y-103711553D01*
X117368461Y-103726038D01*
X117345012Y-103733151D01*
X117323401Y-103744702D01*
X117304459Y-103760248D01*
X117288914Y-103779189D01*
X117277363Y-103800800D01*
X117270250Y-103824249D01*
X117267848Y-103848635D01*
X117267848Y-104424169D01*
X117266259Y-104440308D01*
X117263344Y-104449917D01*
X117258606Y-104458781D01*
X117252233Y-104466546D01*
X117244468Y-104472919D01*
X117235604Y-104477657D01*
X117225995Y-104480572D01*
X117209856Y-104482161D01*
X116222136Y-104482161D01*
X116193746Y-104479365D01*
X116193637Y-104480471D01*
X116180894Y-104478581D01*
X116145866Y-104478581D01*
X116134694Y-104478035D01*
X115992081Y-104464051D01*
X115992032Y-104464547D01*
X115991665Y-104464482D01*
X115991714Y-104464013D01*
X115984563Y-104463262D01*
X115972732Y-104461388D01*
X115910637Y-104448190D01*
X115908928Y-104447840D01*
X115846475Y-104435474D01*
X115835644Y-104432774D01*
X115698560Y-104391387D01*
X115697979Y-104391209D01*
X115691209Y-104389113D01*
X115679975Y-104384980D01*
X115621614Y-104359967D01*
X115620007Y-104359291D01*
X115561155Y-104335034D01*
X115551043Y-104330275D01*
X115424873Y-104263189D01*
X115423893Y-104262664D01*
X115417844Y-104259393D01*
X115407647Y-104253169D01*
X115355258Y-104217297D01*
X115353810Y-104216320D01*
X115300765Y-104181077D01*
X115291801Y-104174469D01*
X115180869Y-104083994D01*
X115180355Y-104083571D01*
X115174894Y-104079054D01*
X115166086Y-104070955D01*
X115121700Y-104025629D01*
X115120470Y-104024390D01*
X115075277Y-103979512D01*
X115067731Y-103971247D01*
X114976483Y-103860947D01*
X114975993Y-103860351D01*
X114971602Y-103854966D01*
X114964528Y-103845301D01*
X114929763Y-103792176D01*
X114928798Y-103790723D01*
X114893203Y-103737950D01*
X114887413Y-103728391D01*
X114819416Y-103602632D01*
X114818892Y-103601654D01*
X114815704Y-103595658D01*
X114810643Y-103584804D01*
X114786853Y-103525921D01*
X114786187Y-103524305D01*
X114761521Y-103465628D01*
X114757704Y-103455141D01*
X114715379Y-103318411D01*
X114715142Y-103317635D01*
X114713135Y-103310990D01*
X114710282Y-103299373D01*
X114698372Y-103236937D01*
X114698033Y-103235222D01*
X114685244Y-103172925D01*
X114683536Y-103161894D01*
X114668555Y-103019365D01*
X114668495Y-103018775D01*
X114667816Y-103011843D01*
X114667273Y-102999893D01*
X114667715Y-102936382D01*
X114667715Y-102934641D01*
X114667271Y-102870981D01*
X114667739Y-102859821D01*
X114680693Y-102717493D01*
X114680809Y-102716262D01*
X114681466Y-102709569D01*
X114683254Y-102697747D01*
X114696021Y-102635548D01*
X114696360Y-102633837D01*
X114708289Y-102571302D01*
X114710916Y-102560443D01*
X114749206Y-102430345D01*
X114751503Y-102424683D01*
X114751960Y-102423132D01*
X114752089Y-102423170D01*
X114752192Y-102422823D01*
X114752064Y-102422784D01*
X114752601Y-102421004D01*
X114753682Y-102415391D01*
X114757611Y-102404476D01*
X114782243Y-102345878D01*
X114782906Y-102344268D01*
X114806736Y-102285291D01*
X114811427Y-102275138D01*
X114877596Y-102148568D01*
X114878167Y-102147486D01*
X114881364Y-102141473D01*
X114887533Y-102131205D01*
X114923050Y-102078549D01*
X114924016Y-102077094D01*
X114958855Y-102023853D01*
X114965420Y-102014817D01*
X115055100Y-101903275D01*
X115055568Y-101902697D01*
X115059999Y-101897264D01*
X115068042Y-101888396D01*
X115113055Y-101843695D01*
X115114284Y-101842457D01*
X115158859Y-101796938D01*
X115167062Y-101789343D01*
X115276640Y-101697397D01*
X115277314Y-101696835D01*
X115282686Y-101692391D01*
X115292289Y-101685259D01*
X115345234Y-101650082D01*
X115346680Y-101649107D01*
X115399141Y-101613186D01*
X115408658Y-101607331D01*
X115534152Y-101538340D01*
X115534636Y-101538076D01*
X115540899Y-101534690D01*
X115551700Y-101529561D01*
X115610410Y-101505362D01*
X115612018Y-101504686D01*
X115670526Y-101479609D01*
X115680995Y-101475716D01*
X115817607Y-101432380D01*
X115818023Y-101432250D01*
X115824828Y-101430143D01*
X115836437Y-101427205D01*
X115898719Y-101414873D01*
X115900429Y-101414522D01*
X115962692Y-101401288D01*
X115973710Y-101399503D01*
X116115910Y-101383553D01*
X116116702Y-101383467D01*
X116123657Y-101382736D01*
X116135616Y-101382109D01*
X116157148Y-101382109D01*
X116170213Y-101381424D01*
X116191832Y-101379152D01*
X116202993Y-101378528D01*
X116210274Y-101378477D01*
X116210866Y-101378475D01*
X116215813Y-101378475D01*
X116216180Y-101378457D01*
X117209856Y-101378457D01*
X117225995Y-101380046D01*
X117225995Y-101380046D01*
G37*
G36*
X85243910Y-102128070D02*
G01*
X85278933Y-102138328D01*
X85311277Y-102155218D01*
X85339708Y-102178098D01*
X85363126Y-102206082D01*
X85380638Y-102238100D01*
X85393415Y-102278810D01*
X85408750Y-102352216D01*
X85408751Y-102352218D01*
X85431292Y-102460117D01*
X85693247Y-103714020D01*
X85697837Y-103756442D01*
X85694608Y-103792790D01*
X85684350Y-103827813D01*
X85667460Y-103860157D01*
X85644581Y-103888586D01*
X85616592Y-103912009D01*
X85584580Y-103929518D01*
X85543871Y-103942294D01*
X84426789Y-104175665D01*
X84384368Y-104180255D01*
X84348020Y-104177026D01*
X84312997Y-104166768D01*
X84280653Y-104149878D01*
X84252222Y-104126998D01*
X84228804Y-104099014D01*
X84211292Y-104066996D01*
X84198515Y-104026286D01*
X83898683Y-102591076D01*
X83894093Y-102548654D01*
X83897322Y-102512306D01*
X83907580Y-102477283D01*
X83924470Y-102444939D01*
X83947349Y-102416510D01*
X83975338Y-102393087D01*
X84007350Y-102375578D01*
X84048059Y-102362802D01*
X85165141Y-102129431D01*
X85207562Y-102124841D01*
X85243910Y-102128070D01*
X85243910Y-102128070D01*
G37*
G36*
X100786117Y-101946588D02*
G01*
X100819920Y-101960332D01*
X100850393Y-101980406D01*
X100876367Y-102006042D01*
X100896839Y-102036250D01*
X100911024Y-102069872D01*
X100919621Y-102111662D01*
X101072882Y-103569837D01*
X101073161Y-103612497D01*
X101066277Y-103648332D01*
X101052532Y-103682141D01*
X101032460Y-103712609D01*
X101006823Y-103738584D01*
X100976615Y-103759056D01*
X100942993Y-103773241D01*
X100901203Y-103781838D01*
X99766248Y-103901127D01*
X99723588Y-103901406D01*
X99687751Y-103894522D01*
X99653948Y-103880778D01*
X99623475Y-103860704D01*
X99597501Y-103835068D01*
X99577029Y-103804860D01*
X99562844Y-103771238D01*
X99554247Y-103729448D01*
X99400986Y-102271273D01*
X99400707Y-102228613D01*
X99407591Y-102192778D01*
X99421336Y-102158969D01*
X99441408Y-102128501D01*
X99467045Y-102102526D01*
X99497253Y-102082054D01*
X99530875Y-102067869D01*
X99572665Y-102059272D01*
X100707620Y-101939983D01*
X100750280Y-101939704D01*
X100786117Y-101946588D01*
X100786117Y-101946588D01*
G37*
G36*
X103744819Y-101635616D02*
G01*
X103778622Y-101649360D01*
X103809095Y-101669434D01*
X103835069Y-101695070D01*
X103855541Y-101725278D01*
X103869726Y-101758900D01*
X103878323Y-101800690D01*
X104031584Y-103258865D01*
X104031863Y-103301525D01*
X104024979Y-103337360D01*
X104011234Y-103371169D01*
X103991162Y-103401637D01*
X103965525Y-103427612D01*
X103935317Y-103448084D01*
X103901695Y-103462269D01*
X103859905Y-103470866D01*
X102724950Y-103590155D01*
X102682290Y-103590434D01*
X102646453Y-103583550D01*
X102612650Y-103569806D01*
X102582177Y-103549732D01*
X102556203Y-103524096D01*
X102535731Y-103493888D01*
X102521546Y-103460266D01*
X102512949Y-103418476D01*
X102359688Y-101960301D01*
X102359409Y-101917641D01*
X102366293Y-101881806D01*
X102380038Y-101847997D01*
X102400110Y-101817529D01*
X102425747Y-101791554D01*
X102455955Y-101771082D01*
X102489577Y-101756897D01*
X102531367Y-101748300D01*
X103666322Y-101629011D01*
X103708982Y-101628732D01*
X103744819Y-101635616D01*
X103744819Y-101635616D01*
G37*
G36*
X88156040Y-101519694D02*
G01*
X88191063Y-101529952D01*
X88223407Y-101546842D01*
X88251838Y-101569722D01*
X88275256Y-101597706D01*
X88292768Y-101629724D01*
X88305545Y-101670434D01*
X88320880Y-101743840D01*
X88320881Y-101743842D01*
X88341741Y-101843695D01*
X88605377Y-103105644D01*
X88609967Y-103148066D01*
X88606738Y-103184414D01*
X88596480Y-103219437D01*
X88579590Y-103251781D01*
X88556711Y-103280210D01*
X88528722Y-103303633D01*
X88496710Y-103321142D01*
X88456001Y-103333918D01*
X87338919Y-103567289D01*
X87296498Y-103571879D01*
X87260150Y-103568650D01*
X87225127Y-103558392D01*
X87192783Y-103541502D01*
X87164352Y-103518622D01*
X87140934Y-103490638D01*
X87123422Y-103458620D01*
X87110645Y-103417910D01*
X87095182Y-103343891D01*
X87040981Y-103084449D01*
X86810813Y-101982700D01*
X86806223Y-101940278D01*
X86809452Y-101903930D01*
X86819710Y-101868907D01*
X86836600Y-101836563D01*
X86859479Y-101808134D01*
X86887468Y-101784711D01*
X86919480Y-101767202D01*
X86960189Y-101754426D01*
X88077271Y-101521055D01*
X88119692Y-101516465D01*
X88156040Y-101519694D01*
X88156040Y-101519694D01*
G37*
G36*
X51019767Y-99629859D02*
G01*
X51019876Y-99628753D01*
X51032619Y-99630643D01*
X51067647Y-99630643D01*
X51078819Y-99631189D01*
X51221432Y-99645173D01*
X51221481Y-99644677D01*
X51221848Y-99644742D01*
X51221799Y-99645211D01*
X51228950Y-99645962D01*
X51240781Y-99647836D01*
X51302876Y-99661034D01*
X51304585Y-99661384D01*
X51367038Y-99673750D01*
X51377869Y-99676450D01*
X51514953Y-99717837D01*
X51515534Y-99718015D01*
X51522304Y-99720111D01*
X51533538Y-99724244D01*
X51591899Y-99749257D01*
X51593506Y-99749933D01*
X51652358Y-99774190D01*
X51662470Y-99778949D01*
X51788618Y-99846023D01*
X51789620Y-99846560D01*
X51795669Y-99849831D01*
X51805866Y-99856055D01*
X51858255Y-99891927D01*
X51859703Y-99892904D01*
X51912748Y-99928147D01*
X51921712Y-99934755D01*
X52032644Y-100025230D01*
X52033158Y-100025653D01*
X52038619Y-100030170D01*
X52047427Y-100038269D01*
X52091813Y-100083595D01*
X52093043Y-100084834D01*
X52138236Y-100129712D01*
X52145782Y-100137977D01*
X52237030Y-100248277D01*
X52237520Y-100248873D01*
X52241911Y-100254258D01*
X52248985Y-100263923D01*
X52283750Y-100317048D01*
X52284715Y-100318501D01*
X52320310Y-100371274D01*
X52326100Y-100380833D01*
X52394097Y-100506592D01*
X52394621Y-100507570D01*
X52397809Y-100513566D01*
X52402870Y-100524420D01*
X52426660Y-100583303D01*
X52427326Y-100584919D01*
X52451992Y-100643596D01*
X52455809Y-100654083D01*
X52498134Y-100790813D01*
X52498371Y-100791589D01*
X52500378Y-100798234D01*
X52503231Y-100809851D01*
X52515141Y-100872287D01*
X52515480Y-100874002D01*
X52528269Y-100936299D01*
X52529977Y-100947330D01*
X52544958Y-101089859D01*
X52545018Y-101090449D01*
X52545697Y-101097381D01*
X52546240Y-101109331D01*
X52545798Y-101172841D01*
X52545798Y-101174582D01*
X52546242Y-101238243D01*
X52545774Y-101249403D01*
X52532820Y-101391731D01*
X52532711Y-101392888D01*
X52532047Y-101399655D01*
X52530259Y-101411477D01*
X52517492Y-101473676D01*
X52517153Y-101475387D01*
X52505224Y-101537922D01*
X52502597Y-101548781D01*
X52464307Y-101678879D01*
X52462010Y-101684541D01*
X52461553Y-101686092D01*
X52461424Y-101686054D01*
X52461321Y-101686401D01*
X52461449Y-101686440D01*
X52460912Y-101688220D01*
X52459831Y-101693833D01*
X52455902Y-101704748D01*
X52431270Y-101763346D01*
X52430607Y-101764956D01*
X52406777Y-101823933D01*
X52402086Y-101834086D01*
X52335917Y-101960656D01*
X52335368Y-101961697D01*
X52332149Y-101967751D01*
X52325980Y-101978019D01*
X52290463Y-102030675D01*
X52289497Y-102032130D01*
X52254658Y-102085371D01*
X52248093Y-102094407D01*
X52158413Y-102205949D01*
X52157945Y-102206527D01*
X52153514Y-102211960D01*
X52145471Y-102220828D01*
X52100458Y-102265529D01*
X52099229Y-102266767D01*
X52054654Y-102312286D01*
X52046451Y-102319881D01*
X51936873Y-102411827D01*
X51936199Y-102412389D01*
X51930827Y-102416833D01*
X51921224Y-102423965D01*
X51868279Y-102459142D01*
X51866833Y-102460117D01*
X51814372Y-102496038D01*
X51804855Y-102501893D01*
X51679361Y-102570884D01*
X51678877Y-102571148D01*
X51672614Y-102574534D01*
X51661813Y-102579663D01*
X51603103Y-102603862D01*
X51601495Y-102604538D01*
X51542987Y-102629615D01*
X51532518Y-102633508D01*
X51395935Y-102676835D01*
X51395490Y-102676974D01*
X51388685Y-102679081D01*
X51377076Y-102682019D01*
X51314794Y-102694351D01*
X51313084Y-102694702D01*
X51250821Y-102707936D01*
X51239803Y-102709721D01*
X51097603Y-102725671D01*
X51096811Y-102725757D01*
X51089856Y-102726488D01*
X51077897Y-102727115D01*
X51056365Y-102727115D01*
X51043300Y-102727800D01*
X51021681Y-102730072D01*
X51010520Y-102730696D01*
X51003239Y-102730747D01*
X51002647Y-102730749D01*
X50997700Y-102730749D01*
X50997333Y-102730767D01*
X50003657Y-102730767D01*
X49987518Y-102729178D01*
X49977909Y-102726263D01*
X49969045Y-102721525D01*
X49961280Y-102715152D01*
X49954907Y-102707387D01*
X49950169Y-102698523D01*
X49947254Y-102688914D01*
X49945665Y-102672775D01*
X49945665Y-102097241D01*
X49943263Y-102072855D01*
X49936150Y-102049406D01*
X49924599Y-102027795D01*
X49909054Y-102008853D01*
X49890112Y-101993308D01*
X49868501Y-101981757D01*
X49845052Y-101974644D01*
X49772232Y-101960159D01*
X49750799Y-101953658D01*
X49624146Y-101901196D01*
X49604396Y-101890638D01*
X49490411Y-101814476D01*
X49473102Y-101800272D01*
X49376160Y-101703330D01*
X49361956Y-101686021D01*
X49285794Y-101572036D01*
X49275236Y-101552286D01*
X49222774Y-101425633D01*
X49216273Y-101404200D01*
X49189528Y-101269744D01*
X49187334Y-101247464D01*
X49187334Y-101110366D01*
X49189528Y-101088086D01*
X49216273Y-100953630D01*
X49222774Y-100932197D01*
X49275236Y-100805544D01*
X49285794Y-100785794D01*
X49361956Y-100671809D01*
X49376160Y-100654500D01*
X49473102Y-100557558D01*
X49490411Y-100543354D01*
X49604396Y-100467192D01*
X49624146Y-100456634D01*
X49750799Y-100404172D01*
X49772232Y-100397671D01*
X49845052Y-100383186D01*
X49868501Y-100376073D01*
X49890112Y-100364522D01*
X49909054Y-100348976D01*
X49924599Y-100330035D01*
X49936150Y-100308424D01*
X49943263Y-100284975D01*
X49945665Y-100260589D01*
X49945665Y-99685055D01*
X49947254Y-99668916D01*
X49950169Y-99659307D01*
X49954907Y-99650443D01*
X49961280Y-99642678D01*
X49969045Y-99636305D01*
X49977909Y-99631567D01*
X49987518Y-99628652D01*
X50003657Y-99627063D01*
X50991377Y-99627063D01*
X51019767Y-99629859D01*
X51019767Y-99629859D01*
G37*
G36*
X51019767Y-94629859D02*
G01*
X51019876Y-94628753D01*
X51032619Y-94630643D01*
X51067647Y-94630643D01*
X51078819Y-94631189D01*
X51221432Y-94645173D01*
X51221481Y-94644677D01*
X51221848Y-94644742D01*
X51221799Y-94645211D01*
X51228950Y-94645962D01*
X51240781Y-94647836D01*
X51302876Y-94661034D01*
X51304585Y-94661384D01*
X51367038Y-94673750D01*
X51377869Y-94676450D01*
X51514953Y-94717837D01*
X51515534Y-94718015D01*
X51522304Y-94720111D01*
X51533538Y-94724244D01*
X51591899Y-94749257D01*
X51593506Y-94749933D01*
X51652358Y-94774190D01*
X51662470Y-94778949D01*
X51788618Y-94846023D01*
X51789620Y-94846560D01*
X51795669Y-94849831D01*
X51805866Y-94856055D01*
X51858255Y-94891927D01*
X51859703Y-94892904D01*
X51912748Y-94928147D01*
X51921712Y-94934755D01*
X52032644Y-95025230D01*
X52033158Y-95025653D01*
X52038619Y-95030170D01*
X52047427Y-95038269D01*
X52091813Y-95083595D01*
X52093043Y-95084834D01*
X52138236Y-95129712D01*
X52145782Y-95137977D01*
X52237030Y-95248277D01*
X52237520Y-95248873D01*
X52241911Y-95254258D01*
X52248985Y-95263923D01*
X52283750Y-95317048D01*
X52284715Y-95318501D01*
X52320310Y-95371274D01*
X52326100Y-95380833D01*
X52394097Y-95506592D01*
X52394621Y-95507570D01*
X52397809Y-95513566D01*
X52402870Y-95524420D01*
X52426660Y-95583303D01*
X52427326Y-95584919D01*
X52451992Y-95643596D01*
X52455809Y-95654083D01*
X52498134Y-95790813D01*
X52498371Y-95791589D01*
X52500378Y-95798234D01*
X52503231Y-95809851D01*
X52515141Y-95872287D01*
X52515480Y-95874002D01*
X52528269Y-95936299D01*
X52529977Y-95947330D01*
X52544958Y-96089859D01*
X52545018Y-96090449D01*
X52545697Y-96097381D01*
X52546240Y-96109331D01*
X52545798Y-96172841D01*
X52545798Y-96174582D01*
X52546242Y-96238243D01*
X52545774Y-96249403D01*
X52532820Y-96391731D01*
X52532711Y-96392888D01*
X52532047Y-96399655D01*
X52530259Y-96411477D01*
X52517492Y-96473676D01*
X52517153Y-96475387D01*
X52505224Y-96537922D01*
X52502597Y-96548781D01*
X52464307Y-96678879D01*
X52462010Y-96684541D01*
X52461553Y-96686092D01*
X52461424Y-96686054D01*
X52461321Y-96686401D01*
X52461449Y-96686440D01*
X52460912Y-96688220D01*
X52459831Y-96693833D01*
X52455902Y-96704748D01*
X52431270Y-96763346D01*
X52430607Y-96764956D01*
X52406777Y-96823933D01*
X52402086Y-96834086D01*
X52335917Y-96960656D01*
X52335368Y-96961697D01*
X52332149Y-96967751D01*
X52325980Y-96978019D01*
X52290463Y-97030675D01*
X52289497Y-97032130D01*
X52254658Y-97085371D01*
X52248093Y-97094407D01*
X52158413Y-97205949D01*
X52157945Y-97206527D01*
X52153514Y-97211960D01*
X52145471Y-97220828D01*
X52100458Y-97265529D01*
X52099229Y-97266767D01*
X52054654Y-97312286D01*
X52046451Y-97319881D01*
X51936873Y-97411827D01*
X51936199Y-97412389D01*
X51930827Y-97416833D01*
X51921224Y-97423965D01*
X51868279Y-97459142D01*
X51866833Y-97460117D01*
X51814372Y-97496038D01*
X51804855Y-97501893D01*
X51679361Y-97570884D01*
X51678877Y-97571148D01*
X51672614Y-97574534D01*
X51661813Y-97579663D01*
X51603103Y-97603862D01*
X51601495Y-97604538D01*
X51542987Y-97629615D01*
X51532518Y-97633508D01*
X51395935Y-97676835D01*
X51395490Y-97676974D01*
X51388685Y-97679081D01*
X51377076Y-97682019D01*
X51314794Y-97694351D01*
X51313084Y-97694702D01*
X51250821Y-97707936D01*
X51239803Y-97709721D01*
X51097603Y-97725671D01*
X51096811Y-97725757D01*
X51089856Y-97726488D01*
X51077897Y-97727115D01*
X51056365Y-97727115D01*
X51043300Y-97727800D01*
X51021681Y-97730072D01*
X51010520Y-97730696D01*
X51003239Y-97730747D01*
X51002647Y-97730749D01*
X50997700Y-97730749D01*
X50997333Y-97730767D01*
X50003657Y-97730767D01*
X49987518Y-97729178D01*
X49977909Y-97726263D01*
X49969045Y-97721525D01*
X49961280Y-97715152D01*
X49954907Y-97707387D01*
X49950169Y-97698523D01*
X49947254Y-97688914D01*
X49945665Y-97672775D01*
X49945665Y-97097241D01*
X49943263Y-97072855D01*
X49936150Y-97049406D01*
X49924599Y-97027795D01*
X49909054Y-97008853D01*
X49890112Y-96993308D01*
X49868501Y-96981757D01*
X49845052Y-96974644D01*
X49772232Y-96960159D01*
X49750799Y-96953658D01*
X49624146Y-96901196D01*
X49604396Y-96890638D01*
X49490411Y-96814476D01*
X49473102Y-96800272D01*
X49376160Y-96703330D01*
X49361956Y-96686021D01*
X49285794Y-96572036D01*
X49275236Y-96552286D01*
X49222774Y-96425633D01*
X49216273Y-96404200D01*
X49189528Y-96269744D01*
X49187334Y-96247464D01*
X49187334Y-96110366D01*
X49189528Y-96088086D01*
X49216273Y-95953630D01*
X49222774Y-95932197D01*
X49275236Y-95805544D01*
X49285794Y-95785794D01*
X49361956Y-95671809D01*
X49376160Y-95654500D01*
X49473102Y-95557558D01*
X49490411Y-95543354D01*
X49604396Y-95467192D01*
X49624146Y-95456634D01*
X49750799Y-95404172D01*
X49772232Y-95397671D01*
X49845052Y-95383186D01*
X49868501Y-95376073D01*
X49890112Y-95364522D01*
X49909054Y-95348976D01*
X49924599Y-95330035D01*
X49936150Y-95308424D01*
X49943263Y-95284975D01*
X49945665Y-95260589D01*
X49945665Y-94685055D01*
X49947254Y-94668916D01*
X49950169Y-94659307D01*
X49954907Y-94650443D01*
X49961280Y-94642678D01*
X49969045Y-94636305D01*
X49977909Y-94631567D01*
X49987518Y-94628652D01*
X50003657Y-94627063D01*
X50991377Y-94627063D01*
X51019767Y-94629859D01*
X51019767Y-94629859D01*
G37*
G36*
X69041381Y-95962148D02*
G01*
X68945335Y-97059956D01*
X66851333Y-96876754D01*
X66947379Y-95778946D01*
X69041381Y-95962148D01*
X69041381Y-95962148D01*
G37*
G36*
X62665735Y-95404351D02*
G01*
X62569689Y-96502159D01*
X60475687Y-96318957D01*
X60571733Y-95221149D01*
X62665735Y-95404351D01*
X62665735Y-95404351D01*
G37*
G36*
X69407435Y-91778131D02*
G01*
X69311389Y-92875939D01*
X67217387Y-92692737D01*
X67313433Y-91594929D01*
X69407435Y-91778131D01*
X69407435Y-91778131D01*
G37*
G36*
X51019767Y-89629859D02*
G01*
X51019876Y-89628753D01*
X51032619Y-89630643D01*
X51067647Y-89630643D01*
X51078819Y-89631189D01*
X51221432Y-89645173D01*
X51221481Y-89644677D01*
X51221848Y-89644742D01*
X51221799Y-89645211D01*
X51228950Y-89645962D01*
X51240781Y-89647836D01*
X51302876Y-89661034D01*
X51304585Y-89661384D01*
X51367038Y-89673750D01*
X51377869Y-89676450D01*
X51514953Y-89717837D01*
X51515534Y-89718015D01*
X51522304Y-89720111D01*
X51533538Y-89724244D01*
X51591899Y-89749257D01*
X51593506Y-89749933D01*
X51652358Y-89774190D01*
X51662470Y-89778949D01*
X51788618Y-89846023D01*
X51789620Y-89846560D01*
X51795669Y-89849831D01*
X51805866Y-89856055D01*
X51858255Y-89891927D01*
X51859703Y-89892904D01*
X51912748Y-89928147D01*
X51921712Y-89934755D01*
X52032644Y-90025230D01*
X52033158Y-90025653D01*
X52038619Y-90030170D01*
X52047427Y-90038269D01*
X52091813Y-90083595D01*
X52093043Y-90084834D01*
X52138236Y-90129712D01*
X52145782Y-90137977D01*
X52237030Y-90248277D01*
X52237520Y-90248873D01*
X52241911Y-90254258D01*
X52248985Y-90263923D01*
X52283750Y-90317048D01*
X52284715Y-90318501D01*
X52320310Y-90371274D01*
X52326100Y-90380833D01*
X52394097Y-90506592D01*
X52394621Y-90507570D01*
X52397809Y-90513566D01*
X52402870Y-90524420D01*
X52426660Y-90583303D01*
X52427326Y-90584919D01*
X52451992Y-90643596D01*
X52455809Y-90654083D01*
X52498134Y-90790813D01*
X52498371Y-90791589D01*
X52500378Y-90798234D01*
X52503231Y-90809851D01*
X52515141Y-90872287D01*
X52515480Y-90874002D01*
X52528269Y-90936299D01*
X52529977Y-90947330D01*
X52544958Y-91089859D01*
X52545018Y-91090449D01*
X52545697Y-91097381D01*
X52546240Y-91109331D01*
X52545798Y-91172841D01*
X52545798Y-91174582D01*
X52546242Y-91238243D01*
X52545774Y-91249403D01*
X52532820Y-91391731D01*
X52532711Y-91392888D01*
X52532047Y-91399655D01*
X52530259Y-91411477D01*
X52517492Y-91473676D01*
X52517153Y-91475387D01*
X52505224Y-91537922D01*
X52502597Y-91548781D01*
X52464307Y-91678879D01*
X52462010Y-91684541D01*
X52461553Y-91686092D01*
X52461424Y-91686054D01*
X52461321Y-91686401D01*
X52461449Y-91686440D01*
X52460912Y-91688220D01*
X52459831Y-91693833D01*
X52455902Y-91704748D01*
X52431270Y-91763346D01*
X52430607Y-91764956D01*
X52406777Y-91823933D01*
X52402086Y-91834086D01*
X52335917Y-91960656D01*
X52335368Y-91961697D01*
X52332149Y-91967751D01*
X52325980Y-91978019D01*
X52290463Y-92030675D01*
X52289497Y-92032130D01*
X52254658Y-92085371D01*
X52248093Y-92094407D01*
X52158413Y-92205949D01*
X52157945Y-92206527D01*
X52153514Y-92211960D01*
X52145471Y-92220828D01*
X52100458Y-92265529D01*
X52099229Y-92266767D01*
X52054654Y-92312286D01*
X52046451Y-92319881D01*
X51936873Y-92411827D01*
X51936199Y-92412389D01*
X51930827Y-92416833D01*
X51921224Y-92423965D01*
X51868279Y-92459142D01*
X51866833Y-92460117D01*
X51814372Y-92496038D01*
X51804855Y-92501893D01*
X51679361Y-92570884D01*
X51678877Y-92571148D01*
X51672614Y-92574534D01*
X51661813Y-92579663D01*
X51603103Y-92603862D01*
X51601495Y-92604538D01*
X51542987Y-92629615D01*
X51532518Y-92633508D01*
X51395935Y-92676835D01*
X51395490Y-92676974D01*
X51388685Y-92679081D01*
X51377076Y-92682019D01*
X51314794Y-92694351D01*
X51313084Y-92694702D01*
X51250821Y-92707936D01*
X51239803Y-92709721D01*
X51097603Y-92725671D01*
X51096811Y-92725757D01*
X51089856Y-92726488D01*
X51077897Y-92727115D01*
X51056365Y-92727115D01*
X51043300Y-92727800D01*
X51021681Y-92730072D01*
X51010520Y-92730696D01*
X51003239Y-92730747D01*
X51002647Y-92730749D01*
X50997700Y-92730749D01*
X50997333Y-92730767D01*
X50003657Y-92730767D01*
X49987518Y-92729178D01*
X49977909Y-92726263D01*
X49969045Y-92721525D01*
X49961280Y-92715152D01*
X49954907Y-92707387D01*
X49950169Y-92698523D01*
X49947254Y-92688914D01*
X49945665Y-92672775D01*
X49945665Y-92097241D01*
X49943263Y-92072855D01*
X49936150Y-92049406D01*
X49924599Y-92027795D01*
X49909054Y-92008853D01*
X49890112Y-91993308D01*
X49868501Y-91981757D01*
X49845052Y-91974644D01*
X49772232Y-91960159D01*
X49750799Y-91953658D01*
X49624146Y-91901196D01*
X49604396Y-91890638D01*
X49490411Y-91814476D01*
X49473102Y-91800272D01*
X49376160Y-91703330D01*
X49361956Y-91686021D01*
X49285794Y-91572036D01*
X49275236Y-91552286D01*
X49222774Y-91425633D01*
X49216273Y-91404200D01*
X49189528Y-91269744D01*
X49187334Y-91247464D01*
X49187334Y-91110366D01*
X49189528Y-91088086D01*
X49216273Y-90953630D01*
X49222774Y-90932197D01*
X49275236Y-90805544D01*
X49285794Y-90785794D01*
X49361956Y-90671809D01*
X49376160Y-90654500D01*
X49473102Y-90557558D01*
X49490411Y-90543354D01*
X49604396Y-90467192D01*
X49624146Y-90456634D01*
X49750799Y-90404172D01*
X49772232Y-90397671D01*
X49845052Y-90383186D01*
X49868501Y-90376073D01*
X49890112Y-90364522D01*
X49909054Y-90348976D01*
X49924599Y-90330035D01*
X49936150Y-90308424D01*
X49943263Y-90284975D01*
X49945665Y-90260589D01*
X49945665Y-89685055D01*
X49947254Y-89668916D01*
X49950169Y-89659307D01*
X49954907Y-89650443D01*
X49961280Y-89642678D01*
X49969045Y-89636305D01*
X49977909Y-89631567D01*
X49987518Y-89628652D01*
X50003657Y-89627063D01*
X50991377Y-89627063D01*
X51019767Y-89629859D01*
X51019767Y-89629859D01*
G37*
G36*
X63031789Y-91220334D02*
G01*
X62935743Y-92318142D01*
X60841741Y-92134940D01*
X60937787Y-91037132D01*
X63031789Y-91220334D01*
X63031789Y-91220334D01*
G37*
G36*
X93095703Y-88017825D02*
G01*
X93129989Y-88030321D01*
X93161177Y-88049265D01*
X93188075Y-88073933D01*
X93209637Y-88103367D01*
X93225045Y-88136449D01*
X93235167Y-88177892D01*
X93441758Y-89629478D01*
X93443600Y-89672094D01*
X93438033Y-89708160D01*
X93425537Y-89742446D01*
X93406593Y-89773634D01*
X93381925Y-89800532D01*
X93352491Y-89822094D01*
X93319410Y-89837502D01*
X93277964Y-89847625D01*
X92148138Y-90008422D01*
X92105521Y-90010264D01*
X92069455Y-90004697D01*
X92035169Y-89992201D01*
X92003981Y-89973257D01*
X91977083Y-89948589D01*
X91955521Y-89919155D01*
X91940113Y-89886073D01*
X91929991Y-89844630D01*
X91723400Y-88393044D01*
X91721558Y-88350428D01*
X91727125Y-88314362D01*
X91739621Y-88280076D01*
X91758565Y-88248888D01*
X91783233Y-88221990D01*
X91812667Y-88200428D01*
X91845748Y-88185020D01*
X91887194Y-88174897D01*
X93017020Y-88014100D01*
X93059637Y-88012258D01*
X93095703Y-88017825D01*
X93095703Y-88017825D01*
G37*
G36*
X108566365Y-87874918D02*
G01*
X108601743Y-87883853D01*
X108634704Y-87899522D01*
X108663973Y-87921318D01*
X108688423Y-87948401D01*
X108707125Y-87979744D01*
X108719349Y-88014120D01*
X108725528Y-88056341D01*
X108794595Y-89520915D01*
X108792417Y-89563523D01*
X108783482Y-89598901D01*
X108767813Y-89631862D01*
X108746017Y-89661131D01*
X108718934Y-89685581D01*
X108687591Y-89704283D01*
X108653215Y-89716507D01*
X108610994Y-89722686D01*
X107471059Y-89776444D01*
X107428451Y-89774266D01*
X107393073Y-89765331D01*
X107360112Y-89749662D01*
X107330843Y-89727866D01*
X107306393Y-89700783D01*
X107287691Y-89669440D01*
X107275467Y-89635064D01*
X107269288Y-89592843D01*
X107200221Y-88128269D01*
X107202399Y-88085661D01*
X107211334Y-88050283D01*
X107227003Y-88017322D01*
X107248799Y-87988053D01*
X107275882Y-87963603D01*
X107307225Y-87944901D01*
X107341601Y-87932677D01*
X107383822Y-87926498D01*
X108523757Y-87872740D01*
X108566365Y-87874918D01*
X108566365Y-87874918D01*
G37*
G36*
X111538063Y-87734776D02*
G01*
X111573441Y-87743711D01*
X111606402Y-87759380D01*
X111635671Y-87781176D01*
X111660121Y-87808259D01*
X111678823Y-87839602D01*
X111691047Y-87873978D01*
X111697226Y-87916199D01*
X111766293Y-89380773D01*
X111764115Y-89423381D01*
X111755180Y-89458759D01*
X111739511Y-89491720D01*
X111717715Y-89520989D01*
X111690632Y-89545439D01*
X111659289Y-89564141D01*
X111624913Y-89576365D01*
X111582692Y-89582544D01*
X110442757Y-89636302D01*
X110400149Y-89634124D01*
X110364771Y-89625189D01*
X110331810Y-89609520D01*
X110302541Y-89587724D01*
X110278091Y-89560641D01*
X110259389Y-89529298D01*
X110247165Y-89494922D01*
X110240986Y-89452701D01*
X110171919Y-87988127D01*
X110174097Y-87945519D01*
X110183032Y-87910141D01*
X110198701Y-87877180D01*
X110220497Y-87847911D01*
X110247580Y-87823461D01*
X110278923Y-87804759D01*
X110313299Y-87792535D01*
X110355520Y-87786356D01*
X111495455Y-87732598D01*
X111538063Y-87734776D01*
X111538063Y-87734776D01*
G37*
G36*
X96041023Y-87598643D02*
G01*
X96075309Y-87611139D01*
X96106497Y-87630083D01*
X96133395Y-87654751D01*
X96154957Y-87684185D01*
X96170365Y-87717267D01*
X96180487Y-87758710D01*
X96387078Y-89210296D01*
X96388920Y-89252912D01*
X96383353Y-89288978D01*
X96370857Y-89323264D01*
X96351913Y-89354452D01*
X96327245Y-89381350D01*
X96297811Y-89402912D01*
X96264730Y-89418320D01*
X96223284Y-89428443D01*
X95093458Y-89589240D01*
X95050841Y-89591082D01*
X95014775Y-89585515D01*
X94980489Y-89573019D01*
X94949301Y-89554075D01*
X94922403Y-89529407D01*
X94900841Y-89499973D01*
X94885433Y-89466891D01*
X94875311Y-89425448D01*
X94668720Y-87973862D01*
X94666878Y-87931246D01*
X94672445Y-87895180D01*
X94684941Y-87860894D01*
X94703885Y-87829706D01*
X94728553Y-87802808D01*
X94757987Y-87781246D01*
X94791068Y-87765838D01*
X94832514Y-87755715D01*
X95962340Y-87594918D01*
X96004957Y-87593076D01*
X96041023Y-87598643D01*
X96041023Y-87598643D01*
G37*
G36*
X117225995Y-81380046D02*
G01*
X117235604Y-81382961D01*
X117244468Y-81387699D01*
X117252233Y-81394072D01*
X117258606Y-81401837D01*
X117263344Y-81410701D01*
X117266259Y-81420310D01*
X117267848Y-81436449D01*
X117267848Y-82011983D01*
X117270250Y-82036369D01*
X117277363Y-82059818D01*
X117288914Y-82081429D01*
X117304459Y-82100371D01*
X117323401Y-82115916D01*
X117345012Y-82127467D01*
X117368461Y-82134580D01*
X117441281Y-82149065D01*
X117462714Y-82155566D01*
X117589367Y-82208028D01*
X117609117Y-82218586D01*
X117723102Y-82294748D01*
X117740411Y-82308952D01*
X117837353Y-82405894D01*
X117851557Y-82423203D01*
X117927719Y-82537188D01*
X117938277Y-82556938D01*
X117990739Y-82683591D01*
X117997240Y-82705024D01*
X118023985Y-82839480D01*
X118026179Y-82861760D01*
X118026179Y-82998858D01*
X118023985Y-83021138D01*
X117997240Y-83155594D01*
X117990739Y-83177027D01*
X117938277Y-83303680D01*
X117927719Y-83323430D01*
X117851557Y-83437415D01*
X117837353Y-83454724D01*
X117740411Y-83551666D01*
X117723102Y-83565870D01*
X117609117Y-83642032D01*
X117589367Y-83652590D01*
X117462714Y-83705052D01*
X117441281Y-83711553D01*
X117368461Y-83726038D01*
X117345012Y-83733151D01*
X117323401Y-83744702D01*
X117304459Y-83760248D01*
X117288914Y-83779189D01*
X117277363Y-83800800D01*
X117270250Y-83824249D01*
X117267848Y-83848635D01*
X117267848Y-84424169D01*
X117266259Y-84440308D01*
X117263344Y-84449917D01*
X117258606Y-84458781D01*
X117252233Y-84466546D01*
X117244468Y-84472919D01*
X117235604Y-84477657D01*
X117225995Y-84480572D01*
X117209856Y-84482161D01*
X116222136Y-84482161D01*
X116193746Y-84479365D01*
X116193637Y-84480471D01*
X116180894Y-84478581D01*
X116145866Y-84478581D01*
X116134694Y-84478035D01*
X115992081Y-84464051D01*
X115992032Y-84464547D01*
X115991665Y-84464482D01*
X115991714Y-84464013D01*
X115984563Y-84463262D01*
X115972732Y-84461388D01*
X115910637Y-84448190D01*
X115908928Y-84447840D01*
X115846475Y-84435474D01*
X115835644Y-84432774D01*
X115698560Y-84391387D01*
X115697979Y-84391209D01*
X115691209Y-84389113D01*
X115679975Y-84384980D01*
X115621614Y-84359967D01*
X115620007Y-84359291D01*
X115561155Y-84335034D01*
X115551043Y-84330275D01*
X115424873Y-84263189D01*
X115423893Y-84262664D01*
X115417844Y-84259393D01*
X115407647Y-84253169D01*
X115355258Y-84217297D01*
X115353810Y-84216320D01*
X115300765Y-84181077D01*
X115291801Y-84174469D01*
X115180869Y-84083994D01*
X115180355Y-84083571D01*
X115174894Y-84079054D01*
X115166086Y-84070955D01*
X115121700Y-84025629D01*
X115120470Y-84024390D01*
X115075277Y-83979512D01*
X115067731Y-83971247D01*
X114976483Y-83860947D01*
X114975993Y-83860351D01*
X114971602Y-83854966D01*
X114964528Y-83845301D01*
X114929763Y-83792176D01*
X114928798Y-83790723D01*
X114893203Y-83737950D01*
X114887413Y-83728391D01*
X114819416Y-83602632D01*
X114818892Y-83601654D01*
X114815704Y-83595658D01*
X114810643Y-83584804D01*
X114786853Y-83525921D01*
X114786187Y-83524305D01*
X114761521Y-83465628D01*
X114757704Y-83455141D01*
X114715379Y-83318411D01*
X114715142Y-83317635D01*
X114713135Y-83310990D01*
X114710282Y-83299373D01*
X114698372Y-83236937D01*
X114698033Y-83235222D01*
X114685244Y-83172925D01*
X114683536Y-83161894D01*
X114668555Y-83019365D01*
X114668495Y-83018775D01*
X114667816Y-83011843D01*
X114667273Y-82999893D01*
X114667715Y-82936382D01*
X114667715Y-82934641D01*
X114667271Y-82870981D01*
X114667739Y-82859821D01*
X114680693Y-82717493D01*
X114680809Y-82716262D01*
X114681466Y-82709569D01*
X114683254Y-82697747D01*
X114696021Y-82635548D01*
X114696360Y-82633837D01*
X114708289Y-82571302D01*
X114710916Y-82560443D01*
X114749206Y-82430345D01*
X114751503Y-82424683D01*
X114751960Y-82423132D01*
X114752089Y-82423170D01*
X114752192Y-82422823D01*
X114752064Y-82422784D01*
X114752601Y-82421004D01*
X114753682Y-82415391D01*
X114757611Y-82404476D01*
X114782243Y-82345878D01*
X114782906Y-82344268D01*
X114806736Y-82285291D01*
X114811427Y-82275138D01*
X114877596Y-82148568D01*
X114878167Y-82147486D01*
X114881364Y-82141473D01*
X114887533Y-82131205D01*
X114923050Y-82078549D01*
X114924016Y-82077094D01*
X114958855Y-82023853D01*
X114965420Y-82014817D01*
X115055100Y-81903275D01*
X115055568Y-81902697D01*
X115059999Y-81897264D01*
X115068042Y-81888396D01*
X115113055Y-81843695D01*
X115114284Y-81842457D01*
X115158859Y-81796938D01*
X115167062Y-81789343D01*
X115276640Y-81697397D01*
X115277314Y-81696835D01*
X115282686Y-81692391D01*
X115292289Y-81685259D01*
X115345234Y-81650082D01*
X115346680Y-81649107D01*
X115399141Y-81613186D01*
X115408658Y-81607331D01*
X115534152Y-81538340D01*
X115534636Y-81538076D01*
X115540899Y-81534690D01*
X115551700Y-81529561D01*
X115610410Y-81505362D01*
X115612018Y-81504686D01*
X115670526Y-81479609D01*
X115680995Y-81475716D01*
X115817607Y-81432380D01*
X115818023Y-81432250D01*
X115824828Y-81430143D01*
X115836437Y-81427205D01*
X115898719Y-81414873D01*
X115900429Y-81414522D01*
X115962692Y-81401288D01*
X115973710Y-81399503D01*
X116115910Y-81383553D01*
X116116702Y-81383467D01*
X116123657Y-81382736D01*
X116135616Y-81382109D01*
X116157148Y-81382109D01*
X116170213Y-81381424D01*
X116191832Y-81379152D01*
X116202993Y-81378528D01*
X116210274Y-81378477D01*
X116210866Y-81378475D01*
X116215813Y-81378475D01*
X116216180Y-81378457D01*
X117209856Y-81378457D01*
X117225995Y-81380046D01*
X117225995Y-81380046D01*
G37*
G36*
X76400063Y-82193198D02*
G01*
X76400063Y-82193199D01*
X76400064Y-82193199D01*
X76244791Y-83284204D01*
X76244790Y-83284204D01*
X74163761Y-82988030D01*
X74163761Y-82988029D01*
X74163760Y-82988029D01*
X74319033Y-81897024D01*
X74319034Y-81897024D01*
X76400063Y-82193198D01*
X76400063Y-82193198D01*
G37*
G36*
X61651931Y-81808210D02*
G01*
X61609084Y-82716794D01*
X61600020Y-82908986D01*
X61600020Y-82908987D01*
X59500353Y-82809968D01*
X59552264Y-81709191D01*
X61651931Y-81808210D01*
X61651931Y-81808210D01*
G37*
G36*
X55259036Y-81506729D02*
G01*
X55225827Y-82210939D01*
X55207125Y-82607505D01*
X55207125Y-82607506D01*
X53107458Y-82508487D01*
X53159369Y-81407710D01*
X55259036Y-81506729D01*
X55259036Y-81506729D01*
G37*
G36*
X70063912Y-81291429D02*
G01*
X70063912Y-81291430D01*
X70063913Y-81291430D01*
X69908640Y-82382435D01*
X69908639Y-82382435D01*
X67827610Y-82086261D01*
X67827610Y-82086260D01*
X67827609Y-82086260D01*
X67982882Y-80995255D01*
X67982883Y-80995255D01*
X70063912Y-81291429D01*
X70063912Y-81291429D01*
G37*
G36*
X117225995Y-76380046D02*
G01*
X117235604Y-76382961D01*
X117244468Y-76387699D01*
X117252233Y-76394072D01*
X117258606Y-76401837D01*
X117263344Y-76410701D01*
X117266259Y-76420310D01*
X117267848Y-76436449D01*
X117267848Y-77011983D01*
X117270250Y-77036369D01*
X117277363Y-77059818D01*
X117288914Y-77081429D01*
X117304459Y-77100371D01*
X117323401Y-77115916D01*
X117345012Y-77127467D01*
X117368461Y-77134580D01*
X117441281Y-77149065D01*
X117462714Y-77155566D01*
X117589367Y-77208028D01*
X117609117Y-77218586D01*
X117723102Y-77294748D01*
X117740411Y-77308952D01*
X117837353Y-77405894D01*
X117851557Y-77423203D01*
X117927719Y-77537188D01*
X117938277Y-77556938D01*
X117990739Y-77683591D01*
X117997240Y-77705024D01*
X118023985Y-77839480D01*
X118026179Y-77861760D01*
X118026179Y-77998858D01*
X118023985Y-78021138D01*
X117997240Y-78155594D01*
X117990739Y-78177027D01*
X117938277Y-78303680D01*
X117927719Y-78323430D01*
X117851557Y-78437415D01*
X117837353Y-78454724D01*
X117740411Y-78551666D01*
X117723102Y-78565870D01*
X117609117Y-78642032D01*
X117589367Y-78652590D01*
X117462714Y-78705052D01*
X117441281Y-78711553D01*
X117368461Y-78726038D01*
X117345012Y-78733151D01*
X117323401Y-78744702D01*
X117304459Y-78760248D01*
X117288914Y-78779189D01*
X117277363Y-78800800D01*
X117270250Y-78824249D01*
X117267848Y-78848635D01*
X117267848Y-79424169D01*
X117266259Y-79440308D01*
X117263344Y-79449917D01*
X117258606Y-79458781D01*
X117252233Y-79466546D01*
X117244468Y-79472919D01*
X117235604Y-79477657D01*
X117225995Y-79480572D01*
X117209856Y-79482161D01*
X116222136Y-79482161D01*
X116193746Y-79479365D01*
X116193637Y-79480471D01*
X116180894Y-79478581D01*
X116145866Y-79478581D01*
X116134694Y-79478035D01*
X115992081Y-79464051D01*
X115992032Y-79464547D01*
X115991665Y-79464482D01*
X115991714Y-79464013D01*
X115984563Y-79463262D01*
X115972732Y-79461388D01*
X115910637Y-79448190D01*
X115908928Y-79447840D01*
X115846475Y-79435474D01*
X115835644Y-79432774D01*
X115698560Y-79391387D01*
X115697979Y-79391209D01*
X115691209Y-79389113D01*
X115679975Y-79384980D01*
X115621614Y-79359967D01*
X115620007Y-79359291D01*
X115561155Y-79335034D01*
X115551043Y-79330275D01*
X115424873Y-79263189D01*
X115423893Y-79262664D01*
X115417844Y-79259393D01*
X115407647Y-79253169D01*
X115355258Y-79217297D01*
X115353810Y-79216320D01*
X115300765Y-79181077D01*
X115291801Y-79174469D01*
X115180869Y-79083994D01*
X115180355Y-79083571D01*
X115174894Y-79079054D01*
X115166086Y-79070955D01*
X115121700Y-79025629D01*
X115120470Y-79024390D01*
X115075277Y-78979512D01*
X115067731Y-78971247D01*
X114976483Y-78860947D01*
X114975993Y-78860351D01*
X114971602Y-78854966D01*
X114964528Y-78845301D01*
X114929763Y-78792176D01*
X114928798Y-78790723D01*
X114893203Y-78737950D01*
X114887413Y-78728391D01*
X114819416Y-78602632D01*
X114818892Y-78601654D01*
X114815704Y-78595658D01*
X114810643Y-78584804D01*
X114786853Y-78525921D01*
X114786187Y-78524305D01*
X114761521Y-78465628D01*
X114757704Y-78455141D01*
X114715379Y-78318411D01*
X114715142Y-78317635D01*
X114713135Y-78310990D01*
X114710282Y-78299373D01*
X114698372Y-78236937D01*
X114698033Y-78235222D01*
X114685244Y-78172925D01*
X114683536Y-78161894D01*
X114668555Y-78019365D01*
X114668495Y-78018775D01*
X114667816Y-78011843D01*
X114667273Y-77999893D01*
X114667715Y-77936382D01*
X114667715Y-77934641D01*
X114667271Y-77870981D01*
X114667739Y-77859821D01*
X114680693Y-77717493D01*
X114680809Y-77716262D01*
X114681466Y-77709569D01*
X114683254Y-77697747D01*
X114696021Y-77635548D01*
X114696360Y-77633837D01*
X114708289Y-77571302D01*
X114710916Y-77560443D01*
X114749206Y-77430345D01*
X114751503Y-77424683D01*
X114751960Y-77423132D01*
X114752089Y-77423170D01*
X114752192Y-77422823D01*
X114752064Y-77422784D01*
X114752601Y-77421004D01*
X114753682Y-77415391D01*
X114757611Y-77404476D01*
X114782243Y-77345878D01*
X114782906Y-77344268D01*
X114806736Y-77285291D01*
X114811427Y-77275138D01*
X114877596Y-77148568D01*
X114878167Y-77147486D01*
X114881364Y-77141473D01*
X114887533Y-77131205D01*
X114923050Y-77078549D01*
X114924016Y-77077094D01*
X114958855Y-77023853D01*
X114965420Y-77014817D01*
X115055100Y-76903275D01*
X115055568Y-76902697D01*
X115059999Y-76897264D01*
X115068042Y-76888396D01*
X115113055Y-76843695D01*
X115114284Y-76842457D01*
X115158859Y-76796938D01*
X115167062Y-76789343D01*
X115276640Y-76697397D01*
X115277314Y-76696835D01*
X115282686Y-76692391D01*
X115292289Y-76685259D01*
X115345234Y-76650082D01*
X115346680Y-76649107D01*
X115399141Y-76613186D01*
X115408658Y-76607331D01*
X115534152Y-76538340D01*
X115534636Y-76538076D01*
X115540899Y-76534690D01*
X115551700Y-76529561D01*
X115610410Y-76505362D01*
X115612018Y-76504686D01*
X115670526Y-76479609D01*
X115680995Y-76475716D01*
X115817607Y-76432380D01*
X115818023Y-76432250D01*
X115824828Y-76430143D01*
X115836437Y-76427205D01*
X115898719Y-76414873D01*
X115900429Y-76414522D01*
X115962692Y-76401288D01*
X115973710Y-76399503D01*
X116115910Y-76383553D01*
X116116702Y-76383467D01*
X116123657Y-76382736D01*
X116135616Y-76382109D01*
X116157148Y-76382109D01*
X116170213Y-76381424D01*
X116191832Y-76379152D01*
X116202993Y-76378528D01*
X116210274Y-76378477D01*
X116210866Y-76378475D01*
X116215813Y-76378475D01*
X116216180Y-76378457D01*
X117209856Y-76378457D01*
X117225995Y-76380046D01*
X117225995Y-76380046D01*
G37*
G36*
X76991848Y-78035099D02*
G01*
X76991848Y-78035100D01*
X76991849Y-78035100D01*
X76836576Y-79126105D01*
X76836575Y-79126105D01*
X74755546Y-78829931D01*
X74755546Y-78829930D01*
X74755545Y-78829930D01*
X74910818Y-77738925D01*
X74910819Y-77738925D01*
X76991848Y-78035099D01*
X76991848Y-78035099D01*
G37*
G36*
X61849778Y-77612873D02*
G01*
X61803131Y-78602037D01*
X61797867Y-78713649D01*
X61797867Y-78713650D01*
X59698200Y-78614631D01*
X59750111Y-77513854D01*
X61849778Y-77612873D01*
X61849778Y-77612873D01*
G37*
G36*
X55456883Y-77311392D02*
G01*
X55427492Y-77934641D01*
X55404972Y-78412168D01*
X55404972Y-78412169D01*
X53305305Y-78313150D01*
X53357216Y-77212373D01*
X55456883Y-77311392D01*
X55456883Y-77311392D01*
G37*
G36*
X70655697Y-77133330D02*
G01*
X70655697Y-77133331D01*
X70655698Y-77133331D01*
X70500425Y-78224336D01*
X70500424Y-78224336D01*
X68419395Y-77928162D01*
X68419395Y-77928161D01*
X68419394Y-77928161D01*
X68574667Y-76837156D01*
X68574668Y-76837156D01*
X70655697Y-77133330D01*
X70655697Y-77133330D01*
G37*
G36*
X100859554Y-73938664D02*
G01*
X100895266Y-73946173D01*
X100928821Y-73960502D01*
X100958944Y-73981109D01*
X100984464Y-74007192D01*
X101004405Y-74037752D01*
X101018000Y-74071614D01*
X101025869Y-74113556D01*
X101153656Y-75574168D01*
X101153190Y-75616838D01*
X101145681Y-75652549D01*
X101131350Y-75686107D01*
X101110748Y-75716224D01*
X101084662Y-75741747D01*
X101054102Y-75761688D01*
X101020240Y-75775283D01*
X100978298Y-75783152D01*
X100903594Y-75789688D01*
X100903593Y-75789688D01*
X100331921Y-75839703D01*
X99922705Y-75875505D01*
X99916155Y-75876078D01*
X99841449Y-75882614D01*
X99798780Y-75882148D01*
X99763068Y-75874639D01*
X99729513Y-75860310D01*
X99699390Y-75839703D01*
X99673870Y-75813620D01*
X99653929Y-75783060D01*
X99640334Y-75749198D01*
X99632465Y-75707256D01*
X99504678Y-74246644D01*
X99505144Y-74203974D01*
X99512653Y-74168263D01*
X99526984Y-74134705D01*
X99547586Y-74104588D01*
X99573672Y-74079065D01*
X99604232Y-74059124D01*
X99638094Y-74045529D01*
X99680036Y-74037660D01*
X99754740Y-74031124D01*
X99754741Y-74031124D01*
X100588777Y-73958155D01*
X100816885Y-73938198D01*
X100859554Y-73938664D01*
X100859554Y-73938664D01*
G37*
G36*
X103823234Y-73679376D02*
G01*
X103858946Y-73686885D01*
X103892501Y-73701214D01*
X103922624Y-73721821D01*
X103948144Y-73747904D01*
X103968085Y-73778464D01*
X103981680Y-73812326D01*
X103989549Y-73854268D01*
X104117336Y-75314880D01*
X104116870Y-75357550D01*
X104109361Y-75393261D01*
X104095030Y-75426819D01*
X104074428Y-75456936D01*
X104048342Y-75482459D01*
X104017782Y-75502400D01*
X103983920Y-75515995D01*
X103941978Y-75523864D01*
X103867274Y-75530400D01*
X103867273Y-75530400D01*
X103295601Y-75580415D01*
X102886385Y-75616217D01*
X102879835Y-75616790D01*
X102805129Y-75623326D01*
X102762460Y-75622860D01*
X102726748Y-75615351D01*
X102693193Y-75601022D01*
X102663070Y-75580415D01*
X102637550Y-75554332D01*
X102617609Y-75523772D01*
X102604014Y-75489910D01*
X102596145Y-75447968D01*
X102468358Y-73987356D01*
X102468824Y-73944686D01*
X102476333Y-73908975D01*
X102490664Y-73875417D01*
X102511266Y-73845300D01*
X102537352Y-73819777D01*
X102567912Y-73799836D01*
X102601774Y-73786241D01*
X102643716Y-73778372D01*
X102718420Y-73771836D01*
X102718421Y-73771836D01*
X103525631Y-73701214D01*
X103780565Y-73678910D01*
X103823234Y-73679376D01*
X103823234Y-73679376D01*
G37*
G36*
X117225995Y-71380046D02*
G01*
X117235604Y-71382961D01*
X117244468Y-71387699D01*
X117252233Y-71394072D01*
X117258606Y-71401837D01*
X117263344Y-71410701D01*
X117266259Y-71420310D01*
X117267848Y-71436449D01*
X117267848Y-72011983D01*
X117270250Y-72036369D01*
X117277363Y-72059818D01*
X117288914Y-72081429D01*
X117304459Y-72100371D01*
X117323401Y-72115916D01*
X117345012Y-72127467D01*
X117368461Y-72134580D01*
X117441281Y-72149065D01*
X117462714Y-72155566D01*
X117589367Y-72208028D01*
X117609117Y-72218586D01*
X117723102Y-72294748D01*
X117740411Y-72308952D01*
X117837353Y-72405894D01*
X117851557Y-72423203D01*
X117927719Y-72537188D01*
X117938277Y-72556938D01*
X117990739Y-72683591D01*
X117997240Y-72705024D01*
X118023985Y-72839480D01*
X118026179Y-72861760D01*
X118026179Y-72998858D01*
X118023985Y-73021138D01*
X117997240Y-73155594D01*
X117990739Y-73177027D01*
X117938277Y-73303680D01*
X117927719Y-73323430D01*
X117851557Y-73437415D01*
X117837353Y-73454724D01*
X117740411Y-73551666D01*
X117723102Y-73565870D01*
X117609117Y-73642032D01*
X117589367Y-73652590D01*
X117462714Y-73705052D01*
X117441281Y-73711553D01*
X117368461Y-73726038D01*
X117345012Y-73733151D01*
X117323401Y-73744702D01*
X117304459Y-73760248D01*
X117288914Y-73779189D01*
X117277363Y-73800800D01*
X117270250Y-73824249D01*
X117267848Y-73848635D01*
X117267848Y-74424169D01*
X117266259Y-74440308D01*
X117263344Y-74449917D01*
X117258606Y-74458781D01*
X117252233Y-74466546D01*
X117244468Y-74472919D01*
X117235604Y-74477657D01*
X117225995Y-74480572D01*
X117209856Y-74482161D01*
X116222136Y-74482161D01*
X116193746Y-74479365D01*
X116193637Y-74480471D01*
X116180894Y-74478581D01*
X116145866Y-74478581D01*
X116134694Y-74478035D01*
X115992081Y-74464051D01*
X115992032Y-74464547D01*
X115991665Y-74464482D01*
X115991714Y-74464013D01*
X115984563Y-74463262D01*
X115972732Y-74461388D01*
X115910637Y-74448190D01*
X115908928Y-74447840D01*
X115846475Y-74435474D01*
X115835644Y-74432774D01*
X115698560Y-74391387D01*
X115697979Y-74391209D01*
X115691209Y-74389113D01*
X115679975Y-74384980D01*
X115621614Y-74359967D01*
X115620007Y-74359291D01*
X115561155Y-74335034D01*
X115551043Y-74330275D01*
X115424873Y-74263189D01*
X115423893Y-74262664D01*
X115417844Y-74259393D01*
X115407647Y-74253169D01*
X115355258Y-74217297D01*
X115353810Y-74216320D01*
X115300765Y-74181077D01*
X115291801Y-74174469D01*
X115180869Y-74083994D01*
X115180355Y-74083571D01*
X115174894Y-74079054D01*
X115166086Y-74070955D01*
X115121700Y-74025629D01*
X115120470Y-74024390D01*
X115075277Y-73979512D01*
X115067731Y-73971247D01*
X114976483Y-73860947D01*
X114975993Y-73860351D01*
X114971602Y-73854966D01*
X114964528Y-73845301D01*
X114929763Y-73792176D01*
X114928798Y-73790723D01*
X114893203Y-73737950D01*
X114887413Y-73728391D01*
X114819416Y-73602632D01*
X114818892Y-73601654D01*
X114815704Y-73595658D01*
X114810643Y-73584804D01*
X114786853Y-73525921D01*
X114786187Y-73524305D01*
X114761521Y-73465628D01*
X114757704Y-73455141D01*
X114715379Y-73318411D01*
X114715142Y-73317635D01*
X114713135Y-73310990D01*
X114710282Y-73299373D01*
X114698372Y-73236937D01*
X114698033Y-73235222D01*
X114685244Y-73172925D01*
X114683536Y-73161894D01*
X114668555Y-73019365D01*
X114668495Y-73018775D01*
X114667816Y-73011843D01*
X114667273Y-72999893D01*
X114667715Y-72936382D01*
X114667715Y-72934641D01*
X114667271Y-72870981D01*
X114667739Y-72859821D01*
X114680693Y-72717493D01*
X114680809Y-72716262D01*
X114681466Y-72709569D01*
X114683254Y-72697747D01*
X114696021Y-72635548D01*
X114696360Y-72633837D01*
X114708289Y-72571302D01*
X114710916Y-72560443D01*
X114749206Y-72430345D01*
X114751503Y-72424683D01*
X114751960Y-72423132D01*
X114752089Y-72423170D01*
X114752192Y-72422823D01*
X114752064Y-72422784D01*
X114752601Y-72421004D01*
X114753682Y-72415391D01*
X114757611Y-72404476D01*
X114782243Y-72345878D01*
X114782906Y-72344268D01*
X114806736Y-72285291D01*
X114811427Y-72275138D01*
X114877596Y-72148568D01*
X114878167Y-72147486D01*
X114881364Y-72141473D01*
X114887533Y-72131205D01*
X114923050Y-72078549D01*
X114924016Y-72077094D01*
X114958855Y-72023853D01*
X114965420Y-72014817D01*
X115055100Y-71903275D01*
X115055568Y-71902697D01*
X115059999Y-71897264D01*
X115068042Y-71888396D01*
X115113055Y-71843695D01*
X115114284Y-71842457D01*
X115158859Y-71796938D01*
X115167062Y-71789343D01*
X115276640Y-71697397D01*
X115277314Y-71696835D01*
X115282686Y-71692391D01*
X115292289Y-71685259D01*
X115345234Y-71650082D01*
X115346680Y-71649107D01*
X115399141Y-71613186D01*
X115408658Y-71607331D01*
X115534152Y-71538340D01*
X115534636Y-71538076D01*
X115540899Y-71534690D01*
X115551700Y-71529561D01*
X115610410Y-71505362D01*
X115612018Y-71504686D01*
X115670526Y-71479609D01*
X115680995Y-71475716D01*
X115817607Y-71432380D01*
X115818023Y-71432250D01*
X115824828Y-71430143D01*
X115836437Y-71427205D01*
X115898719Y-71414873D01*
X115900429Y-71414522D01*
X115962692Y-71401288D01*
X115973710Y-71399503D01*
X116115910Y-71383553D01*
X116116702Y-71383467D01*
X116123657Y-71382736D01*
X116135616Y-71382109D01*
X116157148Y-71382109D01*
X116170213Y-71381424D01*
X116191832Y-71379152D01*
X116202993Y-71378528D01*
X116210274Y-71378477D01*
X116210866Y-71378475D01*
X116215813Y-71378475D01*
X116216180Y-71378457D01*
X117209856Y-71378457D01*
X117225995Y-71380046D01*
X117225995Y-71380046D01*
G37*
G36*
X51019767Y-69629859D02*
G01*
X51019876Y-69628753D01*
X51032619Y-69630643D01*
X51067647Y-69630643D01*
X51078819Y-69631189D01*
X51221432Y-69645173D01*
X51221481Y-69644677D01*
X51221848Y-69644742D01*
X51221799Y-69645211D01*
X51228950Y-69645962D01*
X51240781Y-69647836D01*
X51302876Y-69661034D01*
X51304585Y-69661384D01*
X51367038Y-69673750D01*
X51377869Y-69676450D01*
X51514953Y-69717837D01*
X51515534Y-69718015D01*
X51522304Y-69720111D01*
X51533538Y-69724244D01*
X51591899Y-69749257D01*
X51593506Y-69749933D01*
X51652358Y-69774190D01*
X51662470Y-69778949D01*
X51788618Y-69846023D01*
X51789620Y-69846560D01*
X51795669Y-69849831D01*
X51805866Y-69856055D01*
X51858255Y-69891927D01*
X51859703Y-69892904D01*
X51912748Y-69928147D01*
X51921712Y-69934755D01*
X52032644Y-70025230D01*
X52033158Y-70025653D01*
X52038619Y-70030170D01*
X52047427Y-70038269D01*
X52091813Y-70083595D01*
X52093043Y-70084834D01*
X52138236Y-70129712D01*
X52145782Y-70137977D01*
X52237030Y-70248277D01*
X52237520Y-70248873D01*
X52241911Y-70254258D01*
X52248985Y-70263923D01*
X52283750Y-70317048D01*
X52284715Y-70318501D01*
X52320310Y-70371274D01*
X52326100Y-70380833D01*
X52394097Y-70506592D01*
X52394621Y-70507570D01*
X52397809Y-70513566D01*
X52402870Y-70524420D01*
X52426660Y-70583303D01*
X52427326Y-70584919D01*
X52451992Y-70643596D01*
X52455809Y-70654083D01*
X52498134Y-70790813D01*
X52498371Y-70791589D01*
X52500378Y-70798234D01*
X52503231Y-70809851D01*
X52515141Y-70872287D01*
X52515480Y-70874002D01*
X52528269Y-70936299D01*
X52529977Y-70947330D01*
X52544958Y-71089859D01*
X52545018Y-71090449D01*
X52545697Y-71097381D01*
X52546240Y-71109331D01*
X52545798Y-71172841D01*
X52545798Y-71174582D01*
X52546242Y-71238243D01*
X52545774Y-71249403D01*
X52532820Y-71391731D01*
X52532711Y-71392888D01*
X52532047Y-71399655D01*
X52530259Y-71411477D01*
X52517492Y-71473676D01*
X52517153Y-71475387D01*
X52505224Y-71537922D01*
X52502597Y-71548781D01*
X52464307Y-71678879D01*
X52462010Y-71684541D01*
X52461553Y-71686092D01*
X52461424Y-71686054D01*
X52461321Y-71686401D01*
X52461449Y-71686440D01*
X52460912Y-71688220D01*
X52459831Y-71693833D01*
X52455902Y-71704748D01*
X52431270Y-71763346D01*
X52430607Y-71764956D01*
X52406777Y-71823933D01*
X52402086Y-71834086D01*
X52335917Y-71960656D01*
X52335368Y-71961697D01*
X52332149Y-71967751D01*
X52325980Y-71978019D01*
X52290463Y-72030675D01*
X52289497Y-72032130D01*
X52254658Y-72085371D01*
X52248093Y-72094407D01*
X52158413Y-72205949D01*
X52157945Y-72206527D01*
X52153514Y-72211960D01*
X52145471Y-72220828D01*
X52100458Y-72265529D01*
X52099229Y-72266767D01*
X52054654Y-72312286D01*
X52046451Y-72319881D01*
X51936873Y-72411827D01*
X51936199Y-72412389D01*
X51930827Y-72416833D01*
X51921224Y-72423965D01*
X51868279Y-72459142D01*
X51866833Y-72460117D01*
X51814372Y-72496038D01*
X51804855Y-72501893D01*
X51679361Y-72570884D01*
X51678877Y-72571148D01*
X51672614Y-72574534D01*
X51661813Y-72579663D01*
X51603103Y-72603862D01*
X51601495Y-72604538D01*
X51542987Y-72629615D01*
X51532518Y-72633508D01*
X51395935Y-72676835D01*
X51395490Y-72676974D01*
X51388685Y-72679081D01*
X51377076Y-72682019D01*
X51314794Y-72694351D01*
X51313084Y-72694702D01*
X51250821Y-72707936D01*
X51239803Y-72709721D01*
X51097603Y-72725671D01*
X51096811Y-72725757D01*
X51089856Y-72726488D01*
X51077897Y-72727115D01*
X51056365Y-72727115D01*
X51043300Y-72727800D01*
X51021681Y-72730072D01*
X51010520Y-72730696D01*
X51003239Y-72730747D01*
X51002647Y-72730749D01*
X50997700Y-72730749D01*
X50997333Y-72730767D01*
X50003657Y-72730767D01*
X49987518Y-72729178D01*
X49977909Y-72726263D01*
X49969045Y-72721525D01*
X49961280Y-72715152D01*
X49954907Y-72707387D01*
X49950169Y-72698523D01*
X49947254Y-72688914D01*
X49945665Y-72672775D01*
X49945665Y-72097241D01*
X49943263Y-72072855D01*
X49936150Y-72049406D01*
X49924599Y-72027795D01*
X49909054Y-72008853D01*
X49890112Y-71993308D01*
X49868501Y-71981757D01*
X49845052Y-71974644D01*
X49772232Y-71960159D01*
X49750799Y-71953658D01*
X49624146Y-71901196D01*
X49604396Y-71890638D01*
X49490411Y-71814476D01*
X49473102Y-71800272D01*
X49376160Y-71703330D01*
X49361956Y-71686021D01*
X49285794Y-71572036D01*
X49275236Y-71552286D01*
X49222774Y-71425633D01*
X49216273Y-71404200D01*
X49189528Y-71269744D01*
X49187334Y-71247464D01*
X49187334Y-71110366D01*
X49189528Y-71088086D01*
X49216273Y-70953630D01*
X49222774Y-70932197D01*
X49275236Y-70805544D01*
X49285794Y-70785794D01*
X49361956Y-70671809D01*
X49376160Y-70654500D01*
X49473102Y-70557558D01*
X49490411Y-70543354D01*
X49604396Y-70467192D01*
X49624146Y-70456634D01*
X49750799Y-70404172D01*
X49772232Y-70397671D01*
X49845052Y-70383186D01*
X49868501Y-70376073D01*
X49890112Y-70364522D01*
X49909054Y-70348976D01*
X49924599Y-70330035D01*
X49936150Y-70308424D01*
X49943263Y-70284975D01*
X49945665Y-70260589D01*
X49945665Y-69685055D01*
X49947254Y-69668916D01*
X49950169Y-69659307D01*
X49954907Y-69650443D01*
X49961280Y-69642678D01*
X49969045Y-69636305D01*
X49977909Y-69631567D01*
X49987518Y-69628652D01*
X50003657Y-69627063D01*
X50991377Y-69627063D01*
X51019767Y-69629859D01*
X51019767Y-69629859D01*
G37*
G36*
X83722298Y-68458394D02*
G01*
X83496944Y-69537107D01*
X81439364Y-69107256D01*
X81664718Y-68028543D01*
X83722298Y-68458394D01*
X83722298Y-68458394D01*
G37*
G36*
X68735355Y-68028543D02*
G01*
X69012584Y-68057681D01*
X68897394Y-69153644D01*
X68897393Y-69153644D01*
X66806908Y-68933925D01*
X66922098Y-67837962D01*
X66922099Y-67837962D01*
X68735355Y-68028543D01*
X68735355Y-68028543D01*
G37*
G36*
X61478120Y-67265777D02*
G01*
X62647644Y-67388699D01*
X62532454Y-68484662D01*
X62532453Y-68484662D01*
X60441968Y-68264943D01*
X60463752Y-68057681D01*
X60557158Y-67168980D01*
X60557159Y-67168980D01*
X61478120Y-67265777D01*
X61478120Y-67265777D01*
G37*
G36*
X77457546Y-67149619D02*
G01*
X77232192Y-68228332D01*
X75174612Y-67798481D01*
X75399966Y-66719768D01*
X77457546Y-67149619D01*
X77457546Y-67149619D01*
G37*
G36*
X51019767Y-64629859D02*
G01*
X51019876Y-64628753D01*
X51032619Y-64630643D01*
X51067647Y-64630643D01*
X51078819Y-64631189D01*
X51221432Y-64645173D01*
X51221481Y-64644677D01*
X51221848Y-64644742D01*
X51221799Y-64645211D01*
X51228950Y-64645962D01*
X51240781Y-64647836D01*
X51302876Y-64661034D01*
X51304585Y-64661384D01*
X51367038Y-64673750D01*
X51377869Y-64676450D01*
X51514953Y-64717837D01*
X51515534Y-64718015D01*
X51522304Y-64720111D01*
X51533538Y-64724244D01*
X51591899Y-64749257D01*
X51593506Y-64749933D01*
X51652358Y-64774190D01*
X51662470Y-64778949D01*
X51788618Y-64846023D01*
X51789620Y-64846560D01*
X51795669Y-64849831D01*
X51805866Y-64856055D01*
X51858255Y-64891927D01*
X51859703Y-64892904D01*
X51912748Y-64928147D01*
X51921712Y-64934755D01*
X52032644Y-65025230D01*
X52033158Y-65025653D01*
X52038619Y-65030170D01*
X52047427Y-65038269D01*
X52091813Y-65083595D01*
X52093043Y-65084834D01*
X52138236Y-65129712D01*
X52145782Y-65137977D01*
X52237030Y-65248277D01*
X52237520Y-65248873D01*
X52241911Y-65254258D01*
X52248985Y-65263923D01*
X52283750Y-65317048D01*
X52284715Y-65318501D01*
X52320310Y-65371274D01*
X52326100Y-65380833D01*
X52394097Y-65506592D01*
X52394621Y-65507570D01*
X52397809Y-65513566D01*
X52402870Y-65524420D01*
X52426660Y-65583303D01*
X52427326Y-65584919D01*
X52451992Y-65643596D01*
X52455809Y-65654083D01*
X52498134Y-65790813D01*
X52498371Y-65791589D01*
X52500378Y-65798234D01*
X52503231Y-65809851D01*
X52515141Y-65872287D01*
X52515480Y-65874002D01*
X52528269Y-65936299D01*
X52529977Y-65947330D01*
X52544958Y-66089859D01*
X52545018Y-66090449D01*
X52545697Y-66097381D01*
X52546240Y-66109331D01*
X52545798Y-66172841D01*
X52545798Y-66174582D01*
X52546242Y-66238243D01*
X52545774Y-66249403D01*
X52532820Y-66391731D01*
X52532711Y-66392888D01*
X52532047Y-66399655D01*
X52530259Y-66411477D01*
X52517492Y-66473676D01*
X52517153Y-66475387D01*
X52505224Y-66537922D01*
X52502597Y-66548781D01*
X52464307Y-66678879D01*
X52462010Y-66684541D01*
X52461553Y-66686092D01*
X52461424Y-66686054D01*
X52461321Y-66686401D01*
X52461449Y-66686440D01*
X52460912Y-66688220D01*
X52459831Y-66693833D01*
X52455902Y-66704748D01*
X52431270Y-66763346D01*
X52430607Y-66764956D01*
X52406777Y-66823933D01*
X52402086Y-66834086D01*
X52335917Y-66960656D01*
X52335368Y-66961697D01*
X52332149Y-66967751D01*
X52325980Y-66978019D01*
X52290463Y-67030675D01*
X52289497Y-67032130D01*
X52254658Y-67085371D01*
X52248093Y-67094407D01*
X52158413Y-67205949D01*
X52157945Y-67206527D01*
X52153514Y-67211960D01*
X52145471Y-67220828D01*
X52100458Y-67265529D01*
X52099229Y-67266767D01*
X52054654Y-67312286D01*
X52046451Y-67319881D01*
X51936873Y-67411827D01*
X51936199Y-67412389D01*
X51930827Y-67416833D01*
X51921224Y-67423965D01*
X51868279Y-67459142D01*
X51866833Y-67460117D01*
X51814372Y-67496038D01*
X51804855Y-67501893D01*
X51679361Y-67570884D01*
X51678877Y-67571148D01*
X51672614Y-67574534D01*
X51661813Y-67579663D01*
X51603103Y-67603862D01*
X51601495Y-67604538D01*
X51542987Y-67629615D01*
X51532518Y-67633508D01*
X51395935Y-67676835D01*
X51395490Y-67676974D01*
X51388685Y-67679081D01*
X51377076Y-67682019D01*
X51314794Y-67694351D01*
X51313084Y-67694702D01*
X51250821Y-67707936D01*
X51239803Y-67709721D01*
X51097603Y-67725671D01*
X51096811Y-67725757D01*
X51089856Y-67726488D01*
X51077897Y-67727115D01*
X51056365Y-67727115D01*
X51043300Y-67727800D01*
X51021681Y-67730072D01*
X51010520Y-67730696D01*
X51003239Y-67730747D01*
X51002647Y-67730749D01*
X50997700Y-67730749D01*
X50997333Y-67730767D01*
X50003657Y-67730767D01*
X49987518Y-67729178D01*
X49977909Y-67726263D01*
X49969045Y-67721525D01*
X49961280Y-67715152D01*
X49954907Y-67707387D01*
X49950169Y-67698523D01*
X49947254Y-67688914D01*
X49945665Y-67672775D01*
X49945665Y-67097241D01*
X49943263Y-67072855D01*
X49936150Y-67049406D01*
X49924599Y-67027795D01*
X49909054Y-67008853D01*
X49890112Y-66993308D01*
X49868501Y-66981757D01*
X49845052Y-66974644D01*
X49772232Y-66960159D01*
X49750799Y-66953658D01*
X49624146Y-66901196D01*
X49604396Y-66890638D01*
X49490411Y-66814476D01*
X49473102Y-66800272D01*
X49376160Y-66703330D01*
X49361956Y-66686021D01*
X49285794Y-66572036D01*
X49275236Y-66552286D01*
X49222774Y-66425633D01*
X49216273Y-66404200D01*
X49189528Y-66269744D01*
X49187334Y-66247464D01*
X49187334Y-66110366D01*
X49189528Y-66088086D01*
X49216273Y-65953630D01*
X49222774Y-65932197D01*
X49275236Y-65805544D01*
X49285794Y-65785794D01*
X49361956Y-65671809D01*
X49376160Y-65654500D01*
X49473102Y-65557558D01*
X49490411Y-65543354D01*
X49604396Y-65467192D01*
X49624146Y-65456634D01*
X49750799Y-65404172D01*
X49772232Y-65397671D01*
X49845052Y-65383186D01*
X49868501Y-65376073D01*
X49890112Y-65364522D01*
X49909054Y-65348976D01*
X49924599Y-65330035D01*
X49936150Y-65308424D01*
X49943263Y-65284975D01*
X49945665Y-65260589D01*
X49945665Y-64685055D01*
X49947254Y-64668916D01*
X49950169Y-64659307D01*
X49954907Y-64650443D01*
X49961280Y-64642678D01*
X49969045Y-64636305D01*
X49977909Y-64631567D01*
X49987518Y-64628652D01*
X50003657Y-64627063D01*
X50991377Y-64627063D01*
X51019767Y-64629859D01*
X51019767Y-64629859D01*
G37*
G36*
X84581182Y-64347151D02*
G01*
X84355828Y-65425864D01*
X82298248Y-64996013D01*
X82523602Y-63917300D01*
X84581182Y-64347151D01*
X84581182Y-64347151D01*
G37*
G36*
X69451604Y-63880689D02*
G01*
X69336414Y-64976652D01*
X69336413Y-64976652D01*
X67245928Y-64756933D01*
X67256189Y-64659304D01*
X67361118Y-63660970D01*
X67361119Y-63660970D01*
X69451604Y-63880689D01*
X69451604Y-63880689D01*
G37*
G36*
X63086664Y-63211707D02*
G01*
X62971474Y-64307670D01*
X62971473Y-64307670D01*
X60880988Y-64087951D01*
X60923105Y-63687238D01*
X60996178Y-62991988D01*
X60996179Y-62991988D01*
X63086664Y-63211707D01*
X63086664Y-63211707D01*
G37*
G36*
X78316430Y-63038376D02*
G01*
X78091076Y-64117089D01*
X76033496Y-63687238D01*
X76258850Y-62608525D01*
X78316430Y-63038376D01*
X78316430Y-63038376D01*
G37*
G36*
X51019767Y-59629859D02*
G01*
X51019876Y-59628753D01*
X51032619Y-59630643D01*
X51067647Y-59630643D01*
X51078819Y-59631189D01*
X51221432Y-59645173D01*
X51221481Y-59644677D01*
X51221848Y-59644742D01*
X51221799Y-59645211D01*
X51228950Y-59645962D01*
X51240781Y-59647836D01*
X51302876Y-59661034D01*
X51304585Y-59661384D01*
X51367038Y-59673750D01*
X51377869Y-59676450D01*
X51514953Y-59717837D01*
X51515534Y-59718015D01*
X51522304Y-59720111D01*
X51533538Y-59724244D01*
X51591899Y-59749257D01*
X51593506Y-59749933D01*
X51652358Y-59774190D01*
X51662470Y-59778949D01*
X51788618Y-59846023D01*
X51789620Y-59846560D01*
X51795669Y-59849831D01*
X51805866Y-59856055D01*
X51858255Y-59891927D01*
X51859703Y-59892904D01*
X51912748Y-59928147D01*
X51921712Y-59934755D01*
X52032644Y-60025230D01*
X52033158Y-60025653D01*
X52038619Y-60030170D01*
X52047427Y-60038269D01*
X52091813Y-60083595D01*
X52093043Y-60084834D01*
X52138236Y-60129712D01*
X52145782Y-60137977D01*
X52237030Y-60248277D01*
X52237520Y-60248873D01*
X52241911Y-60254258D01*
X52248985Y-60263923D01*
X52283750Y-60317048D01*
X52284715Y-60318501D01*
X52320310Y-60371274D01*
X52326100Y-60380833D01*
X52394097Y-60506592D01*
X52394621Y-60507570D01*
X52397809Y-60513566D01*
X52402870Y-60524420D01*
X52426660Y-60583303D01*
X52427326Y-60584919D01*
X52451992Y-60643596D01*
X52455809Y-60654083D01*
X52498134Y-60790813D01*
X52498371Y-60791589D01*
X52500378Y-60798234D01*
X52503231Y-60809851D01*
X52515141Y-60872287D01*
X52515480Y-60874002D01*
X52528269Y-60936299D01*
X52529977Y-60947330D01*
X52544958Y-61089859D01*
X52545018Y-61090449D01*
X52545697Y-61097381D01*
X52546240Y-61109331D01*
X52545798Y-61172841D01*
X52545798Y-61174582D01*
X52546242Y-61238243D01*
X52545774Y-61249403D01*
X52532820Y-61391731D01*
X52532711Y-61392888D01*
X52532047Y-61399655D01*
X52530259Y-61411477D01*
X52517492Y-61473676D01*
X52517153Y-61475387D01*
X52505224Y-61537922D01*
X52502597Y-61548781D01*
X52464307Y-61678879D01*
X52462010Y-61684541D01*
X52461553Y-61686092D01*
X52461424Y-61686054D01*
X52461321Y-61686401D01*
X52461449Y-61686440D01*
X52460912Y-61688220D01*
X52459831Y-61693833D01*
X52455902Y-61704748D01*
X52431270Y-61763346D01*
X52430607Y-61764956D01*
X52406777Y-61823933D01*
X52402086Y-61834086D01*
X52335917Y-61960656D01*
X52335368Y-61961697D01*
X52332149Y-61967751D01*
X52325980Y-61978019D01*
X52290463Y-62030675D01*
X52289497Y-62032130D01*
X52254658Y-62085371D01*
X52248093Y-62094407D01*
X52158413Y-62205949D01*
X52157945Y-62206527D01*
X52153514Y-62211960D01*
X52145471Y-62220828D01*
X52100458Y-62265529D01*
X52099229Y-62266767D01*
X52054654Y-62312286D01*
X52046451Y-62319881D01*
X51936873Y-62411827D01*
X51936199Y-62412389D01*
X51930827Y-62416833D01*
X51921224Y-62423965D01*
X51868279Y-62459142D01*
X51866833Y-62460117D01*
X51814372Y-62496038D01*
X51804855Y-62501893D01*
X51679361Y-62570884D01*
X51678877Y-62571148D01*
X51672614Y-62574534D01*
X51661813Y-62579663D01*
X51603103Y-62603862D01*
X51601495Y-62604538D01*
X51542987Y-62629615D01*
X51532518Y-62633508D01*
X51395935Y-62676835D01*
X51395490Y-62676974D01*
X51388685Y-62679081D01*
X51377076Y-62682019D01*
X51314794Y-62694351D01*
X51313084Y-62694702D01*
X51250821Y-62707936D01*
X51239803Y-62709721D01*
X51097603Y-62725671D01*
X51096811Y-62725757D01*
X51089856Y-62726488D01*
X51077897Y-62727115D01*
X51056365Y-62727115D01*
X51043300Y-62727800D01*
X51021681Y-62730072D01*
X51010520Y-62730696D01*
X51003239Y-62730747D01*
X51002647Y-62730749D01*
X50997700Y-62730749D01*
X50997333Y-62730767D01*
X50003657Y-62730767D01*
X49987518Y-62729178D01*
X49977909Y-62726263D01*
X49969045Y-62721525D01*
X49961280Y-62715152D01*
X49954907Y-62707387D01*
X49950169Y-62698523D01*
X49947254Y-62688914D01*
X49945665Y-62672775D01*
X49945665Y-62097241D01*
X49943263Y-62072855D01*
X49936150Y-62049406D01*
X49924599Y-62027795D01*
X49909054Y-62008853D01*
X49890112Y-61993308D01*
X49868501Y-61981757D01*
X49845052Y-61974644D01*
X49772232Y-61960159D01*
X49750799Y-61953658D01*
X49624146Y-61901196D01*
X49604396Y-61890638D01*
X49490411Y-61814476D01*
X49473102Y-61800272D01*
X49376160Y-61703330D01*
X49361956Y-61686021D01*
X49285794Y-61572036D01*
X49275236Y-61552286D01*
X49222774Y-61425633D01*
X49216273Y-61404200D01*
X49189528Y-61269744D01*
X49187334Y-61247464D01*
X49187334Y-61110366D01*
X49189528Y-61088086D01*
X49216273Y-60953630D01*
X49222774Y-60932197D01*
X49275236Y-60805544D01*
X49285794Y-60785794D01*
X49361956Y-60671809D01*
X49376160Y-60654500D01*
X49473102Y-60557558D01*
X49490411Y-60543354D01*
X49604396Y-60467192D01*
X49624146Y-60456634D01*
X49750799Y-60404172D01*
X49772232Y-60397671D01*
X49845052Y-60383186D01*
X49868501Y-60376073D01*
X49890112Y-60364522D01*
X49909054Y-60348976D01*
X49924599Y-60330035D01*
X49936150Y-60308424D01*
X49943263Y-60284975D01*
X49945665Y-60260589D01*
X49945665Y-59685055D01*
X49947254Y-59668916D01*
X49950169Y-59659307D01*
X49954907Y-59650443D01*
X49961280Y-59642678D01*
X49969045Y-59636305D01*
X49977909Y-59631567D01*
X49987518Y-59628652D01*
X50003657Y-59627063D01*
X50991377Y-59627063D01*
X51019767Y-59629859D01*
X51019767Y-59629859D01*
G37*
G36*
X108696470Y-59889512D02*
G01*
X108731779Y-59898693D01*
X108764626Y-59914590D01*
X108793747Y-59936594D01*
X108818007Y-59963848D01*
X108836485Y-59995310D01*
X108848474Y-60029785D01*
X108854355Y-60072037D01*
X108857365Y-60146974D01*
X108857365Y-60146975D01*
X108859826Y-60208256D01*
X108913197Y-61537055D01*
X108910722Y-61579654D01*
X108901539Y-61614973D01*
X108885643Y-61647818D01*
X108863641Y-61676936D01*
X108836389Y-61701196D01*
X108804923Y-61719675D01*
X108770449Y-61731664D01*
X108728197Y-61737545D01*
X107587917Y-61783343D01*
X107545312Y-61780868D01*
X107510003Y-61771687D01*
X107477156Y-61755790D01*
X107448035Y-61733786D01*
X107423775Y-61706532D01*
X107405297Y-61675070D01*
X107393308Y-61640595D01*
X107387427Y-61598343D01*
X107384062Y-61514552D01*
X107360836Y-60936299D01*
X107328585Y-60133325D01*
X107331060Y-60090726D01*
X107340243Y-60055407D01*
X107356139Y-60022562D01*
X107378141Y-59993444D01*
X107405393Y-59969184D01*
X107436859Y-59950705D01*
X107471333Y-59938716D01*
X107513585Y-59932835D01*
X108653865Y-59887037D01*
X108696470Y-59889512D01*
X108696470Y-59889512D01*
G37*
G36*
X111669074Y-59770120D02*
G01*
X111704383Y-59779301D01*
X111737230Y-59795198D01*
X111766351Y-59817202D01*
X111790611Y-59844456D01*
X111809089Y-59875918D01*
X111821078Y-59910393D01*
X111826959Y-59952645D01*
X111829969Y-60027582D01*
X111829969Y-60027583D01*
X111842117Y-60330035D01*
X111885801Y-61417663D01*
X111883326Y-61460262D01*
X111874143Y-61495581D01*
X111858247Y-61528426D01*
X111836245Y-61557544D01*
X111808993Y-61581804D01*
X111777527Y-61600283D01*
X111743053Y-61612272D01*
X111700801Y-61618153D01*
X110560521Y-61663951D01*
X110517916Y-61661476D01*
X110482607Y-61652295D01*
X110449760Y-61636398D01*
X110420639Y-61614394D01*
X110396379Y-61587140D01*
X110377901Y-61555678D01*
X110365912Y-61521203D01*
X110360031Y-61478951D01*
X110356975Y-61402852D01*
X110332191Y-60785794D01*
X110301189Y-60013933D01*
X110303664Y-59971334D01*
X110312847Y-59936015D01*
X110328743Y-59903170D01*
X110350745Y-59874052D01*
X110377997Y-59849792D01*
X110409463Y-59831313D01*
X110443937Y-59819324D01*
X110486189Y-59813443D01*
X111626469Y-59767645D01*
X111669074Y-59770120D01*
X111669074Y-59770120D01*
G37*
G36*
X91000778Y-54752063D02*
G01*
X90695177Y-55810843D01*
X88675618Y-55227927D01*
X88981219Y-54169147D01*
X91000778Y-54752063D01*
X91000778Y-54752063D01*
G37*
G36*
X76336336Y-54341757D02*
G01*
X76146870Y-55427348D01*
X74076170Y-55065953D01*
X74265636Y-53980362D01*
X76336336Y-54341757D01*
X76336336Y-54341757D01*
G37*
G36*
X61638627Y-53876088D02*
G01*
X61638627Y-53876089D01*
X61603772Y-54480572D01*
X61575191Y-54976261D01*
X59476677Y-54855262D01*
X59497920Y-54486852D01*
X59540113Y-53755089D01*
X61638627Y-53876088D01*
X61638627Y-53876088D01*
G37*
G36*
X55249240Y-53507678D02*
G01*
X55249240Y-53507679D01*
X55205677Y-54263189D01*
X55185804Y-54607851D01*
X53087290Y-54486852D01*
X53088642Y-54463412D01*
X53150726Y-53386679D01*
X55249240Y-53507678D01*
X55249240Y-53507678D01*
G37*
G36*
X117225995Y-51380046D02*
G01*
X117235604Y-51382961D01*
X117244468Y-51387699D01*
X117252233Y-51394072D01*
X117258606Y-51401837D01*
X117263344Y-51410701D01*
X117266259Y-51420310D01*
X117267848Y-51436449D01*
X117267848Y-52011983D01*
X117270250Y-52036369D01*
X117277363Y-52059818D01*
X117288914Y-52081429D01*
X117304459Y-52100371D01*
X117323401Y-52115916D01*
X117345012Y-52127467D01*
X117368461Y-52134580D01*
X117441281Y-52149065D01*
X117462714Y-52155566D01*
X117589367Y-52208028D01*
X117609117Y-52218586D01*
X117723102Y-52294748D01*
X117740411Y-52308952D01*
X117837353Y-52405894D01*
X117851557Y-52423203D01*
X117927719Y-52537188D01*
X117938277Y-52556938D01*
X117990739Y-52683591D01*
X117997240Y-52705024D01*
X118023985Y-52839480D01*
X118026179Y-52861760D01*
X118026179Y-52998858D01*
X118023985Y-53021138D01*
X117997240Y-53155594D01*
X117990739Y-53177027D01*
X117938277Y-53303680D01*
X117927719Y-53323430D01*
X117851557Y-53437415D01*
X117837353Y-53454724D01*
X117740411Y-53551666D01*
X117723102Y-53565870D01*
X117609117Y-53642032D01*
X117589367Y-53652590D01*
X117462714Y-53705052D01*
X117441281Y-53711553D01*
X117368461Y-53726038D01*
X117345012Y-53733151D01*
X117323401Y-53744702D01*
X117304459Y-53760248D01*
X117288914Y-53779189D01*
X117277363Y-53800800D01*
X117270250Y-53824249D01*
X117267848Y-53848635D01*
X117267848Y-54424169D01*
X117266259Y-54440308D01*
X117263344Y-54449917D01*
X117258606Y-54458781D01*
X117252233Y-54466546D01*
X117244468Y-54472919D01*
X117235604Y-54477657D01*
X117225995Y-54480572D01*
X117209856Y-54482161D01*
X116222136Y-54482161D01*
X116193746Y-54479365D01*
X116193637Y-54480471D01*
X116180894Y-54478581D01*
X116145866Y-54478581D01*
X116134694Y-54478035D01*
X115992081Y-54464051D01*
X115992032Y-54464547D01*
X115991665Y-54464482D01*
X115991714Y-54464013D01*
X115984563Y-54463262D01*
X115972732Y-54461388D01*
X115910637Y-54448190D01*
X115908928Y-54447840D01*
X115846475Y-54435474D01*
X115835644Y-54432774D01*
X115698560Y-54391387D01*
X115697979Y-54391209D01*
X115691209Y-54389113D01*
X115679975Y-54384980D01*
X115621614Y-54359967D01*
X115620007Y-54359291D01*
X115561155Y-54335034D01*
X115551043Y-54330275D01*
X115424873Y-54263189D01*
X115423893Y-54262664D01*
X115417844Y-54259393D01*
X115407647Y-54253169D01*
X115355258Y-54217297D01*
X115353810Y-54216320D01*
X115300765Y-54181077D01*
X115291801Y-54174469D01*
X115180869Y-54083994D01*
X115180355Y-54083571D01*
X115174894Y-54079054D01*
X115166086Y-54070955D01*
X115121700Y-54025629D01*
X115120470Y-54024390D01*
X115075277Y-53979512D01*
X115067731Y-53971247D01*
X114976483Y-53860947D01*
X114975993Y-53860351D01*
X114971602Y-53854966D01*
X114964528Y-53845301D01*
X114929763Y-53792176D01*
X114928798Y-53790723D01*
X114893203Y-53737950D01*
X114887413Y-53728391D01*
X114819416Y-53602632D01*
X114818892Y-53601654D01*
X114815704Y-53595658D01*
X114810643Y-53584804D01*
X114786853Y-53525921D01*
X114786187Y-53524305D01*
X114761521Y-53465628D01*
X114757704Y-53455141D01*
X114715379Y-53318411D01*
X114715142Y-53317635D01*
X114713135Y-53310990D01*
X114710282Y-53299373D01*
X114698372Y-53236937D01*
X114698033Y-53235222D01*
X114685244Y-53172925D01*
X114683536Y-53161894D01*
X114668555Y-53019365D01*
X114668495Y-53018775D01*
X114667816Y-53011843D01*
X114667273Y-52999893D01*
X114667715Y-52936382D01*
X114667715Y-52934641D01*
X114667271Y-52870981D01*
X114667739Y-52859821D01*
X114680693Y-52717493D01*
X114680809Y-52716262D01*
X114681466Y-52709569D01*
X114683254Y-52697747D01*
X114696021Y-52635548D01*
X114696360Y-52633837D01*
X114708289Y-52571302D01*
X114710916Y-52560443D01*
X114749206Y-52430345D01*
X114751503Y-52424683D01*
X114751960Y-52423132D01*
X114752089Y-52423170D01*
X114752192Y-52422823D01*
X114752064Y-52422784D01*
X114752601Y-52421004D01*
X114753682Y-52415391D01*
X114757611Y-52404476D01*
X114782243Y-52345878D01*
X114782906Y-52344268D01*
X114806736Y-52285291D01*
X114811427Y-52275138D01*
X114877596Y-52148568D01*
X114878167Y-52147486D01*
X114881364Y-52141473D01*
X114887533Y-52131205D01*
X114923050Y-52078549D01*
X114924016Y-52077094D01*
X114958855Y-52023853D01*
X114965420Y-52014817D01*
X115055100Y-51903275D01*
X115055568Y-51902697D01*
X115059999Y-51897264D01*
X115068042Y-51888396D01*
X115113055Y-51843695D01*
X115114284Y-51842457D01*
X115158859Y-51796938D01*
X115167062Y-51789343D01*
X115276640Y-51697397D01*
X115277314Y-51696835D01*
X115282686Y-51692391D01*
X115292289Y-51685259D01*
X115345234Y-51650082D01*
X115346680Y-51649107D01*
X115399141Y-51613186D01*
X115408658Y-51607331D01*
X115534152Y-51538340D01*
X115534636Y-51538076D01*
X115540899Y-51534690D01*
X115551700Y-51529561D01*
X115610410Y-51505362D01*
X115612018Y-51504686D01*
X115670526Y-51479609D01*
X115680995Y-51475716D01*
X115817607Y-51432380D01*
X115818023Y-51432250D01*
X115824828Y-51430143D01*
X115836437Y-51427205D01*
X115898719Y-51414873D01*
X115900429Y-51414522D01*
X115962692Y-51401288D01*
X115973710Y-51399503D01*
X116115910Y-51383553D01*
X116116702Y-51383467D01*
X116123657Y-51382736D01*
X116135616Y-51382109D01*
X116157148Y-51382109D01*
X116170213Y-51381424D01*
X116191832Y-51379152D01*
X116202993Y-51378528D01*
X116210274Y-51378477D01*
X116210866Y-51378475D01*
X116215813Y-51378475D01*
X116216180Y-51378457D01*
X117209856Y-51378457D01*
X117225995Y-51380046D01*
X117225995Y-51380046D01*
G37*
G36*
X70031636Y-53241410D02*
G01*
X69842170Y-54327001D01*
X67771470Y-53965606D01*
X67960936Y-52880015D01*
X70031636Y-53241410D01*
X70031636Y-53241410D01*
G37*
G36*
X84851791Y-52977250D02*
G01*
X84546190Y-54036030D01*
X82526631Y-53453114D01*
X82832232Y-52394334D01*
X84851791Y-52977250D01*
X84851791Y-52977250D01*
G37*
G36*
X92165499Y-50716790D02*
G01*
X91859898Y-51775570D01*
X89840339Y-51192654D01*
X90145940Y-50133874D01*
X92165499Y-50716790D01*
X92165499Y-50716790D01*
G37*
G36*
X77058438Y-50204298D02*
G01*
X76868972Y-51289889D01*
X74798272Y-50928494D01*
X74987738Y-49842903D01*
X77058438Y-50204298D01*
X77058438Y-50204298D01*
G37*
G36*
X61880396Y-49683052D02*
G01*
X61816960Y-50783225D01*
X59718446Y-50662226D01*
X59739689Y-50293816D01*
X59781882Y-49562053D01*
X61880396Y-49683052D01*
X61880396Y-49683052D01*
G37*
G36*
X55491009Y-49314642D02*
G01*
X55491009Y-49314643D01*
X55469766Y-49683053D01*
X55427573Y-50414815D01*
X53329059Y-50293816D01*
X53334221Y-50204299D01*
X53392495Y-49193643D01*
X55491009Y-49314642D01*
X55491009Y-49314642D01*
G37*
G36*
X70753738Y-49103951D02*
G01*
X70564272Y-50189542D01*
X68493572Y-49828147D01*
X68683038Y-48742556D01*
X70753738Y-49103951D01*
X70753738Y-49103951D01*
G37*
G36*
X86016512Y-48941977D02*
G01*
X85710911Y-50000757D01*
X83691352Y-49417841D01*
X83996953Y-48359061D01*
X86016512Y-48941977D01*
X86016512Y-48941977D01*
G37*
G36*
X117225995Y-46380046D02*
G01*
X117235604Y-46382961D01*
X117244468Y-46387699D01*
X117252233Y-46394072D01*
X117258606Y-46401837D01*
X117263344Y-46410701D01*
X117266259Y-46420310D01*
X117267848Y-46436449D01*
X117267848Y-47011983D01*
X117270250Y-47036369D01*
X117277363Y-47059818D01*
X117288914Y-47081429D01*
X117304459Y-47100371D01*
X117323401Y-47115916D01*
X117345012Y-47127467D01*
X117368461Y-47134580D01*
X117441281Y-47149065D01*
X117462714Y-47155566D01*
X117589367Y-47208028D01*
X117609117Y-47218586D01*
X117723102Y-47294748D01*
X117740411Y-47308952D01*
X117837353Y-47405894D01*
X117851557Y-47423203D01*
X117927719Y-47537188D01*
X117938277Y-47556938D01*
X117990739Y-47683591D01*
X117997240Y-47705024D01*
X118023985Y-47839480D01*
X118026179Y-47861760D01*
X118026179Y-47998858D01*
X118023985Y-48021138D01*
X117997240Y-48155594D01*
X117990739Y-48177027D01*
X117938277Y-48303680D01*
X117927719Y-48323430D01*
X117851557Y-48437415D01*
X117837353Y-48454724D01*
X117740411Y-48551666D01*
X117723102Y-48565870D01*
X117609117Y-48642032D01*
X117589367Y-48652590D01*
X117462714Y-48705052D01*
X117441281Y-48711553D01*
X117368461Y-48726038D01*
X117345012Y-48733151D01*
X117323401Y-48744702D01*
X117304459Y-48760248D01*
X117288914Y-48779189D01*
X117277363Y-48800800D01*
X117270250Y-48824249D01*
X117267848Y-48848635D01*
X117267848Y-49424169D01*
X117266259Y-49440308D01*
X117263344Y-49449917D01*
X117258606Y-49458781D01*
X117252233Y-49466546D01*
X117244468Y-49472919D01*
X117235604Y-49477657D01*
X117225995Y-49480572D01*
X117209856Y-49482161D01*
X116222136Y-49482161D01*
X116193746Y-49479365D01*
X116193637Y-49480471D01*
X116180894Y-49478581D01*
X116145866Y-49478581D01*
X116134694Y-49478035D01*
X115992081Y-49464051D01*
X115992032Y-49464547D01*
X115991665Y-49464482D01*
X115991714Y-49464013D01*
X115984563Y-49463262D01*
X115972732Y-49461388D01*
X115910637Y-49448190D01*
X115908928Y-49447840D01*
X115846475Y-49435474D01*
X115835644Y-49432774D01*
X115698560Y-49391387D01*
X115697979Y-49391209D01*
X115691209Y-49389113D01*
X115679975Y-49384980D01*
X115621614Y-49359967D01*
X115620007Y-49359291D01*
X115561155Y-49335034D01*
X115551043Y-49330275D01*
X115424873Y-49263189D01*
X115423893Y-49262664D01*
X115417844Y-49259393D01*
X115407647Y-49253169D01*
X115355258Y-49217297D01*
X115353810Y-49216320D01*
X115300765Y-49181077D01*
X115291801Y-49174469D01*
X115180869Y-49083994D01*
X115180355Y-49083571D01*
X115174894Y-49079054D01*
X115166086Y-49070955D01*
X115121700Y-49025629D01*
X115120470Y-49024390D01*
X115075277Y-48979512D01*
X115067731Y-48971247D01*
X114976483Y-48860947D01*
X114975993Y-48860351D01*
X114971602Y-48854966D01*
X114964528Y-48845301D01*
X114929763Y-48792176D01*
X114928798Y-48790723D01*
X114893203Y-48737950D01*
X114887413Y-48728391D01*
X114819416Y-48602632D01*
X114818892Y-48601654D01*
X114815704Y-48595658D01*
X114810643Y-48584804D01*
X114786853Y-48525921D01*
X114786187Y-48524305D01*
X114761521Y-48465628D01*
X114757704Y-48455141D01*
X114715379Y-48318411D01*
X114715142Y-48317635D01*
X114713135Y-48310990D01*
X114710282Y-48299373D01*
X114698372Y-48236937D01*
X114698033Y-48235222D01*
X114685244Y-48172925D01*
X114683536Y-48161894D01*
X114668555Y-48019365D01*
X114668495Y-48018775D01*
X114667816Y-48011843D01*
X114667273Y-47999893D01*
X114667715Y-47936382D01*
X114667715Y-47934641D01*
X114667271Y-47870981D01*
X114667739Y-47859821D01*
X114680693Y-47717493D01*
X114680809Y-47716262D01*
X114681466Y-47709569D01*
X114683254Y-47697747D01*
X114696021Y-47635548D01*
X114696360Y-47633837D01*
X114708289Y-47571302D01*
X114710916Y-47560443D01*
X114749206Y-47430345D01*
X114751503Y-47424683D01*
X114751960Y-47423132D01*
X114752089Y-47423170D01*
X114752192Y-47422823D01*
X114752064Y-47422784D01*
X114752601Y-47421004D01*
X114753682Y-47415391D01*
X114757611Y-47404476D01*
X114782243Y-47345878D01*
X114782906Y-47344268D01*
X114806736Y-47285291D01*
X114811427Y-47275138D01*
X114877596Y-47148568D01*
X114878167Y-47147486D01*
X114881364Y-47141473D01*
X114887533Y-47131205D01*
X114923050Y-47078549D01*
X114924016Y-47077094D01*
X114958855Y-47023853D01*
X114965420Y-47014817D01*
X115055100Y-46903275D01*
X115055568Y-46902697D01*
X115059999Y-46897264D01*
X115068042Y-46888396D01*
X115113055Y-46843695D01*
X115114284Y-46842457D01*
X115158859Y-46796938D01*
X115167062Y-46789343D01*
X115276640Y-46697397D01*
X115277314Y-46696835D01*
X115282686Y-46692391D01*
X115292289Y-46685259D01*
X115345234Y-46650082D01*
X115346680Y-46649107D01*
X115399141Y-46613186D01*
X115408658Y-46607331D01*
X115534152Y-46538340D01*
X115534636Y-46538076D01*
X115540899Y-46534690D01*
X115551700Y-46529561D01*
X115610410Y-46505362D01*
X115612018Y-46504686D01*
X115670526Y-46479609D01*
X115680995Y-46475716D01*
X115817607Y-46432380D01*
X115818023Y-46432250D01*
X115824828Y-46430143D01*
X115836437Y-46427205D01*
X115898719Y-46414873D01*
X115900429Y-46414522D01*
X115962692Y-46401288D01*
X115973710Y-46399503D01*
X116115910Y-46383553D01*
X116116702Y-46383467D01*
X116123657Y-46382736D01*
X116135616Y-46382109D01*
X116157148Y-46382109D01*
X116170213Y-46381424D01*
X116191832Y-46379152D01*
X116202993Y-46378528D01*
X116210274Y-46378477D01*
X116210866Y-46378475D01*
X116215813Y-46378475D01*
X116216180Y-46378457D01*
X117209856Y-46378457D01*
X117225995Y-46380046D01*
X117225995Y-46380046D01*
G37*
G36*
X117225995Y-41380046D02*
G01*
X117235604Y-41382961D01*
X117244468Y-41387699D01*
X117252233Y-41394072D01*
X117258606Y-41401837D01*
X117263344Y-41410701D01*
X117266259Y-41420310D01*
X117267848Y-41436449D01*
X117267848Y-42011983D01*
X117270250Y-42036369D01*
X117277363Y-42059818D01*
X117288914Y-42081429D01*
X117304459Y-42100371D01*
X117323401Y-42115916D01*
X117345012Y-42127467D01*
X117368461Y-42134580D01*
X117441281Y-42149065D01*
X117462714Y-42155566D01*
X117589367Y-42208028D01*
X117609117Y-42218586D01*
X117723102Y-42294748D01*
X117740411Y-42308952D01*
X117837353Y-42405894D01*
X117851557Y-42423203D01*
X117927719Y-42537188D01*
X117938277Y-42556938D01*
X117990739Y-42683591D01*
X117997240Y-42705024D01*
X118023985Y-42839480D01*
X118026179Y-42861760D01*
X118026179Y-42998858D01*
X118023985Y-43021138D01*
X117997240Y-43155594D01*
X117990739Y-43177027D01*
X117938277Y-43303680D01*
X117927719Y-43323430D01*
X117851557Y-43437415D01*
X117837353Y-43454724D01*
X117740411Y-43551666D01*
X117723102Y-43565870D01*
X117609117Y-43642032D01*
X117589367Y-43652590D01*
X117462714Y-43705052D01*
X117441281Y-43711553D01*
X117368461Y-43726038D01*
X117345012Y-43733151D01*
X117323401Y-43744702D01*
X117304459Y-43760248D01*
X117288914Y-43779189D01*
X117277363Y-43800800D01*
X117270250Y-43824249D01*
X117267848Y-43848635D01*
X117267848Y-44424169D01*
X117266259Y-44440308D01*
X117263344Y-44449917D01*
X117258606Y-44458781D01*
X117252233Y-44466546D01*
X117244468Y-44472919D01*
X117235604Y-44477657D01*
X117225995Y-44480572D01*
X117209856Y-44482161D01*
X116222136Y-44482161D01*
X116193746Y-44479365D01*
X116193637Y-44480471D01*
X116180894Y-44478581D01*
X116145866Y-44478581D01*
X116134694Y-44478035D01*
X115992081Y-44464051D01*
X115992032Y-44464547D01*
X115991665Y-44464482D01*
X115991714Y-44464013D01*
X115984563Y-44463262D01*
X115972732Y-44461388D01*
X115910637Y-44448190D01*
X115908928Y-44447840D01*
X115846475Y-44435474D01*
X115835644Y-44432774D01*
X115698560Y-44391387D01*
X115697979Y-44391209D01*
X115691209Y-44389113D01*
X115679975Y-44384980D01*
X115621614Y-44359967D01*
X115620007Y-44359291D01*
X115561155Y-44335034D01*
X115551043Y-44330275D01*
X115424873Y-44263189D01*
X115423893Y-44262664D01*
X115417844Y-44259393D01*
X115407647Y-44253169D01*
X115355258Y-44217297D01*
X115353810Y-44216320D01*
X115300765Y-44181077D01*
X115291801Y-44174469D01*
X115180869Y-44083994D01*
X115180355Y-44083571D01*
X115174894Y-44079054D01*
X115166086Y-44070955D01*
X115121700Y-44025629D01*
X115120470Y-44024390D01*
X115075277Y-43979512D01*
X115067731Y-43971247D01*
X114976483Y-43860947D01*
X114975993Y-43860351D01*
X114971602Y-43854966D01*
X114964528Y-43845301D01*
X114929763Y-43792176D01*
X114928798Y-43790723D01*
X114893203Y-43737950D01*
X114887413Y-43728391D01*
X114819416Y-43602632D01*
X114818892Y-43601654D01*
X114815704Y-43595658D01*
X114810643Y-43584804D01*
X114786853Y-43525921D01*
X114786187Y-43524305D01*
X114761521Y-43465628D01*
X114757704Y-43455141D01*
X114715379Y-43318411D01*
X114715142Y-43317635D01*
X114713135Y-43310990D01*
X114710282Y-43299373D01*
X114698372Y-43236937D01*
X114698033Y-43235222D01*
X114685244Y-43172925D01*
X114683536Y-43161894D01*
X114668555Y-43019365D01*
X114668495Y-43018775D01*
X114667816Y-43011843D01*
X114667273Y-42999893D01*
X114667715Y-42936382D01*
X114667715Y-42934641D01*
X114667271Y-42870981D01*
X114667739Y-42859821D01*
X114680693Y-42717493D01*
X114680809Y-42716262D01*
X114681466Y-42709569D01*
X114683254Y-42697747D01*
X114696021Y-42635548D01*
X114696360Y-42633837D01*
X114708289Y-42571302D01*
X114710916Y-42560443D01*
X114749206Y-42430345D01*
X114751503Y-42424683D01*
X114751960Y-42423132D01*
X114752089Y-42423170D01*
X114752192Y-42422823D01*
X114752064Y-42422784D01*
X114752601Y-42421004D01*
X114753682Y-42415391D01*
X114757611Y-42404476D01*
X114782243Y-42345878D01*
X114782906Y-42344268D01*
X114806736Y-42285291D01*
X114811427Y-42275138D01*
X114877596Y-42148568D01*
X114878167Y-42147486D01*
X114881364Y-42141473D01*
X114887533Y-42131205D01*
X114923050Y-42078549D01*
X114924016Y-42077094D01*
X114958855Y-42023853D01*
X114965420Y-42014817D01*
X115055100Y-41903275D01*
X115055568Y-41902697D01*
X115059999Y-41897264D01*
X115068042Y-41888396D01*
X115113055Y-41843695D01*
X115114284Y-41842457D01*
X115158859Y-41796938D01*
X115167062Y-41789343D01*
X115276640Y-41697397D01*
X115277314Y-41696835D01*
X115282686Y-41692391D01*
X115292289Y-41685259D01*
X115345234Y-41650082D01*
X115346680Y-41649107D01*
X115399141Y-41613186D01*
X115408658Y-41607331D01*
X115534152Y-41538340D01*
X115534636Y-41538076D01*
X115540899Y-41534690D01*
X115551700Y-41529561D01*
X115610410Y-41505362D01*
X115612018Y-41504686D01*
X115670526Y-41479609D01*
X115680995Y-41475716D01*
X115817607Y-41432380D01*
X115818023Y-41432250D01*
X115824828Y-41430143D01*
X115836437Y-41427205D01*
X115898719Y-41414873D01*
X115900429Y-41414522D01*
X115962692Y-41401288D01*
X115973710Y-41399503D01*
X116115910Y-41383553D01*
X116116702Y-41383467D01*
X116123657Y-41382736D01*
X116135616Y-41382109D01*
X116157148Y-41382109D01*
X116170213Y-41381424D01*
X116191832Y-41379152D01*
X116202993Y-41378528D01*
X116210274Y-41378477D01*
X116210866Y-41378475D01*
X116215813Y-41378475D01*
X116216180Y-41378457D01*
X117209856Y-41378457D01*
X117225995Y-41380046D01*
X117225995Y-41380046D01*
G37*
G36*
X51019767Y-39629859D02*
G01*
X51019876Y-39628753D01*
X51032619Y-39630643D01*
X51067647Y-39630643D01*
X51078819Y-39631189D01*
X51221432Y-39645173D01*
X51221481Y-39644677D01*
X51221848Y-39644742D01*
X51221799Y-39645211D01*
X51228950Y-39645962D01*
X51240781Y-39647836D01*
X51302876Y-39661034D01*
X51304585Y-39661384D01*
X51367038Y-39673750D01*
X51377869Y-39676450D01*
X51514953Y-39717837D01*
X51515534Y-39718015D01*
X51522304Y-39720111D01*
X51533538Y-39724244D01*
X51591899Y-39749257D01*
X51593506Y-39749933D01*
X51652358Y-39774190D01*
X51662470Y-39778949D01*
X51788618Y-39846023D01*
X51789620Y-39846560D01*
X51795669Y-39849831D01*
X51805866Y-39856055D01*
X51858255Y-39891927D01*
X51859703Y-39892904D01*
X51912748Y-39928147D01*
X51921712Y-39934755D01*
X52032644Y-40025230D01*
X52033158Y-40025653D01*
X52038619Y-40030170D01*
X52047427Y-40038269D01*
X52091813Y-40083595D01*
X52093043Y-40084834D01*
X52138236Y-40129712D01*
X52145782Y-40137977D01*
X52237030Y-40248277D01*
X52237520Y-40248873D01*
X52241911Y-40254258D01*
X52248985Y-40263923D01*
X52283750Y-40317048D01*
X52284715Y-40318501D01*
X52320310Y-40371274D01*
X52326100Y-40380833D01*
X52394097Y-40506592D01*
X52394621Y-40507570D01*
X52397809Y-40513566D01*
X52402870Y-40524420D01*
X52426660Y-40583303D01*
X52427326Y-40584919D01*
X52451992Y-40643596D01*
X52455809Y-40654083D01*
X52498134Y-40790813D01*
X52498371Y-40791589D01*
X52500378Y-40798234D01*
X52503231Y-40809851D01*
X52515141Y-40872287D01*
X52515480Y-40874002D01*
X52528269Y-40936299D01*
X52529977Y-40947330D01*
X52544958Y-41089859D01*
X52545018Y-41090449D01*
X52545697Y-41097381D01*
X52546240Y-41109331D01*
X52545798Y-41172841D01*
X52545798Y-41174582D01*
X52546242Y-41238243D01*
X52545774Y-41249403D01*
X52532820Y-41391731D01*
X52532711Y-41392888D01*
X52532047Y-41399655D01*
X52530259Y-41411477D01*
X52517492Y-41473676D01*
X52517153Y-41475387D01*
X52505224Y-41537922D01*
X52502597Y-41548781D01*
X52464307Y-41678879D01*
X52462010Y-41684541D01*
X52461553Y-41686092D01*
X52461424Y-41686054D01*
X52461321Y-41686401D01*
X52461449Y-41686440D01*
X52460912Y-41688220D01*
X52459831Y-41693833D01*
X52455902Y-41704748D01*
X52431270Y-41763346D01*
X52430607Y-41764956D01*
X52406777Y-41823933D01*
X52402086Y-41834086D01*
X52335917Y-41960656D01*
X52335368Y-41961697D01*
X52332149Y-41967751D01*
X52325980Y-41978019D01*
X52290463Y-42030675D01*
X52289497Y-42032130D01*
X52254658Y-42085371D01*
X52248093Y-42094407D01*
X52158413Y-42205949D01*
X52157945Y-42206527D01*
X52153514Y-42211960D01*
X52145471Y-42220828D01*
X52100458Y-42265529D01*
X52099229Y-42266767D01*
X52054654Y-42312286D01*
X52046451Y-42319881D01*
X51936873Y-42411827D01*
X51936199Y-42412389D01*
X51930827Y-42416833D01*
X51921224Y-42423965D01*
X51868279Y-42459142D01*
X51866833Y-42460117D01*
X51814372Y-42496038D01*
X51804855Y-42501893D01*
X51679361Y-42570884D01*
X51678877Y-42571148D01*
X51672614Y-42574534D01*
X51661813Y-42579663D01*
X51603103Y-42603862D01*
X51601495Y-42604538D01*
X51542987Y-42629615D01*
X51532518Y-42633508D01*
X51395935Y-42676835D01*
X51395490Y-42676974D01*
X51388685Y-42679081D01*
X51377076Y-42682019D01*
X51314794Y-42694351D01*
X51313084Y-42694702D01*
X51250821Y-42707936D01*
X51239803Y-42709721D01*
X51097603Y-42725671D01*
X51096811Y-42725757D01*
X51089856Y-42726488D01*
X51077897Y-42727115D01*
X51056365Y-42727115D01*
X51043300Y-42727800D01*
X51021681Y-42730072D01*
X51010520Y-42730696D01*
X51003239Y-42730747D01*
X51002647Y-42730749D01*
X50997700Y-42730749D01*
X50997333Y-42730767D01*
X50003657Y-42730767D01*
X49987518Y-42729178D01*
X49977909Y-42726263D01*
X49969045Y-42721525D01*
X49961280Y-42715152D01*
X49954907Y-42707387D01*
X49950169Y-42698523D01*
X49947254Y-42688914D01*
X49945665Y-42672775D01*
X49945665Y-42097241D01*
X49943263Y-42072855D01*
X49936150Y-42049406D01*
X49924599Y-42027795D01*
X49909054Y-42008853D01*
X49890112Y-41993308D01*
X49868501Y-41981757D01*
X49845052Y-41974644D01*
X49772232Y-41960159D01*
X49750799Y-41953658D01*
X49624146Y-41901196D01*
X49604396Y-41890638D01*
X49490411Y-41814476D01*
X49473102Y-41800272D01*
X49376160Y-41703330D01*
X49361956Y-41686021D01*
X49285794Y-41572036D01*
X49275236Y-41552286D01*
X49222774Y-41425633D01*
X49216273Y-41404200D01*
X49189528Y-41269744D01*
X49187334Y-41247464D01*
X49187334Y-41110366D01*
X49189528Y-41088086D01*
X49216273Y-40953630D01*
X49222774Y-40932197D01*
X49275236Y-40805544D01*
X49285794Y-40785794D01*
X49361956Y-40671809D01*
X49376160Y-40654500D01*
X49473102Y-40557558D01*
X49490411Y-40543354D01*
X49604396Y-40467192D01*
X49624146Y-40456634D01*
X49750799Y-40404172D01*
X49772232Y-40397671D01*
X49845052Y-40383186D01*
X49868501Y-40376073D01*
X49890112Y-40364522D01*
X49909054Y-40348976D01*
X49924599Y-40330035D01*
X49936150Y-40308424D01*
X49943263Y-40284975D01*
X49945665Y-40260589D01*
X49945665Y-39685055D01*
X49947254Y-39668916D01*
X49950169Y-39659307D01*
X49954907Y-39650443D01*
X49961280Y-39642678D01*
X49969045Y-39636305D01*
X49977909Y-39631567D01*
X49987518Y-39628652D01*
X50003657Y-39627063D01*
X50991377Y-39627063D01*
X51019767Y-39629859D01*
X51019767Y-39629859D01*
G37*
G36*
X98212177Y-41084459D02*
G01*
X97811874Y-42111183D01*
X95853459Y-41347629D01*
X96253762Y-40320905D01*
X98212177Y-41084459D01*
X98212177Y-41084459D01*
G37*
G36*
X83606399Y-40667617D02*
G01*
X83328618Y-41734033D01*
X81294493Y-41204183D01*
X81572274Y-40137767D01*
X83606399Y-40667617D01*
X83606399Y-40667617D01*
G37*
G36*
X68968101Y-40180697D02*
G01*
X68968101Y-40180698D01*
X68850723Y-41084459D01*
X68826168Y-41273519D01*
X66741675Y-41002791D01*
X66750844Y-40932197D01*
X66883608Y-39909969D01*
X68968101Y-40180697D01*
X68968101Y-40180697D01*
G37*
G36*
X62621405Y-39356404D02*
G01*
X62621405Y-39356405D01*
X62514348Y-40180697D01*
X62479472Y-40449226D01*
X60394979Y-40178498D01*
X60413192Y-40038269D01*
X60536912Y-39085676D01*
X62621405Y-39356404D01*
X62621405Y-39356404D01*
G37*
G36*
X77413060Y-39054372D02*
G01*
X77135279Y-40120788D01*
X75101154Y-39590938D01*
X75378935Y-38524522D01*
X77413060Y-39054372D01*
X77413060Y-39054372D01*
G37*
G36*
X92249352Y-38759650D02*
G01*
X91849049Y-39786374D01*
X89890634Y-39022820D01*
X90290937Y-37996096D01*
X92249352Y-38759650D01*
X92249352Y-38759650D01*
G37*
G36*
X99737832Y-37171356D02*
G01*
X99337529Y-38198080D01*
X97379114Y-37434526D01*
X97779417Y-36407802D01*
X99737832Y-37171356D01*
X99737832Y-37171356D01*
G37*
G36*
X51019767Y-34629859D02*
G01*
X51019876Y-34628753D01*
X51032619Y-34630643D01*
X51067647Y-34630643D01*
X51078819Y-34631189D01*
X51221432Y-34645173D01*
X51221481Y-34644677D01*
X51221848Y-34644742D01*
X51221799Y-34645211D01*
X51228950Y-34645962D01*
X51240781Y-34647836D01*
X51302876Y-34661034D01*
X51304585Y-34661384D01*
X51367038Y-34673750D01*
X51377869Y-34676450D01*
X51514953Y-34717837D01*
X51515534Y-34718015D01*
X51522304Y-34720111D01*
X51533538Y-34724244D01*
X51591899Y-34749257D01*
X51593506Y-34749933D01*
X51652358Y-34774190D01*
X51662470Y-34778949D01*
X51788618Y-34846023D01*
X51789620Y-34846560D01*
X51795669Y-34849831D01*
X51805866Y-34856055D01*
X51858255Y-34891927D01*
X51859703Y-34892904D01*
X51912748Y-34928147D01*
X51921712Y-34934755D01*
X52032644Y-35025230D01*
X52033158Y-35025653D01*
X52038619Y-35030170D01*
X52047427Y-35038269D01*
X52091813Y-35083595D01*
X52093043Y-35084834D01*
X52138236Y-35129712D01*
X52145782Y-35137977D01*
X52237030Y-35248277D01*
X52237520Y-35248873D01*
X52241911Y-35254258D01*
X52248985Y-35263923D01*
X52283750Y-35317048D01*
X52284715Y-35318501D01*
X52320310Y-35371274D01*
X52326100Y-35380833D01*
X52394097Y-35506592D01*
X52394621Y-35507570D01*
X52397809Y-35513566D01*
X52402870Y-35524420D01*
X52426660Y-35583303D01*
X52427326Y-35584919D01*
X52451992Y-35643596D01*
X52455809Y-35654083D01*
X52498134Y-35790813D01*
X52498371Y-35791589D01*
X52500378Y-35798234D01*
X52503231Y-35809851D01*
X52515141Y-35872287D01*
X52515480Y-35874002D01*
X52528269Y-35936299D01*
X52529977Y-35947330D01*
X52544958Y-36089859D01*
X52545018Y-36090449D01*
X52545697Y-36097381D01*
X52546240Y-36109331D01*
X52545798Y-36172841D01*
X52545798Y-36174582D01*
X52546242Y-36238243D01*
X52545774Y-36249403D01*
X52532820Y-36391731D01*
X52532711Y-36392888D01*
X52532047Y-36399655D01*
X52530259Y-36411477D01*
X52517492Y-36473676D01*
X52517153Y-36475387D01*
X52505224Y-36537922D01*
X52502597Y-36548781D01*
X52464307Y-36678879D01*
X52462010Y-36684541D01*
X52461553Y-36686092D01*
X52461424Y-36686054D01*
X52461321Y-36686401D01*
X52461449Y-36686440D01*
X52460912Y-36688220D01*
X52459831Y-36693833D01*
X52455902Y-36704748D01*
X52431270Y-36763346D01*
X52430607Y-36764956D01*
X52406777Y-36823933D01*
X52402086Y-36834086D01*
X52335917Y-36960656D01*
X52335368Y-36961697D01*
X52332149Y-36967751D01*
X52325980Y-36978019D01*
X52290463Y-37030675D01*
X52289497Y-37032130D01*
X52254658Y-37085371D01*
X52248093Y-37094407D01*
X52158413Y-37205949D01*
X52157945Y-37206527D01*
X52153514Y-37211960D01*
X52145471Y-37220828D01*
X52100458Y-37265529D01*
X52099229Y-37266767D01*
X52054654Y-37312286D01*
X52046451Y-37319881D01*
X51936873Y-37411827D01*
X51936199Y-37412389D01*
X51930827Y-37416833D01*
X51921224Y-37423965D01*
X51868279Y-37459142D01*
X51866833Y-37460117D01*
X51814372Y-37496038D01*
X51804855Y-37501893D01*
X51679361Y-37570884D01*
X51678877Y-37571148D01*
X51672614Y-37574534D01*
X51661813Y-37579663D01*
X51603103Y-37603862D01*
X51601495Y-37604538D01*
X51542987Y-37629615D01*
X51532518Y-37633508D01*
X51395935Y-37676835D01*
X51395490Y-37676974D01*
X51388685Y-37679081D01*
X51377076Y-37682019D01*
X51314794Y-37694351D01*
X51313084Y-37694702D01*
X51250821Y-37707936D01*
X51239803Y-37709721D01*
X51097603Y-37725671D01*
X51096811Y-37725757D01*
X51089856Y-37726488D01*
X51077897Y-37727115D01*
X51056365Y-37727115D01*
X51043300Y-37727800D01*
X51021681Y-37730072D01*
X51010520Y-37730696D01*
X51003239Y-37730747D01*
X51002647Y-37730749D01*
X50997700Y-37730749D01*
X50997333Y-37730767D01*
X50003657Y-37730767D01*
X49987518Y-37729178D01*
X49977909Y-37726263D01*
X49969045Y-37721525D01*
X49961280Y-37715152D01*
X49954907Y-37707387D01*
X49950169Y-37698523D01*
X49947254Y-37688914D01*
X49945665Y-37672775D01*
X49945665Y-37097241D01*
X49943263Y-37072855D01*
X49936150Y-37049406D01*
X49924599Y-37027795D01*
X49909054Y-37008853D01*
X49890112Y-36993308D01*
X49868501Y-36981757D01*
X49845052Y-36974644D01*
X49772232Y-36960159D01*
X49750799Y-36953658D01*
X49624146Y-36901196D01*
X49604396Y-36890638D01*
X49490411Y-36814476D01*
X49473102Y-36800272D01*
X49376160Y-36703330D01*
X49361956Y-36686021D01*
X49285794Y-36572036D01*
X49275236Y-36552286D01*
X49222774Y-36425633D01*
X49216273Y-36404200D01*
X49189528Y-36269744D01*
X49187334Y-36247464D01*
X49187334Y-36110366D01*
X49189528Y-36088086D01*
X49216273Y-35953630D01*
X49222774Y-35932197D01*
X49275236Y-35805544D01*
X49285794Y-35785794D01*
X49361956Y-35671809D01*
X49376160Y-35654500D01*
X49473102Y-35557558D01*
X49490411Y-35543354D01*
X49604396Y-35467192D01*
X49624146Y-35456634D01*
X49750799Y-35404172D01*
X49772232Y-35397671D01*
X49845052Y-35383186D01*
X49868501Y-35376073D01*
X49890112Y-35364522D01*
X49909054Y-35348976D01*
X49924599Y-35330035D01*
X49936150Y-35308424D01*
X49943263Y-35284975D01*
X49945665Y-35260589D01*
X49945665Y-34685055D01*
X49947254Y-34668916D01*
X49950169Y-34659307D01*
X49954907Y-34650443D01*
X49961280Y-34642678D01*
X49969045Y-34636305D01*
X49977909Y-34631567D01*
X49987518Y-34628652D01*
X50003657Y-34627063D01*
X50991377Y-34627063D01*
X51019767Y-34629859D01*
X51019767Y-34629859D01*
G37*
G36*
X84665090Y-36603238D02*
G01*
X84387309Y-37669654D01*
X82353184Y-37139804D01*
X82630965Y-36073388D01*
X84665090Y-36603238D01*
X84665090Y-36603238D01*
G37*
G36*
X69509043Y-36015678D02*
G01*
X69509043Y-36015679D01*
X69367110Y-37108500D01*
X67282617Y-36837772D01*
X67284076Y-36826542D01*
X67424550Y-35744950D01*
X69509043Y-36015678D01*
X69509043Y-36015678D01*
G37*
G36*
X63162347Y-35191385D02*
G01*
X63162347Y-35191386D01*
X63020414Y-36284207D01*
X60935921Y-36013479D01*
X60944462Y-35947720D01*
X61077854Y-34920657D01*
X63162347Y-35191385D01*
X63162347Y-35191385D01*
G37*
G36*
X78471751Y-34989993D02*
G01*
X78193970Y-36056409D01*
X76159845Y-35526559D01*
X76437626Y-34460143D01*
X78471751Y-34989993D01*
X78471751Y-34989993D01*
G37*
G36*
X93775007Y-34846547D02*
G01*
X93374704Y-35873271D01*
X91416289Y-35109717D01*
X91816592Y-34082993D01*
X93775007Y-34846547D01*
X93775007Y-34846547D01*
G37*
G36*
X117519878Y-32420601D02*
G01*
X117711147Y-32499827D01*
X117711149Y-32499828D01*
X117830630Y-32579663D01*
X117883287Y-32614847D01*
X118029679Y-32761239D01*
X118144699Y-32933379D01*
X118223925Y-33124648D01*
X118264314Y-33327696D01*
X118264314Y-33534728D01*
X118223925Y-33737776D01*
X118144699Y-33929045D01*
X118144698Y-33929047D01*
X118029679Y-34101185D01*
X117883287Y-34247577D01*
X117711149Y-34362596D01*
X117711148Y-34362597D01*
X117711147Y-34362597D01*
X117519878Y-34441823D01*
X117316830Y-34482212D01*
X117109798Y-34482212D01*
X116906750Y-34441823D01*
X116715481Y-34362597D01*
X116715480Y-34362597D01*
X116715479Y-34362596D01*
X116543341Y-34247577D01*
X116396949Y-34101185D01*
X116281930Y-33929047D01*
X116281929Y-33929045D01*
X116202703Y-33737776D01*
X116162314Y-33534728D01*
X116162314Y-33327696D01*
X116202703Y-33124648D01*
X116281929Y-32933379D01*
X116396949Y-32761239D01*
X116543341Y-32614847D01*
X116595998Y-32579663D01*
X116715479Y-32499828D01*
X116715481Y-32499827D01*
X116906750Y-32420601D01*
X117109798Y-32380212D01*
X117316830Y-32380212D01*
X117519878Y-32420601D01*
X117519878Y-32420601D01*
G37*
G36*
X51019767Y-29629859D02*
G01*
X51019876Y-29628753D01*
X51032619Y-29630643D01*
X51067647Y-29630643D01*
X51078819Y-29631189D01*
X51221432Y-29645173D01*
X51221481Y-29644677D01*
X51221848Y-29644742D01*
X51221799Y-29645211D01*
X51228950Y-29645962D01*
X51240781Y-29647836D01*
X51302876Y-29661034D01*
X51304585Y-29661384D01*
X51367038Y-29673750D01*
X51377869Y-29676450D01*
X51514953Y-29717837D01*
X51515534Y-29718015D01*
X51522304Y-29720111D01*
X51533538Y-29724244D01*
X51591899Y-29749257D01*
X51593506Y-29749933D01*
X51652358Y-29774190D01*
X51662470Y-29778949D01*
X51788618Y-29846023D01*
X51789620Y-29846560D01*
X51795669Y-29849831D01*
X51805866Y-29856055D01*
X51858255Y-29891927D01*
X51859703Y-29892904D01*
X51912748Y-29928147D01*
X51921712Y-29934755D01*
X52032644Y-30025230D01*
X52033158Y-30025653D01*
X52038619Y-30030170D01*
X52047427Y-30038269D01*
X52091813Y-30083595D01*
X52093043Y-30084834D01*
X52138236Y-30129712D01*
X52145782Y-30137977D01*
X52237030Y-30248277D01*
X52237520Y-30248873D01*
X52241911Y-30254258D01*
X52248985Y-30263923D01*
X52283750Y-30317048D01*
X52284715Y-30318501D01*
X52320310Y-30371274D01*
X52326100Y-30380833D01*
X52394097Y-30506592D01*
X52394621Y-30507570D01*
X52397809Y-30513566D01*
X52402870Y-30524420D01*
X52426660Y-30583303D01*
X52427326Y-30584919D01*
X52451992Y-30643596D01*
X52455809Y-30654083D01*
X52498134Y-30790813D01*
X52498371Y-30791589D01*
X52500378Y-30798234D01*
X52503231Y-30809851D01*
X52515141Y-30872287D01*
X52515480Y-30874002D01*
X52528269Y-30936299D01*
X52529977Y-30947330D01*
X52544958Y-31089859D01*
X52545018Y-31090449D01*
X52545697Y-31097381D01*
X52546240Y-31109331D01*
X52545798Y-31172841D01*
X52545798Y-31174582D01*
X52546242Y-31238243D01*
X52545774Y-31249403D01*
X52532820Y-31391731D01*
X52532711Y-31392888D01*
X52532047Y-31399655D01*
X52530259Y-31411477D01*
X52517492Y-31473676D01*
X52517153Y-31475387D01*
X52505224Y-31537922D01*
X52502597Y-31548781D01*
X52464307Y-31678879D01*
X52462010Y-31684541D01*
X52461553Y-31686092D01*
X52461424Y-31686054D01*
X52461321Y-31686401D01*
X52461449Y-31686440D01*
X52460912Y-31688220D01*
X52459831Y-31693833D01*
X52455902Y-31704748D01*
X52431270Y-31763346D01*
X52430607Y-31764956D01*
X52406777Y-31823933D01*
X52402086Y-31834086D01*
X52335917Y-31960656D01*
X52335368Y-31961697D01*
X52332149Y-31967751D01*
X52325980Y-31978019D01*
X52290463Y-32030675D01*
X52289497Y-32032130D01*
X52254658Y-32085371D01*
X52248093Y-32094407D01*
X52158413Y-32205949D01*
X52157945Y-32206527D01*
X52153514Y-32211960D01*
X52145471Y-32220828D01*
X52100458Y-32265529D01*
X52099229Y-32266767D01*
X52054654Y-32312286D01*
X52046451Y-32319881D01*
X51936873Y-32411827D01*
X51936199Y-32412389D01*
X51930827Y-32416833D01*
X51921224Y-32423965D01*
X51868279Y-32459142D01*
X51866833Y-32460117D01*
X51814372Y-32496038D01*
X51804855Y-32501893D01*
X51679361Y-32570884D01*
X51678877Y-32571148D01*
X51672614Y-32574534D01*
X51661813Y-32579663D01*
X51603103Y-32603862D01*
X51601495Y-32604538D01*
X51542987Y-32629615D01*
X51532518Y-32633508D01*
X51395935Y-32676835D01*
X51395490Y-32676974D01*
X51388685Y-32679081D01*
X51377076Y-32682019D01*
X51314794Y-32694351D01*
X51313084Y-32694702D01*
X51250821Y-32707936D01*
X51239803Y-32709721D01*
X51097603Y-32725671D01*
X51096811Y-32725757D01*
X51089856Y-32726488D01*
X51077897Y-32727115D01*
X51056365Y-32727115D01*
X51043300Y-32727800D01*
X51021681Y-32730072D01*
X51010520Y-32730696D01*
X51003239Y-32730747D01*
X51002647Y-32730749D01*
X50997700Y-32730749D01*
X50997333Y-32730767D01*
X50003657Y-32730767D01*
X49987518Y-32729178D01*
X49977909Y-32726263D01*
X49969045Y-32721525D01*
X49961280Y-32715152D01*
X49954907Y-32707387D01*
X49950169Y-32698523D01*
X49947254Y-32688914D01*
X49945665Y-32672775D01*
X49945665Y-32097241D01*
X49943263Y-32072855D01*
X49936150Y-32049406D01*
X49924599Y-32027795D01*
X49909054Y-32008853D01*
X49890112Y-31993308D01*
X49868501Y-31981757D01*
X49845052Y-31974644D01*
X49772232Y-31960159D01*
X49750799Y-31953658D01*
X49624146Y-31901196D01*
X49604396Y-31890638D01*
X49490411Y-31814476D01*
X49473102Y-31800272D01*
X49376160Y-31703330D01*
X49361956Y-31686021D01*
X49285794Y-31572036D01*
X49275236Y-31552286D01*
X49222774Y-31425633D01*
X49216273Y-31404200D01*
X49189528Y-31269744D01*
X49187334Y-31247464D01*
X49187334Y-31110366D01*
X49189528Y-31088086D01*
X49216273Y-30953630D01*
X49222774Y-30932197D01*
X49275236Y-30805544D01*
X49285794Y-30785794D01*
X49361956Y-30671809D01*
X49376160Y-30654500D01*
X49473102Y-30557558D01*
X49490411Y-30543354D01*
X49604396Y-30467192D01*
X49624146Y-30456634D01*
X49750799Y-30404172D01*
X49772232Y-30397671D01*
X49845052Y-30383186D01*
X49868501Y-30376073D01*
X49890112Y-30364522D01*
X49909054Y-30348976D01*
X49924599Y-30330035D01*
X49936150Y-30308424D01*
X49943263Y-30284975D01*
X49945665Y-30260589D01*
X49945665Y-29685055D01*
X49947254Y-29668916D01*
X49950169Y-29659307D01*
X49954907Y-29650443D01*
X49961280Y-29642678D01*
X49969045Y-29636305D01*
X49977909Y-29631567D01*
X49987518Y-29628652D01*
X50003657Y-29627063D01*
X50991377Y-29627063D01*
X51019767Y-29629859D01*
X51019767Y-29629859D01*
G37*
G36*
X86257198Y-28214741D02*
G01*
X86323383Y-28221260D01*
X86493222Y-28272780D01*
X86649747Y-28356445D01*
X86685485Y-28385775D01*
X86786942Y-28469037D01*
X86870204Y-28570494D01*
X86899534Y-28606232D01*
X86983199Y-28762757D01*
X87034719Y-28932596D01*
X87052115Y-29109223D01*
X87034719Y-29285850D01*
X86983199Y-29455689D01*
X86899534Y-29612214D01*
X86879763Y-29636305D01*
X86786942Y-29749409D01*
X86714179Y-29809123D01*
X86649747Y-29862001D01*
X86571485Y-29903833D01*
X86525998Y-29928147D01*
X86493222Y-29945666D01*
X86323383Y-29997186D01*
X86257199Y-30003704D01*
X86191016Y-30010223D01*
X86102496Y-30010223D01*
X86036313Y-30003704D01*
X85970129Y-29997186D01*
X85800290Y-29945666D01*
X85767515Y-29928147D01*
X85722028Y-29903834D01*
X85643765Y-29862001D01*
X85579333Y-29809123D01*
X85506570Y-29749409D01*
X85413749Y-29636305D01*
X85393978Y-29612214D01*
X85310313Y-29455689D01*
X85258793Y-29285850D01*
X85241397Y-29109223D01*
X85258793Y-28932596D01*
X85310313Y-28762757D01*
X85393978Y-28606232D01*
X85423308Y-28570494D01*
X85506570Y-28469037D01*
X85608027Y-28385775D01*
X85643765Y-28356445D01*
X85800290Y-28272780D01*
X85970129Y-28221260D01*
X86036314Y-28214741D01*
X86102496Y-28208223D01*
X86191016Y-28208223D01*
X86257198Y-28214741D01*
X86257198Y-28214741D01*
G37*
G36*
X88797198Y-28214741D02*
G01*
X88863383Y-28221260D01*
X89033222Y-28272780D01*
X89189747Y-28356445D01*
X89225485Y-28385775D01*
X89326942Y-28469037D01*
X89410204Y-28570494D01*
X89439534Y-28606232D01*
X89523199Y-28762757D01*
X89574719Y-28932596D01*
X89592115Y-29109223D01*
X89574719Y-29285850D01*
X89523199Y-29455689D01*
X89439534Y-29612214D01*
X89419763Y-29636305D01*
X89326942Y-29749409D01*
X89254179Y-29809123D01*
X89189747Y-29862001D01*
X89111485Y-29903833D01*
X89065998Y-29928147D01*
X89033222Y-29945666D01*
X88863383Y-29997186D01*
X88797199Y-30003704D01*
X88731016Y-30010223D01*
X88642496Y-30010223D01*
X88576313Y-30003704D01*
X88510129Y-29997186D01*
X88340290Y-29945666D01*
X88307515Y-29928147D01*
X88262028Y-29903834D01*
X88183765Y-29862001D01*
X88119333Y-29809123D01*
X88046570Y-29749409D01*
X87953749Y-29636305D01*
X87933978Y-29612214D01*
X87850313Y-29455689D01*
X87798793Y-29285850D01*
X87781397Y-29109223D01*
X87798793Y-28932596D01*
X87850313Y-28762757D01*
X87933978Y-28606232D01*
X87963308Y-28570494D01*
X88046570Y-28469037D01*
X88148027Y-28385775D01*
X88183765Y-28356445D01*
X88340290Y-28272780D01*
X88510129Y-28221260D01*
X88576314Y-28214741D01*
X88642496Y-28208223D01*
X88731016Y-28208223D01*
X88797198Y-28214741D01*
X88797198Y-28214741D01*
G37*
G36*
X84507756Y-30010223D02*
G01*
X82705756Y-30010223D01*
X82705756Y-28208223D01*
X84507756Y-28208223D01*
X84507756Y-30010223D01*
X84507756Y-30010223D01*
G37*
G36*
X109288014Y-27747512D02*
G01*
X109479283Y-27826738D01*
X109479285Y-27826739D01*
X109651423Y-27941758D01*
X109797815Y-28088150D01*
X109912835Y-28260290D01*
X109992061Y-28451559D01*
X110032450Y-28654607D01*
X110032450Y-28861639D01*
X109992061Y-29064687D01*
X109912835Y-29255956D01*
X109912834Y-29255958D01*
X109797815Y-29428096D01*
X109651423Y-29574488D01*
X109479285Y-29689507D01*
X109479284Y-29689508D01*
X109479283Y-29689508D01*
X109288014Y-29768734D01*
X109084966Y-29809123D01*
X108877934Y-29809123D01*
X108674886Y-29768734D01*
X108483617Y-29689508D01*
X108483616Y-29689508D01*
X108483615Y-29689507D01*
X108311477Y-29574488D01*
X108165085Y-29428096D01*
X108050066Y-29255958D01*
X108050065Y-29255956D01*
X107970839Y-29064687D01*
X107930450Y-28861639D01*
X107930450Y-28654607D01*
X107970839Y-28451559D01*
X108050065Y-28260290D01*
X108165085Y-28088150D01*
X108311477Y-27941758D01*
X108483615Y-27826739D01*
X108483617Y-27826738D01*
X108674886Y-27747512D01*
X108877934Y-27707123D01*
X109084966Y-27707123D01*
X109288014Y-27747512D01*
X109288014Y-27747512D01*
G37*
M02*
