G04 #@! TF.GenerationSoftware,KiCad,Pcbnew,5.1.4-e60b266~84~ubuntu18.04.1*
G04 #@! TF.CreationDate,2019-08-23T14:34:05+02:00*
G04 #@! TF.ProjectId,bcc1,62636331-2e6b-4696-9361-645f70636258,rev?*
G04 #@! TF.SameCoordinates,Original*
G04 #@! TF.FileFunction,Legend,Bot*
G04 #@! TF.FilePolarity,Positive*
%FSLAX46Y46*%
G04 Gerber Fmt 4.6, Leading zero omitted, Abs format (unit mm)*
G04 Created by KiCad (PCBNEW 5.1.4-e60b266~84~ubuntu18.04.1) date 2019-08-23 14:34:05*
%MOMM*%
%LPD*%
G04 APERTURE LIST*
%ADD10C,0.300000*%
%ADD11C,0.100000*%
%ADD12C,0.150000*%
%ADD13C,0.500000*%
%ADD14C,0.120000*%
G04 APERTURE END LIST*
D10*
X97520198Y-147793783D02*
G75*
G02X98028198Y-147793783I254000J0D01*
G01*
X98028198Y-147793783D02*
G75*
G02X98536198Y-147793783I254000J0D01*
G01*
D11*
G36*
X94083426Y-145619201D02*
G01*
X94544622Y-145971489D01*
X94736574Y-146652454D01*
X94539063Y-147641737D01*
X94368426Y-147695491D01*
X94478426Y-148060795D01*
X94368426Y-148204406D01*
X94628368Y-148440178D01*
X94547721Y-148669554D01*
X93000877Y-148669554D01*
X92933360Y-148401252D01*
X93179473Y-148208819D01*
X93064619Y-148077999D01*
X93178948Y-147492488D01*
X93793262Y-146764554D01*
X93144284Y-146807354D01*
X93023426Y-146946584D01*
X92867953Y-146971084D01*
X92652751Y-146848564D01*
X92575173Y-146710441D01*
X92683426Y-146493144D01*
X93067553Y-146172876D01*
X92804914Y-145781645D01*
X92805443Y-145704553D01*
X92861277Y-145697950D01*
X93221565Y-146049554D01*
X93274573Y-146004554D01*
X93331045Y-145764553D01*
X93791926Y-145566262D01*
X94083426Y-145619201D01*
G37*
X94083426Y-145619201D02*
X94544622Y-145971489D01*
X94736574Y-146652454D01*
X94539063Y-147641737D01*
X94368426Y-147695491D01*
X94478426Y-148060795D01*
X94368426Y-148204406D01*
X94628368Y-148440178D01*
X94547721Y-148669554D01*
X93000877Y-148669554D01*
X92933360Y-148401252D01*
X93179473Y-148208819D01*
X93064619Y-148077999D01*
X93178948Y-147492488D01*
X93793262Y-146764554D01*
X93144284Y-146807354D01*
X93023426Y-146946584D01*
X92867953Y-146971084D01*
X92652751Y-146848564D01*
X92575173Y-146710441D01*
X92683426Y-146493144D01*
X93067553Y-146172876D01*
X92804914Y-145781645D01*
X92805443Y-145704553D01*
X92861277Y-145697950D01*
X93221565Y-146049554D01*
X93274573Y-146004554D01*
X93331045Y-145764553D01*
X93791926Y-145566262D01*
X94083426Y-145619201D01*
D12*
X115698023Y-145700268D02*
X115459928Y-146366934D01*
X115221833Y-145700268D01*
X114126595Y-145462173D02*
X114078976Y-145414554D01*
X113983738Y-145366934D01*
X113745642Y-145366934D01*
X113650404Y-145414554D01*
X113602785Y-145462173D01*
X113555166Y-145557411D01*
X113555166Y-145652649D01*
X113602785Y-145795506D01*
X114174214Y-146366934D01*
X113555166Y-146366934D01*
X112936119Y-145366934D02*
X112840881Y-145366934D01*
X112745642Y-145414554D01*
X112698023Y-145462173D01*
X112650404Y-145557411D01*
X112602785Y-145747887D01*
X112602785Y-145985982D01*
X112650404Y-146176458D01*
X112698023Y-146271696D01*
X112745642Y-146319315D01*
X112840881Y-146366934D01*
X112936119Y-146366934D01*
X113031357Y-146319315D01*
X113078976Y-146271696D01*
X113126595Y-146176458D01*
X113174214Y-145985982D01*
X113174214Y-145747887D01*
X113126595Y-145557411D01*
X113078976Y-145462173D01*
X113031357Y-145414554D01*
X112936119Y-145366934D01*
X111650404Y-146366934D02*
X112221833Y-146366934D01*
X111936119Y-146366934D02*
X111936119Y-145366934D01*
X112031357Y-145509792D01*
X112126595Y-145605030D01*
X112221833Y-145652649D01*
X111174214Y-146366934D02*
X110983738Y-146366934D01*
X110888500Y-146319315D01*
X110840881Y-146271696D01*
X110745642Y-146128839D01*
X110698023Y-145938363D01*
X110698023Y-145557411D01*
X110745642Y-145462173D01*
X110793262Y-145414554D01*
X110888500Y-145366934D01*
X111078976Y-145366934D01*
X111174214Y-145414554D01*
X111221833Y-145462173D01*
X111269452Y-145557411D01*
X111269452Y-145795506D01*
X111221833Y-145890744D01*
X111174214Y-145938363D01*
X111078976Y-145985982D01*
X110888500Y-145985982D01*
X110793262Y-145938363D01*
X110745642Y-145890744D01*
X110698023Y-145795506D01*
X110269452Y-146271696D02*
X110221833Y-146319315D01*
X110269452Y-146366934D01*
X110317071Y-146319315D01*
X110269452Y-146271696D01*
X110269452Y-146366934D01*
X109602785Y-145366934D02*
X109507547Y-145366934D01*
X109412309Y-145414554D01*
X109364690Y-145462173D01*
X109317071Y-145557411D01*
X109269452Y-145747887D01*
X109269452Y-145985982D01*
X109317071Y-146176458D01*
X109364690Y-146271696D01*
X109412309Y-146319315D01*
X109507547Y-146366934D01*
X109602785Y-146366934D01*
X109698023Y-146319315D01*
X109745642Y-146271696D01*
X109793262Y-146176458D01*
X109840881Y-145985982D01*
X109840881Y-145747887D01*
X109793262Y-145557411D01*
X109745642Y-145462173D01*
X109698023Y-145414554D01*
X109602785Y-145366934D01*
X108793262Y-146366934D02*
X108602785Y-146366934D01*
X108507547Y-146319315D01*
X108459928Y-146271696D01*
X108364690Y-146128839D01*
X108317071Y-145938363D01*
X108317071Y-145557411D01*
X108364690Y-145462173D01*
X108412309Y-145414554D01*
X108507547Y-145366934D01*
X108698023Y-145366934D01*
X108793262Y-145414554D01*
X108840881Y-145462173D01*
X108888500Y-145557411D01*
X108888500Y-145795506D01*
X108840881Y-145890744D01*
X108793262Y-145938363D01*
X108698023Y-145985982D01*
X108507547Y-145985982D01*
X108412309Y-145938363D01*
X108364690Y-145890744D01*
X108317071Y-145795506D01*
X107888500Y-146271696D02*
X107840881Y-146319315D01*
X107888500Y-146366934D01*
X107936119Y-146319315D01*
X107888500Y-146271696D01*
X107888500Y-146366934D01*
X107459928Y-145462173D02*
X107412309Y-145414554D01*
X107317071Y-145366934D01*
X107078976Y-145366934D01*
X106983738Y-145414554D01*
X106936119Y-145462173D01*
X106888500Y-145557411D01*
X106888500Y-145652649D01*
X106936119Y-145795506D01*
X107507547Y-146366934D01*
X106888500Y-146366934D01*
X106507547Y-145462173D02*
X106459928Y-145414554D01*
X106364690Y-145366934D01*
X106126595Y-145366934D01*
X106031357Y-145414554D01*
X105983738Y-145462173D01*
X105936119Y-145557411D01*
X105936119Y-145652649D01*
X105983738Y-145795506D01*
X106555166Y-146366934D01*
X105936119Y-146366934D01*
X115440881Y-148366934D02*
X115440881Y-147366934D01*
X115202785Y-147366934D01*
X115059928Y-147414554D01*
X114964690Y-147509792D01*
X114917071Y-147605030D01*
X114869452Y-147795506D01*
X114869452Y-147938363D01*
X114917071Y-148128839D01*
X114964690Y-148224077D01*
X115059928Y-148319315D01*
X115202785Y-148366934D01*
X115440881Y-148366934D01*
X114059928Y-148319315D02*
X114155166Y-148366934D01*
X114345642Y-148366934D01*
X114440881Y-148319315D01*
X114488500Y-148224077D01*
X114488500Y-147843125D01*
X114440881Y-147747887D01*
X114345642Y-147700268D01*
X114155166Y-147700268D01*
X114059928Y-147747887D01*
X114012309Y-147843125D01*
X114012309Y-147938363D01*
X114488500Y-148033601D01*
X113631357Y-148319315D02*
X113536119Y-148366934D01*
X113345642Y-148366934D01*
X113250404Y-148319315D01*
X113202785Y-148224077D01*
X113202785Y-148176458D01*
X113250404Y-148081220D01*
X113345642Y-148033601D01*
X113488500Y-148033601D01*
X113583738Y-147985982D01*
X113631357Y-147890744D01*
X113631357Y-147843125D01*
X113583738Y-147747887D01*
X113488500Y-147700268D01*
X113345642Y-147700268D01*
X113250404Y-147747887D01*
X112774214Y-148366934D02*
X112774214Y-147700268D01*
X112774214Y-147366934D02*
X112821833Y-147414554D01*
X112774214Y-147462173D01*
X112726595Y-147414554D01*
X112774214Y-147366934D01*
X112774214Y-147462173D01*
X111869452Y-147700268D02*
X111869452Y-148509792D01*
X111917071Y-148605030D01*
X111964690Y-148652649D01*
X112059928Y-148700268D01*
X112202785Y-148700268D01*
X112298023Y-148652649D01*
X111869452Y-148319315D02*
X111964690Y-148366934D01*
X112155166Y-148366934D01*
X112250404Y-148319315D01*
X112298023Y-148271696D01*
X112345642Y-148176458D01*
X112345642Y-147890744D01*
X112298023Y-147795506D01*
X112250404Y-147747887D01*
X112155166Y-147700268D01*
X111964690Y-147700268D01*
X111869452Y-147747887D01*
X111393262Y-147700268D02*
X111393262Y-148366934D01*
X111393262Y-147795506D02*
X111345642Y-147747887D01*
X111250404Y-147700268D01*
X111107547Y-147700268D01*
X111012309Y-147747887D01*
X110964690Y-147843125D01*
X110964690Y-148366934D01*
X110107547Y-148319315D02*
X110202785Y-148366934D01*
X110393262Y-148366934D01*
X110488500Y-148319315D01*
X110536119Y-148224077D01*
X110536119Y-147843125D01*
X110488500Y-147747887D01*
X110393262Y-147700268D01*
X110202785Y-147700268D01*
X110107547Y-147747887D01*
X110059928Y-147843125D01*
X110059928Y-147938363D01*
X110536119Y-148033601D01*
X109202785Y-148366934D02*
X109202785Y-147366934D01*
X109202785Y-148319315D02*
X109298023Y-148366934D01*
X109488500Y-148366934D01*
X109583738Y-148319315D01*
X109631357Y-148271696D01*
X109678976Y-148176458D01*
X109678976Y-147890744D01*
X109631357Y-147795506D01*
X109583738Y-147747887D01*
X109488500Y-147700268D01*
X109298023Y-147700268D01*
X109202785Y-147747887D01*
X107964690Y-148366934D02*
X107964690Y-147700268D01*
X107964690Y-147366934D02*
X108012309Y-147414554D01*
X107964690Y-147462173D01*
X107917071Y-147414554D01*
X107964690Y-147366934D01*
X107964690Y-147462173D01*
X107488500Y-147700268D02*
X107488500Y-148366934D01*
X107488500Y-147795506D02*
X107440881Y-147747887D01*
X107345642Y-147700268D01*
X107202785Y-147700268D01*
X107107547Y-147747887D01*
X107059928Y-147843125D01*
X107059928Y-148366934D01*
X105821833Y-148366934D02*
X105821833Y-147366934D01*
X105488500Y-147700268D02*
X105107547Y-147700268D01*
X105345642Y-147366934D02*
X105345642Y-148224077D01*
X105298023Y-148319315D01*
X105202785Y-148366934D01*
X105107547Y-148366934D01*
X104345642Y-148366934D02*
X104345642Y-147843125D01*
X104393262Y-147747887D01*
X104488500Y-147700268D01*
X104678976Y-147700268D01*
X104774214Y-147747887D01*
X104345642Y-148319315D02*
X104440881Y-148366934D01*
X104678976Y-148366934D01*
X104774214Y-148319315D01*
X104821833Y-148224077D01*
X104821833Y-148128839D01*
X104774214Y-148033601D01*
X104678976Y-147985982D01*
X104440881Y-147985982D01*
X104345642Y-147938363D01*
X103726595Y-148366934D02*
X103821833Y-148319315D01*
X103869452Y-148224077D01*
X103869452Y-147366934D01*
X103440881Y-147700268D02*
X103202785Y-148366934D01*
X102964690Y-147700268D02*
X103202785Y-148366934D01*
X103298023Y-148605030D01*
X103345642Y-148652649D01*
X103440881Y-148700268D01*
X101917071Y-147700268D02*
X101726595Y-148366934D01*
X101536119Y-147890744D01*
X101345642Y-148366934D01*
X101155166Y-147700268D01*
X100774214Y-148366934D02*
X100774214Y-147700268D01*
X100774214Y-147366934D02*
X100821833Y-147414554D01*
X100774214Y-147462173D01*
X100726595Y-147414554D01*
X100774214Y-147366934D01*
X100774214Y-147462173D01*
X100440881Y-147700268D02*
X100059928Y-147700268D01*
X100298023Y-147366934D02*
X100298023Y-148224077D01*
X100250404Y-148319315D01*
X100155166Y-148366934D01*
X100059928Y-148366934D01*
X99726595Y-148366934D02*
X99726595Y-147366934D01*
X99298023Y-148366934D02*
X99298023Y-147843125D01*
X99345642Y-147747887D01*
X99440881Y-147700268D01*
X99583738Y-147700268D01*
X99678976Y-147747887D01*
X99726595Y-147795506D01*
X96536119Y-148366934D02*
X96536119Y-147366934D01*
X96536119Y-147747887D02*
X96440881Y-147700268D01*
X96250404Y-147700268D01*
X96155166Y-147747887D01*
X96107547Y-147795506D01*
X96059928Y-147890744D01*
X96059928Y-148176458D01*
X96107547Y-148271696D01*
X96155166Y-148319315D01*
X96250404Y-148366934D01*
X96440881Y-148366934D01*
X96536119Y-148319315D01*
X95726595Y-147700268D02*
X95488500Y-148366934D01*
X95250404Y-147700268D02*
X95488500Y-148366934D01*
X95583738Y-148605030D01*
X95631357Y-148652649D01*
X95726595Y-148700268D01*
D10*
X97520198Y-147793783D02*
X98028198Y-148301783D01*
X98282198Y-147793783D02*
G75*
G02X97774198Y-147793783I-254000J0D01*
G01*
X98028198Y-148301783D02*
X98536198Y-147793783D01*
D12*
X78285912Y-146952380D02*
X77952578Y-147952380D01*
X77619245Y-146952380D01*
X77333531Y-147904761D02*
X77190674Y-147952380D01*
X76952578Y-147952380D01*
X76857340Y-147904761D01*
X76809721Y-147857142D01*
X76762102Y-147761904D01*
X76762102Y-147666666D01*
X76809721Y-147571428D01*
X76857340Y-147523809D01*
X76952578Y-147476190D01*
X77143055Y-147428571D01*
X77238293Y-147380952D01*
X77285912Y-147333333D01*
X77333531Y-147238095D01*
X77333531Y-147142857D01*
X77285912Y-147047619D01*
X77238293Y-147000000D01*
X77143055Y-146952380D01*
X76904959Y-146952380D01*
X76762102Y-147000000D01*
X76381150Y-147904761D02*
X76238293Y-147952380D01*
X76000198Y-147952380D01*
X75904959Y-147904761D01*
X75857340Y-147857142D01*
X75809721Y-147761904D01*
X75809721Y-147666666D01*
X75857340Y-147571428D01*
X75904959Y-147523809D01*
X76000198Y-147476190D01*
X76190674Y-147428571D01*
X76285912Y-147380952D01*
X76333531Y-147333333D01*
X76381150Y-147238095D01*
X76381150Y-147142857D01*
X76333531Y-147047619D01*
X76285912Y-147000000D01*
X76190674Y-146952380D01*
X75952578Y-146952380D01*
X75809721Y-147000000D01*
X82790476Y-147952380D02*
X82790476Y-146952380D01*
X82552380Y-146952380D01*
X82409523Y-147000000D01*
X82314285Y-147095238D01*
X82266666Y-147190476D01*
X82219047Y-147380952D01*
X82219047Y-147523809D01*
X82266666Y-147714285D01*
X82314285Y-147809523D01*
X82409523Y-147904761D01*
X82552380Y-147952380D01*
X82790476Y-147952380D01*
X81600000Y-146952380D02*
X81409523Y-146952380D01*
X81314285Y-147000000D01*
X81219047Y-147095238D01*
X81171428Y-147285714D01*
X81171428Y-147619047D01*
X81219047Y-147809523D01*
X81314285Y-147904761D01*
X81409523Y-147952380D01*
X81600000Y-147952380D01*
X81695238Y-147904761D01*
X81790476Y-147809523D01*
X81838095Y-147619047D01*
X81838095Y-147285714D01*
X81790476Y-147095238D01*
X81695238Y-147000000D01*
X81600000Y-146952380D01*
X80742857Y-146952380D02*
X80742857Y-147761904D01*
X80695238Y-147857142D01*
X80647619Y-147904761D01*
X80552380Y-147952380D01*
X80361904Y-147952380D01*
X80266666Y-147904761D01*
X80219047Y-147857142D01*
X80171428Y-147761904D01*
X80171428Y-146952380D01*
X79838095Y-146952380D02*
X79266666Y-146952380D01*
X79552380Y-147952380D02*
X79552380Y-146952380D01*
X86333531Y-146952380D02*
X86000198Y-147952380D01*
X85666864Y-146952380D01*
X85333531Y-147952380D02*
X85333531Y-146952380D01*
X85095436Y-146952380D01*
X84952578Y-147000000D01*
X84857340Y-147095238D01*
X84809721Y-147190476D01*
X84762102Y-147380952D01*
X84762102Y-147523809D01*
X84809721Y-147714285D01*
X84857340Y-147809523D01*
X84952578Y-147904761D01*
X85095436Y-147952380D01*
X85333531Y-147952380D01*
X84333531Y-147952380D02*
X84333531Y-146952380D01*
X84095436Y-146952380D01*
X83952578Y-147000000D01*
X83857340Y-147095238D01*
X83809721Y-147190476D01*
X83762102Y-147380952D01*
X83762102Y-147523809D01*
X83809721Y-147714285D01*
X83857340Y-147809523D01*
X83952578Y-147904761D01*
X84095436Y-147952380D01*
X84333531Y-147952380D01*
X116602380Y-57461821D02*
X115602380Y-57461821D01*
X115602380Y-57223726D01*
X115650000Y-57080869D01*
X115745238Y-56985631D01*
X115840476Y-56938012D01*
X116030952Y-56890392D01*
X116173809Y-56890392D01*
X116364285Y-56938012D01*
X116459523Y-56985631D01*
X116554761Y-57080869D01*
X116602380Y-57223726D01*
X116602380Y-57461821D01*
X116602380Y-56461821D02*
X115602380Y-56461821D01*
X116602380Y-55985631D02*
X115602380Y-55985631D01*
X116602380Y-55414202D01*
X115602380Y-55414202D01*
X115602380Y-34823809D02*
X116602380Y-35157142D01*
X115602380Y-35490476D01*
X116602380Y-35823809D02*
X115602380Y-35823809D01*
X115602380Y-36061904D01*
X115650000Y-36204761D01*
X115745238Y-36300000D01*
X115840476Y-36347619D01*
X116030952Y-36395238D01*
X116173809Y-36395238D01*
X116364285Y-36347619D01*
X116459523Y-36300000D01*
X116554761Y-36204761D01*
X116602380Y-36061904D01*
X116602380Y-35823809D01*
X116602380Y-36823809D02*
X115602380Y-36823809D01*
X115602380Y-37061904D01*
X115650000Y-37204761D01*
X115745238Y-37300000D01*
X115840476Y-37347619D01*
X116030952Y-37395238D01*
X116173809Y-37395238D01*
X116364285Y-37347619D01*
X116459523Y-37300000D01*
X116554761Y-37204761D01*
X116602380Y-37061904D01*
X116602380Y-36823809D01*
X116602380Y-38490476D02*
X115935714Y-39014285D01*
X115935714Y-38490476D02*
X116602380Y-39014285D01*
X115697619Y-40109523D02*
X115650000Y-40157142D01*
X115602380Y-40252380D01*
X115602380Y-40490476D01*
X115650000Y-40585714D01*
X115697619Y-40633333D01*
X115792857Y-40680952D01*
X115888095Y-40680952D01*
X116030952Y-40633333D01*
X116602380Y-40061904D01*
X116602380Y-40680952D01*
X55631069Y-49473969D02*
X59624437Y-49704226D01*
X55343249Y-54465678D02*
X59336617Y-54695935D01*
X60060287Y-50831184D02*
X59899108Y-53626541D01*
X54907399Y-53338720D02*
X55068578Y-50543363D01*
D13*
X53471885Y-55401115D02*
G75*
G03X53471885Y-55401115I-250001J0D01*
G01*
D12*
X66613364Y-40833857D02*
X62646680Y-40318675D01*
X67257342Y-35875501D02*
X63290658Y-35360319D01*
X62292519Y-39163439D02*
X62653147Y-36386759D01*
X67611503Y-37030737D02*
X67250875Y-39807417D01*
D13*
X69690160Y-35094131D02*
G75*
G03X69690160Y-35094131I-250000J0D01*
G01*
D12*
X55598604Y-77469242D02*
X59594164Y-77657668D01*
X55363072Y-82463692D02*
X59358632Y-82652118D01*
X60041792Y-78780000D02*
X59909894Y-81576892D01*
X54915444Y-81341360D02*
X55047342Y-78544468D01*
D13*
X53501619Y-83421292D02*
G75*
G03X53501619Y-83421292I-250000J0D01*
G01*
D12*
X66674509Y-68768178D02*
X62696421Y-68350064D01*
X67197151Y-63795568D02*
X63219063Y-63377454D01*
X62314141Y-67203825D02*
X62606821Y-64419164D01*
X67579431Y-64941807D02*
X67286751Y-67726468D01*
D13*
X69610226Y-62961100D02*
G75*
G03X69610226Y-62961100I-250000J0D01*
G01*
D12*
X70874558Y-49278320D02*
X74814995Y-49966037D01*
X70014913Y-54203867D02*
X73955350Y-54891584D01*
X75118428Y-51135622D02*
X74637027Y-53893928D01*
X69711480Y-53034282D02*
X70192881Y-50275976D01*
D13*
X68050090Y-54889281D02*
G75*
G03X68050090Y-54889281I-250000J0D01*
G01*
D12*
X81188367Y-41020500D02*
X77317530Y-40012222D01*
X82448714Y-36181954D02*
X78577877Y-35173676D01*
X77110952Y-38821707D02*
X77816746Y-36112122D01*
X82655292Y-37372469D02*
X81949498Y-40082054D01*
D13*
X84962252Y-35680324D02*
G75*
G03X84962252Y-35680324I-250001J0D01*
G01*
D12*
X55575334Y-105458158D02*
X59572111Y-105618686D01*
X55374675Y-110454130D02*
X59371452Y-110614658D01*
X60027563Y-106737865D02*
X59915194Y-109535610D01*
X54919223Y-109334951D02*
X55031592Y-106537206D01*
D13*
X53519958Y-111426448D02*
G75*
G03X53519958Y-111426448I-250000J0D01*
G01*
D12*
X66716061Y-96713342D02*
X62731282Y-96364719D01*
X67151840Y-91732369D02*
X63167061Y-91383746D01*
X62329056Y-95225327D02*
X62573092Y-92435982D01*
X67554066Y-92871761D02*
X67310030Y-95661106D01*
D13*
X69550022Y-90860277D02*
G75*
G03X69550022Y-90860277I-250000J0D01*
G01*
D12*
X70781935Y-77303818D02*
X74742029Y-77867423D01*
X70077429Y-82253937D02*
X74037523Y-82817542D01*
X75082050Y-79026900D02*
X74687526Y-81798966D01*
X69737408Y-81094460D02*
X70131932Y-78322394D01*
D13*
X68135228Y-83008582D02*
G75*
G03X68135228Y-83008582I-250000J0D01*
G01*
D12*
X81324392Y-68928977D02*
X77408922Y-68110992D01*
X82346872Y-64034640D02*
X78431402Y-63216655D01*
X77144434Y-66931990D02*
X77717023Y-64191162D01*
X82611360Y-65213642D02*
X82038771Y-67954470D01*
D13*
X84833202Y-63423036D02*
G75*
G03X84833202Y-63423036I-250000J0D01*
G01*
D12*
X86117793Y-49128375D02*
X89960910Y-50237633D01*
X84731220Y-53932271D02*
X88574337Y-55041529D01*
X90136253Y-51433148D02*
X89359772Y-54123329D01*
X84555877Y-52736756D02*
X85332358Y-50046575D01*
D13*
X82705327Y-54374476D02*
G75*
G03X82705327Y-54374476I-249999J0D01*
G01*
D12*
X95769487Y-41152819D02*
X92042722Y-39699814D01*
X97585744Y-36494362D02*
X93858979Y-35041357D01*
X91976453Y-38493328D02*
X92993557Y-35884592D01*
X97652013Y-37700848D02*
X96634909Y-40309584D01*
D13*
X100142348Y-36260247D02*
G75*
G03X100142348Y-36260247I-250000J0D01*
G01*
D14*
X77196756Y-146330000D02*
X77196756Y-143670000D01*
X82336756Y-146330000D02*
X77196756Y-146330000D01*
X82336756Y-143670000D02*
X77196756Y-143670000D01*
X82336756Y-146330000D02*
X82336756Y-143670000D01*
X83606756Y-146330000D02*
X84936756Y-146330000D01*
X84936756Y-146330000D02*
X84936756Y-145000000D01*
X70289867Y-132148904D02*
X71392442Y-131664908D01*
X69558322Y-130482398D02*
X70660897Y-129998402D01*
X85644825Y-131914707D02*
X86810071Y-131611183D01*
X85186059Y-130153477D02*
X86351305Y-129849953D01*
X101099065Y-131736240D02*
X102293164Y-131581154D01*
X100864658Y-129931398D02*
X102058757Y-129776312D01*
X109972084Y-115789981D02*
X108769953Y-115859295D01*
X110076851Y-117606963D02*
X108874720Y-117676277D01*
X94328424Y-115802457D02*
X93142227Y-116009482D01*
X94641335Y-117595356D02*
X93455138Y-117802381D01*
X78720096Y-115891936D02*
X77563195Y-116225858D01*
X79224809Y-117640554D02*
X78067908Y-117974476D01*
X85848781Y-103862249D02*
X87027462Y-103616010D01*
X85476598Y-102080710D02*
X86655279Y-101834471D01*
X101212640Y-103733017D02*
X102410172Y-103607151D01*
X101022398Y-101922987D02*
X102219930Y-101797121D01*
X110041786Y-87817170D02*
X108838994Y-87873892D01*
X110127520Y-89635150D02*
X108924728Y-89691872D01*
X94523076Y-87815917D02*
X93330961Y-87985580D01*
X94779517Y-89617760D02*
X93587402Y-89787423D01*
X101290546Y-75739773D02*
X102490092Y-75634826D01*
X101131922Y-73926698D02*
X102331468Y-73821751D01*
X109042134Y-61708923D02*
X110245292Y-61660599D01*
X108969094Y-59890389D02*
X110172252Y-59842065D01*
D12*
X112652380Y-136814285D02*
X113652380Y-137147619D01*
X112652380Y-137480952D01*
X113604761Y-137766666D02*
X113652380Y-137909523D01*
X113652380Y-138147619D01*
X113604761Y-138242857D01*
X113557142Y-138290476D01*
X113461904Y-138338095D01*
X113366666Y-138338095D01*
X113271428Y-138290476D01*
X113223809Y-138242857D01*
X113176190Y-138147619D01*
X113128571Y-137957142D01*
X113080952Y-137861904D01*
X113033333Y-137814285D01*
X112938095Y-137766666D01*
X112842857Y-137766666D01*
X112747619Y-137814285D01*
X112700000Y-137861904D01*
X112652380Y-137957142D01*
X112652380Y-138195238D01*
X112700000Y-138338095D01*
X113604761Y-138719047D02*
X113652380Y-138861904D01*
X113652380Y-139100000D01*
X113604761Y-139195238D01*
X113557142Y-139242857D01*
X113461904Y-139290476D01*
X113366666Y-139290476D01*
X113271428Y-139242857D01*
X113223809Y-139195238D01*
X113176190Y-139100000D01*
X113128571Y-138909523D01*
X113080952Y-138814285D01*
X113033333Y-138766666D01*
X112938095Y-138719047D01*
X112842857Y-138719047D01*
X112747619Y-138766666D01*
X112700000Y-138814285D01*
X112652380Y-138909523D01*
X112652380Y-139147619D01*
X112700000Y-139290476D01*
X112668376Y-106596975D02*
X113668376Y-106930309D01*
X112668376Y-107263642D01*
X113668376Y-107596975D02*
X112668376Y-107596975D01*
X112668376Y-107835070D01*
X112715996Y-107977928D01*
X112811234Y-108073166D01*
X112906472Y-108120785D01*
X113096948Y-108168404D01*
X113239805Y-108168404D01*
X113430281Y-108120785D01*
X113525519Y-108073166D01*
X113620757Y-107977928D01*
X113668376Y-107835070D01*
X113668376Y-107596975D01*
X113668376Y-108596975D02*
X112668376Y-108596975D01*
X112668376Y-108835070D01*
X112715996Y-108977928D01*
X112811234Y-109073166D01*
X112906472Y-109120785D01*
X113096948Y-109168404D01*
X113239805Y-109168404D01*
X113430281Y-109120785D01*
X113525519Y-109073166D01*
X113620757Y-108977928D01*
X113668376Y-108835070D01*
X113668376Y-108596975D01*
X112668376Y-76644594D02*
X113668376Y-76977928D01*
X112668376Y-77311261D01*
X113620757Y-77596975D02*
X113668376Y-77739832D01*
X113668376Y-77977928D01*
X113620757Y-78073166D01*
X113573138Y-78120785D01*
X113477900Y-78168404D01*
X113382662Y-78168404D01*
X113287424Y-78120785D01*
X113239805Y-78073166D01*
X113192186Y-77977928D01*
X113144567Y-77787451D01*
X113096948Y-77692213D01*
X113049329Y-77644594D01*
X112954091Y-77596975D01*
X112858853Y-77596975D01*
X112763615Y-77644594D01*
X112715996Y-77692213D01*
X112668376Y-77787451D01*
X112668376Y-78025547D01*
X112715996Y-78168404D01*
X113620757Y-78549356D02*
X113668376Y-78692213D01*
X113668376Y-78930309D01*
X113620757Y-79025547D01*
X113573138Y-79073166D01*
X113477900Y-79120785D01*
X113382662Y-79120785D01*
X113287424Y-79073166D01*
X113239805Y-79025547D01*
X113192186Y-78930309D01*
X113144567Y-78739832D01*
X113096948Y-78644594D01*
X113049329Y-78596975D01*
X112954091Y-78549356D01*
X112858853Y-78549356D01*
X112763615Y-78596975D01*
X112715996Y-78644594D01*
X112668376Y-78739832D01*
X112668376Y-78977928D01*
X112715996Y-79120785D01*
X71503090Y-133000190D02*
X71565833Y-133024652D01*
X71715782Y-133010834D01*
X71802988Y-132972553D01*
X71914657Y-132871529D01*
X71963582Y-132746043D01*
X71968904Y-132639696D01*
X71935946Y-132446144D01*
X71878525Y-132315335D01*
X71758360Y-132160063D01*
X71676477Y-132091998D01*
X71550990Y-132043073D01*
X71401041Y-132056891D01*
X71313835Y-132095171D01*
X71202166Y-132196196D01*
X71177703Y-132258939D01*
X70669311Y-133470203D02*
X71192547Y-133240518D01*
X70930929Y-133355361D02*
X70528981Y-132439698D01*
X70673608Y-132532226D01*
X70799095Y-132581152D01*
X70905441Y-132586474D01*
X86708140Y-132947159D02*
X86766225Y-132981237D01*
X86916472Y-132991309D01*
X87008635Y-132967302D01*
X87134876Y-132885211D01*
X87203032Y-132769042D01*
X87225107Y-132664876D01*
X87223175Y-132468547D01*
X87187165Y-132330303D01*
X87093071Y-132157980D01*
X87022983Y-132077821D01*
X86906813Y-132009665D01*
X86756566Y-131999593D01*
X86664403Y-132023600D01*
X86538162Y-132105691D01*
X86504084Y-132163776D01*
X85810519Y-133279388D02*
X86363496Y-133135349D01*
X86087007Y-133207368D02*
X85834938Y-132239659D01*
X85963111Y-132353897D01*
X86079280Y-132422053D01*
X86183446Y-132444128D01*
X102024595Y-132893820D02*
X102077951Y-132934909D01*
X102225751Y-132963732D01*
X102320196Y-132951466D01*
X102455731Y-132885844D01*
X102537909Y-132779133D01*
X102572865Y-132678555D01*
X102595555Y-132483532D01*
X102577156Y-132341865D01*
X102505401Y-132159108D01*
X102445912Y-132070796D01*
X102339201Y-131988618D01*
X102191401Y-131959795D01*
X102096956Y-131972061D01*
X101961422Y-132037683D01*
X101920332Y-132091038D01*
X101092413Y-133110927D02*
X101659082Y-133037330D01*
X101375748Y-133074128D02*
X101246952Y-132082457D01*
X101359796Y-132211858D01*
X101466507Y-132294037D01*
X101567085Y-132328993D01*
X109505583Y-115263103D02*
X109555865Y-115307902D01*
X109701226Y-115347219D01*
X109796306Y-115341736D01*
X109936185Y-115285973D01*
X110025783Y-115185410D01*
X110067841Y-115087589D01*
X110104416Y-114894688D01*
X110096193Y-114752067D01*
X110037688Y-114564648D01*
X109984666Y-114472309D01*
X109884104Y-114382711D01*
X109738742Y-114343395D01*
X109643662Y-114348877D01*
X109503783Y-114404640D01*
X109458984Y-114454922D01*
X108560264Y-115413006D02*
X109130745Y-115380112D01*
X108845504Y-115396559D02*
X108787940Y-114398218D01*
X108891244Y-114535355D01*
X108991807Y-114624953D01*
X109089628Y-114667011D01*
X93804458Y-115332689D02*
X93859555Y-115371412D01*
X94008472Y-115393761D01*
X94102292Y-115377387D01*
X94234834Y-115305915D01*
X94312280Y-115195721D01*
X94342816Y-115093714D01*
X94356978Y-114897887D01*
X94332416Y-114757157D01*
X94252758Y-114577705D01*
X94189474Y-114492072D01*
X94079280Y-114414626D01*
X93930363Y-114392277D01*
X93836543Y-114408652D01*
X93704000Y-114480123D01*
X93665277Y-114535220D01*
X92882632Y-115590251D02*
X93445552Y-115492006D01*
X93164092Y-115541129D02*
X92992163Y-114556019D01*
X93110544Y-114680375D01*
X93220739Y-114757821D01*
X93322746Y-114788357D01*
X78148459Y-115481504D02*
X78207416Y-115514050D01*
X78357876Y-115520185D01*
X78449379Y-115493774D01*
X78573427Y-115408406D01*
X78638519Y-115290492D01*
X78657860Y-115185784D01*
X78650789Y-114989573D01*
X78611173Y-114852319D01*
X78512600Y-114682519D01*
X78440437Y-114604222D01*
X78322524Y-114539130D01*
X78172064Y-114532995D01*
X78080561Y-114559406D01*
X77956512Y-114644773D01*
X77923966Y-114703730D01*
X77259842Y-115837116D02*
X77808859Y-115678650D01*
X77534351Y-115757883D02*
X77257036Y-114797104D01*
X77388155Y-114907947D01*
X77506069Y-114973039D01*
X77610777Y-114992379D01*
X86860391Y-104945411D02*
X86916742Y-104982286D01*
X87066318Y-104999685D01*
X87159544Y-104980209D01*
X87289644Y-104904383D01*
X87363394Y-104791682D01*
X87390530Y-104688718D01*
X87398192Y-104492529D01*
X87368978Y-104352691D01*
X87283413Y-104175978D01*
X87217325Y-104092491D01*
X87104624Y-104018741D01*
X86955048Y-104001342D01*
X86861822Y-104020818D01*
X86731722Y-104096644D01*
X86694847Y-104152995D01*
X85947613Y-105233395D02*
X86506965Y-105116540D01*
X86227289Y-105174967D02*
X86022793Y-104196100D01*
X86145232Y-104316462D01*
X86257933Y-104390212D01*
X86360897Y-104417349D01*
X102109612Y-104912863D02*
X102161947Y-104955244D01*
X102309000Y-104987670D01*
X102403716Y-104977715D01*
X102540813Y-104915424D01*
X102625574Y-104810752D01*
X102662977Y-104711058D01*
X102690425Y-104516648D01*
X102675493Y-104374574D01*
X102608224Y-104190118D01*
X102550911Y-104100380D01*
X102446240Y-104015618D01*
X102299187Y-103983193D01*
X102204471Y-103993148D01*
X102067374Y-104055439D01*
X102024993Y-104107774D01*
X101172403Y-105107131D02*
X101740701Y-105047400D01*
X101456552Y-105077265D02*
X101352024Y-104082744D01*
X101461673Y-104214863D01*
X101566344Y-104299624D01*
X101666038Y-104337027D01*
X109580828Y-87285436D02*
X109630637Y-87330759D01*
X109775579Y-87371596D01*
X109870711Y-87367109D01*
X110011167Y-87312814D01*
X110101813Y-87213195D01*
X110144893Y-87115819D01*
X110183486Y-86923311D01*
X110176757Y-86780613D01*
X110120218Y-86592591D01*
X110068165Y-86499702D01*
X109968547Y-86409056D01*
X109823605Y-86368219D01*
X109728472Y-86372706D01*
X109588017Y-86427001D01*
X109542694Y-86476811D01*
X108633991Y-87425431D02*
X109204785Y-87398513D01*
X108919388Y-87411972D02*
X108872281Y-86413083D01*
X108974143Y-86551295D01*
X109073762Y-86641941D01*
X109171137Y-86685021D01*
X94014124Y-87329923D02*
X94067978Y-87370357D01*
X94216119Y-87397372D01*
X94310407Y-87383953D01*
X94445130Y-87316681D01*
X94525999Y-87208973D01*
X94559723Y-87107976D01*
X94580029Y-86912690D01*
X94559900Y-86771258D01*
X94485918Y-86589392D01*
X94425355Y-86501814D01*
X94317648Y-86420945D01*
X94169506Y-86393930D01*
X94075218Y-86407349D01*
X93940496Y-86474622D01*
X93900061Y-86528475D01*
X93084664Y-87558402D02*
X93650392Y-87477887D01*
X93367528Y-87518145D02*
X93226626Y-86528121D01*
X93341043Y-86656134D01*
X93448750Y-86737003D01*
X93549748Y-86770728D01*
X102166789Y-76935093D02*
X102218377Y-76978381D01*
X102364841Y-77013368D01*
X102459717Y-77005067D01*
X102597880Y-76945179D01*
X102684455Y-76842003D01*
X102723592Y-76742977D01*
X102754429Y-76549075D01*
X102741978Y-76406761D01*
X102677939Y-76221160D01*
X102622201Y-76130435D01*
X102519025Y-76043860D01*
X102372561Y-76008873D01*
X102277685Y-76017173D01*
X102139522Y-76077062D01*
X102096234Y-76128650D01*
X101226333Y-77112975D02*
X101795587Y-77063171D01*
X101510960Y-77088073D02*
X101423804Y-76091878D01*
X101531131Y-76225891D01*
X101634307Y-76312466D01*
X101733333Y-76351604D01*
X109861098Y-62944194D02*
X109910589Y-62989864D01*
X110055242Y-63031711D01*
X110150404Y-63027889D01*
X110291235Y-62974575D01*
X110382574Y-62875592D01*
X110426333Y-62778519D01*
X110466269Y-62586286D01*
X110460536Y-62443544D01*
X110405311Y-62255132D01*
X110353909Y-62161882D01*
X110254925Y-62070542D01*
X110110272Y-62028695D01*
X110015111Y-62032517D01*
X109874280Y-62085831D01*
X109828610Y-62135322D01*
X108913306Y-63077576D02*
X109484274Y-63054644D01*
X109198790Y-63066110D02*
X109158658Y-62066916D01*
X109259553Y-62205835D01*
X109358536Y-62297175D01*
X109455609Y-62340933D01*
M02*
